<?xml version="1.0" encoding="iso-8859-1"?>
<!-- Generator: Adobe Illustrator 19.0.0, SVG Export Plug-In . SVG Version: 6.00 Build 0)  -->
<svg version="1.1" id="Capa_1" xmlns="http://www.w3.org/2000/svg" xmlns:xlink="http://www.w3.org/1999/xlink" x="0px" y="0px"
	 viewBox="0 0 496 496" style="enable-background:new 0 0 496 496;" xml:space="preserve">
<g>
	<g>
		<g>
			<path d="M352,416v16h128v24c0,13.232-10.768,24-24,24H40c-13.232,0-24-10.768-24-24v-24h128v-16H0v40c0,22.056,17.944,40,40,40
				h416c22.056,0,40-17.944,40-40v-40H352z"/>
			<path style="fill:#330099;" d="M184,464h128c13.232,0,24-10.768,24-24v-24H160v24C160,453.232,170.768,464,184,464z M176,432h144v8c0,4.416-3.592,8-8,8
				H184c-4.408,0-8-3.584-8-8V432z"/>
			<rect x="48" y="448" width="16" height="16"/>
			<rect x="80" y="448" width="16" height="16"/>
			<rect x="112" y="448" width="16" height="16"/>
			<path d="M464,120v280h16V120c0-22.056-17.944-40-40-40h-24v16h24C453.232,96,464,106.768,464,120z"/>
			<path d="M32,120c0-13.232,10.768-24,24-24h24V80H56c-22.056,0-40,17.944-40,40v280h16V120z"/>
			<path d="M432,400h16V128c0-8.824-7.176-16-16-16h-16v16h16V400z"/>
			<path d="M48,128v272h16V128h16v-16H64C55.176,112,48,119.176,48,128z"/>
			<path style="fill:#ff6633;" d="M400,0H96v80h304V0z M384,64H112V16h272V64z"/>
			<rect x="128" y="32" width="16" height="16"/>
			<rect x="160" y="32" width="16" height="16"/>
			<rect x="192" y="32" width="16" height="16"/>
			<polygon style="fill:#ff6633;" points="400,96 384,96 384,328 112,328 112,96 96,96 96,344 400,344 			"/>
			<path d="M184,272v-24h16v-16h-16v-80h-21.2L128,230.304V248h40v24H184z M144.752,232L168,179.696V232H144.752z"/>
			<path d="M352,272v-24h16v-16h-16v-80h-21.2L296,230.304V248h40v24H352z M312.752,232L336,179.696V232H312.752z"/>
			<path d="M208,192v32c0,22.056,17.944,40,40,40c22.056,0,40-17.944,40-40v-32c0-22.056-17.944-40-40-40
				C225.944,152,208,169.944,208,192z M272,192v32c0,13.232-10.768,24-24,24s-24-10.768-24-24v-32c0-13.232,10.768-24,24-24
				S272,178.768,272,192z"/>
		</g>
	</g>
</g>
<g>
</g>
<g>
</g>
<g>
</g>
<g>
</g>
<g>
</g>
<g>
</g>
<g>
</g>
<g>
</g>
<g>
</g>
<g>
</g>
<g>
</g>
<g>
</g>
<g>
</g>
<g>
</g>
<g>
</g>
</svg>
