<?xml version="1.0" encoding="iso-8859-1"?>
<!-- Generator: Adobe Illustrator 19.0.0, SVG Export Plug-In . SVG Version: 6.00 Build 0)  -->
<svg version="1.1" id="Capa_1" xmlns="http://www.w3.org/2000/svg" xmlns:xlink="http://www.w3.org/1999/xlink" x="0px" y="0px"
	 viewBox="0 0 496 496" style="enable-background:new 0 0 496 496;" xml:space="preserve">
<g>
	<g>
		<g>
			<path style="fill:#330099;" d="M152,96c3.696,0,7.152-0.904,10.28-2.408l32.12,32.12c-1.496,3.136-2.4,6.592-2.4,10.288c0,13.232,10.768,24,24,24
				s24-10.768,24-24c0-8.704-4.704-16.272-11.664-20.48L272.2,46.592C274.656,47.44,277.256,48,280,48
				c4.52,0,8.704-1.328,12.312-3.512l29.176,19.448C320.584,66.472,320,69.16,320,72c0,13.232,10.768,24,24,24s24-10.768,24-24
				s-10.768-24-24-24c-4.52,0-8.704,1.328-12.312,3.512l-29.176-19.448C303.416,29.528,304,26.84,304,24c0-13.232-10.768-24-24-24
				s-24,10.768-24,24c0,4.608,1.368,8.88,3.632,12.536l-48.328,75.936c-1.976,0.392-3.824,1.088-5.584,1.928L173.6,82.28
				c1.496-3.128,2.4-6.584,2.4-10.28c0-13.232-10.768-24-24-24s-24,10.768-24,24S138.768,96,152,96z M344,64c4.416,0,8,3.592,8,8
				s-3.584,8-8,8c-4.416,0-8-3.592-8-8S339.584,64,344,64z M280,16c4.416,0,8,3.592,8,8s-3.584,8-8,8c-4.416,0-8-3.592-8-8
				S275.584,16,280,16z M216,128c4.416,0,8,3.592,8,8s-3.584,8-8,8s-8-3.592-8-8S211.584,128,216,128z M152,64c4.416,0,8,3.592,8,8
				s-3.584,8-8,8s-8-3.592-8-8S147.584,64,152,64z"/>
			<path style="fill:#330099;" d="M424,224.64V208c0-12.576-12.264-22.72-37.504-31.016l-5,15.2C403.24,199.328,408,206.024,408,208
				c0,5.344-13.752,13.176-40,19.76V128h-48v108.12c-5.128,0.592-10.448,1.128-16,1.6V80h-48v159.896
				c-2.68,0.032-5.256,0.104-8,0.104c-2.744,0-5.32-0.072-8-0.104V192h-48v45.712c-5.552-0.472-10.872-1.008-16-1.6V128h-48v99.76
				c-26.248-6.584-40-14.408-40-19.76c0-1.976,4.76-8.672,26.496-15.816l-5-15.2C84.264,185.28,72,195.424,72,208v16.64
				c-27.088,3.904-48,27.208-48,55.36c0,28.408,21.28,51.88,48.72,55.472C80.584,425.296,156.168,496,248,496
				s167.416-70.704,175.28-160.528C450.72,331.88,472,308.408,472,280C472,251.848,451.088,228.544,424,224.64z M72,319.192
				c-18.232-3.72-32-19.88-32-39.192s13.768-35.472,32-39.192V319.192z M336,144h16v87.256c-5.008,0.968-10.344,1.88-16,2.736V144z
				 M272,96h16v142.848c-5.168,0.296-10.52,0.528-16,0.712V96z M208,208h16v31.56c-5.48-0.184-10.832-0.416-16-0.712V208z M144,144
				h16v89.992c-5.656-0.856-10.992-1.76-16-2.736V144z M408,320c0,88.224-71.776,160-160,160S88,408.224,88,320v-90.344
				C117.832,247.624,184.712,256,248,256s130.168-8.376,160-26.344V320z M424,319.192v-78.384c18.232,3.72,32,19.872,32,39.192
				S442.232,315.472,424,319.192z"/>
			<path  style="fill:#330099;" d="M216,288h-16c0,13.232-10.768,24-24,24s-24-10.768-24-24h-16c0,22.056,17.944,40,40,40C198.056,328,216,310.056,216,288z
				"/>
			<path d="M320,328c22.056,0,40-17.944,40-40h-16c0,13.232-10.768,24-24,24s-24-10.768-24-24h-16C280,310.056,297.944,328,320,328z
				"/>
			<path d="M248,424c-32.024,0-61.808-14.512-81.712-39.808l-12.576,9.888C176.672,423.264,211.04,440,248,440
				s71.328-16.736,94.288-45.92l-12.576-9.888C309.808,409.488,280.024,424,248,424z"/>
		</g>
	</g>
</g>
<g>
</g>
<g>
</g>
<g>
</g>
<g>
</g>
<g>
</g>
<g>
</g>
<g>
</g>
<g>
</g>
<g>
</g>
<g>
</g>
<g>
</g>
<g>
</g>
<g>
</g>
<g>
</g>
<g>
</g>
</svg>
