<?xml version="1.0" encoding="iso-8859-1"?>
<!-- Generator: Adobe Illustrator 19.0.0, SVG Export Plug-In . SVG Version: 6.00 Build 0)  -->
<svg version="1.1" id="Capa_1" xmlns="http://www.w3.org/2000/svg" xmlns:xlink="http://www.w3.org/1999/xlink" x="0px" y="0px"
	 viewBox="0 0 496 496" style="enable-background:new 0 0 496 496;" xml:space="preserve">
<g>
	<g>
		<g>
			<path style="fill:#330099;" d="M0,408c0,22.056,17.944,40,40,40h64v32H72v16h224v-16h-32v-32h64c22.056,0,40-17.944,40-40v-24H0V408z M248,480H120v-32
				h128V480z M16,400h336v8c0,13.232-10.768,24-24,24H40c-13.232,0-24-10.768-24-24V400z"/>
			<rect style="fill:#330099;" x="352" y="352" width="16" height="16"/>
			<path style="fill:#330099;" d="M16,208c0-13.232,10.768-24,24-24h88v-16H40c-22.056,0-40,17.944-40,40v160h16V208z"/>
			<path style="fill:#330099;" d="M144,0v80h352V0H144z M480,64H160V16h320V64z"/>
			<rect style="fill:#330099;" x="176" y="32" width="16" height="16"/>
			<rect style="fill:#330099;" x="208" y="32" width="16" height="16"/>
			<rect style="fill:#330099;" x="240" y="32" width="16" height="16"/>
			<polygon style="fill:#330099;" points="480,320 160,320 160,96 144,96 144,336 496,336 496,96 480,96 			"/>
			<polygon style="fill:#330099;" points="266.344,114.344 188.688,192 266.344,269.656 277.656,258.344 211.312,192 277.656,125.656 			"/>
			<polygon style="fill:#330099;" points="373.656,269.656 451.312,192 373.656,114.344 362.344,125.656 428.688,192 362.344,258.344 			"/>
			
				<rect style="fill:#330099;" x="236.459" y="184.018" transform="matrix(0.2873 -0.9578 0.9578 0.2873 44.124 443.3372)" width="167.042" height="15.999"/>
		</g>
	</g>
</g>
<g>
</g>
<g>
</g>
<g>
</g>
<g>
</g>
<g>
</g>
<g>
</g>
<g>
</g>
<g>
</g>
<g>
</g>
<g>
</g>
<g>
</g>
<g>
</g>
<g>
</g>
<g>
</g>
<g>
</g>
</svg>
