<svg width="55" xmlns="http://www.w3.org/2000/svg" viewBox="0 0 214.9 141.62"><defs><style>.a{fill:#fff;}.b{fill:#f15a24;}</style></defs><title>logoFlint</title><path class="a" d="M213.71,114.52,140.72,3.8A8.89,8.89,0,0,0,134,0a9.27,9.27,0,0,0-7.24,2.52L64.48,64.81a6.86,6.86,0,0,0-1.85,6.82,7.93,7.93,0,0,0,5.17,5.18L89.93,84.6a9.47,9.47,0,0,0,9.74-2L117.4,64.72l37.48,49.65a9,9,0,0,0,6.83,3.4l7,.3c1.51.07,5,.23,7-2.48,1-1.39,1.68-3.74-.7-7l-39.41-59.8c-.1-.2-.34-.81-.45-1.07l-.16-.4L137,45.39l46.67,71a8.45,8.45,0,0,0,4.14,3.2l15.06,5.58a9.87,9.87,0,0,0,3.51.62,9.1,9.1,0,0,0,6.06-2.3A6.79,6.79,0,0,0,213.71,114.52Z"/><path class="b" d="M200.8,130.38l-17.44-6.25c-.45-.16-1.38-.5-18.38-1.63l-96.62-6.37L85,99.84c3.13-3,3.24-5.66,2.78-7.32a6.38,6.38,0,0,0-4.26-4.22L62,80.58c-1.64-.59-7.24-2.26-10.7.9L2.39,128.05A6.81,6.81,0,0,0,.8,136.42a8.76,8.76,0,0,0,7.86,4.43l176.64.76h.39c15.64-.66,18.37-1.9,19.12-5.55C205.21,134.1,204.37,131.59,200.8,130.38Z"/></svg>