<?xml version="1.0" encoding="iso-8859-1"?>
<!-- Generator: Adobe Illustrator 19.0.0, SVG Export Plug-In . SVG Version: 6.00 Build 0)  -->
<svg version="1.1" id="Layer_1" xmlns="http://www.w3.org/2000/svg" xmlns:xlink="http://www.w3.org/1999/xlink" x="0px" y="0px"
	 viewBox="0 0 496 496" style="enable-background:new 0 0 496 496;" xml:space="preserve">
<g>
	<path style="fill:#330099;" d="M448,128H160c-13.232,0-24,10.768-24,24v8.408c-62.44,4.152-112,56.128-112,119.6V296
		c0,65.824,53.288,119.392,118.984,119.952C159.496,462.504,203.856,496,256,496h96c66.168,0,120-53.832,120-120V152
		C472,138.768,461.232,128,448,128z M136,351.36c-27.096-3.904-48-27.208-48-55.36v-16c0-28.152,20.904-51.456,48-55.36V351.36z
		 M40,296v-16c0-54.648,42.392-99.488,96-103.6v32.064c-35.944,4-64,34.536-64,71.528v16c0,36.992,28.056,67.528,64,71.528V376
		c0,8.12,0.832,16.048,2.376,23.712C83.648,396.76,40,351.44,40,296z M456,376c0,57.344-46.656,104-104,104h-96
		c-57.344,0-104-46.656-104-104v-8v-16V152c0-4.408,3.592-8,8-8h176c8.824,0,16,7.176,16,16v112h16V160
		c0-5.856-1.696-11.272-4.448-16H448c4.408,0,8,3.592,8,8V376z"/>
	<path style="fill:#330099;" d="M312,36c0,19.848,16.152,36,36,36h24c11.024,0,20,8.976,20,20v20h16V92c0-19.848-16.152-36-36-36
		h-24c-11.024,0-20-8.976-20-20c0-19.848-16.152-36-36-36H176v16h116C303.024,16,312,24.976,312,36z"/>
	<rect x="216" y="72" style="fill:#333333;" width="16" height="16"/>
	<rect x="176" y="72" style="fill:#333333;" width="24" height="16"/>
	<path style="fill:#330099;" d="M248,60c0,15.44,12.56,28,28,28h8c6.616,0,12,5.384,12,12v12h16v-12c0-15.44-12.56-28-28-28h-8
		c-6.616,0-12-5.384-12-12c0-15.44-12.56-28-28-28h-60v16h60C242.616,48,248,53.384,248,60z"/>
</g>
<path style="fill:#ff6633;" d="M416,424H304V320c0-30.872,25.128-56,56-56s56,25.128,56,56V424z"/>
<path style="fill:#333333;" d="M360,344c-13.232,0-24-10.768-24-24s10.768-24,24-24s24,10.768,24,24S373.232,344,360,344z M360,312
	c-4.408,0-8,3.592-8,8s3.592,8,8,8s8-3.592,8-8S364.408,312,360,312z"/>
<g>
</g>
<g>
</g>
<g>
</g>
<g>
</g>
<g>
</g>
<g>
</g>
<g>
</g>
<g>
</g>
<g>
</g>
<g>
</g>
<g>
</g>
<g>
</g>
<g>
</g>
<g>
</g>
<g>
</g>
</svg>
