<svg xmlns="http://www.w3.org/2000/svg" viewBox="0 0 633.08 284.14"><defs><style>.a{fill:none;}.b{fill:#fefefe;}.c{fill:#f7f4fe;}.d{fill:#010004;}.e{fill:#a174fc;}.f{fill:#bb9bfe;}.g{fill:#e7dcfe;}.h{fill:#d4c0fe;}.i{fill:#8a58ef;}.j{fill:#f4f0fe;}.k{fill:#c8affe;}.l{fill:#3b0b9d;}.m{fill:#b089fe;}.n{fill:#e0d1fe;}.o{fill:#703dd5;}.p{fill:#cfb9fd;}.q{fill:#2b037e;}.r{fill:#f3eefe;}.s{fill:#efe9fe;}.t{fill:#bc9dfd;}.u{fill:#cdb6fe;}.v{fill:#d0bafe;}.w{fill:#ddcdfe;}.x{fill:#060111;}.y{fill:#dfd1fe;}.z{fill:#f3effe;}.aa{fill:#bb9afe;}.ab{fill:#d6c2fe;}.ac{fill:#d1bbfe;}.ad{fill:#c6abfe;}.ae{fill:#10012f;}.af{fill:#0e051f;}.ag{fill:#3e1198;}.ah{fill:#0e0227;}.ai{fill:#b795fe;}.aj{fill:#ece4fe;}.ak{fill:#110725;}.al{fill:#a175fb;}.am{fill:#5727b9;}.an{fill:#6331c9;}.ao{fill:#7e4ce0;}.ap{fill:#1e064f;}.aq{fill:#3e0e9f;}.ar{fill:#d2bdfe;}.as{fill:#e1d4fe;}.at{fill:#c0a2fe;}.au{fill:#e8defe;}.av{fill:#dbcbfe;}.aw{fill:#e5dafe;}.ax{fill:#c6acfe;}.ay{fill:#ceb6fe;}.az{fill:#9767f6;}.ba{fill:#b08afe;}.bb{fill:#210163;}.bc{fill:#4513aa;}.bd{fill:#0d0125;}.be{fill:#24016b;}.bf{fill:#521fb7;}.bg{fill:#23016a;}.bh{fill:#bd9dfe;}.bi{fill:#8654eb;}.bj{fill:#cab0fe;}.bk{fill:#6b38d1;}.bl{fill:#a173fd;}.bm{fill:#d5c2fe;}.bn{fill:#622fc8;}.bo{fill:#3e0ba3;}.bp{fill:#5321b9;}.bq{fill:#f9f7fe;}.br{fill:#dfd0fe;}.bs{fill:#e4d9fe;}.bt{fill:#d3bffe;}.bu{fill:#ac83fe;}.bv{fill:#6634cc;}.bw{fill:#5322b7;}.bx{fill:#380899;}.by{fill:#1a014f;}.bz{fill:#34078f;}.ca{fill:#6c39d2;}.cb{fill:#af89fe;}.cc{fill:#b592fe;}.cd{fill:#ac84fe;}.ce{fill:#cfb9fe;}.cf{fill:#e5d9fe;}.cg{fill:#5926bf;}.ch{fill:#6d3bd3;}.ci{fill:#8250e8;}.cj{fill:#9b6bfc;}.ck{fill:#f63;}</style></defs><title>panel2</title><path class="a" d="M90.54,172.51a5,5,0,0,1,.47-.41A1.18,1.18,0,0,0,90.54,172.51Z"/><path class="a" d="M317.91,186.28a2.34,2.34,0,0,0-.54.23Z"/><path class="a" d="M119.37,113.45h0l0,.07Z"/><path class="a" d="M133.12,106.92l-.05,0,0,.1Z"/><path class="a" d="M133.93,90.9,134,91c0-.06,0-.12,0-.18Z"/><path class="a" d="M71,276h0l-.25,0s.05.08.08.13L71,276Z"/><path class="a" d="M182.92,251l0,.1L183,251Z"/><path class="a" d="M225.1,243.73c.28-.07.55-.16.82-.26q-.82.16-1.63.36l.39,0Z"/><path class="a" d="M232.07,240h0v0l0,0Z"/><path class="a" d="M24.23,282.33c0-.13.14-.1.48-.13h.07a11.06,11.06,0,0,0,1-.67L24,282.2c-.43,0-.08.38.1.37l0,0S24.25,282.45,24.23,282.33Z"/><path class="a" d="M201,241l.37-.07a3.82,3.82,0,0,1-.16-.36A3.14,3.14,0,0,0,201,241Z"/><polygon class="a" points="201.04 241.01 201.04 241.01 201.03 241.01 201.04 241.01"/><circle class="b" cx="586.34" cy="90.42" r="1.15"/><path class="b" d="M602.17,83.91l-4.56,4.56a2.19,2.19,0,0,0-1.06-.3,2.24,2.24,0,0,0-1.53.62l-4.68-3.64a.94.94,0,1,0-1.16,1.48l5.11,4a2.25,2.25,0,0,0,4.49-.12,2,2,0,0,0-.09-.44l4.81-4.8a1,1,0,1,0-1.33-1.33Z"/><path class="b" d="M596.55,99.48a1.15,1.15,0,1,0,1.15,1.15A1.15,1.15,0,0,0,596.55,99.48Z"/><path class="b" d="M589.18,80.3A12.24,12.24,0,0,1,598.38,78v-4H570.06V96.63h15.61a12.49,12.49,0,0,1,1.47-14.47h-1.7V78.42h3.73ZM576.65,94h-3.74V90.25h3.74Zm0-5.91h-3.74V84.33h3.74ZM582.92,94h-3.74V90.25h3.74Zm0-5.91h-3.74V84.33h3.74Zm0-5.92h-3.74V78.42h3.74Z"/><circle class="b" cx="606.76" cy="90.42" r="1.15"/><path class="b" d="M602.44,66.11l-2.82-1.44.58-2.38a32.55,32.55,0,0,0,1-7.79c0-25.71-30.35-46.63-67.65-46.63-24,0-46.37,8.91-58.47,23.26l-3,3.61-5-2.32a54.28,54.28,0,0,0-22.57-4.72c-22.46,0-40.72,12.6-40.72,28.09V59.4l-5.2.47c-24.16,1.44-43.09,15.68-43.09,32.4,0,18,21.19,32.55,47.22,32.55H574.44c26,0,47.22-14.6,47.22-32.55C621.66,81.87,614.65,72.33,602.44,66.11Zm-182.06,41.7H409v-3.52h-4.15v3.52h-5.18v6h5.18v8.64H393.48v-8.64h4.83v-6h-4.83v-3.52h-4v3.52H378.12V99.16H389.5v3.76h4V99.16h4.83v-7.9h-4.83V82.61h11.37v8.64h-5.18v7.9h5.18v3.76H409V99.16h11.37ZM432.21,84l-1.06-.2a1.1,1.1,0,0,1-.87-1.4L432.93,73H419.26A2.26,2.26,0,0,1,417,70.72V45.83a2.26,2.26,0,0,1,2.26-2.26H436a2.4,2.4,0,0,1-.31-1.13,2.45,2.45,0,1,1,4.91,0,2.39,2.39,0,0,1-.31,1.13H457a2.26,2.26,0,0,1,2.25,2.26V70.72A2.27,2.27,0,0,1,457,73H443.32L446,82.35a1.1,1.1,0,0,1-.87,1.4l-1.05.2a1.37,1.37,0,0,1-1.54-1l-2.85-10h-3.08l-2.84,10A1.38,1.38,0,0,1,432.21,84Zm29.3,37.94a2,2,0,0,1-2.86,0h0l-9.4-9.44-1.59,1.59,1,1-1.61,1.61-.5-.5c-.55,1.45-4.55,5.45-6,6l.5.5-1.61,1.61-3.7-3.7,1.61-1.61.5.5c.56-1.45,4.55-5.45,6-6l-.5-.5,1.61-1.61,1,1,1.59-1.59-4.31-4.33,0,0h-5.46l-1.54-5.74.61-.61,3,3,3-3-3.05-3,.61-.61,5.74,1.54,0,5.61,4.23,4.25,4.26-4.27,2.46-3.81L460,98.36l1.76,1.76-1.52,2.73-3.81,2.46-4.27,4.27,9.4,9.44h0A2,2,0,0,1,461.51,121.89ZM580.77,38.56l-7.88,16A3.6,3.6,0,0,1,570,56.35h-29.3a1.17,1.17,0,0,1-1.14-1.83l7.88-16a3.59,3.59,0,0,1,2.94-1.83h29.3A1.17,1.17,0,0,1,580.77,38.56Zm-42.07-5.22a2,2,0,0,1,2-2h9V30.1A3.07,3.07,0,0,1,552.79,27H558a3.06,3.06,0,0,1,3.06,3.06v1.19h9a2,2,0,0,1,2,2v1.36H550.33a5.65,5.65,0,0,0-4.77,3l-6.86,13.89ZM501.9,42.26h2.62l-8.31,22.15h-2.6ZM479,51.43l12.5-6.78v4.44l-8.71,4.19,8.71,4.34V62L479,55.2Zm40.32,56.52a2.8,2.8,0,0,1-2.8,2.8h-13.2a2.81,2.81,0,0,1-2.8-2.8v-5.63h-2.56v11.26a3.19,3.19,0,0,1-3.19,3.18h-7.08a3.19,3.19,0,0,1-3.18-3.18V102.31h-3.57A3.88,3.88,0,0,1,477,98.44V82.1a3.88,3.88,0,0,1,3.87-3.87h27.95a3.89,3.89,0,0,1,3.87,3.87V93.34h3.77a2.81,2.81,0,0,1,2.8,2.8Zm.55-52.76L507.32,62V57.61L516,53.3,507.32,49V44.64l12.5,6.79Zm17.61,39a4.13,4.13,0,0,1-.16,1.08l7.06,3.61a4.39,4.39,0,1,1-.72,1.4l-7-3.6a4.16,4.16,0,1,1-.06-5.05l7.06-3.61a4.12,4.12,0,0,1-.16-1.08,4.19,4.19,0,1,1,.85,2.49l-7,3.6A4.1,4.1,0,0,1,537.44,94.24ZM596.55,103a12.46,12.46,0,0,1-7.82-2.75H569.46a2.63,2.63,0,0,1-2.63-2.63V68.06a2.63,2.63,0,0,1,2.63-2.63H599a2.63,2.63,0,0,1,2.63,2.63V79a12.53,12.53,0,0,1-5.06,24Z"/><circle class="b" cx="492.01" cy="96.29" r="0.86"/><rect class="b" x="486.88" y="98.76" width="8.63" height="15.26"/><circle class="b" cx="494.49" cy="96.29" r="0.87"/><circle class="b" cx="504.73" cy="81.34" r="1.13"/><polygon class="b" points="297 198.01 297 198.01 297 198.01 297 198.01"/><path class="b" d="M7.92,245.15c6.24-1.39,10.92,3.36,16.47,3,4.25-.3,9.09,3.88,12.9-1.52.78-1.11,1.57.33,1.75,1.36h0c5.74-.9,11.28,1.41,17,1h2c5.11.56,10.23,1.06,15-1.41,1-.5,2.07-.79,2.77,0,6.29,7.19,14.1,4.78,21.8,3.75,2.42-.32,5.19-2.13,7.41.65l2,0h0c6.39-4.06,14.25-.07,20.81-3.81,1.19-.68,3.43.49,5.19.81,3.8-1.07,6.57-4.25,10.69-4.88,3.23-.49,6.32-2.28,9.43.28a1.6,1.6,0,0,0,2.27-.2c2.73-4.55,7.44-2.55,11.24-3.54.48-.12,1.12-.5,1.41-.32,7.32,4.53,13.32-3,20.25-2.17,5.39.64,10.44-1.86,15.76-2.08,2-1.87,4,.39,6-.07h0c4.69-4.7,10.53-6.62,17-7h0l2.82-5.75c2.65,2.33-.28,4.81.69,7.36,3.83-3.59,8.25-4.4,13.22-5.12,4.57-.66,9.27-2.75,13.8-4.8,8.09-3.66,16.87-6.49,26.07-5.22,2.4.33,3.73-1.09,5.47-1.67C294,212.21,299,211.94,304,211h0c3.63-2,8-5.07,11.09-5.21,5.18-.23,9.71-2.39,14.66-2.72a12.94,12.94,0,0,0,6.83-2.38,4.31,4.31,0,0,1,5.47.28,13.49,13.49,0,0,0,2.38.57c6.81.39,9.76-3.42,7.48-9.67a21.47,21.47,0,0,0-4.71-7.91c-9.43-1.2-18.53,2.06-27.87,2.12a5.31,5.31,0,0,0-1.43.23l-.54.23a.56.56,0,0,0-.26.27c-1.38,4.6-4.56,3.82-8.13,3.33-3.41-.46-5.73,2.21-7.89,4.45-1.26,1.32-2.27,2.83-4.09,3.44l1.87,6.71c-2.85-.23-2.72-2.13-3-3.69-1.68-3.84-.8-8.86-5.93-11.16-1.49-.67.28-1.64,1.47-1.87,8.24-1.64,16.75-2.53,24.6-5.28A45,45,0,0,1,329,180c-1.39,0-2-1-2.59-2-2-3.4-3.88-6.57-7.82-1.74-1,1.25-2-.34-2.82-1-1.5-1.21-2.46-3.2-4.75-3.27h0a3.11,3.11,0,0,1-4.15,1.77c-11.34-4-20.45,1.94-29.79,6.72-2.47,1.26-4.59,3.23-7.08,4.42-1.56.75-2.68,1.39-2.25,3.19s2,1.77,3.58,1.93c3,.33,6-2.31,9.63-.07-3.48,2-6.75,3.25-10.4,3-4-.27-7.53,1.4-11.08,2.59-2.68.9-4.07,3.7-4.53,6.73a4.93,4.93,0,0,1-4.15,4.42c-2.41.26-2.32-2.31-3-3.92-1-2.39-2.22-4.35-5.05-5-4.34-1.05-8.58-3.29-12.92-3.45-9.77-.35-19.63-1.39-29.34.66-5.26,1.11-7.23,4.41-6,9.85a11.93,11.93,0,0,1-.35,7.67c-1.36-3.43-1.51-6.27-3.12-8.48-3.67-8.87-11-11.84-19.86-12-6.85-.11-13.29-2.61-20.06-3.25-7.3-.68-14.62-1.69-21.87-2.42-12.44-1.26-25-2.17-37.63-1.42a25.58,25.58,0,0,1-7.32-1.08c-8.56-2.07-16.7,1.92-25.12,1.21a11.12,11.12,0,0,1-6.9-2.72c-4.23-3.48-10.43-4.54-15.44-3.78-8.21,1.26-16.16,4.47-24.1,7.22-4.25,1.47-5,4.55-2.8,8.62,2.59,4.78.48,13.24-3.89,15.61l-6,1v36C3,248.17,5.33,245.72,7.92,245.15Z"/><path class="c" d="M6,210c4.37-2.38,6.48-10.83,3.89-15.61-2.2-4.07-1.45-7.14,2.8-8.62,7.93-2.75,15.88-6,24.1-7.22,5-.77,11.21.3,15.44,3.78a11.12,11.12,0,0,0,6.9,2.72c8.42.72,16.56-3.27,25.12-1.21a25.58,25.58,0,0,0,7.32,1.08c12.59-.75,25.19.16,37.63,1.42,7.25.74,14.57,1.74,21.87,2.42,6.78.64,13.21,3.14,20.06,3.25,8.9.14,16.18,3.11,19.86,12,.9-5-3-7.59-5.49-10.86,3-3.08,6.8-5,10.49-7.13h0c-5.26-3.86-11.12-1.95-16.73-1.49-2.82.23-5.58.86-8.33-.09-1.45-.5-3.86-.4-3.49-2.72.32-2,2.72-2.35,4.09-2,5.49,1.25,10.84-.26,15.57-2a65.86,65.86,0,0,1,12.7-2.94c6.43-1.05,12.56,1.45,19,.56,3.58-.5,1.79,2.83,1.19,4.73l10-3c2.67-3.35,5.32-.62,8,0h1c6.68-5.23,14.06-9.42,22.59-9.79,6-.26,12.06-1.93,18.14-.27,1.82.49,3.4.62,2.26,3.06,1.91-1.17,5.12.24,6-3a2.08,2.08,0,0,0-1-2h0a81.39,81.39,0,0,0-8.68-1.95c-9-1.06-18.12.1-27.18.15a10,10,0,0,0-9,5.15c-1.37,2.46-3.67,4.76-7.11,4.64-1.1,0-2.28.18-3-1-7.83-3.27-16.09-3.3-24.34-2.93-4.33.19-7.51-2.21-11.09-3.81-1.87-.84-1.14-2-.57-3.26-6.68,0-13.38-.22-20,1,3.93,7.93.87,12.33-9,13A20.84,20.84,0,0,0,161,186.19c-.71,2.5-1.48,1.51-2-.21-3.21,1.2-6.33.87-9.69.17-8.21-1.72-16.5-3-24.69-4.94-4.53-1.09-4.73-2.3-1.56-5.15h0c-3.63-.91-7.63,2-11.06-1.08h-1.9c-2.33,3.81-4.69.65-7,0-.18,1-5.22-2.21-1.76,2,1,1.18,0,1.86-1.17,1.88-1.42,0-3.81.29-3.33-1.73.79-3.33-2-3.52-3.43-4.61A2.38,2.38,0,0,0,91,172.1a5,5,0,0,0-.47.41,2.37,2.37,0,0,0-.15,1.88c1,4.09-1.9,3.89-4,3.51-4.37-.79-8.61-2.25-13-3.23-7.57-1.71-14.92-4.36-22.78-4.86a12.33,12.33,0,0,1-6.54-2.1c-2.38-1.72-4.77-2.85-7.34.37-1.37,1.72-3.25.84-4-1.35-1.43-4.1-4.8-4.92-8.22-3.78a22.3,22.3,0,0,1-9.6.81c-1.15-2.11,2.21-1.39,1.43-3.31-1.71-.11-4.79,1.55-5-1.63s-1.75-6.91,1.6-9.76A58.67,58.67,0,0,0,24.68,136c.26-.41.67-1.05,1-1.05,8.7,0,12.54-11.46,22.4-9.19,3.3.76,3.29-2.92,2.84-5.06-.8-3.79-1.51-7.17,3-9.19.88-.4,1.53-1.86.81-2.59-3.68-3.73.14-4.79,2.21-6.16a57.48,57.48,0,0,1,22.43-8.65c4.12-.69,11.89,4.29,13.23,9.47,1.07,4.12,4.63,7.33,4,11.93,0,.15,0,.41.15.46,8.89,4.25,5.71,13.54,8.64,20.67-3.81.25-5.79,1.11-2.42,5.11,1.94,2.31,2.39,5.86,6.08,6.59.26.05.66.45.65.67-.32,6.76,4.65,4.82,8.24,4.94a9.35,9.35,0,0,1,5.48,1.8c5.57,3.94,12.53,3.78,18.81,5.64,5.91,1.76,11.14,4.07,15.36,8.62a25.2,25.2,0,0,0,7.41,5c2-3.78,5.83-6.94,4-12-10.56-4.1-20.8-9.07-32.06-11.21a9.15,9.15,0,0,1-5.62-2.87c-1.84,3.93-4,1.06-6.58.43,2.32-2.37,4.46.62,6.3-.57h0a4.08,4.08,0,0,1-.89-3.74c2.11-6.26,0-11.86-3.28-16.92-1.56-2.39-2.39-4.49-1.91-7.19-1.4,1-2.39.59-3.09-.87h0c-2.8-2.43-4.2-5.72-6.1-9.57a4.39,4.39,0,0,1,3.24,2.43,3.53,3.53,0,0,0,.3.5h0c-.1-.16-.2-.33-.3-.51.4-.28,1.19-.65,1.15-.82-1.23-5.07,3-8.59,3.66-13.11.07-.49,0-1.21.25-1.43,5.12-4,3.76-9.46,3.72-14.87,0-3.57-3.38-4.77-3.81-7.7h0c-3.93-4.78-6.56-5.35-11.84-2-2.77,1.76-5.12,4.18-7.81,6.1C101,81.5,97.85,84.72,93,83h0c-19.62,8.2-40.83,11.88-60.1,21.09A2.27,2.27,0,0,0,35,105h0c1.49.26,3.24-.71,4.55,1-1.28,1.72-3.05.73-4.52,1h0c.1,3.5-1.19,5.82-5.06,6L29,114c.41,4.54,5.34,2.1,7.19,4.73-2.34,1.78-4.79.6-7.18.33l-3,0c-5.15,1.78-4,8.26-8.12,10.84L14.09,131h0c2.47,5.81,1.4,12.54-2.13,15.92-1.54,1.48-4.79-.26-4.93,3a19.41,19.41,0,0,0,1.36,2.54c1.53,2.08,2,3.5-1.49,3.5C4,156,3,157,5.86,159.11c1.57,1.17.66,2.27-.44,2.51C3.14,162.12,1.92,164,0,165v5c5.06-.68,10.15-1.2,15.17-2.11,2.68-.49,6.14-1.59,6.9,1.41.88,3.49-2,6.42-4.92,8.47a6.84,6.84,0,0,1-3.28,1.1c-5.39.36-9,4.68-13.87,6.13v5C8.32,191.72,12.29,201.88,6,210Zm110.22-69c1.73.2,4.09,0,4.49,2.55.24,1.51-1.51,1.62-2.58,1.38-2-.44-4.78-.12-5.31-2.55C112.55,141,114.75,141.07,116.25,141ZM72.84,177.05c2.36,0,5-.66,7,2.35a12.91,12.91,0,0,1-7.29.25c-.7-.17-1.79-.43-1.66-1.45S72,177,72.84,177.05Z"/><path class="d" d="M39,282.91q19.94-.06,39.88.16a130.81,130.81,0,0,0,18.32-1l29.93-2.89h0c4.17,0,8.26.78,12.35-1.8,1.26-.8,4.21-1.06,6.37-1.48a168.85,168.85,0,0,1,20.85-2.84c8.33-.58,16.29-3.27,24.22-5.4,8.41-2.27,17.08-4.41,24.67-9.47,5.93-4,12.11-7.72,19.06-9.91,7.42-2.34,15.32-2.83,22.52-6h0c-1.71-2.17-4.35-.13-6.26-1.37h0l-3.78.12c-5.38,1.61-10.71,3.48-16.18,4.71-2.16.49-3.72,2-5.83,2.33h0c-2.88,1.91-5.15,4.92-9,5-.94,1.53-2.55,2.14-4,2.93h0c-6,3.13-12.22,5.45-19,6-5.19,2-10.74,2.59-16.1,3.92a.74.74,0,0,1-.49,0c-7.3-4.43-14.94-1.08-22.43-1-9.7,2.41-19.54,4.27-29.08,7.37a45,45,0,0,1-8.22,1.63c-12.68,1.61-25.57,1.71-38.12,3.49-11.71,1.66-23.8.13-35.17,4.2-1.41.51-3.14.78-4.3-.29-2.4-2.22-4.19-.73-6.09.63a2.18,2.18,0,0,0-1,2h2C35.3,281.93,37.36,282.91,39,282.91Z"/><path class="e" d="M11.21,280.22c2.56-.73,5.36-.9,7.14-2.93,3.1-3.54,9.54-3.27,10.45-9.25.05-.34.72-.74,1.16-.84a60.86,60.86,0,0,1,16.83-.92,7.13,7.13,0,0,0,2.8,0c7.16-2.19,14,.65,21,1s14.21,1.51,21.49-.19c5.07-1.18,10.65-.13,16-.08h0c7.92-1.93,16.24-2,23.92-5.09,2.6-4.88,8.26-4,11.88-4.42,9.27-1.1,17.95-4.53,27.14-5.51h0c4,.35,8.09,1.35,11.89-.92l0-.1c-7.88-1.43-15.8-.26-23.36,1.29-6.24,1.28-12.45,2.87-18.77,4s-12.36,3.78-19.23,4.36c-8.8.74-17.77.74-26.53,2.35h0l-1.94.08h0c-3.49,1.72-7,2.45-10.93,1.23-3.63-1.12-7.47.06-11.25-.09-6.62-.27-13.16-1.25-19.74-1.5-7.42-.28-15.32-1.32-22.15,1.2-3.87,1.43-10.61,1.73-11.19,8.76-.23,2.76-3.18,4.36-5.18,3.19C7.53,272.82,4,276.27,0,278v3C3.66,279.71,7.42,281.31,11.21,280.22Z"/><path class="f" d="M12.66,275.84c2,1.17,5-.43,5.18-3.19.57-7,7.31-7.32,11.19-8.76,6.83-2.53,14.72-1.49,22.15-1.2,6.58.25,13.12,1.23,19.74,1.5,3.78.15,7.63-1,11.25.09,4,1.22,7.43.49,10.93-1.23h0c-4.14.23-8.18-2-12.42-.5-.32.11-1.08-1-1.63-1.55h0c-1.8.06-3.61-.14-5.36.64-4.38,2-8.65,1.9-12.64-1-1.82-1.33-4.39.33-6-1.62-6.22-.8-12.42-1.6-18.66-.06-1.67.41-3.2-.51-4.76-1.11-2.6-1-5.3-3.2-7.76.51-.7,1.06-2.12.43-3.24,0-1.28-.48-3.07-.88-3.81,0-3.14,3.76-6.71,2.85-10.29,1.27C3.89,258.48,2.45,261.85,0,261v17C4,276.27,7.53,272.82,12.66,275.84Z"/><path class="g" d="M14,252.28c7.74,1.4,14.85-.44,22.16-1.79.76-.14,1.48-.09,1.67.57,1.21,4.34,4.76,2.42,7.45,2.94,5.61,1.1,11.3-.18,17.08,1.71,3.49,1.14,7.76,2.21,12.06,1.58,3.1-.45,7-2,9.63,1.71h1c1.14-1.35,2.73-2.31,4.33-1.91C96,258.74,101.44,255.61,107,253q0-.5,0-1h0l-2,0a8.85,8.85,0,0,0-2.89.52c-7.13,4.13-14.29,4.1-21.8.91-2-.87-4.48.47-6.55,1.42-.89.41-2.21,1.57-2.61.93-3.08-5-9.78-2.65-13.18-6.77H56c-4.61,3.61-12.76,3.11-17-1h0c-.18-1-1-2.47-1.75-1.36-3.81,5.39-8.65,1.22-12.9,1.52-5.55.39-10.23-4.36-16.47-3-2.59.58-4.91,3-7.88,1.85v8C4.6,253.5,9.53,251.47,14,252.28Z"/><path class="h" d="M6.52,259.64c3.58,1.58,7.15,2.49,10.29-1.27.75-.89,2.53-.5,3.81,0,1.11.42,2.54,1,3.24,0,2.46-3.7,5.16-1.5,7.76-.51,1.56.6,3.09,1.52,4.76,1.11,6.24-1.54,12.44-.74,18.66.06,2.37-1,4.74-.22,7.14-.19,4,.06,8,1.88,12.09.3,1.68-.64,3.52.37,4.78,1.87h0a5.75,5.75,0,0,0,5-2h0c-2.62-3.67-6.52-2.16-9.63-1.71-4.3.63-8.57-.44-12.06-1.58-5.78-1.89-11.47-.61-17.08-1.71-2.69-.53-6.24,1.4-7.45-2.94-.18-.65-.91-.71-1.67-.57-7.31,1.35-14.42,3.2-22.16,1.79-4.47-.81-9.4,1.22-14,2.72v6C2.45,261.85,3.89,258.48,6.52,259.64Z"/><path class="i" d="M14.7,282.46c4.7-1.59,8.16-5.18,13-6a1.8,1.8,0,0,0,.8-.56c8.42-8.22,9.4-8.54,21.09-6.87a12.79,12.79,0,0,0,1.49,0h0a19,19,0,0,1,9.67-.09c7.31,1.89,15-.49,22.3,2h0c3.69-.2,7.1-3.52,11-1a7.48,7.48,0,0,1,1,0c4.22-1.51,9-.75,13-3-5.35-.05-10.93-1.1-16,.08-7.28,1.69-14.47.55-21.49.19s-13.83-3.21-21-1a7.13,7.13,0,0,1-2.8,0,60.86,60.86,0,0,0-16.83.92c-.44.09-1.11.5-1.16.84-.91,6-7.35,5.71-10.45,9.25-1.78,2-4.58,2.2-7.14,2.93-3.79,1.08-7.55-.51-11.17.78,0,1.65-.65,3.33,2.51,3.12C8.68,283.71,14.87,284,21,284,19.37,282.09,16.91,283.69,14.7,282.46Z"/><path class="j" d="M17.19,177.77c3-2,5.8-5,4.92-8.47-.75-3-4.22-1.89-6.9-1.41C10.19,168.8,5.1,169.32,0,170v15c4.88-1.46,8.48-5.77,13.87-6.13A6.84,6.84,0,0,0,17.19,177.77Z"/><path class="k" d="M2.53,152q5.76-10.5,11.57-21h0L18,130c-1.31-3.72-4.6.49-6.56-1.92,2.14-1.8,6.44-3.18,2.58-7.12h0a20.59,20.59,0,0,0-6.88,2.17h0c-.06,2.39-2.65,4.47.26,7.32C9.24,132.26,3,141.65,0,142v13C1.4,154.46,1.89,153.2,2.53,152Z"/><path class="j" d="M0,190v21l6-1C12.29,201.88,8.32,191.72,0,190Z"/><path class="l" d="M33.05,282c.14-2.32,1.74-3.69,3.62-2.91,6.11,2.56,11.71-.66,17.42-1.37,5.12-.63,10.19-.37,15.26-.85a4,4,0,0,0,1.51-.78s-.05-.08-.08-.13c-1.32-.08-2.81.43-3.73-1.08h0A5.79,5.79,0,0,0,63,273h0A128.45,128.45,0,0,0,43,275c-2.9.5-5.18,5-8.75,1.39,0,0-.93.45-1,.79-.85,3.32-3.84,4.29-6.29,5.87h0q.08.46.13.92h5A2.18,2.18,0,0,1,33.05,282Z"/><path class="m" d="M7.35,130.41c-2.91-2.85-.32-4.93-.26-7.32h0C6.85,119.43,10.88,121,12,119q0-1.44,0-2.88h0c-4.4,2.42-8.18,5.67-12,8.88v17C3,141.65,9.24,132.26,7.35,130.41Z"/><path class="n" d="M7,150c.14-3.29,3.39-1.55,4.93-3,3.53-3.38,4.6-10.11,2.13-15.92h0Q8.31,141.54,2.53,152c-.64,1.17-1.12,2.43-2.49,3v1C4.14,156.07,6,153.55,7,150Z"/><path class="o" d="M24.23,282.33c0,.12,0,.18,0,.22.2-.11.39-.23.58-.34h-.07C24.37,282.23,24.21,282.2,24.23,282.33Z"/><path class="o" d="M26.9,283.08H23a9.63,9.63,0,0,0,1.17-.51c-.18,0-.54-.42-.1-.37l1.71-.67c4.19-3.23,6.09-9.09,12.16-10.46,4.51-1,8.81-.42,13.14-1.06q0-.49,0-1a12.79,12.79,0,0,1-1.49,0c-11.69-1.67-12.68-1.35-21.09,6.87a1.8,1.8,0,0,1-.8.56c-4.81.84-8.27,4.43-13,6,2.2,1.23,4.67-.37,6.33,1.54h6q0-.46-.13-.92Z"/><path class="p" d="M113.68,283c4.51-.62,9-1.07,13.53-1.87,2.74-.49.11-1.29-.07-1.95h0l-29.93,2.89L97,284h11C109.7,282.42,111.79,283.26,113.68,283Z"/><path class="q" d="M97.21,282.07a130.81,130.81,0,0,1-18.32,1q-19.94-.21-39.88-.16c-1.65,0-3.7-1-5,1.09H97Z"/><path class="j" d="M5.86,159.11C3,157,4,156,6.91,156c3.51,0,3-1.43,1.49-3.5A19.41,19.41,0,0,1,7,150c-1,3.55-2.9,6.07-7,6v9c1.88-1,3.11-2.88,5.38-3.37C6.52,161.39,7.43,160.28,5.86,159.11Z"/><path class="r" d="M268.76,160.09a132.22,132.22,0,0,1,13.61,2.26A8,8,0,0,1,287,165h0a2.08,2.08,0,0,1,1,2c2.28.26,4.3.47,6.33-1.46,2.88-2.73,7-1.58,10.43-2.59.55,1.19-.37,1.21-.78,1.54-1,.77-2.91.88-2.37,2.65.43,1.4,2,.89,3.08.81,3.17-.22,4.85,1.71,6.32,4h0c2.29.07,3.25,2.06,4.75,3.27.83.67,1.81,2.26,2.82,1,3.94-4.83,5.85-1.66,7.82,1.74.58,1,1.19,2,2.59,2a45,45,0,0,0-13,2.71c-7.85,2.76-16.36,3.64-24.6,5.28-1.19.24-3,1.21-1.47,1.87,5.13,2.3,4.25,7.32,5.93,11.16.2-1.08-.07-2.34,1.16-3h0c1.82-.61,2.83-2.13,4.09-3.44,2.15-2.25,4.48-4.92,7.89-4.45,3.58.49,6.76,1.27,8.13-3.33a.56.56,0,0,1,.26-.27,2.34,2.34,0,0,1,.54-.23,5.31,5.31,0,0,1,1.43-.23c9.34-.06,18.44-3.32,27.87-2.12,1-1.61,1.9,0,2.84.06h0c1.46-.83,3.25-1.19,4-3h0c-2.17-1.28-3.9-2.63-1.53-5.29.8-.9-.2-1.83-.49-2.72-2.73,1.13-5.62,2-7.91,4-4.45,3.89-9.85,3-15.07,3h0l0,0h0l0,0c-2.57-6.25-2.27-6.28,4.55-7.46,4.41-.76,9.84-.17,12-6a2.92,2.92,0,0,1,3.49-1.3,14.29,14.29,0,0,0,12.77-1.65A1.42,1.42,0,0,1,364,164c10.61-7,23.33-6,30.32,2.64-2.51-.57-4.92-1-7.24-1.68-4.23-1.28-7.72-1.56-10.75,2.9-1.62,2.38-5.35,2.59-8.35,2.06-2.37-.42-4.61.15-6.9.17-2,0-3.63,1.27-2.73,3.11,1.9,3.88-1.33,4.38-3.23,5.85,2.17.51,3.56,1.54,6.38-.65,3-2.34,7.14-3,10.44-6.36,3.78-3.89,10.36-3.43,15.92-4,2.2-.22,4,.37,4.2,3,2.72.49,5.35,1.17,6.84,3.77a2,2,0,0,0,.72-2.56c-2.09-5.31-1-7.23,4.69-8.24,1.27-.23,2.52-.62,3.78-.94h0c4.26-3,9.51-.32,14.41-2.82,2.51-1.28,8.72.8,12.76,3.69,1.07-2.43-1.45-3.84-1-6.2,2.85.68,5.8,3.48,8.71.36a27.29,27.29,0,0,0-18.38-9.88c-10.75-1.05-21.19,2.19-31.58,4.77h0c-1.7,3.13-5,4.06-7.34,2.46-3.06-2.13-6.59-2.69-9.66-4.44h0c-8.83,0-17.71-.57-26.21,2.79-1.43.56-3.25.12-4.89.14h0c-2.41,1.43-4.91,2.53-7.82,2-4.17-1.06-8.37-2.06-11-5.92-5.42.4-10.91.35-16.24,1.28C295,153.92,280.33,157.8,265,156,264.87,158.66,266,159.79,268.76,160.09Zm40.44,2.66c-2.05-.3-4.59-.71-4.78-3.42-.16-2.34,1.9-2.25,4.17-2.38,2.09-.27,3.47,1.14,3.67,3.66C312.43,162.76,310.53,162.95,309.21,162.75Z"/><path class="s" d="M104.39,79.1c2.69-1.92,5-4.34,7.81-6.1,5.28-3.35,7.92-2.78,11.84,2h0c4.48,1.15,7-1.72,10.1-4.25,2.19-1.81,3.12-3,1.57-5.56-1.17-1.93-.43-2.91,1.9-3.22,5.56-.75,6.38-2.2,5.19-8.24-.4-2-2.32-4.46,1.2-5.69-5.71-7.23-15-9.36-21,2,0,3.79.62,7.7-2.71,10.66a1.86,1.86,0,0,0-.38,1.42c.59,5-.56,6.93-5.87,4.15-1.79-.94-3.88,1.26-5.52,2.74s-2.77,3.88-5.47,4A61.15,61.15,0,0,1,93,83h0C97.85,84.72,101,81.5,104.39,79.1Z"/><path class="t" d="M440,167.67c-2.24-1.05-3.93.65-5.39,1.69-2.35,1.69-4.43,2-6.86.51a7,7,0,0,0-5.32-.75c-7.14,1.57-14.25,3.26-21.37,4.9h0l-.29,4.86c-3.24-3.41-5-1.05-6.75,1.05h0c-.89,2.37-3.54,3.17-4.73,5.27h0c.77,0,1.52-.26.91,1.17s-2.56,2.78-1.11,4.77h0c.84-2.44,3.26-2.57,5.14-3.14s3.79-1,4.79-2.95h0a4.66,4.66,0,0,1,.83-2.09c3.13,4.21,7.16-.8,10.46,1.06h0a185.8,185.8,0,0,1,23.38-5.13h0c.87-1.82,3-1.66,4.32-2.87,1.56-5.73,3-6.34,9.11-4h0c1.9-3,1-5.68-1.08-8.19C445.87,170.05,445.51,170.26,440,167.67Z"/><path class="u" d="M146.95,63.51c-.91,1.13-2.08,2.84-3.54,2.35-5.1-1.73-5.56,1.16-5.54,5,0,1-.91,1.71-1.83,2.17-2.6,1.3-3.21,3.51-3,6.2.07,1.12.21,2.76-.43,3.33-4.22,3.73-1.6,6.05,1.37,8.39l.1-.09c-.23-3.48,1.71-3.71,4.3-2.52a13.58,13.58,0,0,1,2.68,2.2c1.34,1.12,2.39,3.27,4.56,2s1.7-3.57,1.24-5.42c-.75-3-1-6.22-2.54-9.07-.52-.94-.69-2.52.28-3.29,1.31-1,2.95.07,3.4,1,1.22,2.52,5.52,2.45,5.06,6.2,2.23-7.57,1.21-14.85-2-21.92C149.14,60.62,148.09,62.08,146.95,63.51Z"/><path class="v" d="M434.28,157.75c-.48,2.36,2,3.77,1,6.2-4-2.89-10.24-5-12.76-3.69-4.9,2.5-10.15-.17-14.41,2.82h0c-1.27,4.34-2.23,8.88-7,10.95h0c7.12-1.65,14.23-3.34,21.37-4.9a7,7,0,0,1,5.32.75c2.43,1.51,4.51,1.18,6.86-.51,1.46-1,3.15-2.75,5.39-1.69,5.52,2.59,5.88,2.38,6.06-3.79-.2-2.36-1.91-3.92-3.06-5.78h0C440.08,161.23,437.13,158.43,434.28,157.75Z"/><path class="w" d="M142.8,53.73c1.19,6,.37,7.49-5.19,8.24-2.32.31-3.06,1.28-1.9,3.22,1.55,2.58.62,3.75-1.57,5.56-3.06,2.53-5.63,5.4-10.1,4.25h0c.43,2.94,3.78,4.13,3.81,7.7,0,5.41,1.4,10.83-3.72,14.87-.28.22-.18.94-.25,1.43-.62,4.53-4.89,8-3.66,13.11,0,.17-.75.54-1.15.82.1.18.2.35.3.51l0,.07c.82,1.1,2.12,1.51,2.21-.2.34-6.56,6-9.25,9.34-13.44C133.25,97,134.35,94.43,134,91c.1.16.18.32.28.48A1.43,1.43,0,0,0,134,91h0l-.11-.09c-3-2.34-5.59-4.67-1.37-8.39.64-.56.5-2.2.43-3.33-.17-2.69.44-4.9,3-6.2.92-.46,1.83-1.13,1.83-2.17,0-3.8.44-6.69,5.54-5,1.45.49,2.62-1.21,3.54-2.35,1.15-1.42,2.2-2.88,4-3.46a34.27,34.27,0,0,0-7-12h0C140.48,49.28,142.39,51.68,142.8,53.73Z"/><path class="x" d="M338.06,216h0l-8.94,1.08h0c-.64,1.22-1.81,1-2.87,1h0c-1.38,3.3-4.2,3.37-7.14,3.17-4-.65-8.08,1.55-12-.69-.58-.33-1.19-.72-1.73,0s-.15,1.52.23,2.27c.49,1,1.55,2.17.26,3-1,.64-2.45,1.64-3.67.6-3.16-2.71-4.63-1.18-5.82,1.94-.23.61-1.13.39-1.6-.24h0l-1.87-.22c-2.36.14-4.76,0-7,1l-6,2.86h0a2.83,2.83,0,0,1-2.19,2.15c-.34.1-1,.07-.71.68.16.28.81.3,1.24.43h0c6-1.43,12.06-2.72,18-4.33,5-1.36,9.95-3.28,15-4.63,8.53-2.29,17.2-4.08,25.65-6.62,2.41-.72,5.68-.51,7.18-3.44Z"/><path class="y" d="M337.11,155.95c.13-1-1-3.07.34-2.72,2.53.67,5.48-3.43,7.48.71,1.64,0,3.46.42,4.89-.14C358.33,150.43,367.2,151,376,151c-1.48-1.6-3.47-1.14-5.16-.93-4.74.59-7.18-1.44-7.79-6a15.8,15.8,0,0,0-3.89.44c-10.68,4-21.77,5.54-33.12,5.53h0C328.74,153.88,332.94,154.89,337.11,155.95Z"/><path class="z" d="M236.88,170.37c.65.89-1.32,1.64-1.84,2.63,3.45.12,5.74-2.18,7.11-4.64a10,10,0,0,1,9-5.15c9.06,0,18.13-1.21,27.18-.15A81.39,81.39,0,0,1,287,165h0a8,8,0,0,0-4.66-2.66,132.22,132.22,0,0,0-13.61-2.26c-2.74-.3-3.9-1.43-3.73-4.08-3.68.6-7.5.43-11,2,1.52,1.6,1.1,2.88-1,2.9-3.29,0-6.57-1.08-9.77.84-.67.4-1.11-.91-1.25-1.73h0c-1.38.13-2.95-.47-4,1h0C237.36,164.06,234.22,166.73,236.88,170.37Z"/><path class="aa" d="M148,75.76c-.45-.92-2.08-2-3.4-1-1,.77-.8,2.35-.28,3.29,1.57,2.85,1.79,6,2.54,9.07.46,1.85.93,4.2-1.24,5.42s-3.22-.93-4.56-2a13.58,13.58,0,0,0-2.68-2.2c-2.59-1.19-4.53-1-4.3,2.52,0,.06,0,.12,0,.18h0a1.43,1.43,0,0,1,.28.48c3.13,5.37,1.25,10.42-1.25,15.43l.05,0L137,104a5.58,5.58,0,0,0,.32-5.6c-.41-.88-.58-2.1.28-2.74,1-.76,1.7.37,2.48.9,1.32.9,2.69,1.71,4,2.56h0c4.54-4.9,7.95-10.39,8.86-17.16h0C153.47,78.2,149.18,78.27,148,75.76Z"/><path class="ab" d="M108.54,68.95c1.64-1.48,3.74-3.68,5.52-2.74,5.31,2.78,6.46.87,5.87-4.15a1.86,1.86,0,0,1,.38-1.42c3.34-3,2.76-6.87,2.71-10.66-8,6.53-14.27,14.47-20,23h0C105.77,72.83,106.87,70.46,108.54,68.95Z"/><path class="z" d="M196.6,165.26c3.58,1.6,6.76,4,11.09,3.81,8.24-.36,16.5-.33,24.34,2.93-1.41-2.69-4.19-3.67-6.51-5.22-1.09-.73-2.49-1.11-2.49-2.79H213c.26,2.94-1.65,3-3.81,3-3.16,0-6.5.38-7.19-4h0c-1.86-1.2-3.94-1-6-1C195.46,163.22,194.73,164.42,196.6,165.26Z"/><path class="ac" d="M12,119l10-2c1-4.21,4.22-3,7-3h0l.94-1c-1-4.23-.38-7.16,5.06-6h0q0-1,0-2h0a2.27,2.27,0,0,1-2.09-.92h0c-7.19,3.62-14.94,6.28-20.91,12h0Q12,117.56,12,119Z"/><path class="r" d="M225.52,166.78c2.32,1.55,5.1,2.53,6.51,5.22.72,1.17,1.9,1,3,1,.52-1,2.49-1.74,1.84-2.63-2.66-3.64.48-6.31,1.16-9.38h0c-5,.76-10.21.94-15,3h0C223,165.67,224.43,166.05,225.52,166.78Z"/><path class="ad" d="M370.87,150.07c1.69-.21,3.69-.67,5.16.93h0c2.59-.46,5.38.95,7.81-.88h0a23.8,23.8,0,0,0-20.77-6.07h0C363.69,148.63,366.13,150.66,370.87,150.07Z"/><path class="ae" d="M277.08,234.64c-.33-.61.36-.58.71-.68a2.83,2.83,0,0,0,2.19-2.15,12.45,12.45,0,0,0-6.8,2.29c-4.48,2.91-9.71,3.91-15.08,3.92-2.05,1.8-4.93,1.57-7.17,2.9,1.91,1.25,4.55-.8,6.26,1.37h0a48.53,48.53,0,0,0,21.13-7.23h0C277.88,234.94,277.23,234.92,277.08,234.64Z"/><path class="af" d="M356,210.14h0c-1.84,1.25-4.24-1.24-6,.89-2.09,2.28-5.13,2.17-7.79,2.89-1.61.44-3.14.74-4.25,2.08h0l6.1.05A47.83,47.83,0,0,0,365,207.82C361.42,206.22,359.4,210.76,356,210.14Z"/><path class="ag" d="M376,197c-2.12,3.16-5.27,4.53-8.87,5.15h0c-1.84,2.13-4.33,2.55-6.94,2.67-2.87.6-1.93,4.17-4.13,5.3h0c3.35.62,5.37-3.92,9-2.32,4.82-2.59,8.77-6.33,12.89-9.84C377.62,197,376.74,197.12,376,197Z"/><path class="z" d="M168,174a2.07,2.07,0,0,0-1,2c9.88-.66,12.93-5.07,9-13h-2C173.92,167.7,172.47,171.67,168,174Z"/><path class="ah" d="M433.71,178.9h0A185.8,185.8,0,0,0,410.32,184h0c.07.66.13,1.33.2,2h0c4.92-2.42,10.33-2,15.55-2.74,3.35-.47,7.38.45,9.11-3.9h0Z"/><path class="ai" d="M137,104l-3.91,2.92-.1.07c-3.93,4.16-6.77,9.25-11.1,13.08h0c.7,1.46,1.69,1.88,3.09.87h0l13.17-15.83Z"/><path class="aj" d="M165,175l-6,11h0c.49,1.72,1.27,2.71,2,.21A20.84,20.84,0,0,1,167,176a2.07,2.07,0,0,1,1-2c2.38-3.28,4.14-6.79,4-11h-3C170.85,168.06,167,171.22,165,175Z"/><path class="ak" d="M399,185.07h0c-1,2-2.85,2.36-4.79,2.95s-4.3.69-5.14,3.14h0l-2,1.68h0c5.83-.64,11.24-2.86,16.82-4.44C403.22,185.92,399.81,187.44,399,185.07Z"/><path class="y" d="M376,151c3.07,1.75,6.6,2.31,9.66,4.44,2.3,1.6,5.64.67,7.34-2.46h0c-3.59.74-6.49-.76-9.19-2.87h0C381.42,151.95,378.62,150.54,376,151Z"/><path class="r" d="M209.22,167c2.16,0,4.07-.07,3.81-3-3.53-1.86-7.33-.68-11-1h0C202.73,167.4,206.07,167,209.22,167Z"/><path class="al" d="M140.1,96.55c-.78-.53-1.47-1.66-2.48-.9-.85.64-.68,1.86-.28,2.74A5.58,5.58,0,0,1,137,104l1.15,1.11a21.57,21.57,0,0,0,6-6h0C142.8,98.27,141.42,97.45,140.1,96.55Z"/><path class="am" d="M410.32,184h0c-3.3-1.86-7.33,3.15-10.46-1.06a4.66,4.66,0,0,0-.83,2.09h0c.78,2.37,4.19.86,4.9,3.32,2.69.6,4.06-2.5,6.59-2.36h0C410.45,185.37,410.38,184.7,410.32,184Z"/><path class="r" d="M243.28,161.73c3.19-1.92,6.48-.82,9.77-.84,2.07,0,2.5-1.3,1-2.9a32.22,32.22,0,0,0-12,2h0C242.17,160.82,242.61,162.14,243.28,161.73Z"/><path class="an" d="M438,176c3.47,1.19,5.32-2.11,8.07-2.92h0l1-1h0C441,169.69,439.58,170.31,438,176Z"/><path class="ao" d="M384,190.92h0c-4-.39-4.9,4-7.93,5.1h0l-.05,1h0c.76.09,1.63-.06,1.93,1l6.51-3.93Z"/><path class="ap" d="M389.1,191.15h0c-1.45-2,.48-3.3,1.11-4.77s-.14-1.15-.91-1.17h0a15.23,15.23,0,0,1-5.27,5.68l.45,3.14c1.25.36,1.67-1.07,2.68-1.22h0Z"/><path class="aq" d="M438,176c-1.27,1.21-3.45,1.05-4.32,2.87h0l1.47.49h0c1.35-1.15,3-1.22,4.65-1.25,3.42-.07,5.52-1.68,6.26-5h0C443.34,173.92,441.49,177.22,438,176Z"/><path class="r" d="M168,174c4.44-2.33,5.89-6.3,6-11h-2C172.17,167.21,170.41,170.72,168,174Z"/><path class="z" d="M304.72,168c-1.06.07-2.66.59-3.08-.81-.54-1.77,1.42-1.89,2.37-2.65.41-.33,1.33-.34.78-1.54-3.44,1-7.55-.14-10.43,2.59-2,1.93-4.05,1.72-6.33,1.46-.88,3.24-4.09,1.83-6,3-9.46,2.44-18.27,6.69-27.34,10.17-6.41,2.46-11,.64-15.66-3.17h-1c.24,2.35-1,3.19-3.15,3-1.29,1.2-2.65,3-4.36.85-1.25-1.56-.43-2.71,1.52-3a2.13,2.13,0,0,0-2-.94h0l-10,3c-1,2.1-2.88,3.71-5,3.71-6.47,0-12.52,3.15-19,2.3h0c-3.69,2.1-7.47,4.06-10.49,7.13,2.52,3.27,6.38,5.86,5.49,10.86,1.61,2.21,1.76,5,3.12,8.48a11.93,11.93,0,0,0,.35-7.67c-1.2-5.44.77-8.74,6-9.85,9.72-2,19.58-1,29.34-.66,4.34.16,8.58,2.39,12.92,3.45,2.83.68,4.1,2.64,5.05,5,.64,1.61.56,4.19,3,3.92a4.93,4.93,0,0,0,4.15-4.42c.46-3,1.85-5.83,4.53-6.73,3.55-1.19,7.1-2.86,11.08-2.59,3.65.25,6.92-1,10.4-3-3.65-2.24-6.58.4-9.63.07-1.55-.17-3.14-.06-3.58-1.93s.69-2.45,2.25-3.19c2.49-1.19,4.61-3.16,7.08-4.42,9.33-4.77,18.45-10.68,29.79-6.72A3.11,3.11,0,0,0,311,172h0C309.57,169.67,307.89,167.74,304.72,168Zm-56,23.12c3.17-.21,6.26-.16,9.1-1.93,1.51-.94,3.76-2.17,4.61.32.93,2.71-2.06,2.48-3.53,3-7.77,2.81-15.14,1.35-23.33-2.95C240.85,188.68,244.56,191.35,248.72,191.08ZM233,188.74c-1.78,1.78-3.06,1.24-4.85.51C229.9,187.48,231.17,188,233,188.74Z"/><path class="ar" d="M201.25,240.59a3.82,3.82,0,0,0,.16.36c1.36-.23,2.9-.2,3.91-.92,7.08-5,15.88-1.64,23.3-4.94,1.17-.52,2.44-.72,3.47-1.64,3.27-2.94,7-4.94,11.54-4.42,2.22.25,3.73-1,5.43-2h0a87.16,87.16,0,0,1,23.87-8.14c3-.54,5.44.94,8.13,1.14,5,.37,8.19-5.05,13.09-2.87l0,0h0c2.44-2.8,6-3,9.21-4.23,2-.75,4.87.11,5.84-2.8A10.32,10.32,0,0,1,304,211h0c-5,1-10,1.23-14.89,2.84-1.74.57-3.07,2-5.47,1.67-9.2-1.28-18,1.55-26.07,5.22-4.53,2.05-9.23,4.14-13.8,4.8-5,.72-9.39,1.53-13.22,5.12-1-2.55,2-5-.69-7.36L227,229h0c-.09,1.45-.71,2.7-2.2,2.84-5.21.47-9.84,2.88-14.8,4.16h0c-2,.47-4-1.8-6,.07C204.08,238.16,202.09,239,201.25,240.59Z"/><polygon class="as" points="179.03 247.01 179.03 247.01 179.03 247.01 179.03 247.01"/><path class="as" d="M133,250h0c8.44-.35,16.86-1.51,25.17-2.53,5.24-.64,10.46-2.8,16.12-2.9,2.54,0,3.64.65,4.72,2.43h0v0h0l1.31-.24a1.66,1.66,0,0,0,1.19-1.07c1.12-3.66,2.68-5.67,6.4-2.42a1.9,1.9,0,0,0,1.8-.28c3.31-3.42,7.5-1.52,11.29-2h0a3.14,3.14,0,0,1,.21-.42c.84-1.56,2.83-2.42,2.83-4.5-5.32.22-10.37,2.72-15.76,2.08-6.93-.82-12.93,6.7-20.25,2.17-.29-.18-.94.2-1.41.32-3.79,1-8.5-1-11.24,3.54a1.6,1.6,0,0,1-2.27.2c-3.11-2.55-6.2-.77-9.43-.28-4.11.63-6.89,3.81-10.69,4.88Q133,249.49,133,250Z"/><path class="at" d="M331,205c6,4.12,11.39.66,17-1.34s11.35-4,17.52-2.55c.57.14,1,.7,1.57,1.06h0c3.6-.61,6.75-2,8.87-5.15h0l.05-1h0c.07-3,2.54-5.13,3-8h0c-1.71-.2-3.67-1.64-5,.43-2.59,4-7.82,4.19-10.85,7.62-1.6,1.81-4.1.72-6.2.87-4.45-3.17-3.69-9.13-6.94-12.94h0c-.95,0-1.86-1.67-2.84-.06a21.47,21.47,0,0,1,4.71,7.91c2.28,6.25-.67,10.07-7.48,9.67a13.49,13.49,0,0,1-2.38-.57C338.92,203.75,334.7,203.61,331,205Z"/><path class="au" d="M97.64,251.34c-7.7,1-15.51,3.44-21.8-3.75-.7-.8-1.79-.51-2.77,0-4.82,2.48-9.93,2-15,1.41,3.4,4.12,10.1,1.82,13.18,6.77.4.64,1.72-.52,2.61-.93,2.08-1,4.51-2.29,6.55-1.42,7.51,3.19,14.67,3.21,21.8-.91a8.85,8.85,0,0,1,2.89-.52C102.83,249.22,100.06,251,97.64,251.34Z"/><path class="av" d="M309.18,210.11h0c4.82-1.95,10-.82,15-1.93,2.67-.59,4.94-1.28,6.86-3.17h0c3.65-1.4,7.87-1.26,11-4.06a4.31,4.31,0,0,0-5.47-.28,12.94,12.94,0,0,1-6.83,2.38c-5,.32-9.48,2.49-14.66,2.72-3.11.14-7.46,3.16-11.09,5.21h0A10.32,10.32,0,0,0,309.18,210.11Z"/><path class="au" d="M126.38,252.81c2.27-.14,4.44-1.84,6.65-2.82h0q0-.49,0-1c-1.76-.32-4-1.48-5.19-.81-6.56,3.74-14.42-.25-20.81,3.81h0q0,.5,0,1C113.48,253,120,253.21,126.38,252.81Z"/><path class="au" d="M39,248h0c4.23,4.14,12.38,4.64,17,1C50.33,249.38,44.78,247.06,39,248Z"/><path class="aw" d="M224.84,231.84c1.49-.13,2.11-1.39,2.2-2.84h0c-6.47.38-12.31,2.3-17,7h0C215,234.72,219.64,232.31,224.84,231.84Z"/><path class="ax" d="M297,198h0c-1.23.68-1,1.95-1.16,3,.31,1.56.18,3.46,3,3.69L297,198h0Z"/><path class="b" d="M165,175a25.2,25.2,0,0,1-7.41-5c-4.23-4.55-9.45-6.86-15.36-8.62-6.28-1.87-13.24-1.7-18.81-5.64A9.35,9.35,0,0,0,118,154c-3.58-.12-8.56,1.82-8.24-4.94,0-.22-.39-.62-.65-.67-3.69-.73-4.15-4.28-6.08-6.59-3.36-4-1.38-4.86,2.42-5.11-2.93-7.13.25-16.42-8.64-20.67-.1,0-.17-.31-.15-.46.58-4.6-3-7.82-4-11.93-1.34-5.18-9.11-10.16-13.23-9.47a57.48,57.48,0,0,0-22.43,8.65c-2.07,1.37-5.9,2.44-2.21,6.16.72.73.07,2.19-.81,2.59-4.47,2-3.77,5.4-3,9.19.45,2.14.46,5.82-2.84,5.06C38.23,123.5,34.39,135,25.69,135c-.34,0-.75.64-1,1.05A58.67,58.67,0,0,1,12.9,149.06c-3.35,2.85-1.83,6.53-1.6,9.76s3.31,1.52,5,1.63c.78,1.92-2.58,1.2-1.43,3.31a22.3,22.3,0,0,0,9.6-.81c3.42-1.14,6.78-.32,8.22,3.78.77,2.2,2.65,3.07,4,1.35,2.56-3.21,5-2.09,7.34-.37a12.33,12.33,0,0,0,6.54,2.1c7.86.49,15.21,3.15,22.78,4.86,4.34,1,8.58,2.44,13,3.23,2.14.39,5,.59,4-3.51a2.37,2.37,0,0,1,.15-1.88,1.18,1.18,0,0,1,.47-.41,2.38,2.38,0,0,1,2.35.49c1.41,1.09,4.22,1.28,3.43,4.61-.48,2,1.92,1.76,3.33,1.73,1.16,0,2.12-.71,1.17-1.88-3.46-4.26,1.58-1,1.76-2l7,0H112c3.68.08,7.36.16,11,.26.07,0,.18.24.18.36a1.48,1.48,0,0,1-.15.46h0c-3.17,2.85-3,4.06,1.56,5.15,8.18,2,16.48,3.22,24.69,4.94,3.36.7,6.48,1,9.69-.17h0Zm-35.34-1.48c3.51-.81,5.6-1.23,7.65-1.77,1.86-.5,3.39-2.23,6.68-1.21C139.27,172.44,135.67,174.82,129.68,173.53Z"/><path class="b" d="M215.08,183.71c2.08,0,3.94-1.61,5-3.71.6-1.9,2.39-5.23-1.19-4.73-6.45.89-12.58-1.61-19-.56a65.86,65.86,0,0,0-12.7,2.94c-4.73,1.75-10.08,3.27-15.57,2-1.37-.31-3.78.06-4.09,2-.37,2.32,2,2.22,3.49,2.72,2.75,1,5.51.33,8.33.09,5.61-.46,11.47-2.38,16.73,1.49h0C202.56,186.85,208.61,183.68,215.08,183.71Z"/><path class="b" d="M254.69,180.16c9.07-3.48,17.88-7.72,27.34-10.17,1.14-2.44-.45-2.56-2.26-3.06-6.09-1.66-12.14,0-18.14.27-8.52.37-15.9,4.56-22.59,9.79h0C243.7,180.81,248.29,182.62,254.69,180.16Z"/><path class="ay" d="M133,107l0-.1c2.51-5,4.38-10.06,1.25-15.43-.09-.16-.17-.32-.28-.48.31,3.43-.8,6-3.08,8.88-3.37,4.19-9,6.88-9.34,13.44-.09,1.71-1.39,1.3-2.21.2l0-.07a3.53,3.53,0,0,1-.3-.5,4.39,4.39,0,0,0-3.24-2.43c1.9,3.85,3.3,7.14,6.1,9.57h0C126.25,116.24,129.09,111.16,133,107Z"/><path class="n" d="M14,120.91c3.86,3.94-.44,5.33-2.58,7.12,2,2.4,5.25-1.8,6.56,1.92,4.09-2.58,3-9.06,8.12-10.84A28.31,28.31,0,0,0,14,120.91Z"/><path class="az" d="M22.06,117h0l-10,2c-1.16,2-5.19.43-4.95,4.08h0A20.59,20.59,0,0,1,14,120.91h0a28.31,28.31,0,0,1,12.1-1.8l3,0C27.75,115,24.22,118.21,22.06,117Z"/><path class="aj" d="M22.06,117h0c2.16,1.25,5.69-2,7,2.12,2.39.27,4.83,1.45,7.18-.33-1.85-2.64-6.78-.2-7.19-4.73h0C26.28,114,23,112.74,22.06,117Z"/><path class="aj" d="M30,113c3.87-.13,5.16-2.45,5.06-6h0C29.6,105.81,29,108.74,30,113Z"/><path class="b" d="M118.15,144.92c1.08.24,2.82.13,2.58-1.38-.39-2.5-2.75-2.35-4.49-2.55-1.5.08-3.7,0-3.4,1.38C113.38,144.8,116.18,144.48,118.15,144.92Z"/><path class="b" d="M232.05,177.91l2.84,2.13h0c2.17.14,3.39-.7,3.15-3-2.66-.65-5.3-3.38-8,0h0A2.13,2.13,0,0,1,232.05,177.91Z"/><path class="j" d="M72.56,179.65a12.91,12.91,0,0,0,7.29-.25c-2-3-4.65-2.31-7-2.35-.83,0-1.82.18-1.94,1.15S71.86,179.49,72.56,179.65Z"/><path class="w" d="M123.2,175.61c0-.13-.11-.36-.18-.36-3.68-.1-7.36-.18-11-.26h0c3.42,3,7.43.16,11.06,1.08h0A1.48,1.48,0,0,0,123.2,175.61Z"/><path class="ba" d="M124.79,149.35c2.59.64,4.73,3.5,6.58-.43l-.27-.14h0C129.25,150,127.1,147,124.79,149.35Z"/><path class="aj" d="M35,107c1.47-.29,3.25.7,4.52-1-1.31-1.69-3.07-.72-4.55-1h0Q35,106,35,107Z"/><path class="w" d="M103.05,175c2.35.62,4.71,3.78,7,0h0Z"/><path class="bb" d="M168.25,262.07c7.33-.31,14.66-.45,21.89-1.94h0c-16-.51-31.8.63-47.09,6-4.19,1.46-8.91.79-13,2.92h0c-3.39.74-6.3,3.15-10,2.87l-2,.15h0c-3.89,1.94-8.05.48-12.06,1h0l-4.9,1h0c-3.57,1.85-7.41.5-11.09.94H88c-5.56,2.06-11.34.44-17,1h0l-.18.11a4,4,0,0,1-1.51.78c-5.07.48-10.14.22-15.26.85-5.72.7-11.32,3.93-17.42,1.37-1.88-.79-3.48.59-3.62,2.91,1.9-1.36,3.68-2.86,6.09-.63,1.16,1.07,2.89.8,4.3.29,11.38-4.07,23.47-2.54,35.17-4.2,12.55-1.78,25.44-1.88,38.12-3.49a45,45,0,0,0,8.22-1.63c9.54-3.1,19.37-5,29.08-7.37C158.4,262.27,163.39,262.27,168.25,262.07Z"/><path class="bc" d="M244,238.93h0c-2.62,3.09-7.77-.09-10,4-5.07,2.67-11.1,1.35-16.21,3.92-.86.43-2.23.3-2.73.94-7.27,9.17-18.37,7.66-28,10.18,1.07,1.48,2.67.85,4.06,1h0c5.72-.18,11.44-.73,16.27-4.07,2.36-1.63,3,1.36,4.68,1.05h0c1.47-.79,3.08-1.4,4-2.93,1.19-5,5.09-5,9-5h0c2.11-.33,3.67-1.85,5.83-2.33,5.47-1.23,10.8-3.1,16.18-4.71C245.55,241.13,245,239.6,244,238.93Z"/><path class="bc" d="M224.69,243.78l-.39,0-.65.17a10.91,10.91,0,0,0,1.45-.27Z"/><path class="bd" d="M191,260q-.44.07-.87.17h0c-7.22,1.49-14.55,1.63-21.89,1.94-4.85.2-9.84.2-14.21,2.93,7.49-.11,15.13-3.47,22.43,1a.74.74,0,0,0,.49,0c5.36-1.33,10.91-1.89,16.1-3.92Z"/><path class="be" d="M207.38,255c-4.84,3.35-10.55,3.89-16.27,4.07h0l-.1.92h0L193,262c6.79-.56,13-2.89,19-6h0C210.38,256.32,209.73,253.33,207.38,255Z"/><path class="bf" d="M258.09,238l-1.93-.19c.52-4.86-2.67-1.48-4.16-1.88h0c-2.42,1.53-5.91-1-7.92,2.1a7,7,0,0,1-.12.88c1.08.67,1.6,2.2,3.19,2.11l3.78-.12h0C253.16,239.6,256,239.83,258.09,238Z"/><path class="bg" d="M216.08,253.09c3.89-.07,6.16-3.09,9-5h0C221.17,248.05,217.28,248.13,216.08,253.09Z"/><path class="bh" d="M200,248c-.3.16-.59.3-.9.44A1.59,1.59,0,0,0,200,248Z"/><path class="bh" d="M183,251a7.27,7.27,0,0,1,1,0,4.91,4.91,0,0,1,.91-.36c4.84-2,10-2.29,15.13-2.66,5.28-5.72,12.39-7,19.58-7.84,2.65-.3,5.24-.25,7.47-2,3.58-2.73,7.81-2.1,11.89-2.22l0,0h0l10-7h0q0-1,0-2c-1.7,1-3.21,2.24-5.43,2-4.57-.52-8.27,1.48-11.54,4.42-1,.92-2.3,1.12-3.47,1.64-7.43,3.3-16.22-.06-23.3,4.94-1,.72-2.55.69-3.91.92L201,241h0a8.7,8.7,0,0,1-1.16,1.59c-3.65,3.18-16.67,5.89-20.85,4.4h0v0c-3.75,2.66-7.84-.35-11.89.75A55.86,55.86,0,0,1,158,249c-5.65,2.89-12.06,3.08-18,5-9.11,3-18.75,3.07-28,5.48-4.26,1.11-9.29-.17-13.88,1.44-1.31.46-2.51.7-3.16,2,8.76-1.61,17.73-1.62,26.53-2.35,6.87-.58,12.78-3.23,19.23-4.36s12.53-2.69,18.77-4c7.56-1.55,15.48-2.72,23.36-1.29l.11,0Z"/><path class="bh" d="M179,247a6.07,6.07,0,0,0,1.31-.24Z"/><polygon class="bh" points="179.04 246.99 179.04 246.99 179.04 246.99 179.04 246.99"/><path class="bi" d="M151.47,258.32c5.16-1,10.23-2.48,15.56-2.34h0c4.41-2.33,9-.14,13.53-.29,12-.37,23.43-1.43,33.09-9.48A9.34,9.34,0,0,1,221,244a10.71,10.71,0,0,0,2.64,0l.65-.17q.81-.2,1.63-.36a13.76,13.76,0,0,0,3.07-1.53h0l3-1.87v0c-2.31-.1-4.61-.29-6.37,1.78-1.14,1.35-2.54.9-4.09.55-4.45-1-8.53-.21-11.77,3.35-4.08,4.49-10,4.2-15.16,4.95-2.54.37-4.67,4-7.63,1.36h0l-1,0h0c-5,1.79-10,3.5-15,0h0c-9.2,1-17.88,4.41-27.14,5.51-3.61.43-9.28-.46-11.88,4.42C138.48,260.74,145,259.56,151.47,258.32Z"/><path class="bj" d="M98.19,260.93c4.59-1.61,9.62-.33,13.88-1.44,9.26-2.41,18.9-2.49,28-5.48,5.9-1.94,12.31-2.12,18-5-8.95,1.34-18,1.52-26.66,5.12-7,2.92-14.81,2.67-22.36,2.85-2.84.07-5.42.24-8,1.9-3.89,2.48-8.31-.42-12.49.34A14.06,14.06,0,0,1,85,259H84a5.75,5.75,0,0,1-5,2h0c.56.55,1.31,1.67,1.63,1.55,4.23-1.51,8.28.73,12.42.5h0L95,263h0C95.67,261.64,96.88,261.39,98.19,260.93Z"/><path class="bk" d="M98.05,271c2.43-2.06,5.33-.58,8-1l1,0h0c2.55-1.28,5-3.23,8-1,2.77.86,4.55-1.73,7-2h0c2.65-.74,5-2.73,8-2,8.94-1.09,17.35-4.29,26-6.51a27.23,27.23,0,0,1,6.37-.47c1.85,0,3.69.06,4.62-2h0c-5.32-.14-10.4,1.35-15.56,2.34-6.49,1.24-13,2.42-19.49,3.62-7.68,3.06-16,3.16-23.92,5.09h0c-4.06,2.22-8.8,1.46-13,3C95.75,271.19,97,271,98.05,271Z"/><path class="bl" d="M186,252h0a2.16,2.16,0,0,0-2-1c.3-.14.6-.24.91-.36a4.91,4.91,0,0,0-.91.36,7.27,7.27,0,0,0-1,0h0l-.14.08c-3.8,2.27-7.87,1.27-11.89.92h0C176,255.51,181,253.8,186,252Z"/><path class="bj" d="M74.26,259.12c-4.14,1.59-8.08-.24-12.09-.3-2.39,0-4.76-.8-7.14.19,1.62,1.94,4.19.29,6,1.62,4,2.9,8.26,3,12.64,1,1.75-.78,3.56-.58,5.36-.64h0C77.78,259.49,75.94,258.48,74.26,259.12Z"/><path class="bm" d="M88.49,259.21c4.18-.76,8.6,2.14,12.49-.34,2.61-1.66,5.19-1.84,8-1.9,7.56-.18,15.35.07,22.36-2.85,8.64-3.6,17.71-3.78,26.66-5.12a55.86,55.86,0,0,0,9.11-1.27c4-1.1,8.14,1.91,11.89-.75h0c-1.08-1.78-2.19-2.48-4.72-2.43-5.66.1-10.88,2.26-16.12,2.9-8.31,1-16.73,2.18-25.17,2.53h0c-2.21,1-4.38,2.68-6.65,2.82-6.43.4-12.89.17-19.34.19-5.6,2.61-11,5.74-17.68,4.08-1.6-.4-3.2.57-4.33,1.91h0A14.06,14.06,0,0,0,88.49,259.21Z"/><path class="bn" d="M82.13,273.88A7.33,7.33,0,0,0,87.06,272c3.74.46,7.66,2.9,11-1,2.65.21,5.32,1.35,8-.09h0q0-.48,0-1c-2.64.46-5.54-1-8,1-1.09-.08-2.3.15-3-1a7.48,7.48,0,0,0-1,0A16.7,16.7,0,0,0,87,272c-1.38-.11-2.94.49-4-1h0c-7.27-2.52-15-.14-22.3-2a19,19,0,0,0-9.67.09h0q0,.49,0,1c3.8,1.78,8.66-.74,12,3h0a5.79,5.79,0,0,1,4,1.91h0C72,273.78,77.09,274,82.13,273.88ZM98,271h0Z"/><path class="bk" d="M87,272a16.7,16.7,0,0,1,7.05-2c-3.94-2.51-7.34.81-11,1h0C84.08,272.46,85.64,271.86,87,272Z"/><path class="bo" d="M71,276c5.57-2,11.33-.76,17-1h2c3.55-2.1,7.41-.53,11.1-.94h0l4.9-1h0c3.88-2.09,8.05-.53,12.06-1h0l2-.15c3-2,6.21-3.48,10-2.87h0c4.07-2.13,8.79-1.46,13-2.92,15.29-5.34,31.08-6.48,47.09-6h0q.43-.1.87-.17h0l.1-.92h0c-1.39-.19-3,.44-4.06-1a22.45,22.45,0,0,0-10.24-.27c-8.87,1.43-18,1.36-26.71,3.73-6.2,1.69-12.43,3.31-18.6,5.08-8.37,2.4-16.66,4.75-25.47,4.42h0c-2.64,1.44-5.3.3-8,.09-3.34,3.9-7.26,1.47-11,1a7.33,7.33,0,0,1-4.93,1.83c-5,.17-10.1-.09-15.07,1h0c.93,1.51,2.41,1,3.73,1.08l.25,0Z"/><polygon class="bo" points="98.05 271.04 98.05 271.04 98.05 271.04 98.05 271.04"/><path class="bp" d="M51.06,270c-4.34.64-8.63,0-13.14,1.06-6.07,1.37-8,7.23-12.16,10.46a11.06,11.06,0,0,1-1,.67c-.19.12-.38.24-.58.34l0,0a9.63,9.63,0,0,1-1.17.51h3.92c2.44-1.58,5.44-2.55,6.29-5.87.09-.34,1-.84,1-.79,3.58,3.56,5.86-.89,8.75-1.39A128.45,128.45,0,0,1,63,273h0C59.72,269.28,54.85,271.8,51.06,270Z"/><path class="bq" d="M357,196.94c.17-.46.32-1.31.52-1.33,4.48-.33,6.79-1.75,3.8-6.52-.57-.91.14-2.07,1.51-1.59s2.26-.34,3.35-.34c5.87,0,10.24-2.79,12.28-7.91,1.84-4.62,5.32-2.94,7.2-1.95,4.48,2.37,5.43.4,5.9-3.36.12-1,.33-1.94.5-2.91h0c-.22-2.65-2-3.25-4.2-3-5.55.56-12.14.11-15.92,4-3.3,3.4-7.41,4-10.44,6.36-2.82,2.18-4.21,1.15-6.38.65a2.26,2.26,0,0,1-1.09,2h0c-.73,1.79-2.53,2.16-4,3h0C353.3,187.8,352.54,193.77,357,196.94Z"/><path class="br" d="M391.57,174c-.47,3.76-1.43,5.73-5.9,3.36-1.88-1-5.36-2.68-7.2,1.95-2,5.12-6.41,8-12.28,7.91-1.09,0-2.1.77-3.35.34s-2.08.68-1.51,1.59c3,4.77.67,6.19-3.8,6.52-.21,0-.35.87-.52,1.33,2.1-.15,4.6.94,6.2-.87,3-3.44,8.25-3.58,10.85-7.62,1.33-2.07,3.29-.63,5-.43h0q.49,0,1,0a5.79,5.79,0,0,1,5.18-4c3.41-.27,5.52-3.47,8.82-4h0c1.79-2.11,3.51-4.46,6.75-1.05l.29-4.86h0c4.8-2.07,5.76-6.61,7-10.95h0c-1.26.32-2.5.71-3.78.94-5.66,1-6.77,2.94-4.69,8.24a2,2,0,0,1-.72,2.56c-1.49-2.6-4.12-3.28-6.84-3.77h0C391.9,172,391.69,173,391.57,174Z"/><path class="bs" d="M355.12,179c1.9-1.47,5.13-2,3.23-5.85-.9-1.85.77-3.11,2.73-3.11,2.3,0,4.54-.59,6.9-.17,3,.53,6.73.32,8.35-2.06,3-4.46,6.53-4.18,10.75-2.9,2.32.7,4.73,1.11,7.24,1.68-7-8.63-19.71-9.69-30.32-2.64-4.53,2.29-8.11,5.86-12,9h0c.29.89,1.29,1.82.49,2.72-2.37,2.67-.65,4,1.53,5.29h0A2.26,2.26,0,0,0,355.12,179Z"/><path class="b" d="M364,164a1.42,1.42,0,0,0-2.13-.39,14.29,14.29,0,0,1-12.77,1.65,2.92,2.92,0,0,0-3.49,1.3c-2.19,5.81-7.62,5.22-12,6-6.82,1.18-7.12,1.21-4.55,7.46l0,0h0l0,0h0c5.22,0,10.62.86,15.07-3,2.29-2,5.18-2.83,7.91-4h0C355.91,169.84,359.48,166.28,364,164Z"/><path class="bt" d="M312.27,160.61c-.19-2.52-1.57-3.93-3.67-3.66-2.28.12-4.34,0-4.17,2.38.19,2.72,2.72,3.12,4.78,3.42C310.53,162.95,312.43,162.76,312.27,160.61Z"/><path class="bu" d="M337.45,153.23c-1.33-.35-.2,1.75-.34,2.72,2.91.53,5.41-.58,7.82-2h0C342.93,149.8,340,153.9,337.45,153.23Z"/><path class="at" d="M385.2,184a5.79,5.79,0,0,0-5.18,4c1.89,1.34,3.28.51,4.55-1s2.67-2.35,4.67-1.75h0c1.19-2.11,3.83-2.9,4.73-5.27h0C390.72,180.52,388.61,183.72,385.2,184Z"/><path class="bv" d="M292.11,224.07h0l2.85-2.13h0c.8-1.21,1.22-2.82,3-3l.06-1.91h0l-3.92.11h0l0,0c-3.12,3.68-7.54,5.72-11.17,8.75h0c-2.37,3.63-5.47,5.43-9.92,4.08-2.14-.65-3.85-.2-5.82,1.31-2.67,2-6.35,1.07-9.56,1.54-2.46.36-4.48.78-5.68,3.1,1.49.4,4.68-3,4.16,1.88l1.93.19c5.37,0,10.59-1,15.08-3.92a12.45,12.45,0,0,1,6.8-2.29h0l6-2.86C286.92,226,288.69,224,292.11,224.07Z"/><path class="bw" d="M345.38,209.47c-4.74,2-10,4-15.36,1.54-10.39,3.43-21.57,2.64-32,6h0l-.06,1.91a18.26,18.26,0,0,1,14.86.32c2.22,1,3.89-.81,5-1.66,4.09-3.22,7.4-3.66,11.3-.52h0l8.94-1.08h0c1.11-1.34,2.63-1.64,4.25-2.08,2.66-.72,5.69-.6,7.79-2.89C348.93,209.3,348.27,208.24,345.38,209.47Z"/><path class="bx" d="M317.83,217.59c-1.08.85-2.75,2.71-5,1.66a18.26,18.26,0,0,0-14.86-.32c-1.82.18-2.24,1.78-3,3h0c4.05,2.14-.84,4.12-.12,6.2h0c.47.63,1.37.85,1.6.24,1.19-3.13,2.66-4.65,5.82-1.94,1.21,1,2.68,0,3.67-.6,1.29-.84.23-2-.26-3-.38-.75-.85-1.48-.23-2.27s1.15-.3,1.73,0c3.87,2.24,8,0,12,.69a8.12,8.12,0,0,1,7.14-3.17h0c1.06,0,2.23.19,2.87-1h0C325.23,213.93,321.91,214.38,317.83,217.59Z"/><path class="bx" d="M292.11,224.07C288.69,224,286.92,226,286,229c2.23-1,4.63-.9,7-1C294.38,226.25,291.59,225.53,292.11,224.07Z"/><path class="by" d="M295,221.93h0l-2.85,2.13h0c-.52,1.46,2.27,2.19.86,3.85l1.87.22h0C294.12,226,299,224.08,295,221.93Z"/><path class="bz" d="M319.1,221.27c2.94.2,5.76.13,7.14-3.17h0A8.12,8.12,0,0,0,319.1,221.27Z"/><path class="ca" d="M345.08,207.07c-5.1,1-9.53,4.56-15.06,3.93h0c5.4,2.49,10.62.47,15.36-1.54,2.89-1.23,3.55-.16,4.71,1.56,1.71-2.13,4.11.36,6-.89h0c2.2-1.13,1.26-4.7,4.13-5.3C354.77,203,350.07,206.1,345.08,207.07Z"/><path class="cb" d="M365.55,201.12c-6.17-1.48-11.89.54-17.52,2.55s-11,5.46-17,1.34h0c-1.91,1.89-4.19,2.58-6.86,3.17-5,1.11-10.2,0-15,1.93h0c-1,2.91-3.85,2.05-5.84,2.8-3.19,1.19-6.77,1.43-9.21,4.23h0l3.92-.11h0c10.4-3.38,21.58-2.59,32-6h0c5.53.63,10-2.94,15.06-3.93s9.69-4,15.1-2.23c2.61-.12,5.1-.54,6.94-2.67h0C366.6,201.81,366.13,201.25,365.55,201.12Z"/><path class="t" d="M384.57,187c-1.28,1.52-2.66,2.35-4.55,1q-.49,0-1,0h0c-.45,2.87-2.92,5-3,8h0c3-1.1,3.94-5.49,7.93-5.1h0a15.23,15.23,0,0,0,5.27-5.68h0C387.24,184.63,385.78,185.53,384.57,187Z"/><path class="b" d="M258.9,192.49c1.47-.53,4.46-.31,3.53-3-.85-2.49-3.1-1.26-4.61-.32-2.84,1.77-5.93,1.73-9.1,1.93-4.16.27-7.87-2.41-13.15-1.54C243.76,193.84,251.13,195.3,258.9,192.49Z"/><path class="cc" d="M232.05,177.91c-1.94.28-2.77,1.43-1.52,3,1.71,2.13,3.07.35,4.36-.85h0Z"/><path class="b" d="M233,188.74c-1.78-.73-3.06-1.27-4.85.51C229.9,190,231.17,190.52,233,188.74Z"/><path class="cd" d="M256.06,230c3.61-1.08,7.23-2.1,10.81-3.27.83-.27,1.62-.58,2.35-.1,4.77,3.11,9.2,0,13.76-.69h0c3.63-3,8-5.07,11.17-8.75-4.91-2.18-8.11,3.24-13.09,2.87-2.68-.2-5.14-1.67-8.13-1.14A87.16,87.16,0,0,0,249.06,227h0q0,1,0,2h0C251.57,227.86,254.52,223.88,256.06,230Z"/><path class="ce" d="M189.74,243a1.9,1.9,0,0,1-1.8.28c-3.73-3.26-5.28-1.25-6.4,2.42a1.66,1.66,0,0,1-1.19,1.07A6.07,6.07,0,0,1,179,247h0c4.19,1.49,17.2-1.22,20.85-4.4A8.7,8.7,0,0,0,201,241h0C197.25,241.48,193.05,239.58,189.74,243Z"/><path class="cf" d="M137.33,171.75c-2.05.55-4.14,1-7.65,1.77,6,1.29,9.59-1.09,14.33-3C140.72,169.53,139.2,171.26,137.33,171.75Z"/><path class="l" d="M71,276h0c5.65-.56,11.43,1.06,17-1C82.36,275.24,76.61,274,71,276Z"/><path class="l" d="M120.08,271.88c3.68.28,6.6-2.12,10-2.87h0C126.29,268.41,123.09,269.85,120.08,271.88Z"/><path class="l" d="M106,273h0c4-.5,8.17,1,12.06-1h0C114.08,272.48,109.91,270.92,106,273Z"/><path class="l" d="M90,275c3.69-.44,7.53.9,11.09-.94h0C97.44,274.47,93.58,272.89,90,275Z"/><path class="cg" d="M229,241.94h0a13.76,13.76,0,0,1-3.07,1.53c-.27.09-.55.18-.82.26a10.91,10.91,0,0,1-1.45.27,10.71,10.71,0,0,1-2.64,0,9.34,9.34,0,0,0-7.36,2.21c-9.66,8-21.1,9.11-33.09,9.48-4.49.14-9.11-2-13.53.29h0c-.93,2.08-2.77,2-4.62,2a27.23,27.23,0,0,0-6.37.47c-8.65,2.22-17.07,5.42-26,6.51-2.28,2.21-5.14,2.14-8,2h0c-2.45.27-4.22,2.87-7,2a20.27,20.27,0,0,1-8,1h0l-1,0q0,.48,0,1c8.81.33,17.1-2,25.47-4.42,6.17-1.77,12.4-3.39,18.6-5.08,8.68-2.36,17.84-2.3,26.71-3.73A22.45,22.45,0,0,1,187,258c9.64-2.52,20.74-1,28-10.18.5-.63,1.87-.5,2.73-.94,5.1-2.57,11.14-1.25,16.21-3.92Z"/><path class="ch" d="M239,236.93h0c-2.58.42-4.19,3-6.89,3.11h0l0,0-3,1.87h0l5,1c2.2-4.12,7.35-.94,10-4h0a7,7,0,0,0,.12-.88A8.35,8.35,0,0,0,239,236.93Z"/><path class="ci" d="M257.68,232.85c3.21-.47,6.89.51,9.56-1.54,2-1.51,3.68-2,5.82-1.31,4.45,1.35,7.55-.45,9.92-4.08h0c-4.56.7-9,3.8-13.76.69-.73-.48-1.52-.17-2.35.1-3.58,1.17-7.2,2.19-10.81,3.27-1.42-.78-2.81-1.11-3.94.44-3.27,4.48-8.75,3.68-13.11,5.55h0l0,0a5.23,5.23,0,0,1,0,1,8.35,8.35,0,0,1,5.12,1.12c2-3.06,5.5-.57,7.92-2.1h0C253.2,233.63,255.21,233.21,257.68,232.85Z"/><path class="bl" d="M232.07,240c2.7-.14,4.31-2.69,6.89-3.11h0a5.23,5.23,0,0,0,0-1c-4.08.12-8.3-.51-11.89,2.22-2.24,1.7-4.82,1.66-7.47,2-7.19.8-14.3,2.11-19.58,7.84a1.59,1.59,0,0,1-.9.44,21.26,21.26,0,0,1-7.38,1.59,6.14,6.14,0,0,0-4.74,2h0c3,2.63,5.09-1,7.63-1.36,5.16-.74,11.08-.46,15.16-4.95,3.24-3.56,7.31-4.34,11.77-3.35,1.55.35,3,.8,4.09-.55,1.76-2.07,4.05-1.88,6.37-1.78h0Z"/><path class="cj" d="M252.12,230.42c1.13-1.55,2.52-1.23,3.94-.44-1.54-6.09-4.49-2.11-7-1h0l-10,7h0C243.37,234.1,248.86,234.9,252.12,230.42Z"/><path class="e" d="M191.75,250a21.26,21.26,0,0,0,7.38-1.59c.3-.14.6-.28.9-.44-5.14.37-10.29.7-15.13,2.66-.3.12-.61.23-.91.36a2.16,2.16,0,0,1,2,1h0l1,0h0A6.14,6.14,0,0,1,191.75,250Z"/><path class="bn" d="M115,269c-3-2.26-5.46-.31-8,1h0A20.27,20.27,0,0,0,115,269Z"/><path class="bn" d="M130,265c-3-.73-5.36,1.26-8,2h0C124.9,267.13,127.75,267.2,130,265Z"/><rect class="ck" x="572.92" y="84.33" width="3.74" height="3.74"/><rect class="ck" x="572.92" y="90.25" width="3.74" height="3.73"/><rect class="ck" x="579.18" y="78.42" width="3.74" height="3.74"/><rect class="ck" x="579.18" y="84.33" width="3.74" height="3.74"/><rect class="ck" x="579.18" y="90.25" width="3.74" height="3.73"/><path class="ck" d="M601.61,79V68.06A2.63,2.63,0,0,0,599,65.43H569.46a2.63,2.63,0,0,0-2.63,2.63V97.58a2.63,2.63,0,0,0,2.63,2.63h19.27A12.53,12.53,0,1,0,601.61,79ZM578.23,68h12v3.1h-12Zm8.11,23.56a1.15,1.15,0,1,1,1.15-1.15A1.15,1.15,0,0,1,586.34,91.57Zm-.89-13.15v3.74h1.7a12.49,12.49,0,0,0-1.47,14.47H570.06V74.07h28.32v4a12.24,12.24,0,0,0-9.21,2.26V78.42Zm12.26,1.79a1.15,1.15,0,1,1-1.15-1.15A1.15,1.15,0,0,1,597.7,80.21Zm-1.15,21.58a1.15,1.15,0,1,1,1.15-1.15A1.15,1.15,0,0,1,596.55,101.78Zm7-16.55L598.7,90a2,2,0,0,1,.09.44,2.25,2.25,0,0,1-4.49.12l-5.11-4a.94.94,0,1,1,1.16-1.48L595,88.79a2.24,2.24,0,0,1,1.53-.62,2.19,2.19,0,0,1,1.06.3l4.56-4.56a1,1,0,1,1,1.33,1.33Zm3.25,4a1.15,1.15,0,1,1-1.15,1.15A1.15,1.15,0,0,1,606.76,89.27Z"/><path class="ck" d="M547.6,91.14A4.16,4.16,0,1,0,543.44,87a4.12,4.12,0,0,0,.16,1.08l-7.06,3.61a4.16,4.16,0,1,0,.06,5.05l7,3.6a4.11,4.11,0,0,0-.19,1.17,4.21,4.21,0,1,0,.91-2.57l-7.06-3.61a3.71,3.71,0,0,0,0-2.24l7-3.6A4.13,4.13,0,0,0,547.6,91.14Z"/><polygon class="ck" points="491.47 57.61 482.76 53.27 491.47 49.08 491.47 44.65 478.97 51.43 478.97 55.2 491.47 62.02 491.47 57.61"/><polygon class="ck" points="504.52 42.26 501.9 42.26 493.61 64.41 496.21 64.41 504.52 42.26"/><polygon class="ck" points="507.32 49.03 516.03 53.3 507.32 57.61 507.32 62.02 519.83 55.19 519.83 51.43 507.32 44.64 507.32 49.03"/><path class="ck" d="M516.48,93.34h-3.77V82.1a3.89,3.89,0,0,0-3.87-3.87H480.89A3.88,3.88,0,0,0,477,82.1V98.44a3.88,3.88,0,0,0,3.87,3.87h3.57v11.25a3.19,3.19,0,0,0,3.18,3.18h7.08a3.19,3.19,0,0,0,3.19-3.18V102.31h2.56v5.63a2.81,2.81,0,0,0,2.8,2.8h13.2a2.8,2.8,0,0,0,2.8-2.8V96.14A2.81,2.81,0,0,0,516.48,93.34Zm-.82,1.54a.86.86,0,1,1-.86.86A.87.87,0,0,1,515.66,94.88Zm-2.48,0a.86.86,0,1,1-.86.86A.86.86,0,0,1,513.18,94.88ZM508,80.21a1.13,1.13,0,1,1-1.13,1.13A1.13,1.13,0,0,1,508,80.21Zm-3.24,0a1.13,1.13,0,1,1-1.13,1.13A1.13,1.13,0,0,1,504.73,80.21ZM495.51,114h-8.63V98.76h8.63Zm-4.36-17.73a.86.86,0,1,1,.86.86A.86.86,0,0,1,491.15,96.29Zm2.48,0a.87.87,0,1,1,.87.86A.87.87,0,0,1,493.62,96.29Zm6.86-.15V99h-2.56V96.93a3.19,3.19,0,0,0-3.18-3.18h-7.08a3.19,3.19,0,0,0-3.18,3.18V99H480V84.38h29.82v9h-6.5A2.8,2.8,0,0,0,500.48,96.14Zm16.69,12.2H502.6V97.92h14.56Z"/><path class="ck" d="M461.55,119l-9.4-9.44,4.27-4.27,3.81-2.46,1.52-2.73L460,98.36l-2.73,1.52-2.46,3.81L450.53,108l-4.23-4.25,0-5.61-5.74-1.54-.61.61,3.05,3-3,3-3-3-.61.61,1.54,5.74h5.46l0,0,4.31,4.33L446,112.46l-1-1L443.37,113l.5.5c-1.45.55-5.45,4.55-6,6l-.5-.5-1.61,1.61,3.7,3.7,1.61-1.61-.5-.5c1.45-.55,5.45-4.55,6-6l.5.5,1.61-1.61-1-1,1.59-1.59,9.4,9.44h0a2,2,0,0,0,2.88-2.89Zm-.79,2.12a.9.9,0,1,1,0-1.28A.9.9,0,0,1,460.75,121.14Z"/><path class="ck" d="M409,102.92h-4.15V99.16h-5.18v-7.9h5.18V82.61H393.48v8.64h4.83v7.9h-4.83v3.76h-4V99.16H378.12v8.65H389.5v-3.52h4v3.52h4.83v6h-4.83v8.64h11.37v-8.64h-5.18v-6h5.18v-3.52H409v3.52h11.37V99.16H409Zm-22.07,2.54h-6.25v-4.14h6.25ZM396,88.92V84.77h6.25v4.15ZM402.29,116v4.14H396V116Zm0-10.53H396v-4.14h6.25Zm9.28-4.14h6.25v4.14h-6.25Z"/><path class="ck" d="M550.33,34.69h21.76V33.33a2,2,0,0,0-2-2h-9V30.1A3.06,3.06,0,0,0,558,27h-5.22a3.07,3.07,0,0,0-3.06,3.06v1.19h-9a2,2,0,0,0-2,2V51.55l6.86-13.89A5.65,5.65,0,0,1,550.33,34.69Zm1.74-5.31a1,1,0,0,1,.72-.3H558a1,1,0,0,1,1,1v1.19h-7.26V30.1h0A1,1,0,0,1,552.07,29.39Z"/><path class="ck" d="M547.39,38.56l-7.88,16a1.17,1.17,0,0,0,1.14,1.83H570a3.6,3.6,0,0,0,2.94-1.83l7.88-16a1.17,1.17,0,0,0-1.14-1.83h-29.3A3.59,3.59,0,0,0,547.39,38.56Z"/><path class="ck" d="M612,61.27a36.47,36.47,0,0,0,.67-6.77c0-30.05-35.46-54.5-79.06-54.5C507.48,0,483,9,468.32,23.83a71.54,71.54,0,0,0-23.86-4c-27.06,0-49.37,14.29-51.89,32.63-28,3.3-48.53,19.84-48.53,39.8,0,22.28,26.3,40.42,58.63,40.42H574.44c32.32,0,58.63-18.13,58.64-40.42C633.08,80.15,625.44,69,612,61.27Zm-37.54,63.56H402.66c-26,0-47.22-14.6-47.22-32.55,0-16.72,18.93-31,43.09-32.4l5.2-.47V55.79c0-15.49,18.27-28.09,40.72-28.09A54.28,54.28,0,0,1,467,32.42l5,2.32,3-3.61c12.1-14.34,34.51-23.26,58.47-23.26,37.3,0,67.65,20.92,67.65,46.63a32.55,32.55,0,0,1-1,7.79l-.58,2.38,2.82,1.44c12.21,6.22,19.22,15.76,19.22,26.16C621.66,110.22,600.48,124.82,574.44,124.82Z"/><path class="ck" d="M439.67,73l2.85,10a1.37,1.37,0,0,0,1.54,1l1.05-.2a1.1,1.1,0,0,0,.87-1.4L443.32,73H457a2.27,2.27,0,0,0,2.25-2.26V45.83A2.26,2.26,0,0,0,457,43.57H440.27a2.39,2.39,0,0,0,.31-1.13,2.45,2.45,0,1,0-4.91,0,2.4,2.4,0,0,0,.31,1.13H419.26A2.26,2.26,0,0,0,417,45.83V70.72A2.26,2.26,0,0,0,419.26,73h13.68l-2.66,9.37a1.1,1.1,0,0,0,.87,1.4l1.06.2a1.38,1.38,0,0,0,1.54-1l2.84-10Zm-18.38-4.4V47.5H455V68.58Z"/><path class="ck" d="M449.92,52.83a1.74,1.74,0,0,0-1.62,2.4l-4.43,4a1.6,1.6,0,0,0-2,.1l-4.35-3.7a1.72,1.72,0,0,0,.12-.6,1.75,1.75,0,1,0-3.5,0,1.7,1.7,0,0,0,.12.6l-8,6.25a1.7,1.7,0,0,0-1-.33A1.75,1.75,0,1,0,427,63.29a1.64,1.64,0,0,0-.1-.49c2.24-1.8,6.19-5,8-6.37a1.58,1.58,0,0,0,1.83.1l4.52,3.84a1.58,1.58,0,0,0-.06.3,1.75,1.75,0,0,0,3.51,0,1.65,1.65,0,0,0-.1-.48l4.52-4.08a1.73,1.73,0,0,0,.8.22,1.75,1.75,0,0,0,0-3.5Z"/></svg>