<svg width="70" xmlns="http://www.w3.org/2000/svg" viewBox="0 0 100 25.57"><defs><style>.a{fill:#ccc;}.b{fill:#a6120d;}.c{fill:#b3b3b3;}.d{fill:#dd1b16;}.e{fill:#f2f2f2;}</style></defs><title>angular</title><path class="a" d="M25.7,18.57V8.27H27l6.3,8.3V8.27H34.6v10.3H33.27L27,10.2v8.37Zm19.12-.4a7.47,7.47,0,0,1-2.69.48q-5.6,0-5.6-5.37,0-5.08,5.4-5.08a9.27,9.27,0,0,1,2.88.43V9.78a7.67,7.67,0,0,0-2.74-.5q-4.21,0-4.21,4,0,4.29,4.15,4.29a7,7,0,0,0,1.47-.17v-3.5h1.33v4.28ZM47,14.59V8.27h1.33v6.32q0,3,3,3t3-3V8.27h1.33v6.32q0,4-4.29,4T47,14.59ZM59.23,8.27v9.22h5.39v1.08H57.9V8.27Zm7.31,10.3H65.16L70.28,6.91,75.4,18.57H73.93l-1.33-3.24H69.19l.37-1.08h2.59L70.22,9.58Zm10.26,0V8.27H81.2q2.94,0,2.94,2.47,0,2-2.87,3l3.54,4.85H83l-3.28-4.63v-.87q3-.47,3-2.27,0-1.43-1.64-1.43H78.14v9.2Zm13-10.3V15.6q0,3-3.49,3V17.49q2.16,0,2.16-1.89V8.27Zm2.38,9.94V17a10.39,10.39,0,0,0,3.5.58q2.66,0,2.66-1.95,0-1.65-2-1.66H95q-3.23,0-3.23-2.81T96,8.2a12.43,12.43,0,0,1,3.35.43V9.85A9.52,9.52,0,0,0,96,9.28q-2.81,0-2.81,1.87,0,1.66,1.9,1.66h1.33q3.29,0,3.29,2.81,0,3-4,3a13.58,13.58,0,0,1-3.5-.43Z"/><path d="M26,18.23V7.93h1.33l6.3,8.3V7.93h1.26v10.3H33.61L27.3,9.86v8.37Zm19.12-.4a7.47,7.47,0,0,1-2.69.48q-5.6,0-5.6-5.37,0-5.08,5.4-5.08a9.3,9.3,0,0,1,2.88.43V9.45a7.67,7.67,0,0,0-2.74-.5q-4.21,0-4.21,4,0,4.29,4.15,4.29a7,7,0,0,0,1.47-.17v-3.5h1.33v4.28Zm2.12-3.57V7.93h1.33v6.32q0,3,3,3t3-3V7.93h1.33v6.32q0,4-4.29,4T47.29,14.26ZM59.57,7.93v9.22H65v1.08H58.24V7.93Zm7.31,10.3H65.5L70.62,6.57l5.12,11.66H74.26L72.93,15H69.52l.37-1.08h2.59L70.56,9.24Zm10.26,0V7.93h4.39q2.94,0,2.94,2.47,0,2-2.87,3l3.54,4.85H83.38L80.11,13.6v-.87q3-.47,3-2.27Q83.06,9,81.42,9H78.48v9.2Z"/><path class="b" d="M90.13,7.93v7.33q0,3-3.49,3V17.15q2.16,0,2.16-1.89V7.93Zm2.38,9.94V16.65a10.4,10.4,0,0,0,3.5.58q2.66,0,2.66-1.95,0-1.66-2-1.66H95.38q-3.23,0-3.23-2.81t4.14-3a12.47,12.47,0,0,1,3.35.43V9.52a9.52,9.52,0,0,0-3.35-.58q-2.81,0-2.81,1.87,0,1.66,1.9,1.66h1.33q3.29,0,3.29,2.81,0,3-4,3A13.57,13.57,0,0,1,92.51,17.87Z"/><path class="c" d="M12,0,0,4.23,1.9,20,12,25.57l10.19-5.65,1.9-15.76Z"/><path class="b" d="M22.94,5.07,12,1.34V24.24l9.16-5.07Z"/><path class="d" d="M1.35,5.14,3,19.23l9,5V1.34Z"/><path class="e" d="M15,13.53l-3,1.41H8.83L7.34,18.67l-2.77.05L12,2.17Zm-.29-.71L12,7.48,9.81,12.73H12Z"/><path class="c" d="M12,2.17l0,5.31,2.51,5.26H12v2.2h3.49l1.63,3.78,2.65,0Z"/></svg>