<svg height="50" xmlns="http://www.w3.org/2000/svg" viewBox="0 0 61.43 70"><defs><style>.a{fill:#5b4282;}</style></defs><title>bootstrap</title><path class="a" d="M0,62.36H2.35a4.52,4.52,0,0,1,2.33.46,1.59,1.59,0,0,1,.72,1.45,1.83,1.83,0,0,1-.32,1.11,1.27,1.27,0,0,1-.84.52v.05a1.66,1.66,0,0,1,1,.6,2,2,0,0,1,.32,1.17,1.92,1.92,0,0,1-.75,1.61,3.22,3.22,0,0,1-2,.58H0Zm1.6,3h.93a1.7,1.7,0,0,0,.94-.2.75.75,0,0,0,.29-.67.67.67,0,0,0-.32-.62,2,2,0,0,0-1-.19H1.6Zm0,1.27v2h1a1.55,1.55,0,0,0,1-.25.93.93,0,0,0,.31-.77q0-.94-1.34-.94Zm12.34-.5A4.09,4.09,0,0,1,13,69a3.44,3.44,0,0,1-2.66,1,3.44,3.44,0,0,1-2.66-1,4.11,4.11,0,0,1-.93-2.89,4.05,4.05,0,0,1,.93-2.88,3.48,3.48,0,0,1,2.67-1,3.43,3.43,0,0,1,2.66,1A4.11,4.11,0,0,1,13.94,66.12Zm-5.5,0A3.15,3.15,0,0,0,8.92,68a1.68,1.68,0,0,0,1.43.64q1.91,0,1.91-2.54t-1.9-2.55a1.69,1.69,0,0,0-1.44.64A3.14,3.14,0,0,0,8.44,66.12Zm13.91,0A4.09,4.09,0,0,1,21.42,69a3.44,3.44,0,0,1-2.66,1,3.44,3.44,0,0,1-2.66-1,4.11,4.11,0,0,1-.93-2.89,4.05,4.05,0,0,1,.93-2.88,3.48,3.48,0,0,1,2.67-1,3.43,3.43,0,0,1,2.66,1A4.11,4.11,0,0,1,22.35,66.12Zm-5.5,0a3.15,3.15,0,0,0,.48,1.9,1.68,1.68,0,0,0,1.43.64q1.91,0,1.91-2.54t-1.9-2.55a1.69,1.69,0,0,0-1.44.64A3.14,3.14,0,0,0,16.84,66.12Zm10,3.78h-1.6V63.69h-2V62.36h5.69v1.33h-2Zm7.66-2.09a2,2,0,0,1-.73,1.61,3.19,3.19,0,0,1-2,.59,4.8,4.8,0,0,1-2.13-.45V68.06a8.85,8.85,0,0,0,1.29.48,3.81,3.81,0,0,0,1,.14,1.38,1.38,0,0,0,.81-.2.69.69,0,0,0,.28-.6.66.66,0,0,0-.12-.39,1.38,1.38,0,0,0-.36-.33,9.32,9.32,0,0,0-1-.51,4.61,4.61,0,0,1-1-.62,2.34,2.34,0,0,1-.55-.7,2,2,0,0,1-.21-.93,2,2,0,0,1,.68-1.57,2.82,2.82,0,0,1,1.87-.57,4.42,4.42,0,0,1,1.12.14,7.72,7.72,0,0,1,1.12.39L33.92,64a7.59,7.59,0,0,0-1-.35,3.21,3.21,0,0,0-.78-.1,1,1,0,0,0-.7.21.7.7,0,0,0-.24.55.68.68,0,0,0,.1.37,1.08,1.08,0,0,0,.31.3,9.69,9.69,0,0,0,1,.53,4,4,0,0,1,1.45,1A2,2,0,0,1,34.48,67.8Zm4.28,2.09h-1.6V63.69h-2V62.36H40.8v1.33h-2ZM43.56,67V69.9H42V62.36h2.2a3.76,3.76,0,0,1,2.27.56,2.23,2.23,0,0,1,.37,2.88,2.42,2.42,0,0,1-1,.81q1.7,2.54,2.22,3.29H46.21L44.41,67h-.85Zm0-1.3h.52a2,2,0,0,0,1.12-.25.9.9,0,0,0,.36-.79.83.83,0,0,0-.37-.76A2.24,2.24,0,0,0,44,63.67h-.48Zm10,4.19L53,68.1H50.25L49.7,69.9H48l2.66-7.57h2l2.67,7.57Zm-.93-3.14L51.76,64c-.06-.21-.11-.38-.14-.51q-.17.66-1,3.26Zm8.81-2.05a2.3,2.3,0,0,1-.76,1.86,3.25,3.25,0,0,1-2.16.65h-.69V69.9h-1.6V62.36h2.41a3.21,3.21,0,0,1,2.09.59A2.16,2.16,0,0,1,61.43,64.71Zm-3.61,1.2h.53a1.75,1.75,0,0,0,1.1-.29,1,1,0,0,0,.37-.85,1,1,0,0,0-.31-.83,1.44,1.44,0,0,0-1-.27h-.73V65.9Zm-21.49-35a17,17,0,0,0-4.83-.43H23.95V41.73h8.13a16.24,16.24,0,0,0,3-.25,7.11,7.11,0,0,0,2.52-.95,4.85,4.85,0,0,0,1.67-1.86,5.79,5.79,0,0,0,.65-2.79,5.31,5.31,0,0,0-.95-3.15A4.89,4.89,0,0,0,36.32,30.88ZM35.17,26a4.69,4.69,0,0,0,2.51-1.69,4.8,4.8,0,0,0,.84-2.91,5.35,5.35,0,0,0-.79-2.91,4,4,0,0,0-2.25-1.71,18.92,18.92,0,0,0-5-.46H23.95V26.5H31A15,15,0,0,0,35.17,26ZM60.6,8a8,8,0,0,0-8-8H8.79a8,8,0,0,0-8,8V51.81a8,8,0,0,0,8,8H52.63a8,8,0,0,0,8-8ZM43.44,40.19A8.35,8.35,0,0,1,41,43.26,10.22,10.22,0,0,1,37.41,45a21.44,21.44,0,0,1-5.33.67H19.44V12.41H31.88a15.31,15.31,0,0,1,6.07,1,7.83,7.83,0,0,1,3.58,3.09,8.15,8.15,0,0,1,1.29,4.36,7.5,7.5,0,0,1-1.15,4,8.2,8.2,0,0,1-3.47,3,8.62,8.62,0,0,1,4.6,3,8,8,0,0,1,1.61,5A9.64,9.64,0,0,1,43.44,40.19Z"/></svg>