<svg height="50" xmlns="http://www.w3.org/2000/svg" viewBox="0 0 51.06 70"><defs><style>.a{fill:#1572b6;}</style></defs><title>css</title><path class="a" d="M0,12.09,4.65,64.21,25.5,70l20.91-5.8,4.65-52.11ZM39.86,41.17,38.51,53.78v1.08l-13,3.63h0L12.44,54.91l-.89-10H18l.45,5,7.11,1.9h0v0l7.14-2,.75-8.38H18.5l-.13-1.36-.29-3.25-.15-1.73H34l.58-6.34H10.11L10,27.31l-.29-3.47-.15-1.95h32l-.15,1.92L39.86,41.17"/><path class="a" d="M40.51,7.7,36.39,2.88h4.12V0H31.29V2.51l4.83,4.4H31.29V9.79h9.21Zm-10.94,0L25.64,2.88h3.92V0H20.92V2.51l4.45,4.4H20.92V9.79h8.64ZM19.2,6.91H14.59v-4H19.2V0H11.13V9.79H19.2Z"/></svg>