<svg width="70" xmlns="http://www.w3.org/2000/svg" viewBox="0 0 100 42.72"><defs><style>.a{fill:#003a2b;}.b{fill:#fff;}</style></defs><title>django</title><path class="a" d="M100,37.2a5.53,5.53,0,0,1-5.52,5.52h-89A5.53,5.53,0,0,1,0,37.2V5.52A5.53,5.53,0,0,1,5.52,0h89A5.53,5.53,0,0,1,100,5.52Z"/><path class="b" d="M17.2,6.64H22V28.56a29.84,29.84,0,0,1-6.16.64c-5.76,0-8.8-2.64-8.8-7.6,0-4.8,3.2-8,8.16-8a8.72,8.72,0,0,1,2.08.24V6.64Zm0,11a5.54,5.54,0,0,0-1.6-.24c-2.4,0-3.76,1.44-3.76,4.08s1.36,3.92,3.76,3.92a5.72,5.72,0,0,0,1.6-.16ZM29.52,14V25c0,3.76-.24,5.6-1.12,7.2a7.59,7.59,0,0,1-3.84,3.52l-4.4-2.08c2.08-1,3.12-1.84,3.76-3.2s.88-3,.88-7V14ZM24.8,6.72h4.72V11.6H24.8ZM32.4,15a14.51,14.51,0,0,1,6.24-1.44c2.4,0,4,.64,4.72,1.92.4.72.56,1.6.56,3.6v9.6a50.78,50.78,0,0,1-6.8.56c-4,0-5.76-1.36-5.76-4.48,0-3.36,2.4-4.88,8.16-5.36v-1c0-.88-.4-1.2-1.6-1.2a12.4,12.4,0,0,0-5.6,1.44V15Zm7.36,7.52c-3.12.32-4.16.8-4.16,2,0,1,.56,1.36,1.84,1.36a11.9,11.9,0,0,0,2.24-.24V22.56Zm6.48-7.84a29.12,29.12,0,0,1,7.44-1c2.4,0,4.16.56,5.2,1.6s1.28,2.16,1.28,4.48V29H55.44V19.92c0-1.84-.64-2.48-2.32-2.48a8.26,8.26,0,0,0-2.16.32V29H46.24ZM62,31.6a10.72,10.72,0,0,0,5,1.28c3.12,0,4.4-1.28,4.4-4.24v-.08a6.29,6.29,0,0,1-3,.64c-4.16,0-6.8-2.72-6.8-7,0-5.36,3.92-8.4,10.8-8.4a34.3,34.3,0,0,1,6.16.64L77,17.84c-1.28-.24-.08,0-1-.16v.48l.08,2v2.56a15.42,15.42,0,0,0,.08,1.92v1.28c0,4.08-.32,6-1.36,7.52-1.44,2.32-4,3.44-7.68,3.44a12.41,12.41,0,0,1-5.12-1V31.6Zm9.44-14.08H71a5.93,5.93,0,0,0-2.72.64,3.73,3.73,0,0,0-1.76,3.44c0,2.4,1.2,3.76,3.28,3.76A6.24,6.24,0,0,0,71.52,25V17.52ZM86,13.6c4.72,0,7.6,3,7.6,7.84s-3,8.08-7.84,8.08-7.68-3-7.68-7.76C78.16,16.72,81.2,13.6,86,13.6Zm-.08,12c1.84,0,2.88-1.52,2.88-4.16s-1-4.16-2.88-4.16-3,1.52-3,4.16S84.08,25.6,85.92,25.6Z"/></svg>