<svg  height="50" xmlns="http://www.w3.org/2000/svg" viewBox="0 0 60.81 70"><defs><style>.a{fill:#0073ba;}.b{fill:#00598e;}.c{fill:#fff;}.d{fill:#004975;}.e{fill:#93c5e4;}.f{fill:none;}</style></defs><title>drupal_1</title><path class="a" d="M32,55.76H29.15v5.38c0,1.57-.67,2.84-2.25,2.84s-2.25-1.27-2.25-2.84V55.77H21.8v5.37c0,3.11,2,5.62,5.1,5.62S32,64.25,32,61.14Zm25.92-3.28h2.86v14H57.94ZM19.46,55.65c-2.47-.57-4,1.88-4.08,2s0,.1-.14.1-.1-.1-.1-.1l-.31-1.87H12.26V66.48h2.87V60.69a3.13,3.13,0,0,1,3.74-2.16,3.9,3.9,0,0,1,1.78.82V56.1A4.58,4.58,0,0,0,19.46,55.65ZM35.93,70V66.15h0V64.71s0-.12.11-.12.11.06.14.12a3.41,3.41,0,0,0,4.07,2A5.66,5.66,0,1,0,33,61.22V70Zm2.78-11.64a2.87,2.87,0,1,1-2.87,2.86A2.87,2.87,0,0,1,38.71,58.36ZM53.9,66.48h2.88V61.22a5.66,5.66,0,1,0-7.2,5.45,3.41,3.41,0,0,0,4.07-2c0-.06,0-.12.14-.12s.11.12.11.12M54,61.22a2.87,2.87,0,1,1-2.87-2.86A2.87,2.87,0,0,1,54,61.22ZM3.27,66.46H0v-14H3.51c4.24,0,7.46.78,7.46,7S7.56,66.46,3.27,66.46ZM4,54.91H2.89V64l1.19,0c2.43,0,4-.22,4-4.59C8.08,55.28,6.69,54.91,4,54.91Z"/><path class="b" d="M41.62,9.58C39,7.94,36.51,7.29,34,5.66A35.34,35.34,0,0,1,28.57,0c-.35,3.42-1.39,4.81-2.58,5.8a35.59,35.59,0,0,1-6.3,3.77c-1.84.94-11.8,6.89-11.8,19.69S18.66,51.48,30.61,51.48,52.92,42.8,52.92,29.66A23.33,23.33,0,0,0,41.62,9.58Z"/><path class="c" d="M37.59,40.36a4.11,4.11,0,0,1,2.23.45A3.92,3.92,0,0,1,41,42.6a.7.7,0,0,1-.4,1c-.35.2-.4.1-.74-.54s-.65-1.29-2.38-1.29A4,4,0,0,0,34.31,43c-.84.69-1.14.94-1.44.54s-.2-.79.35-1.29a9,9,0,0,1,2.28-1.64A4.46,4.46,0,0,1,37.59,40.36ZM29.36,46c1,.79,2.48,1.44,5.65,1.44a11.23,11.23,0,0,0,6.4-1.64c.45-.35.64,0,.69.15a.75.75,0,0,1-.2.84,10.76,10.76,0,0,1-5.21,2.08c-2.68.25-6.3.4-8.48-1.59a.71.71,0,0,1,0-1,1.16,1.16,0,0,1,.74-.35C29.26,45.92,29.21,45.92,29.36,46Z"/><path class="a" d="M17.21,42.25c3.77,0,4.46-.69,7.78-2.18,18-8,21.27-15.37,21.92-17.06a10.86,10.86,0,0,0,.6-7.44c-.19-.58-.33-1.05-.43-1.43A24.72,24.72,0,0,0,41.6,9.57C39,7.93,36.5,7.29,34,5.65c-1.54-1-3.67-3.52-5.45-5.65C28.21,3.42,27.22,4.86,26,5.8a35.59,35.59,0,0,1-6.3,3.77c-1.83,1-11.8,6.89-11.8,19.69a21.61,21.61,0,0,0,3,11l.49,0A7.83,7.83,0,0,0,17.21,42.25Z"/><path class="d" d="M41.6,9.57C39,7.93,36.5,7.29,34,5.65c-1.54-1-3.67-3.52-5.45-5.65C28.21,3.42,27.22,4.86,26,5.8a35.59,35.59,0,0,1-6.3,3.77c-1.83,1-11.8,6.89-11.8,19.69a21.61,21.61,0,0,0,3,11A23,23,0,0,0,30.59,51.47c12,0,22.32-8.68,22.32-21.82a22.71,22.71,0,0,0-5.84-15.51A24.74,24.74,0,0,0,41.6,9.57Zm6,5.8a22.29,22.29,0,0,1,4.91,14.28,21.93,21.93,0,0,1-1.78,8.8A20.24,20.24,0,0,1,46,45.22a22.88,22.88,0,0,1-23.84,4.24A22.65,22.65,0,0,1,15,44.89,21.32,21.32,0,0,1,8.26,29.26a21.08,21.08,0,0,1,5.12-14A23.59,23.59,0,0,1,19.86,9.9c.53-.29,1-.54,1.5-.79a26.61,26.61,0,0,0,4.85-3c1-.79,2.14-2,2.61-5.2a29.18,29.18,0,0,0,5,5.08,26.9,26.9,0,0,0,3.89,2,28.67,28.67,0,0,1,3.7,1.89l0,0A23.84,23.84,0,0,1,47.63,15.38Z"/><path class="e" d="M28.81,1a9,9,0,0,1,.6,3.52,3.14,3.14,0,0,1-1,2.23c-.35.25-.45.45-.45.5s.45.35.45.79-.25,1.64-2.88,4.26a37.21,37.21,0,0,1-9.32,6.4c-2.93,1.44-4.31,1.34-4.71.65s.15-2.23,2-4.26,7.64-5,7.64-5l7.24-5.06.4-1.93"/><path class="c" d="M28.81.94C28.36,4.21,27.37,5.21,26,6.25a30.52,30.52,0,0,1-4.91,3c-1.29.64-6,3.22-8.38,6.94-.74,1.14,0,1.59.15,1.69s1.83.3,5.45-1.88a29.83,29.83,0,0,0,7.24-5.6c1.09-1.14,1.24-1.79,1.24-2.08s-.25-.5-.64-.6c-.2,0-.25-.15,0-.3s1.29-.65,1.54-.84a3.24,3.24,0,0,0,1.49-2.28A9.15,9.15,0,0,0,28.81.94ZM17.65,37c0-3.87,3.67-7.49,8.23-7.54,5.8,0,9.82,5.75,12.74,5.7,2.48,0,7.24-4.91,9.57-4.91s3.17,2.58,3.17,4.12a12.19,12.19,0,0,1-1.69,6c-1.19,1.74-1.93,2.38-3.32,2.28-1.79-.15-5.36-5.7-7.64-5.8-2.88-.1-9.12,6-14,6-3,0-3.87-.45-4.86-1.09A5.31,5.31,0,0,1,17.65,37Z"/><path class="f" d="M47.51,15.57a10.86,10.86,0,0,1-.6,7.44c-.65,1.69-4,9-21.92,17.06-3.32,1.49-4,2.13-7.78,2.18a7.83,7.83,0,0,1-5.85-2l-.49,0A23,23,0,0,0,30.6,51.47c12,0,22.32-8.68,22.32-21.82a22.71,22.71,0,0,0-5.84-15.51C47.17,14.52,47.31,15,47.51,15.57Z"/></svg>