<svg width="50" xmlns="http://www.w3.org/2000/svg" viewBox="0 0 70 69.53"><defs><style>.a{fill:#181616;}.b{fill:#100e0f;}</style></defs><title>github</title><path class="a" d="M35,0a23.39,23.39,0,0,0-7.39,45.58c1.17.22,1.6-.51,1.6-1.13s0-2.4,0-4.35c-6.51,1.41-7.88-2.76-7.88-2.76-1.06-2.7-2.6-3.42-2.6-3.42-2.12-1.45.16-1.42.16-1.42a4.92,4.92,0,0,1,3.59,2.41c2.09,3.58,5.47,2.54,6.81,1.94a5,5,0,0,1,1.49-3.13c-5.19-.59-10.66-2.6-10.66-11.56a9.05,9.05,0,0,1,2.41-6.28,8.4,8.4,0,0,1,.23-6.19s2-.63,6.43,2.4a22.18,22.18,0,0,1,11.71,0c4.46-3,6.42-2.4,6.42-2.4a8.39,8.39,0,0,1,.23,6.19,9,9,0,0,1,2.41,6.28c0,9-5.47,11-10.68,11.54A5.59,5.59,0,0,1,40.83,38c0,3.13,0,5.65,0,6.42s.42,1.35,1.61,1.12A23.39,23.39,0,0,0,35,0Z"/><path class="a" d="M20.47,33.58c-.05.12-.24.15-.4.07s-.26-.23-.21-.35.23-.15.4-.07.27.24.21.35Zm.95,1.06c-.11.1-.33.05-.48-.11s-.18-.38-.07-.49.33-.05.48.11.18.38.07.49ZM22.34,36c-.14.1-.38,0-.52-.2s-.14-.46,0-.56.38,0,.52.2.14.46,0,.56Zm1.26,1.3c-.13.14-.4.1-.6-.09a.45.45,0,0,1-.13-.6c.13-.14.4-.1.61.09s.26.46.13.6Zm1.74.76c-.06.18-.32.27-.58.19s-.44-.29-.38-.48.32-.27.59-.19.44.29.38.48Zm1.91.14c0,.19-.22.35-.5.36s-.51-.15-.51-.34.22-.35.5-.36S27.26,38,27.26,38.18Zm1.78-.3c0,.19-.16.38-.44.43s-.52-.07-.56-.25.16-.38.43-.44.52.06.56.26Z"/><path class="b" d="M13.48,58.7H7.6a.27.27,0,0,0-.27.27v2.88a.27.27,0,0,0,.27.27H9.89V65.7A6.94,6.94,0,0,1,8,65.88c-1.68,0-4-.61-4-5.78s2.45-5.84,4.74-5.84a9.3,9.3,0,0,1,3.39.52.28.28,0,0,0,.33-.27L13,51.73a.26.26,0,0,0-.11-.21c-.22-.16-1.57-.91-5-.91-3.93,0-8,1.67-8,9.7s4.61,9.23,8.5,9.23a9.57,9.57,0,0,0,5.17-1.38.24.24,0,0,0,.09-.21V59a.27.27,0,0,0-.27-.27Zm30-7.42H40.21a.27.27,0,0,0-.27.28h0V58H34.78v-6.4a.27.27,0,0,0-.27-.28H31.19a.27.27,0,0,0-.27.28h0V68.89a.28.28,0,0,0,.27.28H34.5a.27.27,0,0,0,.27-.28h0V61.48h5.16v7.41a.28.28,0,0,0,.27.28h3.32a.27.27,0,0,0,.27-.28h0V51.56A.27.27,0,0,0,43.52,51.29Zm-25.93.39a2.16,2.16,0,1,0,2.14,2.16A2.15,2.15,0,0,0,17.6,51.68ZM19.22,57h-3.3a.32.32,0,0,0-.29.31V68.73c0,.34.21.44.48.44h3c.33,0,.41-.16.41-.44V57.24a.27.27,0,0,0-.27-.28h0Zm37.16,0H53.1a.27.27,0,0,0-.27.28h0v8.5a3.72,3.72,0,0,1-2,.61c-1.18,0-1.5-.54-1.5-1.7V57.26A.27.27,0,0,0,49,57H45.7a.28.28,0,0,0-.27.28v8c0,3.45,1.92,4.29,4.56,4.29a7.7,7.7,0,0,0,3.92-1.2A6.7,6.7,0,0,0,54,69a.29.29,0,0,0,.24.15h2.12a.28.28,0,0,0,.27-.28h0V57.26a.28.28,0,0,0-.27-.28Zm9-.39a6.18,6.18,0,0,0-3.14.83V51.56a.27.27,0,0,0-.27-.28H58.64a.27.27,0,0,0-.27.27h0V68.89a.27.27,0,0,0,.27.28h2.31a.27.27,0,0,0,.24-.15,5.49,5.49,0,0,0,.14-.8,5.94,5.94,0,0,0,3.93,1.29c3,0,4.75-1.53,4.75-6.87s-2.76-6-4.63-6Zm-1.3,9.76a3.94,3.94,0,0,1-1.91-.55V60.32a4.4,4.4,0,0,1,1.7-.55c1.18-.11,2.32.25,2.32,3.08,0,3-.51,3.57-2.11,3.52Zm-35-.06c-.14,0-.52.06-.9.06-1.22,0-1.63-.57-1.63-1.3V60.18H29a.27.27,0,0,0,.27-.27h0V57.23A.27.27,0,0,0,29,57H26.53V53.68c0-.12-.06-.19-.21-.19H22.93c-.13,0-.2.06-.2.18v3.39l-1.81.44a.27.27,0,0,0-.2.26V59.9a.27.27,0,0,0,.27.28h1.74v5.13c0,3.81,2.67,4.18,4.47,4.18a7.55,7.55,0,0,0,2-.32.26.26,0,0,0,.16-.25V66.57a.28.28,0,0,0-.27-.28Z"/></svg>