<svg width="70" xmlns="http://www.w3.org/2000/svg" viewBox="0 0 100 32.87"><defs><style>.a{fill:#4885ed;}.b{fill:#db3236;}.c{fill:#f4c20d;}.d{fill:#3cba54;}</style></defs><title>google</title><path class="a" d="M24.42,11.61H12.73v3.47H21C20.61,19.94,16.56,22,12.74,22a9.27,9.27,0,1,1,0-18.54A9,9,0,0,1,19,6l2.43-2.52A12.35,12.35,0,0,0,12.66,0a12.75,12.75,0,1,0,.18,25.5c6.82,0,11.82-4.67,11.82-11.59a10.4,10.4,0,0,0-.21-2.3Z"/><path class="b" d="M34,9.1a8.19,8.19,0,1,0,8.22,8.22,8.1,8.1,0,0,0-8-8.22Zm0,3.22a5,5,0,1,1-4.68,5.27q0-.15,0-.31a4.71,4.71,0,0,1,4.46-5Z"/><path class="c" d="M51.92,9.1a8.19,8.19,0,1,0,8.22,8.22,8.1,8.1,0,0,0-8-8.22Zm0,3.22a5,5,0,1,1-4.68,5.27q0-.15,0-.31a4.71,4.71,0,0,1,4.46-5Z"/><path class="a" d="M69.49,9.1a8.12,8.12,0,0,0-7.87,8.18,8.08,8.08,0,0,0,7.79,8.2,5.41,5.41,0,0,0,4.49-2v1.58c0,2.83-1.72,4.52-4.31,4.52a4.54,4.54,0,0,1-4.18-2.87L62.24,28a7.92,7.92,0,0,0,7.37,4.83c4.38,0,7.72-2.76,7.72-8.54V9.6H73.91V11A5.8,5.8,0,0,0,69.49,9.1Zm.32,3.21c2.16,0,4.37,1.85,4.37,5s-2.21,5-4.42,5a4.66,4.66,0,0,1-4.54-4.78q0-.08,0-.16A4.71,4.71,0,0,1,69.81,12.31Z"/><path class="b" d="M92.62,9.08c-4.15,0-7.65,3.3-7.65,8.18a7.92,7.92,0,0,0,7.62,8.22H93a8.31,8.31,0,0,0,6.86-3.6L97,20a4.59,4.59,0,0,1-4,2.26,4.22,4.22,0,0,1-4-2.48l11-4.56-.57-1.34a7.42,7.42,0,0,0-6.81-4.8Zm.14,3.17a3.26,3.26,0,0,1,3,1.75l-7.34,3.07a4.55,4.55,0,0,1,4.26-4.81Z"/><path class="d" d="M79.74,25h3.61V.85H79.74Z"/></svg>