<svg height="50" xmlns="http://www.w3.org/2000/svg" viewBox="0 0 49.77 70"><defs><style>.a{fill:#e44d26;}</style></defs><title>html</title><path class="a" d="M0,14.21,4.53,64.58,24.86,70l20.38-5.32,4.53-50.47ZM40.35,25.68l-.28,3.27-.12,1.51H16.1l.57,6.72H39.38l-.15,1.25L37.76,54.62l-.11.95L24.89,59h0L12.11,55.69l-.87-9.55H17.5l.44,4.74,6.94,1.76V52.5h0l7-1.48.73-7.69H11L9.44,26.07l-.15-1.77H40.5l-.15,1.38ZM4.7,0H7.85V3.11h2.88V0h3.15V9.42H10.73V6.27H7.85V9.42H4.7ZM18,3.12H15.25V0h8.7V3.12H21.17v6.3H18ZM25.32,0h3.28l2,3.31,2-3.31h3.29V9.42H32.79V4.75L30.63,8.1h-.05L28.4,4.75V9.42H25.32V0ZM37.5,0h3.15V6.31h4.43V9.42H37.5Z"/></svg>