<svg height="50" xmlns="http://www.w3.org/2000/svg" viewBox="0 0 70 69.99"><defs><style>.a{fill:#faa625;}</style></defs><title>illustrator</title><path class="a" d="M26.09,37.77h8.54c-1.47-5-2.92-9.62-4.34-14.32C28.91,28.17,27.5,32.77,26.09,37.77ZM68.4,0H1.05C-.16,0,0,.26,0,1.44V68.87C0,70-.16,70,1,70H68.48C69.61,70,70,70,70,68.87V1.52C70,.26,69.61,0,68.4,0Zm-26,52.77c-.91,0-1.82-.07-2.73,0-.65,0-.87-.23-1-.79-.84-2.74-1.73-5.48-2.58-8.22A.88.88,0,0,0,35,43q-4.6.05-9.21,0a1,1,0,0,0-1.13.81c-.78,2.72-1.64,5.43-2.42,8.15a.9.9,0,0,1-1.06.78c-1.84,0-3.69,0-5.71,0,.53-1.69,1-3.26,1.52-4.81q4.59-14.33,9.18-28.67a1,1,0,0,1,1.19-.86c2.16,0,4.32,0,6.48,0,.4,0,.68,0,.83.48C38.31,30,41.94,41.28,45.56,52.45c0,.05,0,.32,0,.32H42.39Zm11.5,0H47.23v-25h6.67ZM50.36,24.4A3.33,3.33,0,0,1,46.86,21a3.39,3.39,0,0,1,3.56-3.42,3.4,3.4,0,1,1-.05,6.8Z"/></svg>