<svg width="90" xmlns="http://www.w3.org/2000/svg" viewBox="0 0 100 34.92"><defs><style>.a{fill:#4e8ef7;}</style></defs><title>ionic</title><rect class="a" x="44.5" y="12.95" width="0.72" height="13.64"/><path class="a" d="M55.46,12.62a7.14,7.14,0,1,0,7.18,7.14,7,7,0,0,0-6.9-7.14Zm0,13.64a6.49,6.49,0,1,1,6.48-6.5s0,0,0,0a6.35,6.35,0,0,1-6.21,6.48Z"/><path class="a" d="M76.23,14a6.79,6.79,0,0,0-4.35-1.36c-2.16,0-4.56,1-5.4,3h-.06V13H65.7V26.6h.72V18.75c0-3.42,2.11-5.46,5.56-5.46a5.41,5.41,0,0,1,3.86,1.29c1,.93,1.67,2.44,1.67,4.82V26.6h.72V19.39C78.25,16.95,77.6,15.11,76.23,14Z"/><rect class="a" x="82.24" y="12.95" width="0.72" height="13.64"/><path class="a" d="M93.2,26.26A6.35,6.35,0,0,1,86.74,20q0-.13,0-.26a6.49,6.49,0,0,1,1.88-4.66,6.27,6.27,0,0,1,4.61-1.83,6.17,6.17,0,0,1,6,4.09H100a7.19,7.19,0,1,0-6.79,9.52A6.92,6.92,0,0,0,100,22.27h-.79A6.17,6.17,0,0,1,93.2,26.26Z"/><circle class="a" cx="44.85" cy="8.72" r="0.78"/><circle class="a" cx="82.6" cy="8.72" r="0.78"/><circle class="a" cx="17.48" cy="17.44" r="7.12"/><path class="a" d="M32,5.36a2.44,2.44,0,0,0-4-1.85A17.46,17.46,0,1,0,31.41,7,2.44,2.44,0,0,0,32,5.36ZM17.51,34.29A16.85,16.85,0,1,1,27.56,4,2.44,2.44,0,0,0,31,7.37,16.84,16.84,0,0,1,17.51,34.29Z"/></svg>