<svg height="50" xmlns="http://www.w3.org/2000/svg" viewBox="0 0 70 70"><defs><style>.a{fill:#f0db4f;}.b{fill:#323330;}</style></defs><title>javascript</title><path class="a" d="M0,0H70V70H0Z"/><path class="b" d="M65.53,56.69c-.51-3.19-2.6-5.88-8.76-8.38-2.14-1-4.53-1.69-5.24-3.31a3.61,3.61,0,0,1-.13-2c.46-1.86,2.68-2.44,4.43-1.9a4.88,4.88,0,0,1,2.85,2.64c3-2,3-1.94,5.12-3.29a13.1,13.1,0,0,0-1.69-2.26c-1.82-2-4.29-3.07-8.25-3l-2.06.27a9.36,9.36,0,0,0-5,2.93,9.16,9.16,0,0,0,1.66,13c4,3,9.81,3.66,10.55,6.45.73,3.41-2.51,4.52-5.72,4.13-2.37-.49-3.69-1.7-5.11-3.89L42.9,61.14a11.83,11.83,0,0,0,2.38,3.24c5.07,5.14,17.76,4.89,20-2.89A9.63,9.63,0,0,0,65.53,56.69ZM39.31,35.56H32.76l0,16.93c0,3.6.19,6.9-.4,7.91-1,2-3.44,1.74-4.57,1.36a5.62,5.62,0,0,1-2.42-2.51,3.3,3.3,0,0,0-.37-.6l-5.32,3.26a10.52,10.52,0,0,0,3.86,4.42,12.71,12.71,0,0,0,9.36,1.15,8.26,8.26,0,0,0,5.28-4.14c1.49-2.75,1.17-6.07,1.16-9.75C39.34,47.58,39.31,41.58,39.31,35.56Z"/></svg>