<svg height="50" xmlns="http://www.w3.org/2000/svg" viewBox="0 0 66.26 70"><defs><style>.a{fill:#0868ac;}.b{fill:#131b28;}</style></defs><title>jquery</title><path class="a" d="M12.33,10.78c-4.22,6.06-3.69,14-.47,20.4l.24.46.15.29.09.17.17.3.31.53.18.29.36.56.15.23.52.75v0l.09.12.47.63.18.23.44.54.17.2.61.69h0l0,0,.62.65.2.2.49.48.2.19.67.61h0l.12.1.61.52.25.2.51.4.27.21.57.41.21.15.06,0,.56.37.24.16.87.53.24.14.65.37.36.19.47.24.11.05.19.09.74.34.16.07.87.36.21.08.82.3.1,0,.91.3.22.07a8.89,8.89,0,0,0,.94.27c20.41,3.72,26.33-12.26,26.33-12.26-5,6.49-13.81,8.2-22.19,6.29-.32-.07-.63-.17-.93-.26L32.46,39l-.9-.29-.12,0-.79-.29-.22-.09L29.56,38l-.17-.08-.72-.34-.21-.1-.56-.28-.37-.2-.67-.38-.23-.13-.87-.53-.24-.16-.62-.41-.2-.14-.59-.42-.26-.2-.53-.41L23.09,34l-.66-.56-.07-.06-.69-.63-.2-.19-.5-.49-.2-.2-.61-.65,0,0-.62-.71-.16-.19-.45-.55-.16-.2-.52-.69c-4.65-6.34-6.32-15.08-2.6-22.27m9.8-.93c-3.05,4.39-2.89,10.27-.51,14.91a19.37,19.37,0,0,0,1.35,2.25,10.67,10.67,0,0,0,1.57,2c.22.24.45.48.68.71l.18.18c.23.22.46.44.7.65l0,0h0c.27.23.54.46.82.68l.19.14c.28.21.56.42.85.62l0,0,.39.26.18.12.63.39.09.05.56.31.2.1.39.2.06,0,.82.38.18.07.67.27.29.11.62.21.28.09a6.91,6.91,0,0,0,.89.26C53.32,33.3,57,21.17,57,21.17c-3.28,4.72-9.63,7-16.4,5.22l-.89-.26L39.4,26l-.62-.21-.28-.11-.67-.27-.18-.08L36.82,25l-.41-.21-.24-.12-.52-.3-.12-.07-.63-.39-.19-.13-.41-.27c-.29-.2-.57-.41-.85-.62l-.19-.15a19,19,0,0,1-6.43-9.17A14.23,14.23,0,0,1,27.92,2.15m8.52-.3a9.18,9.18,0,0,0-.73,8.86,12.47,12.47,0,0,0,7.16,6.69l.39.13.17.06a4.78,4.78,0,0,0,.56.16c8.7,1.68,11.06-4.46,11.69-5.37-2.07,3-5.54,3.69-9.8,2.66-.34-.08-.71-.2-1-.32a12.8,12.8,0,0,1-1.22-.51,12.74,12.74,0,0,1-2.15-1.31C37.67,10,35.3,4.5,37.79,0"/><path class="b" d="M34.49,54.33H32.06a.32.32,0,0,0-.3.24l-.86,4-.86,4a.32.32,0,0,1-.3.24H28c-1.7,0-1.5-1.17-1.15-2.78v0l0-.2v0l.08-.41.08-.44.09-.45.39-1.91L28,54.57a.19.19,0,0,0-.2-.24H25.28a.32.32,0,0,0-.3.24l-.54,2.54-.53,2.54h0l0,.24c-.62,2.81-.45,5.5,2.9,5.58h5.36a.32.32,0,0,0,.3-.24l1.13-5.33,1.13-5.33A.19.19,0,0,0,34.49,54.33Zm-26,0H5.85a.32.32,0,0,0-.3.24L5.3,55.65,5,56.77a.19.19,0,0,0,.19.24H7.92a.32.32,0,0,0,.3-.24l.24-1.11.24-1.11A.19.19,0,0,0,8.51,54.3Zm-.77,3.47H5.05a.32.32,0,0,0-.3.24l-.38,1.67L4,61.35l-.11.48-.36,1.7-.36,1.71c0,.13-.09.34-.13.47s-.5,1.49-1.34,1.48H.86a.32.32,0,0,0-.3.23L.28,68.57,0,69.74A.19.19,0,0,0,.19,70l2.2,0c2.11,0,3.22-1.17,3.93-4.52l.83-3.85L7.93,58A.19.19,0,0,0,7.74,57.77Zm49.43-.9-.11-.46-.11-.47-.06-.24c-.22-.85-.86-1.34-2.25-1.34h-6.4a.32.32,0,0,0-.3.24l-.1.47-.12.55,0,.16-1,4.73-1,4.49a1,1,0,0,0,0,.36c0,.07.27.12.41.12h2a1.27,1.27,0,0,0,.38-.05c.07,0,.18-.29.21-.43l.36-1.78.36-1.78h0l0-.24.44-2,.39-1.8a.32.32,0,0,1,.3-.24H57A.18.18,0,0,0,57.16,56.87Zm8.19-4.16H62.83a.52.52,0,0,0-.38.2l-4.5,6.6c-.08.11-.16.1-.19,0L57.42,58a.32.32,0,0,0-.3-.24h-2.9A.17.17,0,0,0,54,58l1.3,4.55a1.08,1.08,0,0,1,0,.47l-.57,2.2a.18.18,0,0,0,.18.24h2.86a.33.33,0,0,0,.31-.24L58.7,63a1.45,1.45,0,0,1,.21-.43l7.31-9.71c.08-.11,0-.2-.1-.19Zm-23,5.69h0a.29.29,0,0,1-.29.25H38.39a.16.16,0,0,1-.17-.19h0l0-.06a2.3,2.3,0,0,1,2.41-1.54C42.16,56.84,42.45,57.57,42.35,58.4Zm-1.08-4.24c-4.71,0-5.83,2.86-6.46,5.75s-.57,5.69,4.3,5.69h1.37l3.1,0a.32.32,0,0,0,.29-.24l.2-1,0-.19L44.36,63a.19.19,0,0,0-.2-.24H39.78c-1.74,0-2.26-.46-2.07-1.83h7A.29.29,0,0,0,45,60.8l0-.06h0C46,56.81,45.73,54.17,41.27,54.17ZM19,58.39l-.07.23h0L18.4,60.5l-.53,1.88a.34.34,0,0,1-.31.24h-2.8c-2.12,0-2.64-1.66-2.12-4.11s1.53-4.07,3.62-4.22C19.12,54.06,19.69,56.07,19,58.39Zm1.92,4.08a31.41,31.41,0,0,0,1.62-5.06c.41-2.48-.83-6.08-5.63-6.08s-6.84,3.43-7.63,7.17.25,7.06,5,7h7.23a.34.34,0,0,0,.31-.24l.61-2.32a.18.18,0,0,0-.18-.24H21.07a.15.15,0,0,1-.17-.17Zm23.6-2.15a.16.16,0,1,1-.16-.16A.16.16,0,0,1,44.52,60.32Z"/></svg>