<svg width="70" xmlns="http://www.w3.org/2000/svg" viewBox="0 0 90 46.74"><defs><style>.a{fill:#00618a;}</style></defs><title>mysql</title><path class="a" d="M0,42.58H3V30.8L7.6,41.07a2.54,2.54,0,0,0,2.75,1.68,2.51,2.51,0,0,0,2.72-1.68L17.69,30.8V42.58h3V30.82a1.79,1.79,0,0,0-1.41-2c-2.27-.71-3.79-.1-4.47,1.43L10.26,40.4,5.88,30.27c-.66-1.53-2.21-2.14-4.47-1.43a1.79,1.79,0,0,0-1.41,2V42.58ZM23.15,33h3v6.49c0,.35.11,1.18,1.75,1.21.83,0,6.43,0,6.48,0V33h3s0,10.53,0,10.58c0,2.6-3.22,3.16-4.72,3.21H23.22v-2h9.43c1.92-.2,1.69-1.16,1.69-1.48v-.78H28c-2.95,0-4.83-1.31-4.85-2.79C23.15,39.55,23.22,33.06,23.15,33Zm16.5,9.59h8.57A6.62,6.62,0,0,0,51,42a2.71,2.71,0,0,0,1.92-2.45V37.38c0-.86-.72-1.66-2.12-2.2a7.32,7.32,0,0,0-2.55-.44H44.61c-1.2,0-1.78-.36-1.92-1.17a.86.86,0,0,1,0-.27V31.95a.8.8,0,0,1,0-.25c.14-.61.46-.78,1.52-.88l.29,0H53v-2H44.64a8,8,0,0,0-2.41.25c-1.78.55-2.55,1.43-2.55,3v1.74c0,1.34,1.52,2.49,4.07,2.75.29,0,.57,0,.86,0h3.1a1.69,1.69,0,0,1,.32,0c.95.08,1.35.25,1.63.59a.71.71,0,0,1,.23.53v1.74a1,1,0,0,1-.43.71,2.11,2.11,0,0,1-1.26.42l-.32,0H39.65ZM71.5,39.12c0,2,1.52,3.19,4.59,3.42.29,0,.57,0,.86,0h7.77v-2H76.89c-1.75,0-2.41-.44-2.41-1.49V28.81h-3v10.3Zm-16.7.1V32.13c0-1.8,1.26-2.89,3.76-3.24a5.66,5.66,0,0,1,.8-.06H65a6,6,0,0,1,.83.06c2.5.34,3.76,1.44,3.76,3.24v7.09A2.59,2.59,0,0,1,67.85,42l2.94,2.65H67.33L65,42.48l-2.39.15H59.37a6.59,6.59,0,0,1-1.75-.25C55.72,41.86,54.8,40.87,54.8,39.22ZM58,39a1.3,1.3,0,0,0,.06.31c.17.82.95,1.28,2.13,1.28h2.71l-2.49-2.25h3.46l2.17,2a1.41,1.41,0,0,0,.76-1,1,1,0,0,0,0-.29v-6.8a.93.93,0,0,0,0-.27c-.17-.77-.95-1.21-2.1-1.21H60.2c-1.32,0-2.18.57-2.18,1.47V39ZM87.34,25.51a10.49,10.49,0,0,0-4.43.62c-.34.14-.88.15-.94.57.19.2.22.49.36.73a5.75,5.75,0,0,0,1.2,1.41c.47.35,1,.74,1.46,1,.9.55,1.9.86,2.76,1.41.51.32,1,.73,1.51,1.1.25.18.41.46.73.57v-.05c-.17-.21-.21-.51-.37-.73L89,31.51a11.1,11.1,0,0,0-2.4-2.29c-.71-.51-2.31-1.2-2.61-2l-.05-.05a11.52,11.52,0,0,0,1.56-.37c.78-.21,1.48-.16,2.29-.37l1.09-.31v-.21c-.41-.42-.7-1-1.15-1.36A33.55,33.55,0,0,0,84,21.71c-.73-.46-1.63-.76-2.4-1.15-.26-.13-.71-.2-.89-.42a11,11,0,0,1-.94-1.77c-.65-1.26-1.3-2.64-1.88-4a21.27,21.27,0,0,0-1.15-2.61,23,23,0,0,0-8.86-8.55,10.61,10.61,0,0,0-2.92-.94l-1.72-.1a9.2,9.2,0,0,1-1-.78c-1.31-.83-4.66-2.62-5.63-.26-.61,1.49.91,2.95,1.46,3.7a11.22,11.22,0,0,1,1.15,1.72c.18.39.21.78.37,1.2a27.45,27.45,0,0,0,1.2,3.07,10.88,10.88,0,0,0,.83,1.41c.19.26.52.38.57.78a6.37,6.37,0,0,0-.52,1.72,10,10,0,0,0,.68,7.66c.36.58,1.22,1.84,2.4,1.36s.8-1.72,1.1-2.87c.07-.26,0-.45.16-.62v.05l.94,1.88a12.77,12.77,0,0,0,3,3.08c.54.41,1,1.12,1.67,1.36v-.05h-.05c-.14-.21-.35-.3-.52-.47a11.84,11.84,0,0,1-1.2-1.36,31.69,31.69,0,0,1-2.55-4.17c-.37-.7-.68-1.47-1-2.19-.12-.28-.12-.69-.36-.83a10.35,10.35,0,0,0-1.1,1.56,13.41,13.41,0,0,0-.62,3.44l-.1.05c-.73-.17-1-.92-1.25-1.56a9.85,9.85,0,0,1-.21-6.1c.16-.48.86-2,.57-2.45s-.58-.7-.83-1A8.15,8.15,0,0,1,61.44,10c-.56-1.26-.82-2.68-1.41-4A11.58,11.58,0,0,0,58.88,4.3a10.43,10.43,0,0,1-1.25-1.77c-.12-.26-.28-.67-.1-.94a.41.41,0,0,1,.31-.31c.3-.23,1.14.08,1.46.21a12.76,12.76,0,0,1,2.24,1.15c.34.23.68.66,1.09.78h.47c.73.17,1.56.05,2.24.26a13.55,13.55,0,0,1,3.28,1.56,20.34,20.34,0,0,1,7.14,7.82c.27.52.39,1,.62,1.56.48,1.11,1.09,2.25,1.56,3.34A15.57,15.57,0,0,0,79.58,21c.35.47,1.72.73,2.35,1a13.92,13.92,0,0,1,1.56.62c.79.48,1.55,1,2.29,1.56C86.15,24.47,87.28,25,87.34,25.51ZM64,5.66a3.72,3.72,0,0,0-.94.1v.05h.05a7.05,7.05,0,0,0,.73.94l.52,1.09.05-.05a1.27,1.27,0,0,0,.47-1.15c-.13-.14-.15-.31-.26-.47S64.23,5.84,64,5.66Z"/></svg>