<svg width="70" xmlns="http://www.w3.org/2000/svg" viewBox="0 0 100 28.24"><defs><style>.a{fill:#83cd29;}.b{fill:#404137;}</style></defs><title>nodejs</title><path class="a" d="M92,28.09a1.38,1.38,0,0,1-.69-.19L89.08,26.6c-.33-.18-.17-.25-.06-.29a4.49,4.49,0,0,0,1-.45.17.17,0,0,1,.16,0l1.7,1a.22.22,0,0,0,.21,0l6.62-3.82a.21.21,0,0,0,.1-.18V15.23a.21.21,0,0,0-.1-.18l-6.62-3.82a.21.21,0,0,0-.2,0l-6.62,3.82a.22.22,0,0,0-.1.18v7.64a.2.2,0,0,0,.1.18l1.81,1c1,.49,1.59-.09,1.59-.67V15.89a.19.19,0,0,1,.19-.19h.84a.19.19,0,0,1,.19.19v7.55a1.83,1.83,0,0,1-2,2.07,2.84,2.84,0,0,1-1.53-.41l-1.74-1A1.4,1.4,0,0,1,84,22.88V15.24A1.39,1.39,0,0,1,84.67,14l6.62-3.83a1.45,1.45,0,0,1,1.39,0L99.31,14a1.4,1.4,0,0,1,.69,1.21v7.64a1.4,1.4,0,0,1-.69,1.21l-6.62,3.82a1.38,1.38,0,0,1-.7.19m2-5.27c-2.9,0-3.51-1.33-3.51-2.45a.19.19,0,0,1,.19-.19h.86a.19.19,0,0,1,.19.16c.13.87.51,1.31,2.27,1.31,1.39,0,2-.32,2-1.06,0-.43-.17-.74-2.34-1-1.81-.18-2.93-.58-2.93-2s1.13-2.13,3-2.13c2.12,0,3.17.74,3.3,2.32a.19.19,0,0,1-.19.21H96a.19.19,0,0,1-.19-.15c-.21-.92-.71-1.21-2.07-1.21-1.52,0-1.7.53-1.7.93s.21.62,2.27.89,3,.65,3,2.08-1.2,2.27-3.3,2.27"/><path class="b" d="M78.35,17.82a.85.85,0,0,0,.42-.73v-2a.85.85,0,0,0-.42-.73l-7-4.05a.85.85,0,0,0-.85,0l-7,4.05a.85.85,0,0,0-.42.73v8.11a.85.85,0,0,0,.43.74l7,4a.85.85,0,0,0,.83,0l4.22-2.35a.42.42,0,0,0,0-.74l-7.06-4.05a.42.42,0,0,1-.21-.37V17.9a.42.42,0,0,1,.21-.37l2.2-1.27a.42.42,0,0,1,.42,0l2.2,1.27a.42.42,0,0,1,.21.37v2a.42.42,0,0,0,.64.37l4.2-2.45"/><path class="a" d="M70.85,17.44a.17.17,0,0,1,.16,0l1.35.78a.16.16,0,0,1,.08.14v1.56a.16.16,0,0,1-.08.14L71,20.83a.16.16,0,0,1-.16,0l-1.35-.78a.16.16,0,0,1-.08-.14V18.36a.16.16,0,0,1,.08-.14l1.35-.78"/><path class="b" d="M52.57,20.67a.21.21,0,0,1-.11.18l-2.41,1.39a.21.21,0,0,1-.21,0l-2.41-1.39a.21.21,0,0,1-.11-.18V17.89a.22.22,0,0,1,.11-.18l2.41-1.39a.21.21,0,0,1,.21,0l2.41,1.39a.21.21,0,0,1,.11.18v2.78ZM53.23.05a.42.42,0,0,0-.63.37V11.2a.3.3,0,0,1-.44.26l-1.76-1a.85.85,0,0,0-.85,0l-7,4.05a.85.85,0,0,0-.42.74v8.11a.85.85,0,0,0,.42.74l7,4.06a.85.85,0,0,0,.85,0l7-4.06a.85.85,0,0,0,.42-.74V3.13a.85.85,0,0,0-.43-.74L53.23.05"/><path class="a" d="M28.51,10.29a.85.85,0,0,1,.85,0l7,4.05a.85.85,0,0,1,.42.74v8.11a.85.85,0,0,1-.42.74l-7,4.06a.85.85,0,0,1-.85,0l-7-4.06a.85.85,0,0,1-.42-.74V15.08a.85.85,0,0,1,.42-.73l7-4.05"/><path class="b" d="M15.74,15a.85.85,0,0,0-.42-.74l-7-4a.83.83,0,0,0-.39-.11H7.83a.83.83,0,0,0-.39.11l-7,4A.85.85,0,0,0,0,15L0,25.89a.42.42,0,0,0,.21.37.41.41,0,0,0,.42,0l4.17-2.39a.85.85,0,0,0,.42-.74V18a.85.85,0,0,1,.42-.74l1.78-1a.84.84,0,0,1,.85,0l1.78,1a.85.85,0,0,1,.42.74v5.08a.86.86,0,0,0,.42.74l4.17,2.39a.41.41,0,0,0,.42,0,.42.42,0,0,0,.21-.37l0-10.88"/></svg>