<svg height="50" xmlns="http://www.w3.org/2000/svg" viewBox="0 0 70 69.86"><defs><style>.a{fill:#80b5e2;}</style></defs><title>photoshop</title><path class="a" d="M27.36,22.56a15.49,15.49,0,0,0-6.26,0c0,3.78,0,7.46,0,11.14a.74.74,0,0,0,.47.54,11.74,11.74,0,0,0,6.91-.73,5.82,5.82,0,0,0,3.14-6.16A5.24,5.24,0,0,0,27.36,22.56ZM70,35V1.27C70,.11,70,0,68.88,0H1.38C.28,0,0,.11,0,1.21v67.5c0,1.12.14,1.12,1.23,1.12,22.53,0,45.13,0,67.66,0,.87,0,1.11-.23,1.11-1.09C70,57.51,70,46.24,70,35ZM30.75,38.22a23,23,0,0,1-9.64.9V51.67H15v-.78c0-10.5,0-21-.08-31.49,0-.87.13-1.29,1.12-1.39,4.63-.47,9.23-1,13.83.07,4.95,1.16,7.8,4.43,8,8.95C38.16,32.63,35.7,36.46,30.75,38.22Zm24.62,7.09a6.86,6.86,0,0,1-5,6.33,16.53,16.53,0,0,1-11.79-.49c-.63-.25-.76-.57-.55-1.22.38-1.18.66-2.4,1-3.49a45.61,45.61,0,0,0,4.81,1.37,11,11,0,0,0,3.53-.1,2.25,2.25,0,0,0,2-2A2.51,2.51,0,0,0,48.11,43c-.8-.48-1.67-.82-2.51-1.22a35.07,35.07,0,0,1-4-2c-4.91-3.18-3.31-9.1,0-11.33a10.65,10.65,0,0,1,5.76-1.79,14.7,14.7,0,0,1,7.1,1.46l-1.22,4.33a19.55,19.55,0,0,0-2.82-1,13.2,13.2,0,0,0-3.45-.23,2.45,2.45,0,0,0-2.42,2.48,2,2,0,0,0,.94,1.8c.93.54,1.91,1,2.88,1.43s2.17.86,3.18,1.42A6.85,6.85,0,0,1,55.37,45.31Z"/></svg>