<svg width="90" xmlns="http://www.w3.org/2000/svg" xmlns:xlink="http://www.w3.org/1999/xlink" viewBox="0 0 100 31.27"><defs><style>.a{fill:#646464;}.b{fill:url(#a);}.c{fill:url(#b);}.d{opacity:0.44;isolation:isolate;fill:url(#c);}</style><linearGradient id="a" x1="-18.27" y1="191.39" x2="6.47" y2="212.68" gradientTransform="translate(9.68 -107.26) scale(0.56 0.57)" gradientUnits="userSpaceOnUse"><stop offset="0" stop-color="#5a9fd4"/><stop offset="1" stop-color="#306998"/></linearGradient><linearGradient id="b" x1="16.02" y1="225.57" x2="7.18" y2="213.07" gradientTransform="translate(9.68 -107.26) scale(0.56 0.57)" gradientUnits="userSpaceOnUse"><stop offset="0" stop-color="#ffd43b"/><stop offset="1" stop-color="#ffe873"/></linearGradient><radialGradient id="c" cx="-362.54" cy="-263.03" r="6.59" gradientTransform="translate(290.08 -57.43) rotate(-90) scale(0.24 1.05)" gradientUnits="userSpaceOnUse"><stop offset="0" stop-color="#b8b8b8" stop-opacity="0.5"/><stop offset="1" stop-color="#7f7f7f" stop-opacity="0"/></radialGradient></defs><title>python</title><path class="a" d="M40.63,13.31q0-5-2.83-5.09a5.3,5.3,0,0,0-2.19.36,3.22,3.22,0,0,0-1.15.61v7.89a5.61,5.61,0,0,0,3.21,1.05Q40.63,17.93,40.63,13.31Zm2.32.14a7,7,0,0,1-1.19,4.18,4.37,4.37,0,0,1-3.67,1.94,6.5,6.5,0,0,1-3.64-1.11v7.17l-2-.72V9a4.54,4.54,0,0,1,1.28-1.05A8.76,8.76,0,0,1,38.1,6.86l0,0a4,4,0,0,1,3.64,1.94A8.22,8.22,0,0,1,43,13.45Z"/><path class="a" d="M55.31,18.16a11.19,11.19,0,0,1-.68,4.68A4.78,4.78,0,0,1,52,24.91a9.92,9.92,0,0,1-3.35.66l-.33-1.27a16.1,16.1,0,0,0,2.57-.5,3.4,3.4,0,0,0,2-1.52,7.64,7.64,0,0,0,.44-3.18v-.53a10.4,10.4,0,0,1-4.35.94,4,4,0,0,1-2.63-.94A3.2,3.2,0,0,1,45.15,16V7.56l2-.69v8.47A2.57,2.57,0,0,0,48,17.42a3.31,3.31,0,0,0,2.27.71,5.67,5.67,0,0,0,3-1.08V7.17h2Z"/><path class="a" d="M63.21,19.46l-.67,0a4,4,0,0,1-2.67-.82,2.83,2.83,0,0,1-1-2.26v-8H57.53V7.17h1.38V3.79l2-.72v4.1H63.2V8.44H60.93v7.91A1.91,1.91,0,0,0,61.54,18a3.08,3.08,0,0,0,1.66.45v1.05Z"/><path class="a" d="M75.45,19.29h-2v-7.8a3.69,3.69,0,0,0-.56-2,2,2,0,0,0-1.78-1,6.56,6.56,0,0,0-3.48,1.47v9.35h-2V.64l2-.64V8.5a7,7,0,0,1,4.24-1.41,3.38,3.38,0,0,1,2.6,1.08,3.8,3.8,0,0,1,1,2.69Z"/><path class="a" d="M86.19,13a6.22,6.22,0,0,0-.72-3.15,3,3,0,0,0-2.66-1.6q-3.33.19-3.32,4.76a7.83,7.83,0,0,0,.69,3.5,2.79,2.79,0,0,0,2.67,1.76Q86.19,18.24,86.19,13Zm2.21,0A7.19,7.19,0,0,1,87,17.52a5,5,0,0,1-4.21,2,4.88,4.88,0,0,1-4.15-2A7.29,7.29,0,0,1,77.3,13a6.44,6.44,0,0,1,1.47-4.29,5.05,5.05,0,0,1,4.07-1.85,5.14,5.14,0,0,1,4.1,1.85A6.44,6.44,0,0,1,88.41,13Z"/><path class="a" d="M100,19.29H98V11a2.76,2.76,0,0,0-.82-2.12A3,3,0,0,0,95,8.19a4.86,4.86,0,0,0-2.74.94V19.29h-2V8.88a9.94,9.94,0,0,1,3.21-1.66,9.8,9.8,0,0,1,2.44-.36A6.35,6.35,0,0,1,97.23,7a3.9,3.9,0,0,1,1.94,1,2.71,2.71,0,0,1,.83,2v9.27Z"/><path class="b" d="M12.46.71A17.44,17.44,0,0,0,9.56,1c-2.57.46-3,1.41-3,3.16V6.44H12.6v.77H4.23A3.8,3.8,0,0,0,.43,10.3a11.38,11.38,0,0,0,0,6.18c.43,1.8,1.47,3.09,3.23,3.09H5.75V16.79A3.87,3.87,0,0,1,9.56,13h6.08a3.07,3.07,0,0,0,3-3.09V4.12a3.4,3.4,0,0,0-3-3.16A19.1,19.1,0,0,0,12.46.71ZM9.17,2.58A1.16,1.16,0,1,1,8,3.74,1.16,1.16,0,0,1,9.17,2.58Z"/><path class="c" d="M19.44,7.21v2.7a3.9,3.9,0,0,1-3.8,3.86H9.56a3.1,3.1,0,0,0-3,3.09v5.8c0,1.65,1.43,2.62,3,3.09a10.18,10.18,0,0,0,6.08,0c1.53-.44,3-1.34,3-3.09V20.34H12.6v-.77h9.12c1.77,0,2.43-1.23,3-3.09a10.45,10.45,0,0,0,0-6.18c-.44-1.76-1.27-3.08-3-3.08H19.44ZM16,21.89A1.16,1.16,0,1,1,14.88,23,1.15,1.15,0,0,1,16,21.89Z"/><path class="d" d="M20.82,29.69c0,.87-3.65,1.58-8.15,1.58s-8.16-.71-8.16-1.58,3.65-1.58,8.16-1.58S20.82,28.82,20.82,29.69Z"/></svg>