<svg height="50" xmlns="http://www.w3.org/2000/svg" viewBox="0 0 92.38 96.87"><defs><style>.a{fill:#465d73;}.b{fill:#219fb9;}.c{fill:#77755a;}.d{fill:#7d7b60;}.e{fill:#c0c8cf;}</style></defs><title>scrum</title><path class="a" d="M57.49,14l.74.13a.41.41,0,0,0,.55.1l.59.14a.33.33,0,0,0,.45.09l.38.11a.33.33,0,0,0,.45.1,30.43,30.43,0,0,1,14.52,8.55c6.3,6.8,8.34,14.89,7,23.9a30,30,0,0,1-8.89,17.28,15.11,15.11,0,0,1-4.11,2.81C62.58,70.35,55.65,72,48.37,70.7,38.43,68.89,31.54,62.93,27.12,54a16.34,16.34,0,0,1-1.94-5.79c0-.46-.23-1.21.25-1.32s.67.66.86,1.09c.58,1.3,1.1,2.62,1.68,3.92.13.29.16.69.56.81a1.72,1.72,0,0,0,.72,1.37c-.16-.57,0-1.29-.7-1.6,0-1.24-.73-2.29-.94-3.48-.08-.44-.19-.88-.28-1.31l.47-.27a30.16,30.16,0,0,0,8.51,13.67,26.46,26.46,0,0,0,5.87,4.06A21.83,21.83,0,0,0,51,68c.37,0,.76.16,1.1-.13l.16.21c.44,0,.95.41,1.22-.27a45.45,45.45,0,0,0,6.69-.31,6.51,6.51,0,0,0,4.37-1h0a1,1,0,0,0,1.06-.43h0L66,66l-.36-.09a1.11,1.11,0,0,0-1.65.44H63.3l-.43.2-.4-.1v0c.22-.35.15-.55-.29-.57a3.33,3.33,0,0,0-1.36.3,20.94,20.94,0,0,1-5.48.47c-1.6-.16-3.19-.53-4.78-.81a2.09,2.09,0,0,0-1-.1c-.16-.22-.33-.34-.59,0h.6c0,.25.21.21.34.3-.16.17-.35.06-.5,0a24.38,24.38,0,0,1-15-9.51c-.3-.41-.59-.83-.94-1.32.66-.25,1,.3,1.4.48s.61.76,1.18.82v-.8l0,0c1.36,1.12,2.7,2.26,4.09,3.34a8.14,8.14,0,0,0,3.61,1.77c.3.05.68.19.88-.09s-.15-.56-.31-.79a9.94,9.94,0,0,1-1.43-2.25c.49-.28.75,0,1,.19a23.47,23.47,0,0,0,5.89,2.32,16.2,16.2,0,0,0,5.85.34c1.54-.19,3.05-.48,4.58-.71.05.15.15.47.22.4.66-.6,1.62-.16,2.27-.72a16.57,16.57,0,0,0,3.8-1.63,21.62,21.62,0,0,0,3.21-2.75c.6-.67,1.36-1.19,2-1.82A10.63,10.63,0,0,0,73,50.79a20.83,20.83,0,0,0,2.65-10.15c0-1.67-.27-3.29-.31-4.94,0-.89-.74-1.52-1.05-2.33a24.42,24.42,0,0,0-7.22-9.88,20.32,20.32,0,0,0-4.38-2.83,21.94,21.94,0,0,0-9.55-2,12.24,12.24,0,0,1-3.62-.15.28.28,0,0,0,0-.16,1.59,1.59,0,0,1,.89-.2c.16.21.28.13.38-.05a1.48,1.48,0,0,1,.88-.15.49.49,0,0,0,.77-.05c2.09-.31,4.17.11,6.25.16a3.87,3.87,0,0,0,2.06.15,4.33,4.33,0,0,0-2.09-.58,40.36,40.36,0,0,0-7-.77A14.27,14.27,0,0,1,50,16.74c-.27,0-.61-.07-.65-.4s.31-.44.57-.5a12.4,12.4,0,0,1,2-.37,17.73,17.73,0,0,1,5.66.34c.23.06.61.2.71-.16s-.29-.44-.53-.48c-.53-.08-.28-.48-.38-.74ZM74.21,58.2c.1,0,.15-.11,0-.2l-.11.13-.1.19Zm-.66.8.11-.2-.19.11-.21.21a1.8,1.8,0,0,0-1.1.52A28,28,0,0,1,69.09,62a28.53,28.53,0,0,1-6.48,3.13c.11.32.4.43.52.38,3.65-1.69,7.43-3.16,10.2-6.27Zm-40.84.59a2,2,0,0,0-.22-.15s-.06.07-.09.11l.26.11a.37.37,0,0,0,.22.39,5.07,5.07,0,0,0,.4.6,26.38,26.38,0,0,0,9.4,6.87A16.25,16.25,0,0,0,47.37,69a1.66,1.66,0,0,0-1-.51,32.57,32.57,0,0,1-7.65-3.91c-2-1.4-3.72-3.2-5.72-4.63Zm-3.32-5a2,2,0,0,0,.75,1,1.27,1.27,0,0,0-.5-1C29.55,54.55,29.47,54.35,29.38,54.61Zm37.35,11a2,2,0,0,0,1.43-.71c-.25,0-.36,0-.43,0-.42.22-.84.45-1.26.68l-.13.14C66.52,65.88,66.61,65.7,66.73,65.63ZM81.09,40.91a32.11,32.11,0,0,1-4.67,14.42A23.64,23.64,0,0,0,81.09,40.91ZM51.66,70.1a6.11,6.11,0,0,0,4.11.26A13.47,13.47,0,0,0,51.66,70.1Zm-3.19-4.88-.2.06a.7.7,0,0,0,.19.13c.05,0,.12,0,.18-.05Z"/><path class="b" d="M13.07,24.8c0-1.14.05-2.29,0-3.43a3.12,3.12,0,0,1,.3-1.07c.92-1.83,1.47-3.8,2.21-5.7h0l.14-.06-.14-.16h0c-.13-.47.22-.77.42-1.11A18.54,18.54,0,0,1,25.2,5.41c.12.46-.42.64-.44,1l-.57.42c.17.43.52-.1.69.21C22.9,8.76,20.38,10,19.43,13c.93-.4,1.6-.69,2.28-1,.18-.07.4-.21.54,0s-.07.32-.18.45a27.18,27.18,0,0,0-2.19,3.16A13.47,13.47,0,0,0,18,22.9a19.78,19.78,0,0,0,0,4.57,14.67,14.67,0,0,0,2,4.7,13.26,13.26,0,0,1,1.25,2c.23.59.91.58,1.33,1a9.63,9.63,0,0,0,3.61,2.37l.43.33,2.49.84.38.07a.79.79,0,0,0,.65.13l.35,0a10.06,10.06,0,0,0,5.86.22,21.36,21.36,0,0,0,8.6-4,15.27,15.27,0,0,0,4.41-5.49A17.66,17.66,0,0,0,51,24.18a7,7,0,0,1,.51-1.58,7.16,7.16,0,0,1,0,2.69c-.14.88-.35,1.76-.53,2.64-.37.05-.39.33-.4.62,0,.56-.67,1.54-.21,1.55.66,0,.81-1,.85-1.72a20.07,20.07,0,0,0,1.22-4c.14-.51.16-1.42.69-1.33.69.11.35,1,.34,1.51a16.2,16.2,0,0,1-1,4.63c-.23.38-.65,1.11-.46,1.15.65.16.6-.63.89-1,0,0,0-.07,0-.1.71.12.79-.57,1.16-.91a20.28,20.28,0,0,1-2.78,6,22.11,22.11,0,0,1-15,9.91,23.16,23.16,0,0,1-6.31.08l-1.24-.1h0A4.79,4.79,0,0,0,27,43.85l-.34-.06a5.85,5.85,0,0,0-1.74-.63A24.42,24.42,0,0,1,13,34.48a9,9,0,0,1-1.33-2.23c-2.23-6-2.71-12.19-.33-18.2C14.23,6.84,19.9,2.64,27.3.67A15.16,15.16,0,0,1,31.81,0a1.92,1.92,0,0,1,1.52.54c-1.28.58-2.59.52-3.79.91a3,3,0,0,0-1.91.66,6.17,6.17,0,0,0,2.55-.24,35,35,0,0,1,4.93-.1l.07.29C27.67,2,21.33,4.64,16.4,10.42c-.05.06,0,.17-.07.25a15.57,15.57,0,0,0-3.45,6.45c-.1.34-.37.72.11,1a28.05,28.05,0,0,0-1,6.67,7,7,0,0,0,.41,3.32c.06-.78.55-1.54.11-2.33l.2-.57a13.35,13.35,0,0,1,.92,2.33,13.26,13.26,0,0,0,2.62,6.33,28.07,28.07,0,0,1-2.8-9c-.14.18,0,.5-.24.64ZM30.51,43.11a23,23,0,0,1-11.22-5.4C22,40.77,28.16,43.71,30.51,43.11Zm-10-38a15.86,15.86,0,0,0-6.58,6.6A41.37,41.37,0,0,1,20.52,5.08ZM10.68,19.44l.93-3A3.32,3.32,0,0,0,10.68,19.44Z"/><path class="c" d="M44.53,83.36a4.07,4.07,0,0,1,4.79-1.28c.66.22,1,1.15,1.49,1.14s.91-.84,1.53-1.12a3.57,3.57,0,0,1,5.29,3.08c.14,2,0,4.09.06,6.14,0,.43-.14.6-.59.66-1.88.22-2,.13-2-1.74,0-1.32,0-2.64,0-4,0-1.5-.51-2.14-1.64-2.2a2,2,0,0,0-2.21,2.09,37.32,37.32,0,0,0,0,4.68C51.31,92,50.75,92,49.94,92s-1.43.12-1.34-1.08c.12-1.55,0-3.12,0-4.68s-.44-2.08-1.55-2.14a2.05,2.05,0,0,0-2.32,2.11c-.07,1.11,0,2.22,0,3.33,0,.35,0,.69,0,1,0,1.41,0,1.35-1.39,1.43-1,.05-1.25-.24-1.22-1.21.07-2.46,0-4.93,0-7.39,0-1.37,0-1.33,1.42-1.38C44.35,82,44.75,82.18,44.53,83.36Z"/><path class="c" d="M4.74,92.29A6.54,6.54,0,0,1,.47,90.94c-.51-.4-.69-.76-.07-1.21a1.75,1.75,0,0,0,.37-.36c.6-.77,1.09-1,2-.17a3,3,0,0,0,3.33.4,1.76,1.76,0,0,0,1.22-1.54,1.58,1.58,0,0,0-1-1.67c-1.17-.51-2.41-.88-3.57-1.4A3.69,3.69,0,0,1,.39,80.62a3.8,3.8,0,0,1,1.45-2.44A7,7,0,0,1,9.41,78c.51.35.67.65.12,1.09a2.33,2.33,0,0,0-.43.45c-.53.71-1,1-1.89.33A3,3,0,0,0,4.3,79.6a1.63,1.63,0,0,0-1.17,1.45,1.45,1.45,0,0,0,1,1.56c1.15.48,2.35.84,3.5,1.32a3.69,3.69,0,0,1,2.51,3.39A4.26,4.26,0,0,1,8,91.46,5.92,5.92,0,0,1,4.74,92.29Z"/><path class="d" d="M90.92,90.42c-2.44,2.06-5.39,2-7.43-.18a4.73,4.73,0,0,1,0-6.43c1.95-2.14,4.94-2.22,7.44-.18.36-.35-.32-1.3.74-1.27.45,0,.72.11.72.64,0,3.05,0,6.11-.08,9.15a4.35,4.35,0,0,1-3,4.33,6.56,6.56,0,0,1-6.47-1.14c-.38-.3-.41-.59,0-.93s.57-.61,1-.09a3.68,3.68,0,0,0,1.74,1.09C89.08,96.56,91.52,94.35,90.92,90.42ZM91.06,87a3.76,3.76,0,1,0-3.77,3.74A3.69,3.69,0,0,0,91.06,87Z"/><path class="c" d="M37.35,90.55a3.56,3.56,0,0,1-3.46,1.59,3.3,3.3,0,0,1-3.22-3.42c-.06-2,0-4,0-5.93,0-.54.18-.71.72-.73,1.87-.09,1.87-.11,1.87,1.77,0,1.28,0,2.57,0,3.85,0,1.51.64,2.19,1.79,2.2a2.09,2.09,0,0,0,2.21-2.24c.07-1.52.06-3.05,0-4.58,0-.77.19-1.11,1-1a3.69,3.69,0,0,0,.83,0c.52,0,.75.14.74.7q0,4.22,0,8.43c0,.62-.25.78-.81.75C38.23,91.89,37.23,92.27,37.35,90.55Z"/><path class="c" d="M17.08,81.79a5.22,5.22,0,0,1,3,.93c.51.34.68.67.12,1.12a5.13,5.13,0,0,0-.67.66c-.33.39-.59.53-1.1.14a2.54,2.54,0,0,0-3.48.28,3.08,3.08,0,0,0-.22,3.84,2.83,2.83,0,0,0,3.55.82c.28-.14.51-.66.87-.36a6.65,6.65,0,0,1,1.35,1.43c.22.34-.25.5-.49.66A5.8,5.8,0,0,1,13.51,91a5.19,5.19,0,0,1,3.58-9.2Z"/><path class="d" d="M69.21,82.13a5,5,0,1,1,0,10.06,5,5,0,1,1,0-10.06Zm0,1.21a3.67,3.67,0,0,0-3.82,3.79A3.77,3.77,0,0,0,69.18,91,3.68,3.68,0,0,0,73,87.19,3.62,3.62,0,0,0,69.24,83.34Z"/><path class="c" d="M25,83.27a3.86,3.86,0,0,1,2.9-1.48c.69,0,1.16.16,1,1a4.65,4.65,0,0,0,0,.94c0,.46-.12.56-.61.52-2.41-.18-3.33.69-3.34,3.09,0,1.22-.05,2.43,0,3.64,0,.81-.26,1.08-1,1h-.21c-1.47,0-1.35.2-1.36-1.32,0-2.47.05-4.93,0-7.39,0-1,.31-1.31,1.23-1.16a.79.79,0,0,0,.21,0C24.6,82,25.25,82.06,25,83.27Z"/><path class="d" d="M77.83,83.7a4,4,0,0,1,2.7-1.55c.39,0,1-.23,1,.53,0,.6-.23.78-.87.8a2.72,2.72,0,0,0-2.8,2.86c-.07,1.59,0,3.18,0,4.77,0,.48,0,.89-.68.88s-.67-.41-.67-.89c0-2.59,0-5.19,0-7.78,0-.41-.19-.92.57-1s.72.45.72.94A2.68,2.68,0,0,0,77.83,83.7Z"/><path class="a" d="M36.73,19.9c-2.23,2.64-4.82,5-6.48,8.14-.49-.47-.31-.72-.19-.94A27,27,0,0,1,35.9,20a3.25,3.25,0,0,1,.63-.33Z"/><path class="b" d="M45.82,5.87a1,1,0,0,1,.79.14,20.18,20.18,0,0,1,5.54,5.91,2.59,2.59,0,0,1,.18.59l-.05.39c-.31-.06-.44-.35-.57-.56a27,27,0,0,0-5.88-6.49Z"/><path class="e" d="M52.28,12.9l.05-.39c.55,1.09,1.57,1,2.56,1a6.79,6.79,0,0,1,2.59.43l-.09.46a20.45,20.45,0,0,0-3.58-.48c-.79,0-1.52-.25-2.3-.19a19.84,19.84,0,0,0-2.9.14A2.24,2.24,0,0,1,47,13.71a25.67,25.67,0,0,1,4.35-.37C51.66,13.35,52.2,13.58,52.28,12.9Z"/><path class="e" d="M13,18.12c-.48-.28-.21-.65-.11-1a15.57,15.57,0,0,1,3.45-6.45.64.64,0,0,1,0,.85A29,29,0,0,0,13,18.12Z"/><path class="e" d="M13.07,24.8l.12.71c.28-.14.1-.46.24-.64a28.07,28.07,0,0,0,2.8,9,13.26,13.26,0,0,1-2.62-6.33,13.35,13.35,0,0,0-.92-2.33,1.08,1.08,0,0,0-.07-.3.37.37,0,0,1,.13-.53C13,24.32,12.88,24.71,13.07,24.8Z"/><path class="e" d="M45.84,5.86C43.38,4.48,41,2.92,38.18,2.31c-.2,0-.47-.06-.43-.33s.35-.28.59-.23a5.39,5.39,0,0,1,1.3.35,54.44,54.44,0,0,1,5.83,3.11.72.72,0,0,1,.36.66Z"/><path class="d" d="M30.55,38.95l-.35,0a15.66,15.66,0,0,1,2.2-7.3C31.87,33.75,30.82,36.25,30.55,38.95Z"/><path class="e" d="M52.13,67.84c-.34.28-.74.16-1.1.13a21.83,21.83,0,0,1-8.84-2.81c.44-.54.85-.71,1.16.11A15.13,15.13,0,0,0,47.71,67c1.46.35,2.94.56,4.42.84Z"/><path class="d" d="M52.13,67.85c-1.47-.27-3-.48-4.42-.84a15.13,15.13,0,0,1-4.37-1.75,1.35,1.35,0,0,1,.51,0,33.07,33.07,0,0,0,9.66,2.5c-.28.68-.79.32-1.22.27Z"/><path class="d" d="M61.16,90c.7.05,1.1.37,1.11,1a.91.91,0,0,1-1,1,1,1,0,0,1-1.06-1A1,1,0,0,1,61.16,90Z"/><path class="e" d="M15.62,14.6c-.74,1.9-1.29,3.87-2.21,5.7a12.85,12.85,0,0,1,1.9-5.69Z"/><path class="e" d="M29.55,38.79l-.38-.07a13.93,13.93,0,0,1,1.75-5.85A44.11,44.11,0,0,0,29.55,38.79Z"/><path class="e" d="M55.52,21.73a17.17,17.17,0,0,1-.75,5.19c0,.18-.09.34-.32.32s-.22-.15-.17-.3C54.9,25.26,54.93,23.44,55.52,21.73Z"/><path class="e" d="M31.38,53.2a12.35,12.35,0,0,1-2-4.65l.32-.2,1.8,4.77Z"/><path class="b" d="M38.89,5.28a11.89,11.89,0,0,1,4.48,2.35,32.05,32.05,0,0,0-4.42-2Z"/><path class="d" d="M29.68,48.34l-.32.2a11.89,11.89,0,0,1-.6-4.36h0A34.84,34.84,0,0,1,29.68,48.34Z"/><path class="e" d="M63.76,66.32H64c.16.22.42.08.61.15a6.51,6.51,0,0,1-4.37,1l2.67-.95.43-.2c.06.1.1.26.18.28S63.73,66.48,63.76,66.32Z"/><path class="e" d="M37.7,4.34a8.33,8.33,0,0,1,4.64,1.79C40.8,5.54,39.3,4.78,37.7,4.34Z"/><path class="e" d="M38.89,5.28l.06.34-3.57-.78A5.09,5.09,0,0,1,38.89,5.28Z"/><path class="d" d="M26.69,43.79l.34.06.47,2.59-.38.22A9.94,9.94,0,0,1,26.69,43.79Z"/><path class="e" d="M12.5,25.77c.44.79-.06,1.55-.11,2.33A7,7,0,0,1,12,24.78C12.56,24.89,12.08,25.57,12.5,25.77Z"/><path class="d" d="M27.89,33a8,8,0,0,1,.93-3.24l.34.13Z"/><path class="e" d="M62.69,59.47c-.65.56-1.62.12-2.27.72-.07.06-.17-.25-.22-.4a10.43,10.43,0,0,1,1.88-.7C62.47,58.93,62.65,59.07,62.69,59.47Z"/><path class="e" d="M51.24,28.37c0,.73-.2,1.75-.85,1.72-.46,0,.2-1,.21-1.55,0-.28,0-.57.4-.62C51.05,28.08,51,28.28,51.24,28.37Z"/><path class="e" d="M30.18,1.89a6.17,6.17,0,0,1-2.55.24,3,3,0,0,1,1.91-.66Z"/><path class="e" d="M24.77,6.45c0-.4.56-.58.44-1,.28-.25.68-.59.94-.22s-.21.7-.53.93A1.39,1.39,0,0,1,24.77,6.45Z"/><path class="b" d="M30.84,3.18a14.5,14.5,0,0,1,3.11,0v.21a15.8,15.8,0,0,0-3.1.15Z"/><path class="e" d="M28.55,3.93,26,4.57C26.8,4.06,27.55,3.5,28.55,3.93Z"/><path class="e" d="M58.69,17.66a4.33,4.33,0,0,1,2.09.58,3.87,3.87,0,0,1-2.06-.15Z"/><path class="e" d="M26.88,35.68a4.9,4.9,0,0,1,.81-2.3,3.5,3.5,0,0,1-.61,2.28A.51.51,0,0,1,26.88,35.68Z"/><path class="e" d="M36.45,36.58a2.15,2.15,0,0,1,.53-2A2.91,2.91,0,0,1,36.45,36.58Z"/><path class="e" d="M35.19,2.08l-.07-.29c.71-.27,1.31.23,2,.3A2.45,2.45,0,0,1,35.19,2.08Z"/><path class="d" d="M62.49,66.36v0a6,6,0,0,1-2.52.37l.85-.3C61.38,66.58,61.89,65.86,62.49,66.36Z"/><path class="d" d="M26.68,37.88l-.43-.33.38-1.24A2.24,2.24,0,0,1,26.68,37.88Z"/><path class="e" d="M28.55,52.49c.71.3.53,1,.7,1.6a1.72,1.72,0,0,1-.72-1.37Z"/><path class="e" d="M52.93,29.22s0,.08,0,.1c-.29.37-.24,1.16-.89,1-.19,0,.23-.77.46-1.15Z"/><path class="e" d="M39.48,10.19a1.61,1.61,0,0,1,1.35.77A1.64,1.64,0,0,1,39.48,10.19Z"/><path class="e" d="M46.67,14.73a4.3,4.3,0,0,1-1.95.71A2.54,2.54,0,0,1,46.67,14.73Z"/><path class="e" d="M30.84,3.18v.34c-1.28.2-1.28.2-2-.11C29.61,3.39,30.19,3.06,30.84,3.18Z"/><path class="d" d="M36.65,19.57A2.85,2.85,0,0,1,38,18.7a2.65,2.65,0,0,1-1.12,1.09Z"/><path class="e" d="M62.49,66.36c-.6-.5-1.11.22-1.68.11l0-.38a3.33,3.33,0,0,1,1.36-.3C62.64,65.81,62.71,66,62.49,66.36Z"/><path class="d" d="M27.8,47.42l-.47.27a.57.57,0,0,1-.11-.59l.48,0Z"/><path class="d" d="M52.46,17.93a.49.49,0,0,1-.77.05A.72.72,0,0,1,52.46,17.93Z"/><path class="a" d="M27.69,47.13l-.48,0-.1-.45.38-.22Z"/><path class="e" d="M31.44,31.67c0,.29,0,.57-.3.74C30.93,32,31.19,31.86,31.44,31.67Z"/><path class="e" d="M34,3.36V3.15c.18,0,.49-.15.47.16S34.14,3.59,34,3.36Z"/><path class="e" d="M58.78,14.2a.41.41,0,0,1-.55-.1A.37.37,0,0,1,58.78,14.2Z"/><path class="e" d="M59.82,14.43a.33.33,0,0,1-.45-.09C59.57,14.12,59.7,14.25,59.82,14.43Z"/><path class="e" d="M50.25,59.8l.14-.11.13.2c-.06,0-.12.06-.17.05S50.28,59.85,50.25,59.8Z"/><path class="d" d="M50.81,18.13c-.1.19-.22.26-.38.05A.27.27,0,0,1,50.81,18.13Z"/><path class="e" d="M60.65,14.63a.33.33,0,0,1-.45-.1C60.4,14.33,60.54,14.45,60.65,14.63Z"/><path class="d" d="M49.55,18.38a.28.28,0,0,1,0,.16c-.12.13-.27.1-.29,0S49.42,18.37,49.55,18.38Z"/><path class="e" d="M44.21,7.39s0,.06,0,.06l-.08,0s0-.06,0-.06Z"/><path class="e" d="M31.49,53.11c.1.08.21.23.09.3s-.13-.13-.19-.21Z"/><path class="e" d="M48.32,59.18l.26.06-.07.11-.2-.16Z"/><path class="e" d="M48.32,59.19,48,59.11l.06-.08.24.15Z"/><path class="d" d="M26.88,35.68a.51.51,0,0,0,.2,0l-.15.3Z"/><path class="e" d="M47.27,58.77l.28.07c-.15.19-.2,0-.27-.08Z"/><path class="e" d="M43.53,6.89l-.09-.09h.06a.28.28,0,0,1,0,.07Z"/><path class="e" d="M43.53,6.89l.09.09h-.06a.28.28,0,0,1,0-.07Z"/><path class="b" d="M15.62,14.6h-.3c.08-.1.12-.26.3-.21h0v.22Z"/><path class="e" d="M42.9,6.48l-.09-.09h.06a.28.28,0,0,1,0,.08Z"/><polygon class="e" points="49.05 59.53 49.03 59.48 49.09 59.48 49.05 59.53"/><path class="a" d="M36,55.63l-.16,0,0-.1.11.14Z"/><path class="a" d="M29.08,29.78l-.13-.07s.05-.07.07-.07a.65.65,0,0,1,.14.07Z"/><path class="a" d="M29.36,29.29a.6.6,0,0,1-.14.06s0,0-.07-.07a.65.65,0,0,1,.14-.07S29.34,29.27,29.36,29.29Z"/><path class="a" d="M29.49,28.8l.07.07a.65.65,0,0,1-.14.07s0,0-.07-.07Z"/><path class="a" d="M29.7,28.53l-.13-.07s.05-.07.07-.07a.65.65,0,0,1,.14.07Z"/><path class="e" d="M31.48,31.6h.06s0,.05,0,.07l-.08,0Z"/><path class="a" d="M29.91,28.11,29.78,28s.05-.07.07-.07A.65.65,0,0,1,30,28Z"/><path class="e" d="M42.9,6.47l.09.09h-.06a.27.27,0,0,1,0-.07Z"/><path class="a" d="M36.65,19.57l.23.22a.18.18,0,0,1-.15.12l-.2-.23A.13.13,0,0,1,36.65,19.57Z"/><path class="e" d="M47.28,58.76l-.09-.08.05,0a.28.28,0,0,1,0,.07Z"/><path class="e" d="M33,59.93c2,1.43,3.69,3.24,5.72,4.63a32.57,32.57,0,0,0,7.65,3.91,1.66,1.66,0,0,1,1,.51,16.25,16.25,0,0,1-4.7-1.48,26.38,26.38,0,0,1-9.4-6.87,5.05,5.05,0,0,1-.39-.6Z"/><path class="e" d="M81.09,40.91a23.64,23.64,0,0,1-4.67,14.42A32.11,32.11,0,0,0,81.09,40.91Z"/><path class="e" d="M73.34,59.2c-2.77,3.11-6.56,4.58-10.21,6.27-.12.05-.41-.06-.52-.38A28.53,28.53,0,0,0,69.09,62a28,28,0,0,0,3.06-2.33,1.8,1.8,0,0,1,1.1-.52Z"/><path class="e" d="M51.66,70.1a13.47,13.47,0,0,1,4.11.26A6.11,6.11,0,0,1,51.66,70.1Z"/><path class="d" d="M64.57,66.48c-.2-.08-.45.07-.61-.15a1.11,1.11,0,0,1,1.65-.44,1.38,1.38,0,0,0,0,.19h0a1.17,1.17,0,0,0-1.06.43Z"/><path class="d" d="M66.46,65.61c.42-.23.84-.46,1.26-.68.07,0,.18,0,.43,0a2,2,0,0,1-1.43.71Z"/><path class="d" d="M29.64,54.61a1.27,1.27,0,0,1,.5,1,2,2,0,0,1-.75-1Z"/><path class="e" d="M64.56,66.48a1.17,1.17,0,0,1,1.06-.43A1,1,0,0,1,64.56,66.48Z"/><path class="d" d="M63.76,66.32c0,.16-.08.33-.28.28s-.12-.18-.18-.28Z"/><path class="e" d="M32.7,59.59l.31.34-.14.12a.37.37,0,0,1-.22-.39Z"/><path class="e" d="M32.65,59.66l-.26-.11s.08-.11.09-.11a2,2,0,0,1,.22.15Z"/><path class="e" d="M66.46,65.61l.27,0c-.12.07-.21.25-.39.12Z"/><path class="e" d="M65.61,66.07a1.38,1.38,0,0,1,0-.19L66,66Z"/><path class="e" d="M73.47,58.91l.19-.11-.11.2Z"/><path class="e" d="M73.25,59.12l.21-.21.08.09-.21.21Z"/><path class="e" d="M29.64,54.61h-.26C29.47,54.35,29.55,54.55,29.64,54.61Z"/><path class="e" d="M74.13,58.12l.11-.13c.12.08.07.15,0,.2Z"/><path class="e" d="M74.21,58.2l-.18.12.1-.19Z"/><path class="e" d="M30.51,43.11c-2.35.6-8.51-2.34-11.22-5.4A23,23,0,0,0,30.51,43.11Z"/><path class="e" d="M20.52,5.08a41.37,41.37,0,0,0-6.58,6.6A15.86,15.86,0,0,1,20.52,5.08Z"/><path class="e" d="M10.68,19.44a3.32,3.32,0,0,1,.93-3Z"/><path class="e" d="M15.61,14.61v-.22l.14.16Z"/></svg>