<svg width="70" xmlns="http://www.w3.org/2000/svg" viewBox="0 0 100 28.61"><defs><style>.a{fill:#ecb32d;}.b{fill:#63c1a0;}.c{fill:#e01a59;}.d{fill:#331433;}.e{fill:#d62027;}.f{fill:#89d3df;}.g{fill:#258b74;}.h{fill:#819c3c;}.i{fill:#2d333a;}</style></defs><title>slack</title><path class="a" d="M18,2.55a2.48,2.48,0,1,0-4.71,1.52l6.4,19.68a2.47,2.47,0,0,0,3,1.52,2.43,2.43,0,0,0,1.7-3l0-.07S18,2.55,18,2.55Z"/><path class="b" d="M8.13,5.76A2.48,2.48,0,1,0,3.42,7.28L9.82,27a2.47,2.47,0,0,0,3,1.52,2.43,2.43,0,0,0,1.7-3l0-.07C14.51,25.4,8.13,5.76,8.13,5.76Z"/><path class="c" d="M26.1,18.83a2.48,2.48,0,0,0-1.52-4.71h0L4.87,20.55a2.47,2.47,0,0,0-1.52,3,2.43,2.43,0,0,0,3,1.69h0C6.45,25.24,26.1,18.83,26.1,18.83Z"/><path class="d" d="M9,24.42l4.71-1.52c-.41-1.28-1-2.94-1.52-4.71L7.45,19.71Z"/><path class="e" d="M18.9,21.18l4.71-1.52c-.41-1.28-1-2.94-1.52-4.71l-4.71,1.52Z"/><path class="f" d="M22.87,8.93a2.48,2.48,0,0,0-1.52-4.71h0L1.62,10.62a2.47,2.47,0,0,0-1.52,3,2.43,2.43,0,0,0,3,1.72l.14,0Z"/><path class="g" d="M5.76,14.49,10.48,13C9.9,11.19,9.36,9.52,9,8.25L4.23,9.77Z"/><path class="h" d="M15.66,11.27l4.71-1.52C19.81,8,19.26,6.31,18.85,5L14.14,6.56Z"/><path class="i" d="M46.05,7.72c.86.39.94.66.25,2s-.86,1.44-1.73,1.07A9.89,9.89,0,0,0,41.23,10c-1.46,0-2.38.52-2.38,1.32,0,2.62,8.34,1.21,8.34,6.77,0,2.8-2.38,4.67-6,4.67a14.28,14.28,0,0,1-5.86-1.46c-.79-.41-.86-.63-.16-2,.6-1.16.79-1.3,1.67-.94a12.43,12.43,0,0,0,4.28,1.07c1.32,0,2.21-.55,2.21-1.32,0-2.53-8.5-1.32-8.5-6.72,0-2.87,2.38-4.76,6-4.76A13.67,13.67,0,0,1,46.05,7.72Z"/><path class="i" d="M52.8,1.12V21.89a.75.75,0,0,1-.79.63H49.81a.75.75,0,0,1-.79-.63V1.12C49,.1,49.31,0,50.91,0,52.73,0,52.8.11,52.8,1.12Z"/><path class="i" d="M68.33,12.78v8.95a.79.79,0,0,1-.79.79H65.37a.79.79,0,0,1-.8-.79s0,0,0-.07v-1a6.09,6.09,0,0,1-4.53,2c-3.26,0-5.44-1.89-5.44-4.69,0-3,2.46-5,6.17-5a9.85,9.85,0,0,1,3.74.68v-1C64.51,11,63.21,10,61,10a7,7,0,0,0-3.3,1c-.79.44-1,.41-1.8-.84s-.79-1.48,0-2a10.58,10.58,0,0,1,5.47-1.59C65.65,6.56,68.33,8.86,68.33,12.78ZM58.26,18c0,1.07.91,1.78,2.25,1.78a4.76,4.76,0,0,0,4-2.14V16.22a8.21,8.21,0,0,0-2.87-.52C59.61,15.69,58.26,16.68,58.26,18Z"/><path class="i" d="M83.14,7.74c.79.45.79.71,0,2s-1,1.34-1.85.91a6.35,6.35,0,0,0-2.59-.63A4.28,4.28,0,0,0,74.1,14.6a4.42,4.42,0,0,0,4.55,4.76,6.62,6.62,0,0,0,2.92-.79c.79-.45,1-.44,1.8.79s.75,1.41.07,1.89a9.23,9.23,0,0,1-4.86,1.47c-5.05,0-8.45-3.24-8.45-8.11s3.4-8,8.5-8A9.88,9.88,0,0,1,83.14,7.74Z"/><path class="i" d="M99.68,20.57c.63.79.39,1.09-1.21,1.67s-1.85.55-2.38-.18l-4.53-6-2,2V21.9a.75.75,0,0,1-.79.63H86.51a.75.75,0,0,1-.79-.63V1.12C85.72.1,86,0,87.61,0c1.85,0,1.89.13,1.89,1.12v11.8L95.69,7c.68-.63,1.07-.6,2.28.21s1.44,1.12.79,1.73l-4.6,4.51Z"/></svg>