<svg width="70" xmlns="http://www.w3.org/2000/svg" viewBox="0 0 100 28.24"><defs><style>.a{fill:#23719f;}</style></defs><title>trello</title><path class="a" d="M63.9,23.56c-.43.31-.73.56-1.05.77-1.35.87-2.69,1.77-4.08,2.59a3.27,3.27,0,0,1-2.81.15,19.15,19.15,0,0,1-2.66-1.12c-1.36-.72-1.79-2.08-2.21-3.44-.71-2.28.25-4.23,1.16-6.2.17-.36.4-.69.58-1,.27-.5.12-.77-.46-.73a2.52,2.52,0,0,0-1,.26A17.62,17.62,0,0,0,45,20.1a15.06,15.06,0,0,0-2.35,5.31A1.8,1.8,0,0,1,40.54,27a2.63,2.63,0,0,1-1.62-3.38,2.76,2.76,0,0,1,.31-.55c1.47-1.77,2-4,2.65-6.06.39-1.24.78-2.48,1.11-3.73a2.54,2.54,0,0,0,0-1.89.58.58,0,0,1,.46-.82,5.62,5.62,0,0,1,2.26,0c.76.24.82,1.15.95,1.86a9,9,0,0,1,0,1.45c.3-.14.52-.22.72-.34,1.15-.65,2.26-1.37,3.44-2a3.65,3.65,0,0,1,3.33.27.84.84,0,0,0,1.22-.23,28.88,28.88,0,0,1,2.92-2.92,4.32,4.32,0,0,1,3.15-.87,12.68,12.68,0,0,1,2.22.37,2,2,0,0,1,1.46,1.84,6.46,6.46,0,0,1-1.54,4.55,30.45,30.45,0,0,1-8.46,8,.7.7,0,0,0-.29,1.06,1.56,1.56,0,0,0,1.87.72A16.94,16.94,0,0,0,62.12,21a29.87,29.87,0,0,0,2.63-2.13,6.16,6.16,0,0,0,1-1.72c1.1-2.26,2.13-4.56,3.31-6.78s2.61-4.6,3.9-6.9a21.78,21.78,0,0,0,.9-2A2.08,2.08,0,0,1,76,0c.21,0,.42,0,.63,0a1.67,1.67,0,0,1,1.56,2.59c-.65,1.17-1.41,2.28-2.15,3.4a83.47,83.47,0,0,0-6,10.07,51.91,51.91,0,0,0-2.12,5.17A10.21,10.21,0,0,0,67.57,24c0,.6.39.8.86.4.78-.66,1.49-1.41,2.26-2.09s1.39-1.07,2-1.67a3.28,3.28,0,0,0,.69-1.22,65.26,65.26,0,0,1,4.25-9.11C78.82,8.18,80,6.09,81.18,4c.55-1,1-2.05,1.56-3.05A1.62,1.62,0,0,1,84.42,0a3.49,3.49,0,0,0,.76,0,1.68,1.68,0,0,1,1.63,2.59c-.51.89-1.07,1.75-1.63,2.61a87.51,87.51,0,0,0-7,11.72,51.29,51.29,0,0,0-1.9,5,6.5,6.5,0,0,0-.15,2c0,.61.38.79.86.38.77-.65,1.48-1.36,2.22-2L81,20.76a1,1,0,0,0,.35-.49,16.82,16.82,0,0,1,4.15-8.46,23.26,23.26,0,0,1,2.12-2.32,3.43,3.43,0,0,1,4.74,0,3.81,3.81,0,0,1,.71,1.23,1.45,1.45,0,0,0,1.68,1.09c1.17,0,2.35,0,3.52,0a3.2,3.2,0,0,1,1.35.46.56.56,0,0,1-.06,1.07,12,12,0,0,1-4.7,1.2.83.83,0,0,0-.93.77c-.9,3.62-2.16,7.07-4.89,9.77a7.57,7.57,0,0,1-1.94,1.45c-1.35.66-2.53,0-3.63-.77A6.56,6.56,0,0,1,82.2,24.7c-.32-.37-.5-.33-.79,0A8.41,8.41,0,0,1,78.5,27a3.14,3.14,0,0,1-2.24.24,5.83,5.83,0,0,1-3.16-1.92c-.3-.39-.5-.35-.85,0a14,14,0,0,1-2.08,1.61c-1.54.9-3,.39-4.39-.44A3.49,3.49,0,0,1,63.9,23.56Zm20.61-1.72a5.84,5.84,0,0,0,.26,1.1c.14.32.39.78.65.82s.67-.3.86-.58q1.29-1.93,2.5-3.92a13.24,13.24,0,0,0,1.79-5.71,2.25,2.25,0,0,0-.19-1.1c-.39-.84-.78-.9-1.29-.14-1,1.54-2.07,3.1-3,4.71A12.17,12.17,0,0,0,84.51,21.84Zm-23-10.64c0-.47-.17-.61-.57-.5a.91.91,0,0,0-.32.19,19,19,0,0,0-5.5,7.23c-.05.13,0,.31,0,.47.15,0,.35,0,.45-.11.55-.49,1.08-1,1.61-1.5a18.7,18.7,0,0,0,4.12-5.34C61.43,11.49,61.48,11.33,61.53,11.2ZM36.13,7.93l-1-.1c-.88-.06-1.76-.07-2.63-.2-.7-.1-1-.57-1-1.3V5.94c0-1.28.51-1.48,1.78-1.29a17.2,17.2,0,0,0,4,0c1.75-.16,3.48-.52,5.22-.74,1.06-.13,2.13-.18,3.19-.24a4.8,4.8,0,0,1,3.49,1.48,1.43,1.43,0,0,1,.28,1.12c-.11.7-1.75,1.44-2.41.78a2.1,2.1,0,0,0-1.81-.55c-1.31.16-2.63.28-3.94.43-.33,0-.46.21-.58.58a12.34,12.34,0,0,1-1,2,41.72,41.72,0,0,0-3.75,9c-.52,1.94-1,3.89-1.44,5.85a4.83,4.83,0,0,0-.06,1.32c.09,1.67-.83,1.92-2.19,1.48a10.62,10.62,0,0,1-1.15-.52,1,1,0,0,1-.68-1A24.76,24.76,0,0,1,31,22.26c.5-1.95,1.07-3.88,1.71-5.78s1.3-3.5,2-5.23C35.11,10.18,35.6,9.14,36.13,7.93Z"/><path class="a" d="M26.65,4.85a3.25,3.25,0,0,0-3.25-3.25H3.25A3.25,3.25,0,0,0,0,4.85V25a3.25,3.25,0,0,0,3.25,3.25H23.39A3.25,3.25,0,0,0,26.65,25ZM12.92,21.78c0,.77-1.71,1.61-2.55,1.61H4.55a1.49,1.49,0,0,1-1.32-1.61V5.42c0-.77.48-.6,1.32-.6h5.82c.84,0,2.55-.16,2.55.6ZM24.23,7.66v6.85a2,2,0,0,1-1.85,1.62H16.5c-.82,0-1.16-.8-1.16-1.62v-9c0-.82.34-.64,1.16-.64h5.87c.82,0,1.85-.17,1.85.64Z"/></svg>