<svg height="50" xmlns="http://www.w3.org/2000/svg" viewBox="0 0 59.81 70"><defs><style>.a{fill:#35495e;}.b{fill:none;}.c{fill:#41b883;}</style></defs><title>vuejs</title><path class="a" d="M12.58,53.36a1,1,0,0,0-.57.17.69.69,0,0,0-.33.57.39.39,0,0,0,0,.24l0,0,3.49,11.33a.8.8,0,0,0,.38.47,1.09,1.09,0,0,0,.53.13.93.93,0,0,0,.93-.59h0l3.49-11.37v0c0,.06,0,0,0-.1a.7.7,0,0,0-.34-.57,1.07,1.07,0,0,0-.6-.19.72.72,0,0,0-.68.47h0l-2.82,9.4-2.83-9.38a.64.64,0,0,0-.29-.39.8.8,0,0,0-.41-.1Zm27.81.58a1,1,0,1,0,1,1A1,1,0,0,0,40.39,53.94ZM32.2,57.57a3.43,3.43,0,0,0-3.47,3.35v1.87a3.26,3.26,0,0,0,1.1,2.51,4.15,4.15,0,0,0,2.77.94,4.27,4.27,0,0,0,2-.43,2.1,2.1,0,0,0,.57-.42.77.77,0,0,0,.25-.53.8.8,0,0,0-.19-.51.71.71,0,0,0-.55-.29.79.79,0,0,0-.42.14l-.36.23a2.27,2.27,0,0,1-1.22.3A2.55,2.55,0,0,1,31,64.22a1.71,1.71,0,0,1-.62-1.38v-.35h3.51A2.05,2.05,0,0,0,35,62.27a1.53,1.53,0,0,0,.58-1.38,3.35,3.35,0,0,0-3.4-3.32Zm13.18,0a3,3,0,0,0-2.23.82,2.47,2.47,0,0,0-.68,1.73,2,2,0,0,0,.75,1.66,4.42,4.42,0,0,0,1.51.68,6.26,6.26,0,0,1,1.36.5.93.93,0,0,1,.51.9.73.73,0,0,1-.28.62,1.86,1.86,0,0,1-1.17.29,2.45,2.45,0,0,1-1.39-.35c-.14-.09-.26-.18-.38-.26a.75.75,0,0,0-.44-.17.62.62,0,0,0-.5.29.84.84,0,0,0-.16.49.88.88,0,0,0,.26.58,2.15,2.15,0,0,0,.61.45,4.45,4.45,0,0,0,2,.44,3.36,3.36,0,0,0,2.16-.64,2.24,2.24,0,0,0,.81-1.78A2.31,2.31,0,0,0,47.4,62a4,4,0,0,0-1.53-.75,9.35,9.35,0,0,1-1.38-.47c-.34-.18-.5-.34-.5-.72a1,1,0,0,1,.29-.66A1.51,1.51,0,0,1,45.39,59a2.67,2.67,0,0,1,1.05.21l.36.16a.84.84,0,0,0,.36.09.68.68,0,0,0,.55-.34.89.89,0,0,0,.17-.5.65.65,0,0,0-.3-.51,2.18,2.18,0,0,0-.58-.3,4.89,4.89,0,0,0-1.63-.28Zm-23.89.1a.75.75,0,0,0-.82.69v4.46a3.45,3.45,0,0,0,6.9,0V58.35a.64.64,0,0,0-.26-.5.89.89,0,0,0-.54-.17.93.93,0,0,0-.55.17.63.63,0,0,0-.27.5v4.48a1.82,1.82,0,1,1-3.63,0V58.36a.64.64,0,0,0-.26-.5.87.87,0,0,0-.55-.19Zm18.9,0a.9.9,0,0,0-.55.17.65.65,0,0,0-.26.51v8.22A4.08,4.08,0,0,1,39.4,68c-.14.31-.3.45-.75.45a.77.77,0,0,0-.74.77.75.75,0,0,0,.2.52.85.85,0,0,0,.62.24,2.19,2.19,0,0,0,1.93-1,4.53,4.53,0,0,0,.55-2.42V58.35a.64.64,0,0,0-.28-.51.94.94,0,0,0-.55-.16ZM32.18,59A1.83,1.83,0,0,1,34,60.85a.68.68,0,0,1,0,.2s0,0,0,0a1.39,1.39,0,0,1-.52.06H30.37v-.36A1.79,1.79,0,0,1,32.18,59Zm5.18,5.1a1,1,0,1,0,1,1.06A1,1,0,0,0,37.37,64.12Z"/><path class="b" d="M0,0,23.29.07l6.62,11.43L36.66.07,59.81,0,30,51.46ZM59.33.3H47.95L30,31.17,12,.31H.44L30,50.71ZM47.58.29,37,.37l-7,11.52L23,.37,12.35.29,30,30.42ZM12.15.21H22.89l7,11.66,7-11.66H47.66L30,30.89"/><path class="a" d="M12.15.21H22.89l7,11.66,7-11.66H47.66L30,30.89Z"/><path class="c" d="M.43.3,12.14.22,30,30.89,47.65.22H59.38L30,50.72Z"/></svg>