<svg height="50" xmlns="http://www.w3.org/2000/svg" viewBox="0 0 67.97 70"><defs><style>.a{fill:#494949;}</style></defs><title>wordpress</title><path class="a" d="M31.54,63.16c-1.35-.12-2.72-.08-4.08-.09-.13,0-.27.15-.4.22.12.08.23.21.35.22a.86.86,0,0,1,.89,1c0,1.25,0,2.49,0,3.74,0,.77-.44,1.11-1.22,1A2.47,2.47,0,0,1,26,68.75c-.67-.55-1.28-1.18-2-1.83l.41-.15c1.06-.4,1.53-1,1.46-1.95a1.87,1.87,0,0,0-1.81-1.65c-1.33-.11-2.67-.08-4-.1-.1,0-.2.12-.31.18.1.09.2.25.31.25.76,0,.94.5.94,1.14,0,1.16,0,2.31,0,3.47,0,.63-.21,1.05-.91,1.11-.12,0-.22.15-.33.23.14.07.27.2.41.2q1.56,0,3.13,0c.13,0,.26-.14.4-.22l-.35-.22c-.27-.17-.71-.29-.77-.52a8.91,8.91,0,0,1-.17-1.7l.25-.08c.16.18.33.35.48.54.5.62,1,1.25,1.49,1.85a.88.88,0,0,0,.53.35c2.22,0,4.45,0,6.66-.14a2.88,2.88,0,0,0,2.66-2.11A3.16,3.16,0,0,0,31.54,63.16Zm-9.29,3.1V63.74c.56-.08,1.43-.18,1.78.42a2,2,0,0,1,.05,1.5C23.78,66.44,22.8,66.28,22.24,66.26Zm10.43,1.66a2.21,2.21,0,0,1-2.5,1,.89.89,0,0,1-.44-.66c0-1.51,0-3,0-4.57,1.09,0,2.18-.14,2.84.9A3.37,3.37,0,0,1,32.68,67.92Zm21.86,1a2.56,2.56,0,0,1-1.79,0c-.92-.51-.33-1.5-.5-2.27,1.18-.11,1.18-.11,1.59.88,0,.08.15.13.22.19.07-.12.19-.24.19-.36,0-.77,0-1.54,0-2.31,0-.1-.11-.2-.22-.4-.19.43-.19.87-.44,1.05s-1.16.2-1.16.3V63.67c.56,0,1.19.1,1.8.11.79,0,.71.83,1.1,1.23l.17-.08-.11-1.8c-1.65-.21-5.45-.11-5.84.19.12.07.22.18.33.18.76,0,1,.48,1,1.13,0,1.09,0,2.18,0,3.27,0,1.3-.77,1.72-1.85,1a17.69,17.69,0,0,1-2-1.75c.58-.58,1.24-1,1.52-1.58.52-1.08-.35-2.25-1.75-2.38s-2.58-.08-3.87-.09c-.13,0-.25.12-.38.18.11.09.21.24.32.25.76,0,.94.52.94,1.15q0,1.36,0,2.72c0,1.45,0,1.45-1.26,2l-.09.17a1.81,1.81,0,0,0,.48.15q1.53,0,3.06,0a1.48,1.48,0,0,0,.45-.17c-.15-.1-.29-.26-.44-.28a.82.82,0,0,1-.79-.86c0-.46,0-.92,0-1.57a7.16,7.16,0,0,1,.57.54c.52.63,1,1.26,1.52,1.92a1,1,0,0,0,.91.43c2.31,0,4.64,0,7,0a3.14,3.14,0,0,0,.58,0V67.89c-.56.35-.78.86-1.25,1Zm-9.38-2.63V63.75c1.12-.15,2,.24,2,1.19S46.84,66.32,45.16,66.26ZM12.95,61.39c-.49-.39-3.44-.36-3.82.06a4.5,4.5,0,0,0,.59.15.63.63,0,0,1,.61.9c-.43,1.41-.92,2.8-1.43,4.38-.12-.3-.17-.42-.21-.54-.51-1.52-1-3.05-1.52-4.57a3.13,3.13,0,0,0-.41-.64,2.91,2.91,0,0,0-.41.62C5.77,63.39,5.22,65,4.67,66.68l-.15,0c-.41-1.25-.83-2.49-1.23-3.74C3,62,3,61.86,4.06,61.55a1.11,1.11,0,0,0,.28-.21c-.09-.07-.17-.21-.26-.21q-1.91,0-3.81,0c-.09,0-.18.14-.27.21.07.07.14.19.21.2,1.13.05,1.41.91,1.68,1.77q1,3,1.94,6a6.51,6.51,0,0,0,.31.67h.2l2-6,2,6,.24,0c.08-.22.18-.43.25-.65C9.57,67.21,10.28,65.08,11,63a1.71,1.71,0,0,1,1.61-1.41A1.1,1.1,0,0,0,12.95,61.39Zm27.15-.11a49.39,49.39,0,0,0-5-.14c-.08,0-.17.14-.33.27a2.14,2.14,0,0,0,.45.14,1.1,1.1,0,0,1,1.16,1.23q0,2.58,0,5.17c0,.71-.32,1.22-1.13,1.25-.13,0-.24.17-.37.26a1.3,1.3,0,0,0,.44.19q1.84,0,3.67,0c.14,0,.28-.13.42-.2-.13-.09-.25-.24-.38-.25-.59-.05-1-.3-1.08-.92s-.1-1.48-.15-2.29c.59,0,1.09,0,1.58,0A2.68,2.68,0,0,0,42,64.27a2.25,2.25,0,0,0-1.94-3Zm.23,3.23c-.36.66-.76.81-2.43.65V61.87c.56,0,1.78-.23,2.37.65A1.83,1.83,0,0,1,40.33,64.51Zm-22.15-.75a4.27,4.27,0,0,0-5.44.1,3.26,3.26,0,0,0-.4,4.58,4.12,4.12,0,0,0,3.24,1.48,6.46,6.46,0,0,0,.86-.11,3.64,3.64,0,0,0,2.92-2.71A3.15,3.15,0,0,0,18.18,63.76Zm-1,4.71a2.22,2.22,0,0,1-3.66-.41,3.6,3.6,0,0,1-.21-2.9,2.14,2.14,0,0,1,2.2-1.66,2.16,2.16,0,0,1,2.22,1.65A11.27,11.27,0,0,1,18,66.34l.13.08A9.17,9.17,0,0,1,17.2,68.47ZM66.46,65.9a17.88,17.88,0,0,1-1.8-1,.92.92,0,0,1-.38-.77,1.13,1.13,0,0,1,.69-.62c.81-.24,1.52.26,1.85,1.18.07.18.33.33.44.5,0,0,.24-.07.24-.11V62.69c-.56.25-.55.4-.6.44a14.5,14.5,0,0,0-2-.23,1.79,1.79,0,0,0-.94,3.3,4.67,4.67,0,0,0,.64.37c.5.26,1,.49,1.51.77s.86.59.68,1.19-.76.72-1.33.66a2.09,2.09,0,0,1-1.86-1.64c0-.14-.2-.25-.3-.37-.06.08-.18.16-.18.24,0,.83,0,1.65,0,2.48l.21.06.48-.63a9.2,9.2,0,0,0,1,.45,2.47,2.47,0,0,0,3.05-1.21c.45-1.06,0-2-1.34-2.65Zm-6,0c-.55-.27-1.1-.54-1.64-.83-.38-.21-.75-.54-.5-1a1.45,1.45,0,0,1,1-.57c.74-.09,1.25.38,1.57,1.24a2,2,0,0,0,.35.46l.18-.12c0-.68,0-1.36,0-2a1.43,1.43,0,0,0-.1-.3l-.6.5c-.11-.06-.25-.14-.39-.2a2.35,2.35,0,0,0-3,.87c-.46,1,.08,2,1.37,2.64.57.28,1.13.56,1.68.88s.7.66.46,1.08a1.53,1.53,0,0,1-1,.64,1.9,1.9,0,0,1-2-1.22c-.08-.18-.1-.4-.2-.57s-.2-.14-.3-.2c-.05.09-.15.17-.15.26q0,1.09,0,2.18a.32.32,0,0,0,.15.25.33.33,0,0,0,.27-.12,2.78,2.78,0,0,0,.24-.46,9.74,9.74,0,0,0,1,.46,2.5,2.5,0,0,0,3.08-1.16c.47-1.08,0-2-1.36-2.7ZM34.08,53.84A26.92,26.92,0,0,0,34.69,0C19.72-.26,7.21,11.89,7.21,26.62A26.89,26.89,0,0,0,34.08,53.84ZM34,1.31a25.65,25.65,0,0,1,25.54,26C59.57,41,47.94,52.48,34,52.49A25.59,25.59,0,0,1,34,1.31ZM23.31,14.82c.23.77-.42,1-1.11,1.1l-2.3.18L28.24,41a4.26,4.26,0,0,0,.32-.53c1.54-4.61,3.1-9.23,4.6-13.85a2.38,2.38,0,0,0-.08-1.41c-.8-2.3-1.75-4.55-2.45-6.87-.48-1.59-1.11-2.62-3-2.44-.32,0-.71-.66-1.07-1,.43-.26.87-.74,1.3-.74q5.75-.09,11.5,0c.44,0,.87.5,1.31.76-.38.35-.71.87-1.15,1a12.24,12.24,0,0,1-2.36.25L45.53,41C46.8,36.77,48,32.91,49.12,29a11.66,11.66,0,0,0-1.43-9.73,13.66,13.66,0,0,1-1.55-2.8,8,8,0,0,1-.47-3.57c.32-1.93,1.8-2.89,3.81-3.07C38.5-.31,21.27,3.33,14.91,14.39c2.45-.11,4.78-.26,7.12-.29a1.6,1.6,0,0,1,1.28.71ZM27.68,48.5a3.84,3.84,0,0,0-.09.56,23.38,23.38,0,0,0,14.11-.38L34.44,28.82ZM24,47.6l-10.92-30C8.18,27.27,11.92,42,24,47.6ZM57,28.35c.35-4.55-1.22-10.85-2.58-11.72a28.41,28.41,0,0,1-.53,5.23c-1.13,4-2.51,7.93-3.84,11.87-1.45,4.28-3,8.54-4.43,12.82A22.06,22.06,0,0,0,57,28.35Z"/></svg>