<?xml version="1.0" encoding="iso-8859-1"?>
<!-- Generator: Adobe Illustrator 19.0.0, SVG Export Plug-In . SVG Version: 6.00 Build 0)  -->
<svg version="1.1" id="Layer_1" xmlns="http://www.w3.org/2000/svg" xmlns:xlink="http://www.w3.org/1999/xlink" x="0px" y="0px"
	 viewBox="0 0 512 512" style="enable-background:new 0 0 512 512;" xml:space="preserve">
<circle style="fill:#330099;" cx="256" cy="256" r="256"/>
<path style="fill:#000033;" d="M512,256c0-0.896-0.024-1.786-0.034-2.681L391.944,133.298l-143.988,126.15L119.286,377.953
	l134.013,134.013C254.2,511.974,255.097,512,256,512C397.384,512,512,397.384,512,256z"/>
<path style="fill:#6CAF5F;" d="M378.54,384H133.458c-10.869,0-19.682-8.811-19.682-19.682V147.68c0-10.869,8.811-19.68,19.682-19.68
	H378.54c10.869,0,19.682,8.811,19.682,19.68v216.638C398.222,375.189,389.411,384,378.54,384z"/>
<path style="fill:#477F3C;" d="M378.54,128H256v256h122.54c10.869,0,19.682-8.811,19.682-19.682V147.682
	C398.222,136.811,389.411,128,378.54,128z"/>
<path style="fill:#EAA22F;" d="M113.988,367.049c1.333,9.575,9.528,16.951,19.47,16.951H378.54c9.942,0,18.137-7.378,19.47-16.951
	L113.988,367.049L113.988,367.049z"/>
<path style="fill:#E09112;" d="M256,367.049V384h122.54c9.942,0,18.137-7.378,19.47-16.951L256,367.049L256,367.049z"/>
<path style="fill:#EAA22F;" d="M398.222,147.682c0-10.869-8.811-19.682-19.682-19.682H133.458c-10.869,0-19.68,8.811-19.68,19.682
	v20.744h284.444V147.682z"/>
<path style="fill:#E09112;" d="M398.222,147.682c0-10.869-8.811-19.682-19.682-19.682H256v40.426h142.222V147.682z"/>
<path style="fill:#FFFFFF;" d="M373.226,156.444H138.774c-4.046,0-7.327-3.281-7.327-7.327l0,0c0-4.046,3.281-7.327,7.327-7.327
	h234.451c4.046,0,7.327,3.281,7.327,7.327l0,0C380.552,153.164,377.272,156.444,373.226,156.444z"/>
<path style="fill:#D0D1D3;" d="M373.226,141.791H256v14.653h117.226c4.046,0,7.327-3.281,7.327-7.327
	S377.272,141.791,373.226,141.791z"/>
<circle style="fill:#FFFFFF;" cx="256" cy="266.343" r="56.889"/>
<path style="fill:#D0D1D3;" d="M312.889,266.343c0-31.418-25.471-56.889-56.889-56.889v113.778
	C287.418,323.232,312.889,297.762,312.889,266.343z"/>
<path style="fill:#6CAF5F;" d="M245.657,295.65c-0.093,0-0.183-0.002-0.276-0.005c-1.948-0.079-3.772-0.977-5.022-2.477
	l-12.929-15.515c-2.438-2.925-2.043-7.273,0.884-9.712c2.924-2.438,7.275-2.043,9.712,0.884l8.044,9.654l35.171-35.923
	c2.67-2.72,7.032-2.763,9.752-0.103c2.72,2.665,2.765,7.03,0.103,9.752l-40.512,41.374
	C249.284,294.905,247.506,295.65,245.657,295.65z"/>
<path style="fill:#477F3C;" d="M290.994,242.454c-2.72-2.66-7.082-2.619-9.752,0.103L256,268.335v19.713l35.095-35.842
	C293.759,249.484,293.714,245.119,290.994,242.454z"/>
<g>
</g>
<g>
</g>
<g>
</g>
<g>
</g>
<g>
</g>
<g>
</g>
<g>
</g>
<g>
</g>
<g>
</g>
<g>
</g>
<g>
</g>
<g>
</g>
<g>
</g>
<g>
</g>
<g>
</g>
</svg>
