<?xml version="1.0" encoding="iso-8859-1"?>
<!-- Generator: Adobe Illustrator 19.0.0, SVG Export Plug-In . SVG Version: 6.00 Build 0)  -->
<svg version="1.1" id="Layer_1" xmlns="http://www.w3.org/2000/svg" xmlns:xlink="http://www.w3.org/1999/xlink" x="0px" y="0px"
	 viewBox="0 0 512 512" style="enable-background:new 0 0 512 512;" xml:space="preserve">
<circle style="fill:#330099;" cx="256" cy="256" r="256"/>
<path style="fill:#000033;" d="M312.134,505.811c99.261-22.209,176.745-102.052,195.499-202.571L396.697,192.303l-48.359,59.04
	l-18.554-18.554l-232.141,58.53L312.134,505.811z"/>
<path style="fill:#FFFFFF;" d="M345.643,312.889c39.274,0,71.111-31.837,71.111-71.111s-31.837-71.111-71.111-71.111
	c-8.006,0-15.693,1.343-22.875,3.782c-15.634-19.63-39.724-32.227-66.769-32.227c-40.438,0-74.28,28.136-83.082,65.893
	c-8.857-5.689-19.387-9.004-30.696-9.004c-31.418,0-56.889,25.471-56.889,56.889s25.471,56.889,56.889,56.889H345.643z"/>
<path style="fill:#D0D1D3;" d="M345.643,170.667c-8.006,0-15.693,1.343-22.875,3.782c-15.634-19.63-39.724-32.227-66.769-32.227
	v170.667h89.643c39.274,0,71.111-31.837,71.111-71.111S384.917,170.667,345.643,170.667z"/>
<path style="fill:#ff6633;" d="M284.444,337.882v-70.677c0-6.189-5.017-11.205-11.205-11.205h-34.478
	c-6.189,0-11.205,5.017-11.205,11.205v70.677H195.66l51.924,76.402c4.037,5.941,12.793,5.941,16.83,0l51.924-76.402H284.444z"/>
<path style="fill:#660000;" d="M284.444,337.882v-70.677c0-6.189-5.017-11.205-11.205-11.205H256v162.74
	c3.198,0,6.396-1.486,8.414-4.455l51.924-76.402h-31.894V337.882z"/>
<g>
</g>
<g>
</g>
<g>
</g>
<g>
</g>
<g>
</g>
<g>
</g>
<g>
</g>
<g>
</g>
<g>
</g>
<g>
</g>
<g>
</g>
<g>
</g>
<g>
</g>
<g>
</g>
<g>
</g>
</svg>
