<?xml version="1.0" encoding="iso-8859-1"?>
<!-- Generator: Adobe Illustrator 19.0.0, SVG Export Plug-In . SVG Version: 6.00 Build 0)  -->
<svg version="1.1" id="Layer_1" xmlns="http://www.w3.org/2000/svg" xmlns:xlink="http://www.w3.org/1999/xlink" x="0px" y="0px"
	 viewBox="0 0 512 512" style="enable-background:new 0 0 512 512;" xml:space="preserve">
<circle style="fill:#330099;" cx="256" cy="256" r="256"/>
<path style="fill:#000033;" d="M280.164,510.857c120.436-11.278,216.61-105.975,230.176-225.732L383.569,158.355l-49.376,43.087
	l-69.034-69.034l-76.965,74.173l-2.022,3.172l-48.395,38.659l109.135,109.135l-71.197,48.861L280.164,510.857z"/>
<path style="fill:#EAA22F;" d="M239.361,188.804v157.201c-10.561-2.255-24.002-0.926-36.749,4.518
	c-24.59,10.504-38.848,32.308-31.846,48.7c7.003,16.394,32.613,21.168,57.203,10.666c20.744-8.859,34.133-25.76,33.613-40.672h0.016
	V229.44l99.306-20.968v115.783c-10.561-2.255-23.573-0.926-36.319,4.518c-24.59,10.504-38.848,32.308-31.846,48.7
	c7.003,16.394,32.613,21.168,57.203,10.666c20.744-8.859,34.133-25.76,33.613-40.672h0.016V158.355L239.361,188.804z"/>
<path style="fill:#FF5419;" d="M310.591,173.763v45.332l50.312-10.623v115.783c-10.561-2.255-23.573-0.926-36.319,4.518
	c-24.59,10.504-38.848,32.308-31.846,48.7c7.003,16.393,32.613,21.168,57.203,10.666c20.742-8.859,34.133-25.76,33.613-40.672h0.016
	V158.355L310.591,173.763z"/>
<circle style="fill:#FFFFFF;" cx="199.973" cy="188.768" r="86.195"/>
<path style="fill:#D0D1D3;" d="M113.788,188.337c0,0.145-0.01,0.286-0.01,0.431c0,47.604,38.591,86.195,86.195,86.195
	s86.195-38.591,86.195-86.195c0-0.145-0.01-0.286-0.01-0.431H113.788z"/>
<path style="fill:#D35933;" d="M188.511,133.425l54.656,46.845c5.211,4.467,5.211,12.528,0,16.994l-54.656,46.845
	c-7.259,6.222-18.473,1.064-18.473-8.497v-93.691C170.037,132.361,181.251,127.204,188.511,133.425z"/>
<path style="fill:#B54324;" d="M170.037,188.337v47.276c0,9.561,11.214,14.719,18.473,8.497l54.656-46.845
	c2.725-2.336,4.012-5.654,3.886-8.928H170.037z"/>
<g>
</g>
<g>
</g>
<g>
</g>
<g>
</g>
<g>
</g>
<g>
</g>
<g>
</g>
<g>
</g>
<g>
</g>
<g>
</g>
<g>
</g>
<g>
</g>
<g>
</g>
<g>
</g>
<g>
</g>
</svg>
