<?xml version="1.0" encoding="iso-8859-1"?>
<!-- Generator: Adobe Illustrator 19.0.0, SVG Export Plug-In . SVG Version: 6.00 Build 0)  -->
<svg version="1.1" id="Layer_1" xmlns="http://www.w3.org/2000/svg" xmlns:xlink="http://www.w3.org/1999/xlink" x="0px" y="0px"
	 viewBox="0 0 512 512" style="enable-background:new 0 0 512 512;" xml:space="preserve">
<circle style="fill:#330099;" cx="256" cy="256" r="256"/>
<path style="fill:#000033;" d="M512,256c0-0.681-0.021-1.358-0.026-2.038L395.131,137.119L196.096,297.45l-76.96,80.337
	l134.177,134.177c0.896,0.009,1.789,0.034,2.688,0.034C397.384,512,512,397.384,512,256z"/>
<path style="fill:#FFFFFF;" d="M378.54,384H133.458c-10.869,0-19.682-8.811-19.682-19.682V147.68c0-10.869,8.811-19.68,19.682-19.68
	H378.54c10.869,0,19.682,8.811,19.682,19.68v216.638C398.222,375.189,389.411,384,378.54,384z"/>
<path style="fill:#D0D1D3;" d="M378.54,128H255.855v256H378.54c10.869,0,19.682-8.811,19.682-19.682V147.682
	C398.222,136.811,389.411,128,378.54,128z"/>
<polygon style="fill:#A6A8AA;" points="345.152,265.607 345.152,352.325 166.141,352.325 165.435,324.22 224.396,265.912 
	257.15,293.495 315.414,236.301 "/>
<polygon style="fill:#808183;" points="345.152,265.607 315.414,236.301 257.15,293.495 255.857,292.405 255.857,352.325 
	345.152,352.325 "/>
<path style="fill:#D0D1D3;" d="M375.811,354.913c1.427,0,2.586-1.158,2.586-2.586c0-0.012-0.003-0.022-0.003-0.022l0.003-172.365
	l0,0l0,0v-0.005c0-1.427-1.158-2.586-2.586-2.586c-0.017,0-0.033,0.005-0.05,0.005l-239.552-0.003c-0.005,0-0.01-0.002-0.017-0.002
	c-0.359,0-0.7,0.072-1.008,0.205c-0.927,0.393-1.581,1.312-1.581,2.382c0,0,0.003,0.022,0.003,0.033l-0.003,172.353v0.003
	c0,1.427,1.158,2.586,2.586,2.586c0.012,0,0.022-0.003,0.033-0.003L375.811,354.913z M163.556,349.736h-24.781V326.18h24.781
	V349.736z M163.556,321.008h-24.781v-23.561h24.781V321.008z M163.557,292.276h-24.781v-23.561h24.781V292.276z M163.557,263.544
	h-24.781v-23.559h24.781V263.544z M163.557,234.813h-24.781v-23.561h24.781V234.813z M163.559,206.081h-24.781v-23.559h24.781
	V206.081z M193.508,349.737h-24.781v-23.555h24.781V349.737z M193.508,321.008h-24.781v-23.561h24.781V321.008z M193.51,292.276
	h-24.781v-23.561h24.781V292.276z M193.51,263.546h-24.781v-23.559h24.781V263.546z M193.51,234.813h-24.781v-23.561h24.781V234.813
	z M193.512,206.083h-24.781v-23.559h24.781V206.083z M223.461,349.737H198.68v-23.555h24.781V349.737z M223.461,321.01H198.68
	V297.45h24.781V321.01z M223.463,292.278h-24.781v-23.561h24.781V292.278z M223.463,263.546h-24.781v-23.559h24.781V263.546z
	 M223.463,234.815h-24.781v-23.561h24.781V234.815z M223.465,206.083h-24.781v-23.559h24.781V206.083z M253.414,349.737h-24.781
	V326.18h24.781V349.737z M253.414,321.01h-24.781V297.45h24.781V321.01z M253.416,292.278h-24.781v-23.561h24.781V292.278z
	 M253.416,263.546h-24.781v-23.561h24.781V263.546z M253.416,234.815h-24.781v-23.561h24.781V234.815z M253.418,206.083h-24.781
	v-23.561h24.781V206.083z M283.367,349.739h-24.781v-23.557h24.781V349.739z M283.367,321.01h-24.781V297.45h24.781V321.01z
	 M283.369,292.278h-24.781v-23.561h24.781V292.278z M283.369,263.547h-24.781v-23.561h24.781V263.547z M283.369,234.815h-24.781
	v-23.561h24.781V234.815z M283.37,206.084h-24.781v-23.561h24.781V206.084z M313.32,349.739h-24.781v-23.557h24.781V349.739z
	 M313.32,321.01h-24.781V297.45h24.781V321.01z M313.322,292.278H288.54v-23.559h24.781V292.278z M313.322,263.547H288.54v-23.561
	h24.781V263.547z M313.322,234.815H288.54v-23.559h24.781V234.815z M313.323,206.084h-24.781v-23.561h24.781V206.084z
	 M343.269,349.739h-24.778v-23.557h24.778V349.739z M343.269,321.012h-24.778v-23.561h24.778V321.012z M343.271,292.28h-24.778
	v-23.559h24.778V292.28z M343.271,263.547h-24.778v-23.561h24.778V263.547z M343.271,234.817h-24.778v-23.559h24.778V234.817z
	 M343.273,206.084h-24.778v-23.561h24.778V206.084z M348.444,182.525h24.781v23.561h-24.781V182.525z M348.444,211.258h24.781
	v23.559h-24.781V211.258z M348.443,239.988h24.781v23.561h-24.781V239.988z M348.443,268.721h24.781v23.559h-24.781V268.721z
	 M348.443,297.451h24.781v23.561h-24.781V297.451z M348.441,326.184h24.781v23.557h-24.781V326.184z"/>
<path style="fill:#A6A8AA;" d="M378.397,179.934c0-1.427-1.158-2.586-2.586-2.586c-0.017,0-0.033,0.005-0.05,0.005l-119.905-0.002
	v177.559l119.955,0.002c1.427,0,2.586-1.158,2.586-2.586c0-0.012-0.003-0.022-0.003-0.022l0.003-172.365V179.934z M283.367,349.739
	h-24.781v-23.557h24.781V349.739z M283.367,321.01h-24.781V297.45h24.781V321.01z M283.369,292.278h-24.781v-23.561h24.781V292.278z
	 M283.369,263.547h-24.781v-23.561h24.781V263.547z M283.369,234.815h-24.781v-23.561h24.781V234.815z M283.37,206.084h-24.781
	v-23.561h24.781V206.084z M313.32,349.739h-24.781v-23.557h24.781V349.739z M313.32,321.01h-24.781V297.45h24.781V321.01z
	 M313.322,292.278H288.54v-23.559h24.781V292.278z M313.322,263.547H288.54v-23.561h24.781V263.547z M313.322,234.815H288.54
	v-23.559h24.781V234.815z M313.323,206.084h-24.781v-23.561h24.781V206.084z M343.269,349.739h-24.778v-23.557h24.778V349.739z
	 M343.269,321.012h-24.778v-23.561h24.778V321.012z M343.271,292.28h-24.778v-23.559h24.778V292.28z M343.271,263.547h-24.778
	v-23.561h24.778V263.547z M343.271,234.817h-24.778v-23.559h24.778V234.817z M343.273,206.084h-24.778v-23.561h24.778V206.084z
	 M373.222,349.741h-24.781v-23.557h24.781V349.741z M373.222,321.012h-24.781v-23.561h24.781V321.012z M373.224,292.28h-24.781
	v-23.559h24.781V292.28z M373.224,263.549h-24.781v-23.561h24.781V263.549z M373.224,234.817h-24.781v-23.559h24.781V234.817z
	 M373.226,206.086h-24.781v-23.561h24.781V206.086z"/>
<path style="fill:#386895;" d="M398.222,147.682c0-10.869-8.811-19.682-19.682-19.682H133.458c-10.869,0-19.68,8.811-19.68,19.682
	v20.744h284.444V147.682z"/>
<path style="fill:#273B7A;" d="M398.222,147.682c0-10.869-8.811-19.682-19.682-19.682H255.855v40.426h142.367V147.682z"/>
<path style="fill:#808183;" d="M113.988,367.049c1.333,9.575,9.528,16.951,19.47,16.951H378.54c9.942,0,18.137-7.378,19.47-16.951
	L113.988,367.049L113.988,367.049z"/>
<path style="fill:#59595B;" d="M255.857,367.049V384h122.685c9.942,0,18.137-7.378,19.47-16.951L255.857,367.049L255.857,367.049z"
	/>
<path style="fill:#D0D1D3;" d="M373.226,158.599H138.774c-4.046,0-7.327-3.281-7.327-7.327l0,0c0-4.046,3.281-7.327,7.327-7.327
	h234.451c4.046,0,7.327,3.281,7.327,7.327l0,0C380.552,155.319,377.272,158.599,373.226,158.599z"/>
<path style="fill:#A6A8AA;" d="M373.226,143.946H255.857v14.653h117.369c4.046,0,7.327-3.281,7.327-7.327
	S377.272,143.946,373.226,143.946z"/>
<path style="fill:#808183;" d="M254.535,288.494l-25.753-25.109c-1.664-1.619-4.312-1.633-5.989-0.028l-60.337,57.751
	c-1.72,1.645-1.779,4.374-0.133,6.092c0.846,0.886,1.977,1.329,3.113,1.329c1.072,0,2.145-0.396,2.981-1.196l57.33-54.872
	l25.752,25.107c1.189,1.158,2.879,1.481,4.36,0.991V287.23L254.535,288.494z"/>
<path style="fill:#59595B;" d="M318.531,233.325c-1.645-1.722-4.372-1.784-6.092-0.14l-56.582,54.046v11.33
	c0.59-0.195,1.148-0.505,1.624-0.96l60.911-58.182C320.114,237.775,320.176,235.046,318.531,233.325z"/>
<g>
	<circle style="fill:#FF7F4F;" cx="225.78" cy="266.464" r="12.929"/>
	<circle style="fill:#FF7F4F;" cx="196.474" cy="294.909" r="12.929"/>
	<circle style="fill:#FF7F4F;" cx="165.443" cy="324.215" r="12.929"/>
	<circle style="fill:#FF7F4F;" cx="256.81" cy="294.909" r="12.929"/>
</g>
<g>
	<path style="fill:#D35933;" d="M256.802,281.984c-0.319,0-0.633,0.024-0.945,0.048v25.764c0.314,0.022,0.626,0.048,0.945,0.048
		c7.14,0,12.929-5.789,12.929-12.929C269.731,287.775,263.942,281.984,256.802,281.984z"/>
	<circle style="fill:#D35933;" cx="286.117" cy="265.602" r="12.929"/>
</g>
<path style="fill:#59595B;" d="M344.638,268.498c-1.071,0-2.141-0.395-2.975-1.191l-29.222-27.888
	c-1.722-1.643-1.786-4.372-0.143-6.092c1.645-1.724,4.374-1.786,6.092-0.143l29.222,27.888c1.722,1.643,1.786,4.372,0.143,6.092
	C346.908,268.05,345.774,268.498,344.638,268.498z"/>
<g>
	<circle style="fill:#D35933;" cx="315.423" cy="236.296" r="12.929"/>
	<circle style="fill:#D35933;" cx="345.16" cy="265.602" r="12.929"/>
</g>
<g>
</g>
<g>
</g>
<g>
</g>
<g>
</g>
<g>
</g>
<g>
</g>
<g>
</g>
<g>
</g>
<g>
</g>
<g>
</g>
<g>
</g>
<g>
</g>
<g>
</g>
<g>
</g>
<g>
</g>
</svg>
