<?xml version='1.0' encoding='utf-8'?>
<svg xmlns="http://www.w3.org/2000/svg" version="1.1" width="600px" height="976px" viewBox="0 0 600 976"> <g id="layer1"> <g style="fill:#ff6633; fill-opacity:1.0; stroke-linejoin: miter"> <path d="M353.2439,215.06866C353.5778,215.06866,353.73953,215.17332,353.59906,215.28032C353.52664,215.35382,353.36786,215.3993,353.19037,215.3993C353.06693,215.3993,352.93445,215.3773,352.8156,215.32744C352.48468,215.2061,352.60754,215.08147,353.06128,215.07805C353.12662,215.07162,353.18768,215.06866,353.2439,215.06866 Z M171.3665,358.5442C171.49123,358.5442,171.60208,358.67703,171.75989,358.9292C171.92644,359.2561,172.45943,359.53934,172.91145,359.53934C172.91415,359.53934,172.91685,359.53934,172.91956,359.5393C172.92433,359.53928,172.92912,359.53925,172.93394,359.53925C173.38808,359.53925,174.07973,359.6978,174.44867,359.89917C174.82147,360.10254,175.60712,360.34424,176.18494,360.3811C176.76306,360.45935,177.30084,360.6615,177.4256,360.7843C177.77654,361.2067,181.86313,362.57855,182.6827,362.57855C182.73804,362.57855,182.77849,362.5723,182.80188,362.55908C182.86852,362.5184,182.9353,362.49945,182.99802,362.49945C183.12852,362.49945,183.24133,362.5815,183.2981,362.72046C183.34094,362.92627,183.67279,363.1714,184.00336,363.25146C184.29272,363.3318,184.99744,363.78027,185.53772,364.3125C185.99258,364.7606,186.53387,365.0326,186.81616,365.0326C186.86917,365.0326,186.91304,365.02298,186.9455,365.00317C187.03491,364.95764,187.11363,364.93387,187.17775,364.93387C187.29051,364.93387,187.35811,365.00735,187.35931,365.16516C187.3629,365.64206,189.29588,366.7242,189.95422,366.7242C190.03618,366.7242,190.09837,366.70746,190.13464,366.67065C190.17142,366.64264,190.21452,366.62906,190.26212,366.62906C190.42671,366.62906,190.64479,366.79132,190.83893,367.07788C191.08893,367.40613,191.71014,367.73132,192.24675,367.76855C192.25226,367.76852,192.25775,367.7685,192.26323,367.7685C192.75095,367.7685,193.15552,367.9287,193.15672,368.09192C193.15994,368.51883,197.92065,370.29764,198.86017,370.29764C198.91922,370.29764,198.96318,370.2906,198.98991,370.27576C199.06577,370.2141,199.13622,370.1864,199.19496,370.1864C199.295,370.1864,199.36108,370.26675,199.36205,370.39673C199.36537,370.8382,202.54492,373.01306,203.17198,373.01306C203.1894,373.01306,203.20488,373.01138,203.21825,373.00793C203.24014,373.0023,203.26132,372.99957,203.2816,372.99957C203.41393,372.99957,203.50783,373.11566,203.5092,373.29456C203.51231,373.70703,205.25383,374.89038,206.08006,375.0492C206.36943,375.1294,206.70073,375.292,206.82542,375.4148C206.95012,375.53772,208.89915,376.88428,211.17906,378.35242C215.11748,380.92175,218.85362,384.0289,218.85857,384.68893C218.86009,384.89523,219.60918,385.75583,220.52324,386.61545C221.43718,387.47482,222.18626,388.33554,222.18718,388.4592C222.1909,388.9543,215.07487,391.73044,207.58485,394.1382C202.11874,395.8976,199.54945,396.59058,198.13754,396.59058C197.75296,396.59058,197.45425,396.53915,197.20625,396.44388C196.63387,396.242,196.23892,396.13028,195.94661,396.13028C195.47847,396.13028,195.27357,396.4169,195.02461,397.079C194.78273,397.8234,194.167,398.2405,192.8907,398.58023C191.90254,398.8351,190.62654,399.21597,190.05061,399.42654C189.77756,399.51505,189.4891,399.55835,189.17645,399.55835C188.5937,399.55835,187.92693,399.40784,187.11928,399.11856C186.34181,398.85153,185.63034,398.719,185.01096,398.719C183.851,398.719,183.01398,399.18384,182.67128,400.10074C182.46938,400.67984,181.85524,401.30325,181.36171,401.51334C179.63417,402.1863,175.8874,403.16324,173.25105,403.67813C171.7679,403.9368,169.38118,404.73843,167.94234,405.40933C166.1431,406.23126,165.16777,406.607,164.80995,406.607C164.61998,406.607,164.60405,406.5011,164.73128,406.29984C165.09761,405.637,166.56813,398.20035,166.67824,396.38443C166.71236,395.4352,166.87154,394.6503,166.99525,394.64932C167.32527,394.64688,168.26044,387.33786,168.00769,386.6384C167.83984,386.26852,167.92023,385.97897,168.16772,385.97714C168.45648,385.97495,168.57593,385.39658,168.44562,384.53122C168.35724,383.74817,168.43475,383.0874,168.64099,383.08594C168.84729,383.08435,168.92358,382.2588,168.83337,381.22803C168.7431,380.1974,168.81909,379.33057,168.98376,379.2881C169.1482,379.20435,169.33801,377.01648,169.35974,374.41736C169.42273,371.81775,169.57104,369.589,169.73505,369.4641C169.89917,369.3391,170.04742,367.11035,170.11041,364.51086C170.16724,361.08643,170.362,359.55847,170.81201,359.06006C171.0706,358.7099,171.22719,358.5442,171.3665,358.5442 Z M54.9614,581.1315C55.52427,581.1316,55.399075,581.4191,54.664177,581.71124C54.544712,581.7571,54.446835,581.78107,54.376442,581.78107C54.25292,581.78107,54.21404,581.70734,54.29168,581.549C54.413567,581.3006,54.701103,581.1335,54.9486,581.13153C54.95272,581.13153,54.956802,581.1315,54.96085,581.1315 Z M142.87666,654.9429C142.92355,654.9429,142.9658,654.9529,143.00188,654.9742C143.45775,655.25946,143.03654,659.5943,142.31139,661.90985L141.78783,663.60516L141.69133,661.74945C141.45134,657.2547,141.5255,656.1403,142.05681,655.47626C142.32706,655.16766,142.6542,654.9429,142.87666,654.9429 Z M363.7823,102.042366C358.61017,102.042366,353.30365,102.715836,348.55594,104.05756C335.95908,107.61738,324.43042,116.07845,316.88287,127.314896C311.98694,134.57088,309.23395,141.52217,307.81396,150.1961C307.18335,154.11993,307.26263,164.68024,307.9549,168.9654C309.07947,175.88751,312.98676,185.30524,317.36707,191.79047C320.41254,196.30547,328.141,203.67302,333.65497,207.30315C336.18372,208.93425,338.29895,210.44487,338.34174,210.65068C338.39465,210.78008,338.51248,210.86002,338.64362,210.86002C338.72095,210.86002,338.8029,210.83223,338.8789,210.77043C338.93457,210.7365,338.98734,210.72073,339.0347,210.72073C339.16217,210.72073,339.2507,210.83472,339.25208,211.01518C339.25333,211.18512,339.35132,211.27658,339.47913,211.27658C339.53738,211.27658,339.60184,211.25757,339.66614,211.2183C339.74335,211.17897,339.81265,211.15993,339.87143,211.15993C340.00037,211.15993,340.0789,211.25153,340.0802,211.42155C340.08145,211.5915,340.17947,211.6829,340.30725,211.6829C340.3655,211.6829,340.42996,211.6639,340.49426,211.62468C340.5715,211.58534,340.64078,211.5663,340.6996,211.5663C340.82855,211.5663,340.90707,211.65787,340.90833,211.8278C340.90964,211.99785,341.00763,212.08928,341.1354,212.08928C341.19366,212.08928,341.2581,212.07027,341.3224,212.03105C341.41586,211.9834,341.49765,211.95955,341.56326,211.95955C341.67078,211.95955,341.7349,212.02354,341.73584,212.15166C341.73947,212.6346,344.2906,213.73407,345.1879,213.73407C345.28696,213.73407,345.36584,213.72067,345.41895,213.69157C345.50702,213.6319,345.59006,213.60391,345.6605,213.60391C345.787,213.60391,345.87277,213.69418,345.87396,213.8532C345.87527,214.02313,345.97324,214.1146,346.101,214.1146C346.15927,214.1146,346.22372,214.09558,346.28802,214.05632C346.3774,214.01082,346.45612,213.98708,346.52023,213.98708C346.63297,213.98708,346.70056,214.0605,346.70178,214.2183C346.7033,214.4246,347.57178,214.70671,348.68616,214.78093C350.50214,214.89104,350.50214,214.89104,348.15143,214.99126C339.90308,215.30058,333.19397,217.33122,326.33636,221.54936C318.86298,226.18462,319.7268,225.84807,315.64294,225.87883C312.05377,225.86455,311.7644,225.7841,306.34314,223.5147C303.28064,222.21758,298.97473,220.14592,296.77914,218.92485C292.55356,216.56389,286.96548,214.04802,277.15823,210.03764C265.94418,205.46025,261.10165,203.35149,253.77383,199.89995C248.43332,197.38225,244.42044,195.88603,238.46628,194.07439C229.65935,191.41766,227.42876,191.02191,220.28917,190.66315C219.466,190.62534,218.70323,190.60622,217.9994,190.60622C214.08093,190.60622,211.9895,191.19907,211.47441,192.46196C211.02812,193.45537,207.20134,194.76299,198.76006,196.84782C191.55377,198.5933,189.12622,199.43657,184.56555,201.90471C182.71591,202.88281,181.29668,203.54861,181.02786,203.54861C180.98616,203.54861,180.97214,203.53258,180.98853,203.49919C181.11516,203.30025,181.05518,203.21452,180.88174,203.21452C180.44093,203.21452,179.26714,203.76842,178.56152,204.4251C178.11108,204.88225,177.53607,205.2166,177.28857,205.21855C177.04108,205.22038,175.9726,205.7647,174.90527,206.47392C173.83777,207.14201,172.48145,207.8123,171.82263,207.98222C171.20477,208.11064,169.435,208.6602,167.83026,209.20854C166.26672,209.75664,163.9607,210.31023,162.76532,210.44292C160.20966,210.70964,157.70508,212.29619,155.45703,215.07695C154.63977,216.11443,153.7384,216.94633,153.4909,216.94817C153.20215,216.95036,151.80585,217.78581,150.36975,218.82805L147.7436,220.70415L145.94472,217.37602C144.94081,215.52715,144.26839,213.88213,144.39058,213.67497C144.75716,213.05351,143.28426,209.18657,142.49678,208.69756C141.99959,208.41252,141.83052,207.87737,141.94691,206.88652C142.02342,206.1029,141.93655,205.48552,141.73085,205.48552L141.72893,205.48552C141.52301,205.48552,141.31447,205.07515,141.31075,204.5811C141.26546,204.04509,141.0146,203.59319,140.76643,203.51262C140.55952,203.43156,140.43398,203.18498,140.55647,203.01909C140.9637,202.31474,136.52791,193.9323,135.49324,193.48625C134.9551,193.24284,134.62257,192.91533,134.70387,192.74968C134.82637,192.58379,134.16017,191.76373,133.28798,190.98639C132.37428,190.16827,131.75026,189.47162,131.8318,189.34723C131.95491,189.26373,131.33095,188.5672,130.45876,187.78986C129.58687,187.0539,128.87978,186.27533,128.8785,186.11041C128.87416,185.5329,123.22591,180.50104,122.27492,180.21942C121.7787,180.05817,121.240005,179.73224,120.99031,179.44525C120.781815,179.15814,119.74562,178.5058,118.71028,177.97736C117.675,177.44879,116.182884,176.51105,115.3948,175.93951C114.565025,175.32684,113.24038,174.71808,112.37289,174.55963C111.54665,174.40082,110.84316,174.11725,110.84194,173.95233C110.83761,173.37482,107.48879,172.40973,103.77218,171.90143C102.46697,171.72787,101.42403,171.64291,100.46445,171.64291C99.481,171.64291,98.58511,171.73215,97.584206,171.9067C96.14225,172.165,94.12345,172.51021,93.09312,172.64168C89.46671,173.1639,82.851295,176.67891,78.79411,180.25716C76.90892,181.92159,74.6953,183.79451,73.87486,184.41951C73.054855,185.08577,72.27544,185.66914,72.15288,185.83504C72.030075,185.9598,70.84062,186.8763,69.528305,187.91743C68.215744,188.91743,66.61589,190.12581,66.041794,190.58394C61.899277,193.79158,56.882065,201.37862,55.96709,205.88203C55.21056,209.51814,55.139515,211.045,55.51073,216.52888C55.742664,219.95125,56.09532,222.96004,56.30339,223.20601C56.47032,223.45235,56.768967,224.7702,56.9442,226.13019C57.824326,233.46674,58.294235,235.60834,59.292587,236.71466C59.788956,237.24118,60.354053,237.66295,60.66628,237.66295C60.694134,237.66295,60.719975,237.65959,60.743576,237.65265C60.761177,237.64368,60.781757,237.63931,60.805088,237.63931C61.10858,237.63931,61.877533,238.37782,62.612534,239.33002C63.4041,240.35541,64.69273,241.66583,65.43962,242.23785L66.80864,243.25885L65.37755,244.961C64.55968,245.91595,63.458908,247.65692,62.89006,248.81622C61.996506,250.67926,61.91832,251.25739,62.182846,253.52448C62.40239,255.29669,62.78203,256.40778,63.448288,257.22772C64.44576,258.35574,66.05932,259.21902,67.21575,259.21902C67.36169,259.21902,67.50034,259.20526,67.62956,259.17657C67.69384,259.1632,67.7642,259.15683,67.8386,259.15683C68.24088,259.15683,68.761314,259.34335,69.076706,259.61945C69.74071,260.1507,69.70079,260.3161,68.92839,261.8482C68.48149,262.75922,68.242355,263.87482,68.32854,264.3692C69.30553,268.11603,69.559555,268.9803,69.97545,269.43097C70.12847,269.64185,70.36975,269.76315,70.568474,269.76315C70.640434,269.76315,70.70681,269.74725,70.7614,269.71393C70.817055,269.67993,70.86982,269.66418,70.917206,269.66418C71.04463,269.66418,71.13317,269.7782,71.13451,269.95856C71.13609,270.16486,71.800156,270.6961,72.586655,271.06158C73.74571,271.58917,74.03758,271.99945,74.04411,272.86566C74.05388,274.1702,74.78062,275.89767,75.24553,275.89767C75.28047,275.89767,75.313934,275.8879,75.345505,275.8675C75.38231,275.84503,75.41787,275.83453,75.45148,275.83453C75.60537,275.83453,75.71819,276.05502,75.72044,276.3598C75.722824,276.67505,75.796585,276.86923,75.88594,276.86923C75.9135,276.86923,75.942535,276.85077,75.97142,276.8117C75.99304,276.78973,76.026245,276.7792,76.069016,276.7792C76.269196,276.7792,76.6788,277.01007,77.08952,277.3808C77.58332,277.8267,78.602936,278.18753,79.50433,278.18753C79.51276,278.18753,79.52118,278.1875,79.52959,278.18744C80.39616,278.22223,81.34519,278.2564,81.634254,278.29547C82.0471,278.33368,84.41392,280.3786,84.416664,280.74982C84.41697,280.79108,84.13566,281.78326,83.814,282.89948C83.251076,284.8426,83.29478,285.1723,84.05338,287.31183C84.51682,288.58722,84.89793,289.90436,84.90043,290.23444C84.902565,290.52313,85.19419,290.8924,85.52537,291.05475C85.85636,291.1761,86.147865,291.5451,86.15037,291.87518C86.1559,292.61508,89.36219,294.15002,90.85431,294.15002C90.85967,294.15002,90.86502,294.15,90.87034,294.14996C91.53037,294.14496,92.105385,293.81073,92.390114,293.27216C92.60657,292.85587,92.752495,292.65646,92.88751,292.65646C92.980804,292.65646,93.068886,292.75168,93.171425,292.93634C93.25958,293.06976,93.422386,293.1318,93.64325,293.1318C94.78146,293.1318,97.46176,291.48398,99.41593,289.4654C100.480385,288.38483,101.66984,287.46832,102.041115,287.4655C102.78361,287.4599,108.96639,281.26675,108.83834,280.6901C108.789085,280.5697,108.82515,280.50522,108.91347,280.50522C108.97595,280.50522,109.0646,280.5375,109.16769,280.60513C109.233315,280.64383,109.29879,280.66187,109.35757,280.66187C109.48437,280.66187,109.580025,280.578,109.57894,280.43704C109.57711,280.1896,109.86428,279.9811,110.1943,279.97867C110.524315,279.9761,110.81155,279.76773,110.81002,279.56155C110.80836,279.34433,110.90271,279.22165,111.06544,279.22165C111.08816,279.22165,111.11222,279.22406,111.137535,279.2289C111.30251,279.2277,112.495384,278.76505,113.81112,278.17752C115.39773,277.4348,117.5977,277.00125,119.147644,277.00125C120.04738,277.00125,120.728065,277.14737,120.94258,277.4639C121.03361,277.64267,121.31912,277.75485,121.62606,277.75485C121.74268,277.75485,121.862404,277.73865,121.97572,277.70377C122.119026,277.6635,122.2501,277.644,122.36238,277.644C122.60489,277.644,122.759766,277.73495,122.76106,277.90408C122.76201,278.0322,122.82612,278.09613,122.933624,278.09613C122.99925,278.09613,123.08105,278.0723,123.174515,278.0247C123.25174,277.98535,123.321014,277.9663,123.379814,277.9663C123.50875,277.9663,123.58726,278.0579,123.58852,278.22794C123.5899,278.40842,123.67856,278.52246,123.79011,278.52246C123.83149,278.52246,123.87603,278.50674,123.920425,278.47293C123.94657,278.45816,123.97773,278.45117,124.01306,278.45117C124.47728,278.45117,125.66194,279.65573,125.66597,280.1924C125.66719,280.35745,126.41658,281.2593,127.33058,282.1188C128.61867,283.34683,128.9952,284.04532,129.00325,285.11783C129.0088,285.86038,129.18092,286.8079,129.39034,287.21878C130.4358,289.10867,129.66182,306.89478,128.2369,314.90857C126.770096,322.84033,126.08681,325.23804,124.65541,326.89905C122.77455,329.14075,121.39247,331.8739,120.10188,335.80273C118.69002,340.06238,118.37172,347.11914,119.32289,352.9287C119.71022,355.07104,120.48964,359.97424,121.09566,363.76514C121.70198,367.59705,122.68764,372.4989,123.32283,374.68054C124.55257,379.1267,125.44301,382.33777,126.12282,384.97287C126.589615,386.702,126.435745,388.18832,125.238235,393.519C125.03879,394.428,124.40573,398.02188,123.89578,401.53226C122.99161,407.47952,121.40628,416.11356,120.56882,419.95633C120.369415,420.8654,119.97049,422.6835,119.69168,424.00577C119.21341,426.23697,119.091156,426.44424,117.11978,427.61417C115.96976,428.28287,112.84427,429.58524,110.16941,430.4716C103.17473,432.9168,100.6754,435.20453,97.22356,442.49115C94.502556,448.20453,94.34429,449.11334,94.42242,459.5086C94.46514,465.20123,94.261345,471.01947,93.87426,474.4052C93.41357,478.98785,93.3612,482.9898,93.713066,496.8896L94.12884,513.80035L92.99828,517.06793C91.90832,520.2526,89.756096,524.8067,84.8341,534.0844C83.532646,536.5694,81.86645,539.9234,81.1773,541.53754C79.47448,545.51056,67.95214,565.81134,65.950066,568.3842C65.45971,569.00665,63.165154,571.0865,60.91027,572.9599C54.67852,578.12213,50.542778,582.23724,48.01281,585.9278C46.788876,587.75226,45.645626,589.3284,45.481564,589.4534C44.497433,590.2447,41.68237,594.4323,40.178707,597.45514C37.008175,603.7496,36.641903,604.4122,35.782406,605.32635C34.43231,606.8215,33.99029,608.3925,34.49896,610.2039C34.752987,611.0683,35.254757,611.9721,35.62762,612.1755C36.207577,612.5013,36.380917,613.61383,36.710567,619.0568C37.042534,625.22943,37.18364,626.5546,37.828384,626.5546C37.928795,626.5546,38.041416,626.52246,38.16888,626.4715C38.280315,626.42596,38.39496,626.4046,38.50992,626.4046C39.243584,626.4046,39.990063,627.27435,39.997555,628.2729C40.007477,629.58923,40.75452,630.7359,41.617718,630.7359L41.624996,630.7359C43.027523,630.7254,43.923275,629.15094,43.90533,626.75836C43.895992,625.5208,44.053585,624.5296,44.259884,624.528C44.424862,624.5268,44.503963,624.07245,44.41711,623.49554C44.288998,622.919,44.3681,622.46454,44.53314,622.4633C44.739376,622.46185,44.899105,621.7592,44.892574,620.8929C44.883297,619.65533,45.329647,618.66205,47.126095,616.1733C48.35058,614.43146,49.370415,612.8974,49.369194,612.73236C49.365997,612.30725,50.242523,611.541,50.622375,611.541C50.68484,611.541,50.73388,611.5617,50.76336,611.6081C50.888664,611.8134,49.954155,613.7181,48.691154,615.8315L46.451168,619.6849L47.55804,624.2558C48.195732,626.7674,48.7918,629.2381,48.91961,629.7735C48.992596,630.2252,49.210953,630.4998,49.375984,630.4998C49.406647,630.4998,49.435467,630.49036,49.461174,630.47076C49.480156,630.45917,49.50236,630.45355,49.52739,630.45355C49.773014,630.45355,50.29083,630.9946,50.708305,631.7403C51.208134,632.58246,51.674675,633.00323,52.03071,633.00323C52.09135,633.00323,52.14878,632.991,52.20263,632.9666C52.29024,632.933,52.37506,632.917,52.452404,632.917C52.66559,632.917,52.821987,633.0388,52.8236,633.2507C52.824642,633.3913,52.855083,633.45685,52.908615,633.45685C52.980713,633.45685,53.0947,633.338,53.23516,633.12384C53.37131,632.90234,53.508144,632.77295,53.584435,632.77295C53.622337,632.77295,53.645298,632.8049,53.645805,632.87335C53.646397,632.9531,53.68374,632.98944,53.74832,632.98944C53.850613,632.98944,54.021233,632.89844,54.222404,632.7452C54.59118,632.4124,54.866936,630.67755,55.04589,627.0461C55.25933,622.5064,55.416924,621.5152,56.352043,619.69305C56.962456,618.57465,57.448784,617.41583,57.447197,617.20953C57.445366,616.9621,57.731316,616.5887,58.059196,616.2974C58.385605,616.00745,58.50791,615.7599,58.26464,615.7597L58.259922,615.7597C58.0564,615.7597,58.301765,615.4696,58.792778,615.09564C59.28527,614.7619,59.69378,614.2225,59.69158,613.9338C59.687553,613.3975,60.879814,612.85223,62.076103,612.8433L62.078976,612.8433C62.81832,612.844,62.71193,615.27606,61.784843,618.00214C61.340935,619.3256,60.983086,621.10223,60.98925,621.9272C60.995476,622.75226,60.637505,624.5289,60.193596,625.85223C59.411823,628.21875,59.156044,630.4407,59.670204,630.4407C59.713135,630.4407,59.761433,630.4252,59.81524,630.393C59.88051,630.35974,59.94013,630.3439,59.992554,630.3439C60.138153,630.3439,60.22828,630.46625,60.22985,630.6785C60.23137,630.8795,60.251728,630.9825,60.305206,630.9825C60.3615,630.9825,60.45449,630.8684,60.600822,630.6346C60.714893,630.45233,60.80324,630.35596,60.876484,630.35596C60.986454,630.35596,61.062378,630.5732,61.14019,631.04315C61.24578,631.80133,61.706337,632.1797,62.325203,632.1797C62.98451,632.1797,63.823486,631.7503,64.60436,630.89325C65.83094,629.565,67.493866,626.0095,66.87946,626.00824L66.876114,626.00824C66.71348,626.00824,66.794876,625.8433,66.99914,625.6774C67.57354,625.26056,70.51647,616.1214,70.2246,615.7111C70.099236,615.5057,70.179924,615.2576,70.38555,615.17365C70.591545,615.1308,70.836235,614.7576,70.91619,614.42706C70.99627,614.0964,71.1585,613.7238,71.2813,613.5992C71.77294,613.14166,74.99395,608.08466,75.07336,607.67145C75.11248,607.3824,75.64312,606.6358,76.25695,605.9711C76.87078,605.30646,77.27868,604.68475,77.19555,604.60284C77.11205,604.4797,77.3565,604.06537,77.80688,603.6081C78.257195,603.15094,78.50066,602.61285,78.37542,602.4074C78.20849,602.1612,78.28979,601.99554,78.496025,601.9941C79.3211,601.98785,85.11431,593.3636,85.22784,592.0014C85.26598,591.58856,85.386955,591.2164,85.55193,591.215C85.96447,591.212,87.17718,587.90265,86.92626,587.45074C86.75976,587.24567,86.840996,587.08,87.088554,587.0782C87.45977,587.0754,88.51281,584.46857,88.54723,583.5607C88.5454,583.3133,88.79009,582.94,89.077324,582.73175C89.36419,582.482,89.60583,581.6965,89.68304,580.99457C89.71868,580.25165,89.87908,579.63165,90.08532,579.63007C90.25036,579.62885,90.371574,579.2979,90.36852,578.8853C90.365105,578.4316,90.72613,577.06757,91.12908,575.7857C91.57354,574.54474,91.81231,573.3879,91.687675,573.2651C91.52172,573.1425,91.603325,573.0181,91.85082,573.0163C92.09832,573.01434,92.50652,572.4338,92.79034,571.77155C93.073784,571.0682,93.44103,570.52924,93.60601,570.5279L93.60612,570.5279C93.77112,570.5279,94.08181,573.45404,94.232475,577.0412C94.38293,580.5878,94.7116,585.90717,94.94018,588.8757C95.349846,593.9881,95.35204,594.2768,94.53344,595.14935C93.83782,595.89703,93.75872,596.3515,93.980705,598.4537C95.21349,608.799,94.622856,623.53094,92.41662,637.3675C91.70721,641.7869,92.199455,641.41205,87.33178,641.44855C83.86669,641.47455,82.75384,641.6066,81.480034,642.2763C79.22021,643.48956,78.94042,644.68805,80.322136,647.40045C80.95019,648.63336,81.74261,649.78253,82.073906,649.945C82.40514,650.1075,82.655754,650.5181,82.65789,650.80695C82.66039,651.1369,82.95165,651.4648,83.28289,651.62726C83.61382,651.7486,83.90539,652.11774,83.908134,652.48895C83.91064,652.8189,84.12182,653.47736,84.41369,653.88763C84.83117,654.5446,84.5899,655.3715,82.8446,659.1799C81.66656,661.62274,80.33068,665.0157,79.80651,666.6285C79.202934,668.65436,78.63348,669.73126,78.09838,669.9002C77.68688,670.02716,76.701164,670.6121,75.92144,671.15424C75.10046,671.6967,73.538445,672.451,72.42718,672.78937C71.31585,673.12775,69.38384,674.04974,68.069695,674.84357C66.79681,675.6369,64.905754,676.5174,63.876335,676.77264C62.88842,677.0688,61.037468,677.7841,59.763603,678.4537C58.530693,679.0817,56.474297,679.9222,55.23992,680.34406C54.00518,680.7247,50.30407,682.2789,47.01446,683.7061C43.725216,685.17474,40.22906,686.5623,39.199947,686.8588C38.17053,687.1141,36.690487,687.7852,35.869503,688.3277C34.637814,689.1208,33.44372,689.4185,29.486385,689.8195C19.098204,690.8464,8.263061,692.7841,6.3739004,693.9122C4.197204,695.20734,3.103271,697.8559,2.8079221,702.47845C2.660034,704.74756,2.6733286,706.5208,2.8793223,706.5208L2.8804314,706.5208C3.086964,706.5208,3.50309,707.0946,3.7963862,707.7515C4.1310782,708.4489,4.5467305,708.9816,4.794381,708.9816L4.7971644,708.9816C5.045402,708.9816,5.5838146,709.43066,6.0409536,710.0036C6.873189,711.0571,12.725016,714.0526,13.785779,714.0526C13.83982,714.0526,13.881426,714.0448,13.9093,714.0286C13.954963,713.99384,14.000764,713.97815,14.043124,713.97815C14.153016,713.97815,14.2397585,714.08344,14.240904,714.23224C14.24304,714.52106,12.676817,714.69794,9.954223,714.7183C5.6228633,714.7509,4.3455806,714.9666,4.3505244,715.62665C4.3511386,715.7065,8.896807,715.746,16.9266,715.746C29.650219,715.746,51.12179,715.6468,77.120415,715.4516C143.08104,714.95624,149.88719,714.86383,150.13005,714.2432C150.6964,712.7537,150.35771,711.60114,149.28178,711.15546C148.24767,710.79205,148.2058,710.7098,148.86058,710.0036C149.59514,709.1749,149.75156,707.8992,149.05605,707.89825L149.04805,707.89825C148.84358,707.89825,148.72041,707.73486,148.84227,707.56976C149.0866,707.1555,147.45404,703.788,147.04054,703.788L147.03874,703.788C146.87416,703.788,146.70811,703.5422,146.70598,703.2542C146.6585,702.4295,145.6403,698.68304,145.26347,697.9433C145.05412,697.5323,144.88383,696.8322,144.88042,696.3785C144.877,695.9257,144.70993,695.55634,144.5043,695.55634L144.50166,695.55634C144.29683,695.55475,144.3329,694.813,144.57274,693.86444C144.81285,692.8725,144.80669,692.04755,144.59917,691.884C144.39195,691.7618,144.17302,690.0721,144.11723,688.1335C144.06169,686.2364,143.84306,684.5878,143.63615,684.5069C143.38805,684.42633,143.30272,684.0556,143.42339,683.64215C143.62338,682.8158,142.3525,678.2491,141.9395,678.2491L141.93889,678.2491C141.77408,678.2491,141.76207,676.6408,141.9121,674.6602C142.24742,669.87225,142.36467,669.00507,142.6928,668.75507C142.85692,668.6302,143.05882,668.0511,143.09605,667.5146C143.17418,666.93634,143.33519,666.39874,143.49925,666.27386C144.19652,665.73236,145.4282,659.45245,145.40562,656.4411C145.38034,653.08044,145.0076,652.24713,143.58687,652.24713C143.5776,652.24713,143.5683,652.2472,143.55894,652.24725C142.0742,652.2995,139.20988,655.4151,139.2213,656.94147C139.23047,658.15717,138.08101,658.86414,136.08447,658.86414C136.04883,658.86414,136.01291,658.8639,135.97673,658.86346C135.85912,658.86,135.74152,658.85834,135.62494,658.85834C134.63733,658.85834,133.72371,658.97595,133.50316,659.0883C133.33693,659.1947,133.18701,659.2509,133.05171,659.2509C132.28479,659.2509,131.98717,657.44556,131.84673,652.74774C131.74126,649.69574,131.5158,647.1397,131.39171,647.0993C131.22612,647.0181,131.18645,641.738,131.26219,635.3432C131.37889,628.9068,131.37987,623.54376,131.29613,623.37933C131.21269,623.25616,131.33488,623.049,131.62303,622.9644C131.95213,622.8382,132.10936,621.8056,132.09605,620.0318C132.12584,618.5052,132.28154,617.2664,132.48784,617.26483C132.69408,617.26324,132.72911,616.43805,132.63884,615.4074C132.50731,614.377,132.5424,613.5517,132.70744,613.5505C132.87242,613.54926,133.1497,612.0207,133.30046,610.122C133.45152,608.26447,133.84734,606.0336,134.17082,605.165C134.53587,604.3371,134.69127,603.0572,134.60379,602.3977C134.47476,601.6974,134.55325,601.1605,134.75949,601.15894C135.2958,601.1549,135.11899,599.5885,134.57993,599.2213C133.91684,598.81384,133.74161,597.45374,134.31912,597.44934C134.56662,597.4475,134.64572,596.99316,134.55887,596.41626C134.43076,595.8397,134.50986,595.3854,134.75735,595.3834C134.96365,595.38196,135.04276,594.9275,134.95596,594.3506C134.82779,593.7739,134.86569,593.31995,135.03067,593.3187C135.40195,593.3159,136.31387,588.3999,136.0214,587.907C135.89633,587.74304,135.97733,587.53613,136.22421,587.45166C136.43015,587.40894,136.67178,586.6234,136.70682,585.798C136.7828,584.931,136.9838,584.2283,137.1901,584.2268C137.35507,584.22546,137.43356,583.6886,137.3458,582.9879C137.21677,582.2876,137.2952,581.75073,137.46024,581.7495C137.87271,581.74634,138.70834,577.656,138.37466,577.16345C138.24936,576.9581,138.37186,576.7921,138.66061,576.79004C138.90811,576.7881,139.02939,576.4573,138.90195,575.96313C138.77475,575.51025,138.8132,575.1387,138.97818,575.13745C139.34946,575.13464,140.27005,571.3738,140.33987,569.68176C140.37613,569.0215,140.49619,568.5255,140.61996,568.52454C140.99118,568.5217,141.90622,564.0183,141.61435,563.60803C141.4891,563.4026,141.52841,563.1549,141.7341,563.0708C142.1044,562.9442,144.27377,555.17224,144.38663,553.72766C144.3829,553.23254,144.58609,552.8185,144.75107,552.81726C144.9573,552.8157,144.95578,552.6094,144.83054,552.4042C144.70486,552.1575,144.78616,551.99194,145.03366,551.9901C145.32242,551.9879,145.444,551.69824,145.27652,551.3695C145.1503,551.0403,145.23062,550.751,145.47818,550.74915C145.72568,550.7473,145.76535,550.54065,145.64005,550.3353C145.51437,550.08887,145.55441,549.92346,145.80191,549.92163C146.2557,549.9182,148.18991,543.7981,148.34103,541.9407C148.37753,541.32153,148.58011,540.8251,148.78635,540.8235C148.99258,540.8219,149.07077,540.24365,148.9833,539.58435C148.85434,538.88403,148.89157,538.3474,149.05655,538.3462C149.63406,538.3419,152.0007,529.3721,151.7836,527.9298C151.65518,527.312,151.77493,526.7748,151.98117,526.7732C152.18741,526.7716,152.26712,526.3998,152.13992,525.947C152.01279,525.49414,152.0925,525.1222,152.34006,525.12036C152.58755,525.1185,152.66287,524.1692,152.57053,522.84973C152.51993,521.61255,152.5947,520.58057,152.80093,520.5791C152.96591,520.5779,153.04349,519.91724,152.95511,519.13403C152.86673,518.35095,152.94424,517.6903,153.15054,517.6887C153.39804,517.6869,153.46628,515.7887,153.32272,513.14954C153.22128,510.6338,153.24734,508.61218,153.45358,508.6106C153.61862,508.60938,153.78024,508.15442,153.77591,507.5769C153.77153,507.00055,153.52167,506.54932,153.27466,506.54932L153.27316,506.54932C153.27007,506.54935,153.26698,506.54935,153.26393,506.54935C152.90259,506.54935,152.9453,506.3844,153.35226,506.09497C153.68033,505.84497,153.80228,505.59656,153.55386,505.4746C153.30576,505.39404,153.16458,503.08484,153.2189,499.33032C153.31474,495.61844,153.17409,493.3507,152.92679,493.3507L152.92545,493.3507C152.67897,493.3507,152.67407,492.64978,152.91196,491.412C153.2305,489.88318,153.18552,489.38855,152.77054,489.06165C152.43863,488.81653,152.22714,488.11682,152.30472,487.45618C152.38234,486.83804,152.25557,486.3446,152.00897,486.3446L152.0076,486.3446C152.00555,486.3446,152.00352,486.34464,152.0015,486.34464C151.3483,486.34464,151.46796,485.56238,152.28427,484.73364C153.02054,483.90308,158.24893,482.46118,166.15736,480.83423C168.67,480.3202,170.76979,479.76807,170.8926,479.64355C171.0154,479.5188,172.45796,479.3429,174.14894,479.28894C175.83992,479.235,177.32338,479.0177,177.44594,478.85168C177.56844,478.6858,178.80476,478.51147,180.16566,478.45996C181.527,478.4497,184.74336,478.26062,187.2994,478.03516C188.65334,477.92236,189.71396,477.85263,190.5653,477.85263C193.13586,477.85263,193.79852,478.48843,194.8672,480.49475C195.36926,481.4802,195.95241,482.3003,196.15913,482.3003L196.16074,482.3003C196.32536,482.3003,196.49184,482.58713,196.49434,482.9165C196.49684,483.24554,196.70407,483.53223,196.9098,483.53223L196.91562,483.53223C197.16084,483.53223,197.32523,483.69547,197.3271,483.94165C197.33083,484.43665,201.4999,490.2633,201.99617,490.42456C202.16182,490.50586,202.32863,490.75208,202.33022,490.95837C202.33296,491.3296,206.79982,498.35046,207.29762,498.71802C207.87862,499.16748,209.01436,502.0879,209.02242,503.1604C209.03418,504.7252,210.48965,506.93704,211.5206,506.93704C211.52238,506.93704,211.52417,506.937,211.52596,506.937C211.97975,506.9336,212.34975,506.76575,212.34853,506.6007C212.34724,506.43567,212.79951,506.22607,213.33546,506.1808C214.77834,506.04614,219.05977,504.8589,219.30482,504.5271C219.42696,504.31982,220.20955,504.14893,220.99269,504.06055C221.77583,503.97217,222.88808,503.75757,223.464,503.547C224.04034,503.37756,225.646,502.953,227.08765,502.65344C228.48798,502.35413,229.6399,501.93298,229.63837,501.72668C229.63754,501.61603,229.71117,501.542,229.82222,501.542C229.87682,501.542,229.94044,501.55988,230.00873,501.6001C230.02571,501.61014,230.06265,501.61502,230.1182,501.61502C230.73976,501.61502,233.69157,501.003,237.09338,500.1444C240.79883,499.1676,244.25775,498.31665,244.79315,498.18884C245.28748,498.10266,245.69818,497.85205,245.69666,497.64575C245.69557,497.50415,245.85037,497.4197,246.08127,497.4197C246.18678,497.4197,246.3082,497.43735,246.43787,497.47522C246.482,497.4837,246.54068,497.48782,246.61237,497.48782C247.21184,497.48782,248.72041,497.19894,250.22772,496.74536C252.86224,495.98315,254.63232,495.47473,259.90192,494.0326C261.75452,493.52368,272.46307,491.21558,272.95807,491.2118L272.9587,491.2118C273.24838,491.2118,274.33157,492.72913,275.29358,494.57703C277.67993,499.2207,279.85345,502.99963,281.14716,504.9702C281.7727,505.87305,282.56702,507.26978,282.94415,508.05078C283.32166,508.87292,283.8647,509.7765,284.1972,510.104C284.77966,510.75964,285.23993,511.62256,287.46222,516.39124L288.76172,519.1455L288.81995,526.90063C288.8695,533.50085,288.75787,535.1106,287.99664,538.1278C286.87512,542.5917,286.85675,551.1312,287.9646,555.8258C288.34857,557.5143,288.784,560.56384,288.96448,562.62524C289.21347,565.8789,289.89554,568.04333,290.60233,568.04333C290.6747,568.04333,290.7473,568.0206,290.81976,567.9741C290.88403,567.93494,290.9444,567.91595,290.99704,567.91595C291.11273,567.91595,291.1913,568.0075,291.19263,568.1776C291.19666,568.71387,295.58472,570.74365,296.8642,570.8164C296.87073,570.81635,296.87726,570.81635,296.8838,570.81635C297.4105,570.81635,297.8142,570.9764,297.81543,571.1394C297.81665,571.30444,298.23102,571.5488,298.7685,571.70984C299.26447,571.82983,300.42322,572.31616,301.33356,572.68054C303.8953,573.7879,307.20908,574.8895,308.0618,574.8895C308.1459,574.8895,308.20605,574.8788,308.2392,574.8563C308.2923,574.8159,308.34555,574.79706,308.39337,574.79706C308.49332,574.79706,308.5694,574.8794,308.57043,575.0189C308.57343,575.41437,312.37863,577.2221,313.12805,577.2221C313.16034,577.2221,313.18695,577.21875,313.20734,577.2118C313.22925,577.2061,313.2512,577.2034,313.27274,577.2034C313.41327,577.2034,313.53818,577.31934,313.5395,577.49817C313.5435,578.03,315.8617,578.7473,317.4693,578.7473C317.48264,578.7473,317.49594,578.7473,317.50922,578.7472C318.29297,578.74133,318.91022,578.5304,318.9084,578.28284C318.9073,578.14197,319.003,578.05804,319.12982,578.05804C319.1886,578.05804,319.25403,578.07605,319.31964,578.11475C319.41656,578.16235,319.50076,578.1849,319.56732,578.1849C319.6713,578.1849,319.73224,578.1298,319.7315,578.0292C319.72946,577.7577,320.1302,577.6206,320.58047,577.6206C321.01962,577.6206,321.50586,577.75104,321.71152,578.0143C322.2109,578.58813,323.46542,580.84766,326.39426,586.3124C329.69992,592.5167,329.95114,593.0099,331.83743,596.9973C332.76016,599.01184,333.9329,601.35455,334.35135,602.1353C334.81094,602.9156,335.48117,604.2719,335.85898,605.1353C336.23605,605.95667,336.69443,606.654,336.901,606.654L336.90466,606.654C337.1096,606.654,337.2742,606.8174,337.2761,607.06366C337.27762,607.26996,338.07224,608.7078,339.07364,610.2267C340.91043,613.1006,342.37527,615.8948,343.97165,619.71936C344.51614,620.86945,345.0594,621.85486,345.26602,621.85486L345.26807,621.85486C345.47366,621.85486,345.63992,622.1416,345.64243,622.4708C345.64493,622.79987,345.85217,623.08655,346.0579,623.08655L346.06235,623.08655C346.30832,623.08655,346.47397,623.332,346.4761,623.61975C346.48096,624.27014,347.56525,625.324,348.08176,625.324C348.15488,625.324,348.2166,625.30286,348.2623,625.2565C348.3046,625.22424,348.34427,625.20844,348.3799,625.20844C348.48254,625.20844,348.5517,625.3393,348.55356,625.5842C348.55853,626.2499,352.51962,629.0788,353.37857,629.0788C353.42453,629.0788,353.4616,629.0707,353.48874,629.0537C353.53485,629.0256,353.5852,629.01196,353.63702,629.01196C353.81607,629.01196,354.0125,629.1744,354.11063,629.4617C354.21173,629.7574,354.4962,629.94653,354.75327,629.94653C354.81805,629.94653,354.8811,629.9346,354.93906,629.9092C355.0134,629.8807,355.08997,629.8669,355.1654,629.8669C355.42392,629.8669,355.66925,630.0288,355.76724,630.3154C355.89352,630.5635,356.13672,630.7402,356.38968,630.7402C356.47208,630.7402,356.5555,630.72144,356.63626,630.6803C356.76166,630.6322,356.88126,630.6081,356.98132,630.6081C357.1439,630.6081,357.255,630.6717,357.25595,630.7993C357.25754,631.0056,358.085,631.32935,359.11844,631.6105C360.15158,631.8502,361.80472,632.25037,362.83792,632.49C363.60413,632.6755,364.61603,632.7853,365.34073,632.7853C365.55414,632.7853,365.7426,632.77576,365.8926,632.75586C366.09167,632.7309,366.28418,632.71936,366.45877,632.71936C366.89868,632.71936,367.22473,632.7928,367.25516,632.91077C367.3392,633.11633,368.62045,633.43677,370.06583,633.6321C371.5521,633.786,373.5762,634.14197,374.56808,634.3821C375.25992,634.58704,376.01663,634.7041,376.50436,634.7041C376.687,634.7041,376.83194,634.6877,376.9216,634.6533C377.01385,634.6179,377.09976,634.60205,377.1757,634.60205C377.37054,634.60205,377.49954,634.7067,377.50064,634.8551C377.5023,635.0708,377.75613,635.16956,378.1249,635.16956C378.24988,635.16956,378.38806,635.1582,378.5341,635.1362C378.76773,635.0843,378.98126,635.05963,379.15268,635.05963C379.40433,635.05963,379.56528,635.1128,379.566,635.21094C379.56845,635.53217,382.9421,636.3534,384.03583,636.3534C384.20596,636.3534,384.32092,636.33356,384.35947,636.2888C384.397,636.26025,384.44543,636.24664,384.50232,636.24664C384.69403,636.24664,384.98154,636.4009,385.2698,636.6532C385.59094,637.0012,386.13217,637.1754,386.93143,637.1754C387.16727,637.1754,387.42557,637.1602,387.7073,637.1299C387.93307,637.1085,388.15192,637.09894,388.35437,637.09894C389.00208,637.09894,389.48178,637.19714,389.4827,637.3229C389.48358,637.4423,390.75888,637.5305,392.57333,637.5305C393.2662,637.5305,394.03772,637.5177,394.8469,637.4888C395.66702,637.4599,396.44324,637.447,397.13724,637.447C398.95596,637.447,400.21017,637.53534,400.2111,637.6548C400.21216,637.8006,400.91357,637.87933,401.9218,637.87933C402.33997,637.87933,402.81088,637.8658,403.3065,637.8379C403.733,637.81384,404.14124,637.8031,404.5133,637.8031C405.61603,637.8031,406.4009,637.8976,406.40182,638.0209C406.40295,638.1681,406.97058,638.248,407.78998,638.248C408.11902,638.248,408.48865,638.23505,408.8785,638.2085C409.15567,638.19806,409.4226,638.19275,409.67203,638.19275C410.64722,638.19275,411.35416,638.2732,411.35538,638.4375C411.3563,638.5545,411.77197,638.6269,412.38144,638.6269C412.63116,638.6269,412.91342,638.61475,413.21298,638.5885C413.45938,638.56696,413.6941,638.5573,413.9086,638.5573C414.5914,638.5573,415.06992,638.6553,415.07083,638.7809C415.07193,638.9291,415.562,639.00964,416.2506,639.00964C416.5207,639.00964,416.8213,638.99725,417.13492,638.9717C417.36353,638.9618,417.58246,638.95685,417.78662,638.95685C418.61368,638.95685,419.1981,639.03827,419.19937,639.2036C419.20026,639.3223,419.43567,639.3966,419.78253,639.3966C419.9178,639.3966,420.06998,639.3853,420.23184,639.36096C420.4492,639.3091,420.66672,639.28436,420.85132,639.28436C421.1214,639.28436,421.32098,639.3372,421.34622,639.43506C421.42996,639.5995,422.6691,639.7964,424.15475,639.8677C425.6404,639.9391,426.92075,640.1357,427.04575,640.29974C427.17038,640.42255,428.6157,640.618,430.26645,640.6882C431.87582,640.7585,433.23868,640.9545,433.24026,641.1608C433.24115,641.2795,433.47656,641.3537,433.82343,641.3537C433.95868,641.3537,434.11093,641.3424,434.2728,641.31805C434.46317,641.27576,434.6402,641.2561,434.792,641.2561C435.10004,641.2561,435.30426,641.33716,435.30527,641.4753C435.30664,641.65497,435.8289,641.7438,436.6039,641.7438C436.89667,641.7438,437.2255,641.7311,437.57596,641.7059C437.83304,641.6954,438.08127,641.69025,438.31323,641.69025C439.19754,641.69025,439.8453,641.7643,439.84628,641.89496C439.84738,642.0417,440.45322,642.1213,441.3372,642.1213C441.69598,642.1213,442.10065,642.10815,442.52927,642.0811C442.8364,642.0703,443.1312,642.0648,443.40564,642.0648C444.45795,642.0648,445.21112,642.1449,445.21237,642.30853C445.21323,642.42554,445.62897,642.4979,446.2384,642.4979C446.48813,642.4979,446.77036,642.4858,447.06992,642.45953C447.3164,642.438,447.55118,642.4283,447.76578,642.4283C448.44846,642.4283,448.92688,642.52637,448.9278,642.6519C448.92886,642.8006,449.35782,642.88165,449.9831,642.88165C450.22552,642.88165,450.4975,642.86945,450.78546,642.8443C451.09955,642.8168,451.39838,642.8047,451.66333,642.8047C452.2679,642.8047,452.69592,642.86755,452.72528,642.9533C452.80902,643.11774,454.33685,643.31256,456.15253,643.38153C457.96783,643.4091,459.53705,643.6036,459.66168,643.7264C459.78668,643.89044,461.97455,644.08026,464.49115,644.1026C467.04938,644.16595,469.15497,644.39764,469.1563,644.56256C469.15735,644.7079,469.89508,644.7863,470.96542,644.7863C471.41437,644.7863,471.9218,644.7725,472.45795,644.7441C472.9062,644.72034,473.33438,644.70935,473.72513,644.70935C474.91595,644.70935,475.75876,644.8115,475.75995,644.96686C475.7608,645.08386,476.17654,645.15625,476.78598,645.15625C477.0357,645.15625,477.31793,645.1441,477.6175,645.11786C477.86398,645.0963,478.09875,645.0866,478.31335,645.0866C478.99603,645.0866,479.47437,645.1847,479.47528,645.31024C479.47635,645.4492,480.7499,645.52246,482.61493,645.52246C483.51846,645.52246,484.5608,645.50525,485.6645,645.47003C486.8433,645.44696,487.9439,645.43427,488.88046,645.43427C490.66394,645.43427,491.85254,645.4803,491.85333,645.58844C491.85486,645.7886,492.63232,645.9053,493.58264,645.9053C493.61194,645.9053,493.64136,645.9052,493.67096,645.90497C493.6906,645.90485,493.7102,645.9047,493.7298,645.9047C494.73822,645.9047,495.6549,646.1003,495.7779,646.3016C495.89233,646.4705,496.0644,646.5614,496.22748,646.5614C496.30215,646.5614,496.37497,646.54236,496.4395,646.503C496.50436,646.45026,496.5653,646.42645,496.6184,646.42645C496.733,646.42645,496.81094,646.53723,496.8122,646.70636C496.81354,646.87634,496.91153,646.9678,497.03925,646.9678C497.0975,646.9678,497.16196,646.9487,497.22626,646.9095C497.30624,646.8687,497.37772,646.8498,497.43784,646.8498C497.56305,646.8498,497.639,646.93207,497.64008,647.0715C497.64236,647.3726,498.56223,647.51227,499.585,647.51227C500.80392,647.51227,502.16895,647.3139,502.30084,646.9539C502.38007,646.7719,502.46,646.6786,502.55508,646.6786C502.65457,646.6786,502.7707,646.78076,502.91998,646.99054C503.13336,647.2906,503.6987,647.4336,504.89026,647.4336C505.328,647.4336,505.85028,647.4143,506.47064,647.3764C506.84055,647.3648,507.19543,647.35895,507.52487,647.35895C508.73816,647.35895,509.60623,647.4382,509.60748,647.6004C509.60828,647.709,509.7698,647.78064,510.00934,647.78064C510.1336,647.78064,510.27884,647.76135,510.43353,647.71796C510.57693,647.6777,510.71222,647.65814,510.83023,647.65814C511.08472,647.65814,511.2587,647.74896,511.25995,647.918C511.26138,648.0982,511.72095,648.18744,512.432,648.18744C512.69794,648.18744,512.999,648.175,513.3245,648.1501C513.5531,648.1402,513.77203,648.13525,513.9762,648.13525C514.8032,648.13525,515.3876,648.2167,515.38885,648.382C515.38965,648.49066,515.55115,648.5623,515.7906,648.5623C515.91486,648.5623,516.0602,648.543,516.2149,648.4996C516.35834,648.4593,516.4937,648.43976,516.61176,648.43976C516.8662,648.43976,517.0402,648.5305,517.04144,648.69965C517.0428,648.88135,517.3772,648.9716,517.88116,648.9716C518.0635,648.9716,518.268,648.9598,518.487,648.9362C518.711,648.91095,518.92834,648.8993,519.12555,648.8993C519.6178,648.8993,519.9843,648.9722,520.0147,649.0899C520.0986,649.2955,521.00775,649.49493,522.1219,649.5278C523.19464,649.561,524.06256,649.7608,524.064,649.9671C524.065,650.0853,524.3624,650.15894,524.7737,650.15894C524.9361,650.15894,525.1163,650.14746,525.3029,650.12274C525.5032,650.0858,525.69006,650.0693,525.855,650.0693C526.2666,650.0693,526.5408,650.1725,526.5418,650.31976C526.54285,650.4583,526.71106,650.53973,526.95856,650.53973C527.0795,650.53973,527.2195,650.5203,527.3681,650.4786C527.5116,650.4383,527.647,650.41876,527.7651,650.41876C528.01953,650.41876,528.19354,650.5095,528.19476,650.6785C528.1961,650.86035,528.53046,650.9506,529.0345,650.9506C529.2168,650.9506,529.4213,650.9388,529.6403,650.9152C529.8555,650.8909,530.0615,650.87915,530.24713,650.87915C530.7369,650.87915,531.0846,650.96106,531.08575,651.11066C531.0865,651.2098,531.16144,651.26373,531.2657,651.26373C531.3349,651.26373,531.41693,651.24,531.49884,651.19C531.57886,651.1493,531.6503,651.1303,531.71045,651.1303C531.8357,651.1303,531.91156,651.2126,531.91254,651.352C531.9145,651.5983,532.161,651.8017,532.4479,651.8017L532.455,651.8017C532.7861,651.8017,533.44727,652.24976,533.9864,652.8216C534.47473,653.3397,535.0967,653.6885,535.4246,653.6885C535.45966,653.6885,535.49133,653.6845,535.5191,653.67633C535.60956,653.6367,535.6961,653.61755,535.7723,653.61755C535.93854,653.61755,536.0556,653.70886,536.05695,653.8786C536.0582,654.0486,536.1368,654.1402,536.25244,654.1402C536.3051,654.1402,536.3655,654.1212,536.42975,654.082C536.5161,654.0118,536.6101,653.9782,536.6963,653.9782C536.8146,653.9782,536.918,654.0415,536.9666,654.16046C537.1258,654.5501,542.92487,656.8956,543.7459,656.8956C543.79175,656.8956,543.8221,656.88837,543.835,656.873C543.8474,656.8604,543.8665,656.8544,543.8912,656.8544C544.02905,656.8544,544.34015,657.0429,544.62225,657.32086C544.91943,657.581,545.32025,657.76215,545.6168,657.76215C545.69324,657.76215,545.7627,657.7501,545.8217,657.7243C545.92896,657.68317,546.02765,657.664,546.112,657.664C546.2863,657.664,546.39935,657.7459,546.40045,657.88495C546.4023,658.1305,546.68774,658.2928,547.0146,658.2928L547.02814,658.2928C547.35565,658.2928,547.64264,658.4959,547.6445,658.7419C547.64557,658.8813,547.7403,658.9635,547.865,658.9635C547.9248,658.9635,547.9916,658.9445,548.05817,658.9039C548.1354,658.8645,548.20465,658.84546,548.2635,658.84546C548.39246,658.84546,548.47095,658.9371,548.4722,659.1071C548.47375,659.3063,548.6121,659.4259,548.8057,659.4259C548.8927,659.4259,548.9909,659.40173,549.09283,659.3498C549.20026,659.3086,549.30347,659.2894,549.3938,659.2894C549.5802,659.2894,549.71185,659.3712,549.7128,659.5102C549.7148,659.7557,549.99994,659.91785,550.3666,659.91785C550.36975,659.91785,550.37286,659.9178,550.37604,659.9178C550.37823,659.9178,550.38043,659.9178,550.38257,659.9177L550.38806,659.9177C551.07733,659.9193,551.077,660.51697,550.29156,665.15753C549.9743,666.8514,548.4228,669.00824,546.5346,670.2601C545.878,670.7187,545.5535,671.4638,545.31903,673.1982C545.1258,674.9323,544.55853,676.2978,543.1314,678.5363C542.0716,680.23566,541.21747,681.8509,541.21967,682.1396C541.2221,682.46967,539.9908,683.3039,538.4698,684.01666C536.9074,684.7298,535.3055,685.6495,534.85516,686.1066C532.9299,687.9362,529.68475,689.7757,528.40594,689.78534C527.62213,689.7912,526.05927,690.4218,524.33453,691.466C522.85614,692.3847,520.38947,693.517,518.9488,693.9405C515.6971,694.91364,514.38324,695.7487,513.2829,697.5308C512.26385,699.18866,512.2753,700.7149,513.2542,704.70905C513.85065,707.2211,514.2696,708.0843,515.5168,709.3537L517.0545,710.8686L538.5467,710.7485C550.34454,710.65985,559.9964,710.46356,559.9952,710.2985C559.99384,710.1236,561.1808,710.05853,562.8003,710.05853C563.0899,710.05853,563.3933,710.0606,563.70624,710.0645C564.1394,710.0789,564.5574,710.0859,564.9468,710.0859C566.3749,710.0859,567.4184,709.9924,567.4172,709.83026C567.41595,709.6703,568.20917,709.5788,569.29675,709.5788C569.61163,709.5788,569.9512,709.5865,570.3033,709.60236C570.7348,709.6292,571.1272,709.6417,571.47394,709.6417C572.5533,709.6417,573.1904,709.52045,573.189,709.3332C573.18774,709.16046,573.3678,709.0667,573.6312,709.0667C573.74536,709.0667,573.87506,709.0843,574.0125,709.12067C574.1511,709.1622,574.27313,709.1819,574.3778,709.1819C574.679,709.1819,574.83685,709.0188,574.8348,708.74335C574.8295,708.048,571.173,707.6695,564.67847,707.6695C564.2376,707.6695,563.7837,707.67126,563.31696,707.67474C562.9913,707.6772,562.6858,707.6785,562.4001,707.6785C558.5254,707.6785,558.30133,707.4352,560.79144,706.4561C561.5726,706.12006,563.17523,705.283,564.28375,704.5734C566.5008,703.1541,572.7691,697.37274,572.5599,696.96185C572.43365,696.63275,576.9378,692.1436,577.43207,692.0573C577.6381,692.01447,578.0063,691.5993,578.25006,691.10236C578.4711,690.6518,578.727,690.3026,578.8347,690.3026C578.84576,690.3026,578.8552,690.3063,578.863,690.3139C578.8683,690.3178,578.8756,690.31976,578.8849,690.31976C579.455,690.31976,587.3856,683.0252,587.1801,682.7021C587.1014,682.5729,587.1374,682.5081,587.2574,682.5081C587.32806,682.5081,587.4279,682.5306,587.5506,682.5755C587.6071,682.59625,587.6696,682.6061,587.7358,682.6061C588.0568,682.6061,588.46466,682.3744,588.7016,682.0306C589.0284,681.61566,589.56195,681.2403,589.8914,681.15546C590.22064,681.0704,590.7132,680.73663,590.95856,680.4461C591.1553,680.1797,591.37897,679.9929,591.5242,679.9929C591.5599,679.9929,591.5909,680.0043,591.61554,680.0285C591.62305,680.0396,591.63586,680.045,591.65356,680.045C591.832,680.045,592.5034,679.49744,593.17377,678.77936C594.19696,677.6989,594.89545,677.32245,595.9267,677.31476C596.8343,677.3079,597.6569,676.97174,598.2712,676.3896C598.8035,675.8492,599.8289,675.0577,600.60956,674.6392C603.0328,673.21857,606.9289,670.1364,606.80194,669.7249C606.7727,669.58435,606.8208,669.50085,606.92017,669.50085C606.9664,669.50085,607.0237,669.5189,607.0894,669.5577C607.1291,669.5889,607.1777,669.6036,607.23254,669.6036C607.46497,669.6036,607.8109,669.3418,608.07513,668.9727C608.3117,668.5949,608.60596,668.3582,608.7707,668.3582C608.80475,668.3582,608.83325,668.36835,608.85455,668.38934C608.87244,668.405,608.89514,668.41254,608.92206,668.41254C609.45703,668.41254,611.6671,665.4548,611.4277,664.946C611.3556,664.7003,611.4337,664.5136,611.6375,664.5136C611.67285,664.5136,611.71185,664.5192,611.7546,664.53107C611.77814,664.53424,611.80084,664.53577,611.82263,664.53577C612.06866,664.53577,612.2003,664.3391,612.1225,664.0744C612.08984,663.8283,612.1501,663.6964,612.2517,663.6964C612.2862,663.6964,612.3255,663.71155,612.3675,663.7426C612.4027,663.7634,612.4462,663.7734,612.4962,663.7734C612.74,663.7734,613.1374,663.5359,613.47687,663.1567C613.88605,662.6999,614.66693,662.3227,615.24445,662.3183C616.3582,662.31,620.25433,659.2281,620.24774,658.36176C620.2453,658.0318,620.49054,657.741,620.82,657.65607C621.76715,657.4428,625.52704,652.7116,626.7863,650.1032C628.1274,647.4117,628.3952,644.6043,627.361,644.2408C627.02985,644.0783,626.8217,643.83234,626.94415,643.66644C627.0667,643.5004,626.4018,642.8454,625.4897,642.23346C624.57733,641.6215,623.8295,640.92584,623.8283,640.7608C623.82684,640.556,623.5411,640.3942,623.21405,640.3942L623.19904,640.3942C622.8723,640.3942,622.58685,640.23224,622.5854,640.0275C622.5822,639.6164,619.37494,638.3682,618.3333,638.3682C618.3301,638.3682,618.32684,638.3683,618.32367,638.3683C618.3205,638.3683,618.3173,638.36835,618.3142,638.36835C617.9467,638.36835,617.62115,638.2071,617.61993,638.0436C617.61566,637.4684,615.2748,636.33795,614.03326,636.33795C614.0282,636.33795,614.02313,636.33795,614.0181,636.338C614.00977,636.3381,614.0014,636.33813,613.9931,636.33813C613.14307,636.33813,612.69025,636.0091,612.1524,635.1144C611.7769,634.4177,611.15643,633.8871,610.78485,633.8871L610.7819,633.8871C610.77893,633.8871,610.77594,633.88715,610.77295,633.88715C610.4072,633.88715,610.20416,633.7246,610.32526,633.51917C610.6106,633.06354,605.7568,628.568,604.92694,628.568L604.91754,628.568C604.5913,628.568,604.3464,628.40576,604.3449,628.2012C604.3433,627.9949,603.18146,627.09607,601.73065,626.1581C598.2901,623.9563,596.7513,622.3176,595.4096,619.44006C594.78174,618.16675,594.15533,617.0995,593.9486,617.0995L593.9465,617.0995C593.7414,617.0995,593.6576,616.81195,593.7785,616.48206C593.9405,616.1517,593.8159,615.86475,593.57,615.86475L593.5633,615.86475C593.3182,615.86475,593.154,615.70166,593.19354,615.4962C593.3548,615.0,588.3632,609.50964,586.8288,608.4485L585.6264,607.63245L582.66925,609.3873C578.64435,611.7689,573.4041,617.13,571.7376,620.44275C571.0472,621.89197,570.2309,623.0531,569.9421,623.0553L569.93933,623.0553C569.6046,623.0553,568.2435,622.61273,566.8405,622.04724C565.30963,621.43994,562.7889,620.88135,560.6423,620.69116C558.6607,620.49976,555.8925,619.943,554.5684,619.4166C551.9626,618.4874,548.6971,617.6456,541.5485,616.09045C539.15204,615.57214,532.2088,613.8916,526.05,612.2877C514.80743,609.402,512.3698,608.9252,501.46808,607.4806C497.66925,607.01416,493.57855,606.1373,490.2708,605.13074C487.3764,604.245,482.7469,603.0421,479.93744,602.4857C477.12775,601.88794,472.49933,600.80884,469.64703,600.0464C466.79486,599.2842,462.20844,598.32837,459.39996,597.89575C454.07172,597.0282,452.54242,596.6271,452.08344,595.9293C451.95886,595.6848,451.42892,595.4838,450.9776,595.4838C450.97382,595.4838,450.97003,595.4839,450.96625,595.4839C450.96155,595.48395,450.9568,595.48395,450.952,595.48395C450.03378,595.48395,447.6551,594.8458,446.5018,594.2799C445.46677,593.7925,434.10226,591.15515,431.00504,590.7246C425.96652,589.97864,419.4042,589.5741,406.90164,589.21423C394.8116,588.8512,394.72916,588.8518,393.81387,587.8274C393.27585,587.2974,392.49295,586.8511,391.99762,586.8511L391.99136,586.8511C391.9876,586.8511,391.98386,586.85114,391.9801,586.85114C391.53146,586.85114,391.16483,586.6492,391.1633,586.4447C391.1614,586.199,390.8757,586.03674,390.54874,586.03674L390.5414,586.03674C390.538,586.03674,390.5346,586.0368,390.53122,586.0368C390.2063,586.0368,389.96338,585.91534,390.00266,585.7108C390.0427,585.54553,389.83145,584.8871,389.5793,584.27014C389.28555,583.6123,389.07407,582.9126,389.07254,582.7063C389.07095,582.5,388.82132,582.21326,388.4904,582.0919C388.1594,581.9706,387.99136,581.5593,388.11136,581.0635C388.23172,580.60876,388.06357,580.1974,387.73264,580.0763C387.31894,579.9143,387.19144,579.4203,387.3087,578.553C387.42587,577.6858,387.29843,577.19165,386.8428,576.94763C386.46976,576.7029,386.3013,576.25037,386.42136,575.7544C386.54147,575.30054,386.45667,574.9303,386.29218,574.9303L386.29083,574.9303C386.08475,574.9303,385.8723,574.0662,385.78152,572.954C385.7322,571.88184,385.47787,570.9761,385.27103,570.89514C385.06412,570.8141,385.02036,570.4845,385.1417,570.15344C385.26328,569.8639,385.05386,569.4529,384.68167,569.3319C384.30954,569.21094,384.142,568.8822,384.26425,568.67505C384.42734,568.42615,384.29465,567.23083,383.99692,566.03674C383.57138,564.30725,383.52548,563.68896,383.89395,563.3148C384.79465,562.4005,384.41068,560.71204,383.0811,559.4431C381.9177,558.338,381.83328,558.09106,382.0259,556.27454C382.18274,555.20166,382.1352,554.3363,381.92938,554.3363L381.92154,554.3363C381.5158,554.3363,381.47137,554.0723,381.1591,550.7118C381.0248,549.3108,380.7688,548.15796,380.64502,548.15796L380.6446,548.15796C380.47968,548.15796,380.34805,547.0869,380.33847,545.80884C380.32883,544.53,380.11417,543.4177,379.90732,543.3368C379.6592,543.2561,379.52957,542.4734,379.60526,541.5652C379.68088,540.65784,379.59302,539.9164,379.42828,539.9164L379.42725,539.9164C379.22116,539.9164,379.00943,539.13464,378.9611,538.18726C378.87143,537.23914,378.69992,536.374,378.53403,536.25146C378.3268,536.1294,378.1581,535.6355,378.11343,535.1821C377.9343,533.2864,376.99973,529.6238,376.66943,529.6238L376.6671,529.6238C376.46252,529.6238,376.42017,529.37714,376.5413,529.0884C376.78384,528.4265,375.5519,523.69165,375.09695,523.53C374.8904,523.49023,374.80356,522.9133,374.9224,522.25244C374.99985,521.5918,374.8293,520.8506,374.4968,520.52295C374.16434,520.19556,373.95438,519.702,374.0759,519.41235C374.27753,518.7921,372.4528,511.9192,372.081,511.9192L372.08047,511.9192C371.9568,511.9192,371.82855,511.30167,371.78177,510.56006C371.72592,508.62158,370.8749,505.1626,370.46146,505.042C370.2546,504.96106,370.16745,504.3429,370.24496,503.68225C370.32214,502.98114,370.23587,502.44592,370.07126,502.44592L370.07007,502.44592C369.86398,502.44592,369.65225,501.66428,369.6036,500.67554C369.51395,499.72742,369.30154,498.90393,369.05338,498.82324C368.80527,498.74255,368.72092,498.49573,368.8431,498.28857C368.9656,498.12268,368.49362,495.69226,367.77127,492.89233C367.09042,490.13354,366.49124,487.25024,366.4857,486.5077C366.47977,485.724,366.2239,484.61218,365.88925,483.99585C365.13528,482.4751,364.65298,478.68335,365.18686,478.34924C365.71988,478.01584,365.70917,476.4933,365.13403,476.4933L365.12866,476.4933C364.92413,476.4933,364.80096,476.3298,364.92258,476.12366C365.08603,475.91614,364.91885,475.62866,364.67075,475.54797C364.257,475.386,364.29703,475.22083,364.74826,474.88733C365.07422,474.63916,365.19696,474.43298,364.99655,474.43176L364.99078,474.43176C364.829,474.43054,365.07385,474.05844,365.60495,473.60205L366.58884,472.76965L365.46756,471.78784C363.68204,470.23364,364.03806,468.2096,366.6146,465.2201C368.0054,463.64185,368.32486,462.23694,367.4561,461.91333C367.04233,461.7516,367.0414,461.6278,367.45175,461.33582C367.77957,461.04468,367.8953,459.9712,367.75357,457.5796C367.65714,455.72388,367.68692,454.19727,367.85196,454.19592C368.2645,454.19287,369.11185,451.67017,368.86118,451.2594C368.73593,451.0542,368.85837,450.88818,369.10593,450.88635C369.3535,450.8844,369.43436,450.6775,369.3091,450.4723C369.18344,450.2257,369.22348,450.0603,369.42972,450.05872C369.63602,450.05725,370.12357,449.06348,370.48587,447.8644C372.74356,440.87564,374.60117,430.05338,374.20053,426.13724C374.06808,424.98306,374.14346,424.03372,374.30844,424.0325C374.51468,424.03104,374.6658,422.17337,374.64877,419.90457C374.63174,417.6365,374.49408,415.78165,374.32916,415.78165L374.32867,415.78165C374.12268,415.78165,374.0291,414.29776,374.098,412.4832C374.1668,410.6685,374.0733,409.1846,373.86725,409.1846L373.86667,409.1846C373.70172,409.1846,373.48608,407.90775,373.39212,406.38284C373.3394,404.85696,373.12357,403.57974,372.91666,403.4987C372.70975,403.41776,372.62418,403.0059,372.74484,402.59244C372.8649,402.1387,372.78024,401.7687,372.5749,401.7687L372.57275,401.7687C372.326,401.7687,372.27887,400.94424,372.475,399.62418C372.67227,398.42642,372.6642,397.3538,372.49832,397.23135C372.33237,397.1088,372.16086,396.2438,372.11252,395.29532C372.06442,394.3881,371.6404,392.8649,371.17953,391.9196C370.67773,391.0156,370.2987,389.98715,370.2959,389.61594C370.2934,389.28656,370.12692,388.9996,369.96228,388.9996L369.96057,388.9996C369.7957,388.9996,369.58618,388.5064,369.54004,387.84775C369.4942,387.22922,369.15887,386.5305,368.82703,386.28537C368.49518,386.04037,368.328,385.75278,368.40955,385.6284C368.5324,385.50388,368.1543,384.5991,367.56934,383.6134C367.02563,382.62744,366.52167,381.43494,366.51825,380.98108C366.51483,380.52734,365.84583,379.33594,365.05432,378.31055C364.26276,377.28528,362.80444,375.35718,361.8454,374.00305C360.0943,371.54102,355.43793,366.7494,353.69672,365.6073C353.19922,365.281,352.78296,364.78906,352.78113,364.54163C352.77924,364.29407,352.48712,363.84253,352.1549,363.55615C351.8227,363.2699,350.44904,361.63013,349.15723,359.90723C346.4127,356.34512,345.12302,354.9508,344.4619,354.9508L344.4551,354.9508C344.21014,354.9508,344.12738,354.74603,344.24902,354.5398C344.3709,354.29138,344.16217,353.9629,343.74847,353.80103C343.33472,353.63904,343.0022,353.31165,342.9594,353.1056C342.86917,352.0754,342.23547,350.0188,341.9877,350.0188L341.987,350.0188C341.8633,350.0188,341.69485,349.5254,341.64905,348.9076C341.6444,348.28882,341.22565,347.46692,340.7279,347.09937C340.2713,346.73145,339.97943,346.32117,340.1023,346.19653C340.2251,346.07178,339.9748,345.7024,339.47766,345.41736C338.98047,345.13232,338.60577,344.6814,338.60364,344.39258C338.60175,344.14514,338.06024,343.44788,337.35492,342.91687C336.69055,342.34436,336.1081,341.6886,336.1062,341.44104C336.10468,341.23486,335.73096,340.9076,335.27625,340.78723C334.8213,340.62573,334.53033,340.3391,334.65253,340.13184C334.81467,339.92612,334.6118,339.76364,334.24625,339.76364C334.24326,339.76364,334.24026,339.76364,334.23724,339.76367C334.2341,339.7637,334.23096,339.7637,334.22784,339.7637C333.8625,339.7637,333.65955,339.6013,333.78064,339.39587C333.94415,339.18835,333.8598,338.9414,333.6941,338.86023C333.48755,338.82056,332.11145,336.8507,330.5678,334.55212C329.0241,332.25354,327.39923,330.1206,326.943,329.79395C326.48676,329.4673,326.19556,329.1394,326.3183,329.01477C326.44116,328.89014,325.77527,328.11133,324.82025,327.29333C323.86536,326.47546,323.24158,325.82007,323.4478,325.8186C323.65405,325.81702,322.03198,324.0553,319.8708,321.9264C317.71094,319.7987,315.67752,318.0409,315.38678,318.0409L315.38623,318.0409C315.3847,318.0409,315.38318,318.04092,315.38165,318.04092C315.09616,318.04092,314.97287,317.83667,315.09436,317.6306C315.21576,317.38318,315.17413,317.219,314.97025,317.219L314.96664,317.219C314.63455,317.219,312.97388,315.78745,309.90204,312.88416C309.3219,312.3536,308.6193,311.906,308.32922,311.906L308.32297,311.906C308.07684,311.906,307.8308,311.74326,307.82898,311.4972C307.82745,311.2909,307.03778,310.51294,306.08374,309.81885C305.08844,309.125,304.34033,308.38806,304.38037,308.22278C304.42035,308.0575,304.211,307.64648,303.8791,307.4015C303.54694,307.1151,303.25385,306.5398,303.25043,306.08606C303.2473,305.67358,302.95514,305.22192,302.6242,305.1007C302.29303,304.93823,302.1258,304.65063,302.24805,304.44348C302.41144,304.23596,302.32428,303.6178,302.07343,303.1659C300.47955,299.6714,299.18372,297.41214,298.76996,297.25027C298.48026,297.12857,298.3547,296.8821,298.4769,296.67484C298.68036,296.30215,295.6337,291.6221,294.7634,291.09232C294.51468,290.92923,294.01498,290.31412,293.7219,289.7388C292.9695,288.34293,290.8514,286.05154,290.31284,286.05154L290.30734,286.05154C290.06256,286.05154,289.9396,285.88828,290.06113,285.68216C290.18332,285.475,287.5222,282.68973,284.11514,279.45633C280.66684,276.22318,277.96475,273.47952,278.0872,273.3135C278.1685,273.14786,278.00137,272.86038,277.66977,272.65652C277.33853,272.49417,277.04697,272.1249,277.00418,271.91898C276.9158,271.13647,275.3744,268.84073,274.91937,268.84073L274.91428,268.84073C274.6695,268.84073,274.54654,268.67734,274.66806,268.47122C274.91235,268.05716,272.08258,264.32852,271.50275,264.32852L271.49878,264.32852C271.29465,264.32852,271.21234,264.16467,271.3339,263.9584C271.45615,263.75125,270.91367,262.93033,270.16495,262.11075C269.37497,261.29166,268.83377,260.63565,268.99875,260.63443C269.16342,260.59195,268.87216,260.26407,268.3325,259.81436C267.79318,259.4059,267.37668,258.8727,267.4166,258.70743C267.41537,258.5424,267.16446,258.09048,266.87326,257.76273C266.5817,257.39346,266.37173,256.90005,266.49332,256.6105C266.57327,256.32224,266.4495,256.11758,266.20413,256.11758L266.19794,256.11758C265.95267,256.11758,265.86948,255.87144,265.99057,255.58292C266.11185,255.25186,265.81473,254.14029,265.3116,253.07156C264.84982,252.00247,264.47018,250.89139,264.46768,250.56131C264.46286,249.91661,267.94446,248.96667,269.77966,248.96667C270.17566,248.96667,270.495,249.0109,270.68613,249.11197C270.99634,249.27821,271.40167,249.36726,271.73264,249.36726C271.8877,249.36726,272.02643,249.34772,272.13144,249.3074C272.243,249.2646,272.3453,249.24559,272.4318,249.24559C272.6004,249.24559,272.70908,249.31783,272.70993,249.42691C272.71274,249.80835,276.68326,250.539,278.28992,250.539C278.59445,250.539,278.81403,250.51276,278.9056,250.45291C278.9699,250.41365,279.03436,250.39464,279.09262,250.39464C279.22043,250.39464,279.31842,250.48613,279.31973,250.65616C279.3215,250.89711,279.65244,251.02563,280.31238,251.02563C280.55615,251.02563,280.84485,251.00809,281.17844,250.9722C281.41263,250.95168,281.63837,250.94186,281.84842,250.94186C282.56284,250.94186,283.09555,251.05528,283.16068,251.24612C283.24213,251.44533,284.60193,251.63501,286.22513,251.63501C286.27698,251.63501,286.32907,251.63483,286.38144,251.63443C286.4471,251.63394,286.51248,251.6337,286.57745,251.6337C288.1861,251.6337,289.56384,251.78192,289.68393,251.9396C289.809,252.10367,291.0068,252.30106,292.36838,252.33206C293.68875,252.36343,294.88626,252.51932,295.01126,252.68338C295.13626,252.84756,296.82907,253.04105,298.72693,253.06802C300.66638,253.13602,302.31763,253.2886,302.44263,253.45279C302.56732,253.57547,304.0539,253.77066,305.74585,253.84048C307.43744,253.86893,308.92407,254.06412,309.0487,254.1868C309.1737,254.35098,310.65997,254.50491,312.35187,254.57462C314.04382,254.64432,315.5304,254.83951,315.6554,255.00357C315.7801,255.1265,317.59668,255.319,319.7011,255.38577C321.76398,255.41153,323.4984,255.64603,323.49963,255.81094C323.5007,255.95354,324.48663,256.02957,325.91254,256.02957C326.54968,256.02957,327.27463,256.0144,328.03882,255.98318C328.89066,255.94884,329.68588,255.93384,330.3652,255.93384C331.69208,255.93384,332.57675,255.99104,332.5774,256.0729C332.57986,256.40656,337.1873,257.4723,338.4474,257.4723C338.5892,257.4723,338.68863,257.4588,338.7343,257.42923C338.8238,257.3837,338.90802,257.3599,338.9791,257.3599C339.10388,257.3599,339.18817,257.4332,339.18933,257.59085C339.19086,257.78812,340.5498,257.93738,342.36386,257.93738C342.44696,257.93738,342.53104,257.93707,342.61597,257.93643C346.1223,257.91006,349.78748,257.05753,350.56384,256.06155C350.76062,255.79497,350.98505,255.66122,351.13022,255.66122C351.16577,255.66122,351.1966,255.66927,351.22107,255.68533C351.24008,255.7055,351.27344,255.71527,351.32007,255.71527C352.59885,255.71527,363.87225,248.38022,363.86566,247.50467C363.86438,247.33293,363.94315,247.24008,364.06067,247.24008C364.11255,247.24008,364.17197,247.25818,364.2354,247.29556C364.24734,247.30261,364.26312,247.30608,364.28247,247.30608C364.59897,247.30608,365.87943,246.38217,367.23065,245.12796C368.6645,243.79703,371.0025,242.00565,372.39856,241.12881C373.79456,240.25198,374.94342,239.41837,374.94183,239.21207C374.9408,239.07085,375.05615,238.98683,375.22192,238.98683C375.29834,238.98683,375.38547,239.00468,375.47687,239.043C375.50537,239.05092,375.53827,239.0548,375.57498,239.0548C375.91086,239.0548,376.56683,238.73038,377.12073,238.2056C377.64932,237.70479,378.08768,237.38782,378.20047,237.38782C378.21878,237.38782,378.22852,237.39618,378.22864,237.41348C378.2288,237.43251,378.2376,237.44173,378.25412,237.44173C378.34497,237.44173,378.66785,237.16266,379.0484,236.70596C379.41327,236.26817,379.72498,235.9937,379.83032,235.9937C379.85483,235.9937,379.86816,236.00858,379.8684,236.0397C379.86862,236.06679,379.89044,236.07988,379.93042,236.07988C380.0732,236.07988,380.44763,235.91289,380.89667,235.61954C381.47137,235.24393,381.79767,234.74649,381.6308,234.50017C381.546,234.36122,381.5372,234.27835,381.61737,234.27707L381.6212,234.27707C381.6595,234.27766,381.71686,234.29578,381.79456,234.33391C381.81345,234.34573,381.83847,234.35143,381.86905,234.35143C382.57632,234.35143,386.2616,231.30783,386.09958,230.79509C386.0724,230.66422,386.1122,230.58282,386.19812,230.58282C386.24738,230.58282,386.3118,230.60959,386.38742,230.66911C386.42926,230.68965,386.4757,230.69963,386.5254,230.69963C386.77063,230.69963,387.0945,230.4567,387.33157,230.04326C387.6169,229.58733,387.98532,229.2133,388.19162,229.21172C388.85165,229.20683,390.9006,227.37627,390.65024,227.00688C390.57025,226.84976,390.55783,226.77586,390.6236,226.77446L390.6275,226.77446C390.66537,226.77524,390.72696,226.79788,390.81406,226.84062C390.82886,226.84935,390.84845,226.85362,390.87253,226.85362C391.18558,226.85362,392.25552,226.13141,393.3586,225.08879C394.45337,224.05684,395.43707,223.25119,395.59662,223.25119C395.60422,223.25119,395.60995,223.25304,395.61374,223.25676C395.61932,223.26227,395.6277,223.26495,395.63867,223.26495C395.79114,223.26495,396.4492,222.74684,397.2136,222.04839C397.9918,221.29997,398.6884,220.67583,398.7709,220.67522C399.18338,220.67216,406.52402,214.8416,406.52182,214.5529C406.52078,214.41206,406.59705,214.32835,406.69836,214.32835C406.74545,214.32835,406.79794,214.34645,406.85062,214.3853C406.87497,214.39967,406.90607,214.40659,406.9431,214.40659C407.22125,214.40659,407.833,214.0165,408.4113,213.46611C409.21414,212.72511,409.82404,212.44385,410.70615,212.44385C410.8144,212.44385,410.9267,212.44809,411.04398,212.45622C411.19553,212.46886,411.33835,212.47644,411.47894,212.47644C412.6024,212.47644,413.58508,211.9921,417.74783,209.72441C418.36404,209.3897,418.856,208.97343,418.85446,208.76714C418.85342,208.62595,418.96884,208.54189,419.14798,208.54189C419.23044,208.54189,419.32642,208.5597,419.43076,208.59795C419.4866,208.6184,419.55057,208.62822,419.6205,208.62822C419.96512,208.62822,420.45456,208.38985,420.82895,208.00993C421.20935,207.62364,421.62015,207.35495,421.81363,207.35495C421.84918,207.35495,421.8774,207.36403,421.89676,207.3831C421.94092,207.42656,422.01074,207.44917,422.09525,207.44917C422.2495,207.44917,422.45276,207.37381,422.6381,207.21245C422.92532,207.00395,423.95346,206.58379,424.89975,206.24663C425.88766,205.95036,427.73557,204.82268,429.00662,203.7819C431.42587,201.82475,435.0607,196.92949,434.6016,196.23174C434.4764,196.02629,434.5988,195.8604,434.8876,195.8582C435.1763,195.856,435.29916,195.73137,435.17447,195.60857C435.0499,195.48576,435.37552,194.9058,435.90744,194.32426C436.76663,193.36882,437.04788,192.37675,436.993,190.56195C436.94986,190.31488,437.15433,190.06573,437.36063,190.06415C437.60806,190.06232,437.68497,189.31915,437.59567,188.4123C437.50632,187.50531,437.58328,186.76227,437.78958,186.76068C437.99576,186.75922,438.07114,185.80975,437.98026,184.6966C437.8889,183.50092,438.006,182.63373,438.25357,182.6319C438.54227,182.6297,438.54135,182.50592,438.25113,182.30182C438.04355,182.13849,437.7924,181.6452,437.74777,181.19171C437.65564,179.91402,436.31058,176.46112,435.93875,176.46112L435.93683,176.46112C435.7318,176.46112,435.68845,176.13213,435.76773,175.72003C435.8887,175.34772,435.6359,174.64825,435.17874,174.19794C434.76285,173.74738,434.38718,173.17255,434.34433,172.96661C434.08914,171.89728,433.75372,171.11652,433.50638,171.11652L433.50516,171.11652C433.3402,171.11652,433.1679,170.12825,433.11813,168.9743C433.0679,167.77826,432.77042,166.62543,432.47983,166.38019C432.18948,166.17596,431.97763,165.435,432.05515,164.77435C432.13272,164.11371,432.0037,163.41339,431.75436,163.16779C431.50497,162.92206,431.29044,161.80988,431.28177,160.65485C431.2728,159.45856,430.93094,157.8935,430.4282,156.8659C429.50705,155.05768,424.64743,150.68,423.07718,150.32062C421.83713,149.99994,421.57846,148.51668,422.25864,145.70638C423.85916,139.0937,423.94852,134.51399,422.56277,131.26534C421.8179,129.4429,421.04764,128.56032,420.22293,128.56032C420.11707,128.56032,420.01028,128.57486,419.90256,128.60384C419.07907,128.81636,415.72183,132.22432,415.27615,133.30025C415.15924,133.5385,415.05505,133.6537,414.96365,133.6537C414.89627,133.6537,414.83585,133.59106,414.78244,133.46895C413.69315,131.24947,409.93533,125.25459,408.51913,123.45015C405.89523,120.12837,399.78854,114.48116,396.26416,112.11494C389.25775,107.505806,383.8777,105.23603,375.15826,103.23897C371.6557,102.440445,367.7587,102.042366,363.7823,102.042366 Z"/> </g> </g> </svg>