<?xml version="1.0" encoding="UTF-8"?>
<svg enable-background="new -45.9439 -60.7997 2494.8877 3301.5994" version="1.1" viewBox="-45.9439 -60.7997 2494.8877 3301.5994" xmlns="http://www.w3.org/2000/svg">
 <g stroke-width=".5">
  <path d="m1272.7 10.59c8.8501-3.72 17.86-7.4 27.29-9.33 25.17-0.6 50.33 0.98 75.49 1.48 11.49 0.91 23.04 0.65 34.55 1.31 143.66 5.18 287.29 10.88 430.93 16.45 11.81 0.27 23.83 0.68 35.16 4.38 16.7 4.79 31.19 15.62 42.07 29 11.11 13.8 18.65 30.2 23.44 47.19 6.63 23.61 7.86 48.62 4.37 72.85-2.64 18.5-9.75 36.02-18.82 52.25-8.51 15.5-18.93 30.08-31.71 42.37-13.74 13.42-30.32 23.8-48.18 30.81-19.17 7.73-39.77 11.24-60.29 12.79-49.61 3.06-98.89-5.08-147.99-10.9-13.51-1.45-27-3.52-40.6-4-20.2 43.36-40.72 86.57-60.96 129.9 141.06 62.4 268.54 155.14 371.63 269.83 24.19 26.67 46.84 54.71 68.29 83.61 11.21 15.27 22.07 30.8 32.11 46.87 25.25 41.2 44.97 85.68 72.89 125.26 10.65 14.77 22.95 28.3 36.23 40.75 47.84 42.09 96.89 82.88 142.73 127.19 31.81 31.11 62.14 64.13 86.8 101.31 27.22 40.45 46.73 86.74 52.31 135.41 2.1101 13.81 1.3701 27.82 1.53 41.73 0.3401 2.28 0.9001 4.5701 0.1599 6.88-2.0498 44.37-13.75 87.84-30.23 128.93-4.5398 10.63-8.3999 21.65-14.57 31.49-9.51 14.48-22.58 26.23-36.47 36.4-30.45 21.88-65.22 37.18-100.99 48.01-13.38 3.8999-26.98 7.09-40.79 8.98-4.8301 0.6599-9.73 0.7-14.52 1.5699-34.79 161.56-107.45 314.71-210.09 444.2-92.02 116.43-207.9 213.82-338.33 284.6-71.37 38.65-147.01 69.47-225.16 91.43-75.31 21.21-152.93 34.17-231.02 38.74-4.48 0.25-9-0.01-13.39 1.04-33.98 69.69-72.98 137.02-117.68 200.4-47.14 66.7-100.75 128.98-161.22 183.96-56.56 51.57-118.98 96.79-185.94 133.93-112.35 62.7-236.77 102.22-363.65 122.1-51.02 8.1599-102.52 13.2-154.11 15.77-24.97 1.3699-49.98 1.46-74.97 1.3899-29.36-0.1199-58.75 0.48-88.06-1.27 2.29-9.4399 5.91-18.49 8.8-27.74 106.51-325.16 182.79-660.32 225.34-999.86 1.46-13.35 3.58-26.66 4.61-40.02-10.49-14.02-21.47-27.73-31.64-42.01-45.96-63.48-85.09-131.9-116.42-203.74-36.08-82.8-61.72-170.15-76.06-259.32-31.84-195.35-8.97-399.1 64.47-582.85 52.75-132.81 131.84-255.13 231.63-357.43 73.82-75.79 158.78-140.77 251.28-192.14-2.41-2.61-5.8-3.91-8.62-5.96-13.83-8.99-24.25-22.23-32.54-36.29-5.3-9.23-10.18-18.71-14.42-28.47 43.54-9.91 87.03-20.01 130.58-29.87 2.79-0.93 7.13-0.4 8-3.97 25.6-59.08 66.32-111.34 116.68-151.36 60.89-48.64 135.69-80.44 213.46-87.78 57.9-5.4 118.08 3.71 169.56 31.61 31.64 17.04 59.45 41.05 81.05 69.77 26.52 35.18 43.89 76.7 53.46 119.55 6.0499 0.98 12.04 2.32 18.14 3 12.48-27.68 24.75-55.46 37.17-83.18 1.49-3.71 3.52-7.22 4.53-11.11-23.09-4.29-46.22-8.37-69.24-13.02-4.78-1.3-9.87-1.64-14.34-3.85-15.59-9.16-30.16-20.35-41.96-34.12-12.51-14.46-21.94-31.75-26.36-50.41-6.24-26.13-2.47-54.31 9.72-78.19 15.51-30.97 43.36-54.64 74.88-68.3m19.01 19.15c-5.9399 1.6-11.9 3.18-17.69 5.28-1.25 0.4-2.42 1.05-3.27 2.04l1.6-0.04c-21.21 9.05-38.1 26.93-46.78 48.21l-1.2899 0.26c-5.14 11.17-6.7101 23.46-8.76 35.44 0.16 8.38-0.88 16.94 1.4 25.12 0.96 9.05 3.72 17.75 6.71 26.31 1.04 2.61 1.5 6.01 4.4399 7.22 9.1001 18.28 25.78 34.36 46.8 36.8 0.29 0.41 0.85 1.23 1.14 1.64 9.71 1.42 19.25 3.65 28.93 5.27 12.03 2.83 24.29 4.5 36.36 7.16 11.86 2.27 23.67 4.82 35.58 6.78 0.9 0.45 1.77 0.98 2.62 1.58-1.63 3.64-3.1899 7.32-4.9301 10.91-0.75 1.69-2.0599 3.53-1.0399 5.4-4.55 10.42-9.22 20.78-13.88 31.16l-1.38 0.17c-7.29 16.27-14.64 32.58-21.82 48.93-1.35 3.22-3.5399 6.31-3.1599 9.97-6.12 13.74-12.13 27.52-18.41 41.17-1.48-0.74-3.01-1.42-4.62-1.72-10.42-2.02-20.84-4.03-31.29-5.84-4.4299-0.72-8.84-1.88-13.36-1.58-0.2999-0.31-0.9-0.92-1.21-1.23-10.08-49.08-33.8-95.54-69.08-131.28-0.0399-0.05-0.13-0.14-0.1699-0.18-31.02-31.48-70.22-54.44-112.34-67.53l0.62-1.13c-17.14-5.11-34.62-9.31-52.39-11.35-10.45-2.48-21.4-0.81-31.93-2.8-8.99-0.5-18.06-0.48-26.97 0.87-8.06 1.12-16.38-0.31-24.26 2.03-4.12 0.96-8.47 0.17-12.48 1.7-24.54 3.88-48.75 10.64-71.68 20.27 0.57 0.04 1.72 0.12 2.29 0.16-33.77 13.48-65.36 32.34-93.24 55.7-0.05 0.05-0.16 0.14-0.22 0.19-6.08 5.11-11.87 10.53-17.68 15.95-0.03 0.03-0.1 0.1-0.14 0.13-2.61 2.58-5.28 5.12-7.79 7.8-0.06 0.07-0.18 0.2-0.25 0.27-26.61 27.44-48.47 59.3-65.46 93.51l-1.13 0.36c-2.77 3.63-4.02 8.16-6.06 12.22-2.9 5.72-5 11.78-7.49 17.67-0.78 1.46-1.3 3.49-3.16 3.86-35.48 7.98-70.91 16.23-106.36 24.35-3.08 0.37-7.54 0.58-7.36 4.79 1.92 2.01 2.74 5.89 5.89 6.15 7.81 9.19 18.36 15.61 29.32 20.38 18.75 8.15 38.92 12.28 59.03 15.4 3.35 0.55 6.81 0.51 10.09 1.49 2.36 0.23 4.75 0.37 7.12 0.62-8.3 1.23-16.83-3.79-25.03-0.6-114.73 54.89-219.42 130.63-307.6 222.28-58.62 60.75-109.94 128.54-152.62 201.38-58.73 100.26-100.92 210.24-123.94 324.14-38.8 190.3-24.75 391.18 41.23 573.92 27.14 75.5 62.96 147.87 106.43 215.31 21.42 33.53 45.11 65.56 69.96 96.62-1.64 4.8298-2.11 10.04-2.31 15.14-0.22 4.7-1.87 9.23-1.85 13.97 0.16 8.29-3.63 16.48-1.79 24.75l-0.04 0.3c-0.39 0.28-1.17 0.8401-1.56 1.1101-0.89 4.9399-0.23 10.06-1.63 14.95-1.47 5-0.45 10.34-1.96 15.35-1.41 4.1099-0.74 8.5098-1.56 12.74-0.65 3.5798-1.52 7.1399-1.59 10.81-0.06 4.78-1.88 9.3101-1.96 14.1-0.13 4.3699-1.65 8.5601-1.92 12.93-0.05 7.29-3.51 14.41-1.84 21.74l-0.04 0.27c-2.2 0.7-1.83 3.2-2.06 5.03-0.16 3.03-0.45 6.0901-1.18 9.0701-1.17 4.23-0.68 8.7-1.89 12.93-1.39 4.3301-0.64 9-2.07 13.34-1.08 3.1099-0.84 6.4299-1.26 9.6799-1.92 9.1699-3.07 18.49-4.55 27.75-1.03 4.2-1.84 8.6001-0.88 12.91-1.27 8.1101-2.59 16.21-4 24.3-3.16 1.1899-1.67 5.3101-2.45 7.9199-4.35 24.07-8.32 48.15-12.9 72.19-0.99 3.45-1.16 7.0498-1.12 10.65l0.58-0.97c-0.76 2.71 1.32 6.51-1.56 8.3401 0.41-2.4102 1.3-4.8401 0.46-7.25-1.03 2.24-1.22 4.71-1.45 7.1599-2.63 11.89-4.3 24.01-7.03 35.92-3.24 19.1-7.56 38.02-11.19 57.06-0.68 3.8801-2.61 7.76-1.28 11.76-3.9 19.12-7.95 38.21-12.17 57.26-0.4 0.25-1.2 0.75-1.6 1.01-13.25 62.44-28.61 124.46-44.3 186.35-0.97 3.99-2.95 8.0098-1.98 12.24-12 46.39-24.8 92.58-38.2 138.58l-1.26-0.4099c-5.59 20.53-11.97 40.85-18.11 61.23-0.9 3.3799-3.04 6.8-1.94 10.42-10.78 35.76-22.41 71.26-33.88 106.81l0.54 0.01c0.22 0.27 0.67 0.8 0.89 1.0601 5.17 0.03 10.24 1.3 15.41 1.1599 28 0.0601 55.99 0.1599 83.99-0.05 11.92-1.73 24.01-1.6499 36.03-1.8298 6.69 0.0498 13.24-1.53 19.92-1.6702 6.34-0.6099 12.79 0.2002 19.04-1.2 7.25-1.55 14.75-0.4399 22-1.9299 4.7-0.9102 9.49-1.0601 14.25-1.3701 5.27-0.3699 10.4-2.02 15.72-1.8999 4.42 0.1199 8.57-1.77 12.97-1.8601 5.73 0.03 11.13-2.3599 16.89-2.1399 11.01-2.03 22.21-3 33.11-5.6799 5.37 0.1499 10.28-2.3101 15.62-2.4001 5.81-1.25 11.69-2.1399 17.45-3.5898 1.95-0.7002 5.31 0.27 5.95-2.3701 23.31-4.8699 46.44-10.52 69.43-16.73 3.19 1.24 6.36-0.6399 9.46-1.3101 21.94-6.53 43.8-13.37 65.39-21 1.16-0.7 3.33-0.73 3.28-2.52 45.77-16.62 90.48-36.29 133.31-59.46 0.36 0.1699 1.08 0.5 1.43 0.6699l0.41-0.7798-0.48-0.6401c55.65-29.78 108.12-65.4 156.93-105.39 0.05-0.04 0.13-0.1101 0.18-0.1401 15.52-13.01 30.9-26.22 45.67-40.09 0.04-0.04 0.13-0.1201 0.17-0.1602 1.3-1.25 2.62-2.47 3.97-3.6299 0.05-0.04 0.14-0.1201 0.1801-0.1602 0.47-0.4199 1.4-1.26 1.87-1.6899 0.06-0.05 0.18-0.1599 0.23-0.21 16.55-16.08 33.01-32.27 48.6-49.27 27.34-29.47 53-60.49 77.11-92.64 0.04-0.04 0.1-0.1301 0.14-0.1802 33.41-44.8 63.75-91.87 91.27-140.51l0.9299-0.0198 0.54-0.9402-0.42-0.8499c17.41-30.82 33.36-62.43 48.97-94.18 150.6-4.1599 300.21-41.23 435.44-107.67 73.15-35.79 142.01-80.23 205.13-131.66 0.0399-0.04 0.13-0.1101 0.1699-0.1501 19.04-15.78 37.75-31.98 55.74-48.95 0.0499-0.05 0.1499-0.1399 0.2-0.1899 1.27-1.23 2.55-2.46 3.85-3.6599 0.0701-0.0601 0.21-0.1902 0.28-0.25 21.5-20.34 42.03-41.7 61.72-63.78 0.05-0.05 0.15-0.1602 0.1901-0.22 67.71-76 124.5-161.75 167.92-253.82 3.4001-7.7201 7.6899-15.12 10.05-23.26 0.3799-15.71 2.1001-31.39 3.96-46.94 1.55-15.37 3.6401-30.7 5.98-45.97 0.6401-4.03 0.74-8.16 1.9399-12.07 0.6702-4.64 0.9702-9.3501 2.0601-13.9 1.2-7.7001 2.3901-15.41 3.97-23.02 0.6401-3.71 0.7-7.54 2.01-11.08 1.02-7.6901 2.3201-15.37 4.03-22.92 2.3801-14.06 5.1501-28.07 7.8901-42.06 0.6799-3.35 1-6.7799 2.0598-10.04 0.1501-1.2201 0.3201-2.4301 0.5-3.61 3.1001 0.5399 6.28 0.75 9.3101 1.7 5.3 0.84 10.71 1.03 15.98 2.09 25.26 2.1801 50.93 1.3 75.65-4.6599 38.94-8.76 74.72-28.9 104.49-55.22 0.0698-0.0599 0.2-0.1699 0.27-0.23 8.0098-7.2 15.64-14.83 23.01-22.7 6.5601-5.9501 8.8401-14.81 12.8-22.44 0.01 0.5801 0.02 1.76 0.02 2.3401 3.71-6.9701 6.1301-14.5 9.2-21.75 8.1001-22.5 14.33-45.76 16.86-69.57 1.77-6.21 1.1899-12.69 1.74-19.04 0.48-6.01-0.24-12.02 0.2-18.02 0.4299-8.9401-0.76-17.85-0.71-26.78-0.8501-5.04-1.8899-10.05-2.1499-15.15-3.2002-18.87-7.6101-37.61-14.29-55.57l-1 0.36c-17.64-50.08-47.01-95.26-81.3-135.51-28.23-32.92-59.82-62.87-93.27-90.44-0.0701-0.0499-0.21-0.1699-0.28-0.22-20.73-17.08-42.23-33.22-64.16-48.73-5.3401-4.28-12.25-6.97-15.91-13.05-13.29-19.51-29.49-36.98-47.52-52.2-0.0801-1.75-0.5601-3.4-1.3501-4.92-28.26-57.28-61.71-111.99-99.74-163.29-90.96-122.68-208.42-225.65-342.22-299.33-35.92-19.73-72.84-37.82-110.99-52.84 10.77-22.87 21.53-45.75 32.25-68.64l0.9199-0.08 0.5-0.96-0.46-0.83c14.36-30.71 28.8-61.38 43.27-92.04l1.0499 0.46c1.85-3.94 3.8-7.84 5.5901-11.82 7.86 0.11 15.75 0.32 23.55 1.35 6.5701 1.42 13.33 0.49 19.97 1.25 4.3501 0.34 8.62 1.45 13 1.57 5.9801 0.16 12 0.16 17.96 0.88 7.7 1.96 15.73 0.8 23.55 1.99 9.73 2.13 19.82 0.42 29.59 2.45 4.22 1.02 8.58 0.51 12.88 0.85 3.2 0.14 6.5199 0.88 9.6499-0.32l0.3101 0.02c1.35 1.79 3.78 1.66 5.8099 1.99 8.5601 0.57 17.31-0.2 25.72 1.88 2.7899 0.48 5.64 0.12 8.48 0.41 2.74 0.31 5.3199 1.43 8.08 1.81 7.62 0.66 15.29 1.99 22.96 0.82 9.04-0.33 17.98-2.47 26.31-5.98-0.58-0.06-1.74-0.17-2.3199-0.22 33.38-12.12 59.73-38.95 76.47-69.74 11.7-21.79 18.89-46.45 18.08-71.33-0.73-18.45-6.5-36.94-17.77-51.7-12.18-16.38-30.2-27.44-49.13-34.41-1.12-2.99-4.86-2.69-7.4199-3.23-5.74-0.31-11.43-1.34-17.18-1.23-13.31-0.04-26.65-0.05-39.92-1.14-7.6001-1.37-15.36-0.72-23.04-0.88-11.99-0.23-24.03-0.17-35.92-1.81-13.03-0.26-26.08-0.07-39.1-0.65-9.35-0.45-18.61-1.94-27.99-1.52-3.5 0.4-7.66-1.13-10.66 1.03-30.23-0.98-60.44-2.22-90.67-3.29 1.96 0.01 3.9099-0.45 5.8199-0.95-7.09-1.17-14.29-0.7-21.42-0.87-11.72 0.18-23.43-0.63-35.06-1.84-19.02-0.1-38.08-0.1-57.03-1.8-12.96-0.24-25.93-0.2-38.87-1.05-7.38-0.31-14.69-1.6-22.09-1.23-14.02-0.4-28.15 0.38-42.04-1.8-7.67-0.2-15.35-0.2-23.02-0.25-12.421 0.13-24.91-1.65-37.261 0.33m812.72 1598.5c-1.77 5.46-1.74 11.29-3.8 16.65-0.4199 2.96-0.1199 6.08-1.3899 8.88-1.3401 3.22-0.47 6.89-1.8201 10.14-1.5898 3.4299-0.6099 7.3999-2.0698 10.87-1.4502 3.2-0.6301 6.88-1.9502 10.13-1.3398 3.1799-0.6499 6.7799-1.7998 10-2.1902 4.5-0.4302 9.7899-2.74 14.32-0.3 6.49-2.6602 12.59-2.9202 19.1-1.6199 4.63-1.3599 9.5601-2.1399 14.31-2.21 4.1-0.77 8.9299-2.45 13.19-1.7002 4.5601-0.4302 9.62-2.1501 14.2-1.4199 4.1799-0.3 8.74-1.8101 12.9-2.0898 5.77 0.02 12.16-2.2998 17.88-1.1501 3.25-0.6602 6.77-0.8101 10.17 0.0801 3.77-1.71 7.26-1.8501 11.02-0.23 4.3 0.02 8.66-0.8499 12.93-1.46 6.9501-1.5701 14.11-1.0801 21.18 0.8999-1.13 1.6399-2.34 2.22-3.65 12.68-29.3 24.13-59.14 34.14-89.46 14-42.76 25.77-86.32 33.96-130.57-5.6501-0.24-11.38 0.2201-16.87-1.33-4.23-1.13-8.74-0.29-12.86-1.78-2.15-0.7599-4.45-0.9698-6.66-1.0798z" fill="#ABA7F4" stroke="#ABA7F4"/>
  <path d="m1291.7 29.74c12.35-1.98 24.84-0.2 37.26-0.33 7.67 0.05 15.35 0.05 23.02 0.25 13.89 2.18 28.02 1.4 42.04 1.8 7.4-0.37 14.71 0.92 22.09 1.23 12.94 0.85 25.91 0.81 38.87 1.05 18.95 1.7 38.01 1.7 57.03 1.8 11.63 1.21 23.34 2.02 35.06 1.84 7.13 0.17 14.33-0.3 21.42 0.87-1.91 0.5-3.86 0.96-5.8199 0.95-76.89-2.97-153.79-5.67-230.68-8.58-13.07 0.05-26.28-2.36-39.22 0.35-7 1.31-13.83 3.4-20.43 6.05l-1.6 0.04c0.85-0.99 2.02-1.64 3.27-2.04 5.7903-2.1 11.75-3.68 17.69-5.28z" fill="#FEC3B1" stroke="#FEC3B1"/>
  <path d="m1292.8 30.97c12.94-2.71 26.15-0.3 39.22-0.35 76.89 2.91 153.79 5.61 230.68 8.58 30.23 1.07 60.44 2.31 90.67 3.29 63.89 2.39 127.79 4.7 191.68 7.1 3.3099 0.01 6.47 1.18 9.5499 2.33 18.93 6.97 36.95 18.03 49.13 34.41 11.27 14.76 17.04 33.25 17.77 51.7 0.8101 24.88-6.38 49.54-18.08 71.33-16.74 30.79-43.09 57.62-76.47 69.74-14.72 5.22-30.76 6.88-46.17 4.17-10.07-2.65-20.56-2.5-30.85-3.52-6.02-0.33-12.01-1.09-18.02-1.36l-0.3101-0.02c-50.2-4.05-100.42-7.76-150.61-11.82-2.0699 4.38-4.1 8.78-6.1799 13.16-14.47 30.66-28.91 61.33-43.27 92.04-0.24 0.47-0.72 1.4-0.96 1.87-10.72 22.89-21.48 45.77-32.25 68.64-4.5801 9.52-8.89 19.16-13.51 28.65-1.4401 3.47-3.27 6.76-4.79 10.19-0.64 1.2-0.74 2.66-0.01 3.86 16 30.18 30.6 61.07 45.2 91.95 9.8401 21.06 19.81 42.06 29.59 63.15 7.14 14.46 13.81 29.15 20.99 43.6 25.75 0.06 51.52-0.44 77.26 0.21 7.95 1.06 16.08-0.17 23.97 1.35 13.72 0.38 27.33 2.21 40.98 3.6 17.15 2.56 34.27 5.6 51.08 9.97 4.91 1.63 10.04 2.58 14.9 4.42 1.6901 0.5 3.41 1.02 5.14 1.53 1.9501 0.77 3.9401 1.44 5.98 2.05 37.16 13.07 71.74 33.63 100.45 60.65 37.76 35 65.78 79.18 87.66 125.47 1.77 4.11 3.8101 8.11 5.5901 12.23 1.4199 3.28 2.7799 6.6 4.39 9.81 0.5099 1.38 1.0299 2.77 1.5699 4.19 1.09 2.8 2.34 5.56 3.9 8.16 19.29 9.61 37.34 21.64 53.96 35.34 18.03 15.22 34.23 32.69 47.52 52.2 3.6602 6.08 10.57 8.77 15.91 13.05 21.93 15.51 43.43 31.65 64.16 48.73 0.0701 0.05 0.21 0.17 0.28 0.22 33.45 27.57 65.04 57.52 93.27 90.44 34.29 40.25 63.66 85.43 81.3 135.51 15.24 42.76 20.97 89.06 15.15 134.15-3.72 30.73-12.64 60.7-25.02 89.03-3.96 7.63-6.24 16.49-12.8 22.44-7.3699 7.87-15 15.5-23.01 22.7-0.0701 0.0601-0.2002 0.17-0.27 0.23-29.77 26.32-65.55 46.46-104.49 55.22-24.72 5.96-50.39 6.84-75.65 4.6599-5.27-1.0599-10.68-1.25-15.98-2.09-3.03-0.95-6.21-1.16-9.3101-1.7-0.1799 1.1799-0.3499 2.3899-0.5 3.61-1.0598 3.26-1.3799 6.6899-2.0598 10.04-2.74 13.99-5.51 28-7.8901 42.06-1.71 7.5499-3.01 15.23-4.03 22.92-1.3101 3.5399-1.3699 7.37-2.01 11.08-1.5798 7.61-2.77 15.32-3.97 23.02-1.0898 4.5499-1.3899 9.26-2.0601 13.9-1.2 3.9099-1.2998 8.0399-1.9399 12.07-2.3398 15.27-4.4299 30.6-5.98 45.97-1.8599 15.55-3.5801 31.23-3.96 46.94-2.3601 8.14-6.6499 15.54-10.05 23.26-43.42 92.07-100.21 177.82-167.92 253.82-0.04 0.0598-0.14 0.1699-0.1901 0.22-19.69 22.08-40.22 43.44-61.72 63.78-0.0701 0.0598-0.21 0.1899-0.28 0.25-1.2999 1.2-2.58 2.4299-3.85 3.6599-0.05 0.05-0.15 0.1399-0.2 0.1899-17.99 16.97-36.7 33.17-55.74 48.95-0.0399 0.04-0.13 0.1101-0.1699 0.1501-63.12 51.43-131.98 95.87-205.13 131.66-135.23 66.44-284.84 103.51-435.44 107.67-15.61 31.75-31.56 63.36-48.97 94.18-0.26 0.45-0.79 1.3599-1.0499 1.8098-27.52 48.64-57.86 95.71-91.27 140.51-0.04 0.05-0.1 0.1401-0.14 0.1802-24.11 32.15-49.77 63.17-77.11 92.64-15.59 17-32.05 33.19-48.6 49.27-0.05 0.05-0.17 0.1599-0.23 0.21-0.47 0.4299-1.4 1.27-1.87 1.6899-0.04 0.04-0.13 0.1201-0.1801 0.1602-1.35 1.1599-2.67 2.3799-3.97 3.6299-0.04 0.04-0.13 0.1201-0.17 0.1602-14.77 13.87-30.15 27.08-45.67 40.09-0.05 0.03-0.13 0.1001-0.18 0.1401-48.81 39.99-101.28 75.61-156.93 105.39-0.34 0.1799-1.02 0.5601-1.36 0.75-42.83 23.17-87.54 42.84-133.31 59.46-25.71 9.3-51.8 17.51-78.13 24.83-22.99 6.21-46.12 11.86-69.43 16.73-83.08 17.43-167.94 25.37-252.74 26.74-12.86-0.1299-25.71-0.1199-38.57 0.01-12.65-0.02-25.28-0.8501-37.93-0.98l-0.54-0.01c11.47-35.55 23.1-71.05 33.88-106.81 7.32-23.69 14.39-47.44 21.31-71.24 13.4-46 26.2-92.19 38.2-138.58 17.31-66.2 33.21-132.77 47.88-199.6 4.22-19.05 8.27-38.14 12.17-57.26 7.22-34.8 14.2-69.67 20.49-104.65 2.88-1.8301 0.8-5.6301 1.56-8.3401 5.73-29.85 10.85-59.82 15.89-89.79 1.41-8.0901 2.73-16.19 4-24.3 4.9-30.2 9.56-60.43 13.89-90.71l0.04-0.27c5.05-34.52 9.72-69.1 14.02-103.73l0.04-0.3c2.17-18.28 4.78-36.52 6.39-54.86 0.39-2.25 0.62-4.5 0.89-6.74 1.11-5.6201 1.32-11.37 1.93-17.05 1.54-6.9099 0.97-14.13 2.44-21.03 0.46-4.96 1.06-9.91 1.37-14.87 3.62 0.7001 6.76 2.6901 10.03 4.3101 18.59 9.2198 37.35 18.15 56.41 26.38 4.9 2.24 9.91 4.23 14.84 6.4299 9.94 4.1301 19.95 8.1001 29.98 12.02 5.08 1.78 10.06 3.8899 15.2 5.54 5.59 2.22 11.34 4 17.02 5.99 20.67 6.97 41.6 13.28 62.89 18.05 6.24 1.8398 12.69 2.8799 19.02 4.3899 3.66 0.6101 7.37 0.98 10.96 1.99 11.58 2.01 23.19 3.9001 34.9 4.9102 3.38 0.3699 6.83 0.1799 10.14 1.0798 2.53 0.22 5.06 0.3 7.6 0.4102-0.13-16.93 1.21-33.78 3.21-50.57 1.21-4.6201 1.12-9.46 2.37-14.06 1.54-10.39 3.62-20.71 6.03-30.93 1.58-7.77 3.7-15.41 5.6-23.1 2.57-9.36 5.19-18.71 8.02-27.99 2.62-8.0299 5.1-16.1 7.94-24.05 0.79-2.3 1.5699-4.5901 2.41-6.85 1.3-3.6801 2.67-7.3201 4.03-10.97 0.6201-1.71 1.27-3.4 1.96-5.0599 3.13-8.38 6.44-16.71 10.04-24.91 1.25-3.0599 2.57-6.09 3.97-9.0699 9.05-20.58 18.98-40.82 30.44-60.17-0.1-1-0.19-1.97-0.28-2.91-2.14-0.5699-4.24-1.27-6.2599-2.13-3.75-1.36-7.11-4.02-11.1-4.51-4.57 0.6801-8.62 3.26-13.07 4.4601-8.16 3.1699-16.57 5.6599-24.88 8.39-7 2.13-14.06 4.0199-21.1 5.99-2.67 0.5399-5.32 1.1899-7.91 2.0299-3.02 0.5601-6.03 1.14-8.97 2-3.05 0.53-6.11 1.1001-9.08 1.9801-22.13 3.9099-44.45 7.45-66.97 7.46-1.36 0.0599-2.69 0.26-4 0.58-8.72 0.49-17.43 0.14-26.09-0.72-11.4 0-22.69-1.75-33.96-3.29-7.31-1.4199-14.71-2.48-21.92-4.38-9.09-2.2899-18.17-4.7-26.93-8.0599-4.85-1.6-9.54-3.62-14.27-5.53-30.57-13.31-58.8-33.51-78.05-61.05-6.2-8.85-11.38-18.39-15.59-28.33-2.06-5.1899-3.89-10.46-5.39-15.83-4.23-15.3-6.07-31.27-5.22-47.12 1.01-6.62 0.89-13.36 2.23-19.92 0.78-3.33 1.34-6.6899 1.98-10.02 0.78-2.65 1.41-5.33 2-8.01 1.91-6.0399 3.76-12.1 6.01-18.03 0.7-1.67 1.36-3.3401 2-5.01 15.37-37.06 39.94-69.68 68.11-97.96 24.04-24.71 51.36-45.94 79.46-65.81 0.05-2.41 0.22-4.8301 0.82-7.16 0.4-5.34 1.04-10.65 1.59-15.97 1.3-4.24 1.18-8.75 2.4-12.99 0.6-3.01 1.18-6.02 2.01-8.9601 0.6-2.37 1.24-4.72 1.98-7.0299 5.17-17.66 13.95-34.63 27.26-47.53 11.09-11.33 25.04-19.36 39.42-25.77 1.38-0.53 2.77-1.05 4.16-1.5599 1.94-0.8401 3.91-1.64 5.87-2.4301 5.7-1.92 11.34-4.05 17.17-5.55 2.29-0.76 4.63-1.4099 6.98-1.96 1.34-0.42 2.7-0.8 4.06-1.16 0.97-3.0399 1.83-6.11 2.71-9.1599 0.78-2.3 1.45-4.63 2-6.9801 1.56-4.61 2.81-9.3099 4.4-13.9 1.65-6.0901 3.83-12.01 5.67-18.03 0.68-2.01 1.32-4.03 1.97-6.04 0.72-1.99 1.37-4 1.94-6.03 0.51-1.3099 1.01-2.6299 1.55-3.8999 0.09-0.52 0.28-1.55 0.37-2.0601 2.52-5.85 4.09-12.03 6.52-17.9 1.73-5.12 3.81-10.09 5.54-15.2 2.64-6.7 5.27-13.4 8-20.05 0.81-1.9299 1.62-3.85 2.47-5.74 0.5-1.4099 1.02-2.7999 1.54-4.1799 1.41-2.98 2.77-5.9701 4-9.02 16.59-37.16 36.2-73.37 62.21-104.86 22.39-27.51 50.05-50.53 80.59-68.5 17.24-10.23 35.24-19.11 53.52-27.31 3.29-1.45 6.57-2.93 9.87-4.39 6.26-2.79 12.66-5.28 18.92-8.07 7.78-3.08 15.44-6.44 23.21-9.56 1.64-0.69 3.3-1.35 4.97-1.99 1.95-0.81 3.9-1.6 5.84-2.43 1.38-0.52 2.76-1.04 4.15-1.5601 9.61-4.15 19.36-7.97 29.03-12 1.91-0.84 3.85-1.6299 5.78-2.43 2.78-1.13 5.52-2.37 8.27-3.57 2.35-1.48 6.82-1.3799 7.45-4.5-20.98-17.67-35.03-41.81-47.37-65.93-3.65-7.49-7.96-14.65-11.26-22.3-3.98-0.15-8.05-0.34-11.93 0.76-7.02 0.27-13.98 1.32-21.01 1.23-6.38-0.19-12.66 1.31-19.05 0.92-6.36 0.4-12.63-1.03-18.98-0.9-5.7 0.11-11.32-0.91-16.98-1.28-6.69-1.28-13.43-2.29-20.02-4.02-12.12-3.56-24.38-8.59-33.04-18.15-3.76-4-6.38-8.89-8.26-14.01-1.06-5.27-2.43-10.61-1.97-16.03 1.03-3.96 0.96-8.11 2.05-12.06 0.88-2.6 1.57-5.26 2.42-7.87 1.23-3.37 2.51-6.72 4.01-9.99 2.65-5.75 5.7-11.32 9.02-16.71 0.86-1.29 1.34-2.76 1.4301-4.3-5.3-2.17-10.02-5.73-13.61-10.17-2.96-3.49-3.3-8.86-0.85-12.7 2.82-4.43 7.04-7.81 11.58-10.37-2-3.77-5.52-6.29-8.37-9.34-4.33-4.17-8.3-8.73-12.93-12.56-0.49-4.77 3.11-8.46 4.85-12.59 1.97-4.68 5.38-8.72 6.52-13.73-7.1-0.17-14.02-1.77-20.89-3.39-0.99-0.39-1.97-0.78-2.94-1.16-1.04-0.28-2.06-0.55-3.08-0.81-10.45-4.1-20.94-11.61-23.27-23.29-0.7599-5.16 0.45-10.24 2.04-15.11 3.37-8.06 8.67-15.18 14.8-21.35 6.1-5.89 12.23-11.78 17.37-18.56 13.58-15.93 26.72-32.25 40.61-47.92-0.09-0.67-0.17-1.33-0.24-1.98-7.97-3.82-15.64-9.59-19.72-17.61-2.62-4.81-1.67-10.34-0.66-15.44 1.74-10.51 3.84-21 4.96-31.59-10.92-0.68-21.81-1.55-32.7-2.66-2.37-0.25-4.76-0.39-7.12-0.62-3.28-0.98-6.74-0.94-10.09-1.49-20.11-3.12-40.28-7.25-59.03-15.4-10.96-4.77-21.51-11.19-29.32-20.38-1.55-2.45-4.33-4.65-4.44-7.68 0.77-0.74 1.69-1.2 2.77-1.39 37.42-8.44 74.78-17.18 112.21-25.63 4.54-11.78 9.58-23.37 15.13-34.7 16.99-34.21 38.85-66.07 65.46-93.51 0.07-0.07 0.19-0.2 0.25-0.27 2.51-2.68 5.18-5.22 7.79-7.8 0.04-0.03 0.11-0.1 0.14-0.13 5.81-5.42 11.6-10.84 17.68-15.95 0.06-0.05 0.17-0.14 0.22-0.19 27.88-23.36 59.47-42.22 93.24-55.7 68.45-27.18 146.29-31.82 216.8-9.75 42.12 13.09 81.32 36.05 112.34 67.53 0.0399 0.04 0.13 0.13 0.1699 0.18 35.28 35.74 59 82.2 69.08 131.28 1.22 4.55 1.7 9.25 2.74 13.85 0.42 2.53 0.86 5.06 1.34 7.59 7.22 0.25 14.32-1.33 21.55-1.16 7.0399 0 14.08-0.31 21.11-0.97 1.21-2.99 2.48-5.96 3.74-8.94 6.28-13.65 12.29-27.43 18.41-41.17 8.7999-19.68 17.54-39.4 26.36-59.07 4.66-10.38 9.33-20.74 13.88-31.16 2.3099-6.03 5.9299-11.62 7.4-17.93-35.24-7.35-70.72-13.84-106.06-20.81-21.02-2.44-37.7-18.52-46.8-36.8-14.11-29.21-14.82-64.41-2.5-94.35 8.6801-21.28 25.57-39.16 46.78-48.21 6.6003-2.6505 13.43-4.7405 20.43-6.0505m-0.77 19.95c-11.48 6.39-22.42 14.08-31.11 24.01-7.11 8.17-12.25 18.23-13.79 29.01-2.02 12.27 0.15 24.77 3.34 36.65 36.52 3 73.03 6.05 109.55 9.11 20.89 1.58 41.78 3.78 62.67 4.99 6.87-4.88 13.62-10.07 21.34-13.58 11.29-5.67 24.6-7.17 36.83-3.89 16.19 4.39 30.03 14.66 42.14 25.94 1.8301 1.52 3.29 4.09 6 3.93 65.14 6.22 130.28 12.45 195.42 18.61-4.74-14.99-7.8-30.92-5.5-46.64 1.9-15.08 9.48-29.18 20.56-39.52 14.01-13.64 32.41-21.35 50.59-27.67-62.37-3.02-124.77-5.55-187.15-8.39-101.3-4.47-202.59-8.94-303.89-13.44-2.35 0.07-4.92-0.46-7 0.88m147.35 119.52c-36.62 77.76-72.81 155.72-109.37 233.51 19.27-1.28 38.55-2.47 57.81-3.85 27.43-62.4 54.62-124.91 82.08-187.3 29.86 7.9 58.38 20.04 86.2 33.31-9.6699-19.99-21.09-39.55-36.92-55.33-11.97-11.99-27.22-21.41-44.21-23.83-11.94-1.96-24.12 0.03-35.59 3.49m-479.48 28.75c-73.21 10.87-141.08 49.48-190.63 104.04-26.73 29.1-48.31 62.72-64.87 98.54 59.03 7.64 117.96 16.1 176.69 25.83 2.31 0.06 5.5 1.89 7.14-0.53 16.49-18.46 33-36.9 49.45-55.4 6.04-6.28 11.36-13.28 17.6-19.32 21.6-0.68 42.94 4.23 63.76 9.53 14.47 3.88 28.89 8.04 42.96 13.17-27.17-0.86-54.33-2.42-81.49-3.6-12.45 22.29-25.1 44.47-37.3 66.89 61.91 10.86 123.48 23.63 184.87 37.12 1.7799-12.38 4.23-24.95 10.24-36.06 4.58-8.47 11.71-15.55 20.4-19.76 10.37-5.22 21.92-7.36 33.24-9.48 12.03-2.07 24.09-4.09 36.06-6.52-3.8101-43.61-17.84-87-44.35-122.19-26.67-36.02-65.8-62.04-108.61-74.77-37.16-11.28-76.85-13.25-115.16-7.49m-345.98 231.27c42.71 7.87 85.33 16.31 128.01 24.35 120.17 23.03 240.36 45.93 360.52 68.99 5.5-9.64 11.38-19.07 16.71-28.81-97.88-22.03-196.22-42.47-295.62-56.34-48.58-6.6-97.46-11.83-146.53-12.25-21.08 0.05-42.25 0.69-63.09 4.06m572.08 3.95c-6.5 0.63-12.48 4.06-17.49 8.09-10.93 9.53-14.91 25.82-10.45 39.49 1.7899 5.25 4.7899 10.5 9.7799 13.26 7.7001 0.86 15.52 0.56 23.27 1.04 42 1.62 84 3.15 126 4.75 3.1801 0.25 6.24 2.37 7.5 5.33 0.9501 2.46-0.58 5.26-2.8099 6.42-4.39 2.65-9.72 2.18-14.63 2.3-46.07 1.37-92.15 2.58-138.22 3.93-5.12 0.2-10.38-0.27-15.3 1.42-14.21 4.5-25.07 17.02-29.09 31.18-1.51 5.81-1.9501 12.33 0.85 17.84 2.24 4.72 7.3199 7.97 12.57 7.91 47.02 1.38 94.04 2.77 141.06 4.14 3.66-0.07 7.24 3.62 6.61 7.36-2.05 7.82-11.36 10.58-18.58 10.41-46.05 1.02-92.11 2.03-138.15 3.03-21.88 2.67-38.2 26.91-32.61 48.19 1.7799 5.55 6.0399 12.19 12.67 11.72 33.02 0.71 66.03 1.4901 99.05 2.19 4.5 0.08 9.3199-0.18 13.34 2.28 3.0601 1.58 5.6901 5.41 3.92 8.86-2.21 4.01-7.13 5.13-11.32 5.67-40.32 3.78-80.7 7.03-120.99 10.97-3.35 2.51-5.9099 5.95-8.7 9.05-14.96 17.13-25.36 38.78-26.78 61.67-0.23 5.8-1 11.87 1.13 17.43 10.06 31.57 19.66 63.3 29.92 94.82 9.46-23.2 20.04-45.98 29.37-69.2-3.6901-12.03-7.85-23.91-11.65-35.9 32.25 1.62 64.65 3.28 96.9 0.63 2.75 0.25 6.64-2.19 8.49 0.73 22.95 30.92 48.37 60.12 77.04 85.88 28.04 25.27 59.24 47.29 93.41 63.47 36.41 17.29 76.29 27.57 116.65 28.64 82.27 83.27 152.37 177.4 220.97 271.95 39.52 54.31 78.48 109.09 120.33 161.65 34.52 43.07 70.97 84.97 113.04 120.88 34.86 29.52 74.27 54.91 118.46 67.73 27.29 7.99 56.08 10.89 84.41 8.35 44.35-3.83 86.79-19.88 125.56-41.2 7.72-3.97 13.97-10.26 19.24-17.06 10.85-14.68 16.92-32.27 20.89-49.93 4.6201-21.27 6.1602-43.11 5.9202-64.84-0.48-30.31-4.3801-60.57-11.65-90-5.5698-22.17-12.97-44.02-23.61-64.3-10.98-20.25-24.18-39.26-38.68-57.13-29.73-36.71-66.32-67.19-104.87-94.22-47.37-33.1-97.57-61.87-147.72-90.48-63.53-35.86-127.43-71.05-190.98-106.86-70.79-39.86-141.18-80.46-211.03-121.95-1.85-1.63-2.59-4.16-3.77-6.25-51.48-100.57-102.97-201.13-154.46-301.7-10.44-23.57-33.69-40.35-58.92-44.6-11.8-2.67-23.91-1.31-35.86-0.98-53.34 1.99-106.68 3.99-160.03 5.94m-399.58 61.41c-11.94 14.79-21.95 31.24-28.6 49.09-13.83 35.92-13.58 75.91-4.95 113.03 0.53 2.27 1.31 4.66 0.42 6.97-9.82 32.77-11.63 68.29-2.78 101.49 1.23 3.22-0.68 6.34-1.29 9.48-2.74 11.06-3.23 23.76 3.32 33.64 5.51 8.6 15.48 13.1 25.23 14.85 15.7 2.77 31.77 0.55 47.2-2.8 30.55-7.72 62-14.26 89.87-29.58 15.56-8.44 29.12-20.85 37.78-36.39 10.74-19.18 16.65-40.52 23.73-61.2 5.82 0.94 11.8 1.45 17.62 0.15 10.81-2.26 20.1-9.19 26.95-17.66 8.0499-9.75 13.65-21.26 17.99-33.07 7.4-20.73 10.95-42.79 11.01-64.77-0.22-13.57-1.5801-27.41-6.75-40.07-2.91-6.83-7.49-13.76-14.76-16.41-6.86-2.58-14.44-0.33-20.53 3.19-12.86 7.44-22.63 18.98-31.69 30.52-4.93 6.06-9.01 12.76-13.7 18.96-9.74-0.58-19.45-1.82-29.19-2.58-1.25-5.6-1.1801-11.66-4.25-16.69-4.11-6.9-11.45-10.9-18.21-14.77-1.09-9-7.81-15.96-14.82-21.06-13.1-9.1-28.65-13.79-44.06-17.23-21.53-4.5601-43.55-6.6001-65.54-7.0901m235.47 243.07c-9.55 6.85-21.93 10.56-33.52 7.21-12.66 34.38-14.41 71.87-10.12 107.99 5.39 45.14 18.92 88.91 35.76 130.99 9.2-18.53 18.07-37.23 27.19-55.81 8.2599-17.41 17.12-34.56 25.05-52.12-9.36-34.04-18.38-68.17-27.58-102.24-2.49-16.28 2.4399-32.57 7.58-47.88 3.27-10.04 8.25-19.42 11.83-29.32-10.06 15.27-21.09 30.51-36.19 41.18m570.36-19.64c10.46 17.03 20.65 34.25 30.72 51.52 5.5601 0.73 11.2 0.17 16.81 0.64 36.26 1.82 71.75 11.07 105.8 23.27 40.11 14.64 78.53 33.7 115.11 55.66 32.8 19.76 64.17 41.9 93.42 66.62-0.5699-1.43-1.13-2.84-1.74-4.22-16.08-33.52-39.21-63.35-65.99-89-28.63-27.45-61.61-50.28-97.11-67.92-40.66-20.18-84.88-33.53-130.15-37.71-22.23-1.87-44.77-2.11-66.87 1.14m-438.33 92.99c-75.23 174.62-150.42 349.26-225.55 523.91 25.4 11.8 50.82 23.54 76.2 35.37 1.2-2.54 2.3-5.12 3.42-7.6901 65.37-151.94 131.04-303.75 196.29-455.74-16.86-31.91-33.26-64.09-50.36-95.85m-72.75 589.22c8.87 8.8501 17.73 17.7 26.58 26.58 41.09-117.37 82.14-234.75 123.24-352.12 2.16-6.76 5.01-13.3 6.74-20.18-0.35-0.05-1.0499-0.15-1.3999-0.2 0.6699-0.2001 1.35-0.37 2.0599-0.52 6.4401-19.04 13.25-37.95 19.84-56.94 6.14-18.13 13-36.03 18.7-54.28-65.29 152.54-130.5 305.11-195.76 457.66m-314.63-372.87c-35.27 19.01-67.47 43.84-94.34 73.6-26.35 29.05-47.54 62.57-63.67 98.27-17.02 37.85-28.84 77.95-36.3 118.74 32.66-55.97 70.77-109.33 117.84-154.14 28.4-27.03 60.15-50.76 95.09-68.67 39-20.13 82-32.56 125.78-35.95-4.3-25.84-8.63-51.69-13.23-77.48-45.52 9.0899-90.27 23.45-131.17 45.63m696.62-0.71c34.42 272.76 75.14 545.15 137.08 813.19 23.86 103.1 51.01 205.47 82.57 306.5 19.63 0.5698 38.32-7.1902 55.25-16.44 30.75-17.37 57.62-40.72 83.03-65.04-17.77-43.77-34-88.15-49.61-132.72-37.11-106.71-69.24-215.11-97.29-324.53-40-157.53-72.05-317.28-90.81-478.79-40.07-34.07-79.99-68.32-120.22-102.17m-681.73 333.61c-14.13 5.95-25.14 18.18-30.57 32.41-7.32 18.54-6.9901 39.04-4.46 58.51-15.87 5.0399-31.86 12.28-42.98 25.09-7.88 8.85-12.02 20.69-11.97 32.49 0 17.18 6.46 33.57 14.32 48.58-5.15 2.54-10.49 4.75-15.18 8.13-12.5 8.1901-21.15 21.7-23.73 36.39-3.96 21.9 1.7599 44.02 8.6 64.74-14.38 6.25-27.79 15.88-36.29 29.26-8.09 12.65-10.06 28.73-5.9 43.1 5.04 17.99 17.15 33.18 31.19 45.13 22.83 8.0801 45.93 15.48 68.86 23.34 45.17 15.22 90.36 30.41 135.54 45.63 7.0099 2.1599 13.8 5.35 21.2 5.95 13.62 1.65 27.9-1.98 38.88-10.28 10.99-8.1 19.24-20.99 19.11-34.95 0.24-16.72-13.17-30.49-28.07-36-49.08-19.87-98.12-39.85-147.2-59.72-4.66-2.24-9.4-6.8101-8.87-12.4 0.57-3.25 4.1-4.72 7.06-4.79 6.07-0.28 11.51 2.86 17.12 4.7101 52.93 19.86 105.9 39.62 158.83 59.49 11.34 4.5399 24.65 1.98 34.47-4.9501 14.68-10.23 24.12-28.31 22.56-46.32-0.92-10.61-6.82-20.54-15.44-26.72-4.52-3.67-10.29-4.9701-15.55-7.14-53.18-20.19-106.36-40.41-159.56-60.56-4.58-1.73-9.1-4.9-10.83-9.65-1.72-4.39 0.92-9.3999 5-11.33 3.44-1.72 7.61-2.76 11.4-1.63 58.38 19.54 116.75 39.13 175.14 58.64 10.49 2.7999 22.06 2.09 31.94-2.52 22.57-10.41 34.4-39.84 24.47-62.78-3.4399-7.5399-9.4-14.66-17.53-17.21-62.65-24.06-125.28-48.2-187.95-72.22-2.54-0.91-4.16-3.2201-5.81-5.2101-2.42-3.1-4.78-7.22-2.68-11.13 4.25-2.86 9.49-3.09 14.44-3.09 4.92-0.15 9.35 2.28 13.97 3.62 62.07 20.78 124.09 41.72 186.18 62.42 12.19 1.4199 24.38-4.01 33.29-12.12 13.35-12.24 20.57-31.65 16.29-49.52-3.88-16.47-17.09-30.18-32.97-35.66-72.41-29.55-144.75-59.26-217.15-88.82-4.07-1.6801-8.09-3.63-12.48-4.28-18.7-3.6301-38.88-4.3501-56.69 3.3699m-282.88 19.08c-14.5 10.8-26.11 25.18-34.81 40.95 14.53-5.34 29.22-10.35 44.28-13.99 43.68-11.06 90.39-12.44 133.89 0.22 21.41 6.12 41.82 15.52 60.79 27.14 0.69-11.06 1.6-22.11 2.12-33.18-26.8-13.96-54.49-26.58-83.7-34.6-22.44-6.11-45.93-9.66-69.18-7.0499-19.16 2.08-37.92 8.91-53.39 20.51m-7.39 113.92c-41.99 4.16-83.74 17.55-117.95 42.72-29.68 21.47-52.7 51.78-65.99 85.87-16.67 42.22-19.33 88.86-13.68 133.55 4.6 8.58 10.81 16.27 17.47 23.37 22.08 23.42 52.7 37.07 83.87 43.37 26.35 5.35 53.44 6.17 80.22 4.51 45.81-3.02 90.86-13.22 134.6-26.87-4.45-9.34-8.34-19.01-10.55-29.15-8.13 2.4401-16.02 5.67-24.19 8.02-34 10.34-69.9 15.49-105.41 12.26-40.6-3.34-79.79-18.26-113.56-40.82 35.62 2.0701 71.39 2.5 106.99-0.1799 45.55-3.16 90.77-11.07 134.65-23.69 4.74-27.66 18.13-53.02 34.72-75.34-7.23-19.5-12.01-41.28-5.76-61.7 5.66-18.87 21.1-33.19 38.33-41.79-1.13-9.97-2.81-19.87-4.17-29.8-54.03-19.52-112.13-29.96-169.59-24.33m569.5 289.13c-4.65 8.24-10.84 16.45-19.93 20.01-6.76 2.66-14.31 1.58-20.86-1.13 6.8301 31.14 15.37 61.9 24.65 92.41 19.64 63.93 43.4 126.53 69.33 188.16 21.12 49.83 43.58 99.09 67.3 147.73 35.67 8.3298 71.36 16.58 107.08 24.69-68.92-179.83-138.08-359.57-207-539.4-4.7499 23.02-9.2499 46.65-20.57 67.53m-243.89 113.94c-0.47 1.61-0.95 3.25-1.34 4.9199l-0.73 0.12c-0.26 1.09-0.53 2.2001-0.81 3.3301-0.59 1.37-1.18 2.7599-1.71 4.1899-0.62 1.66-1.28 3.33-2.04 4.96-0.32 1.11-0.58 2.25-0.77 3.42l-0.78 0.01c-0.37 1.65-0.79 3.3099-1.13 5l-0.81 0.04c-0.16 1.13-0.41 2.2699-0.75 3.3999-0.63 1.3501-1.21 2.7301-1.79 4.13-0.31 1.1001-0.56 2.24-0.7401 3.41h-0.79c-0.36 1.65-0.78 3.3101-1.11 5l-0.89 0.09c-0.07 0.61-0.23 1.8401-0.31 2.4501-0.43 1.1-0.74 2.25-0.93 3.46l-0.73 0.04c-0.54 2.6-1.39 5.13-2.52 7.5499-0.28 1.0901-0.52 2.2101-0.72 3.36l-0.7599 0.0801c-0.22 1.12-0.47 2.25-0.72 3.41-0.58 1.36-1.17 2.74-1.7 4.1599-0.31 0.99-0.59 2-0.86 3.04-0.44 0.95-0.87 1.92-1.28 2.92-0.25 1.13-0.46 2.2799-0.64 3.47l-0.88-0.01c-0.08 0.63-0.22 1.89-0.3 2.52-0.38 1.11-0.67 2.26-0.87 3.46l-0.84 0.02c-0.07 0.62-0.22 1.87-0.29 2.49-0.39 1.13-0.68 2.3-0.87 3.53l-0.8701-0.0901c-0.06 0.64-0.17 1.92-0.23 2.5601-0.46 1.09-0.76 2.25-0.9 3.47l-0.86 0.05c-0.06 0.62-0.19 1.87-0.25 2.49-0.44 1.1-0.73 2.26-0.87 3.48l-0.73 0.02c-0.2 1.13-0.42 2.28-0.67 3.4399-1.06 2.9801-2.03 6-2.75 9.1001-0.67 1.21-1.18 2.49-1.54 3.87-0.03 0.64-0.1 1.9199-0.13 2.5599l-0.89 0.0801c-0.4 2.2999-0.94 4.58-1.3 6.9199l-0.75 0.05c-0.41 2.2899-0.93 4.59-1.22 6.9299l-0.78 0.0601c-0.2 1.13-0.41 2.28-0.64 3.45-1.04 3.4501-2.25 6.89-2.57 10.51l-0.76 0.03c-0.32 2.65-1 5.25-1.27 7.9399l-0.78 0.0701c-0.38 2.6599-0.93 5.29-1.23 7.99l-0.85-0.05c-0.09 1.1699-0.19 2.3501-0.3 3.5601-0.57 1.4099-0.73 2.8899-0.79 4.4399l-0.8199 0.0901c-0.1201 2.8899-0.71 5.74-1.38 8.5701-1.12 3.6599-1.67 7.5-1.84 11.34l-0.83 0.0601c-0.09 6.26-2.31 12.26-2.4 18.53-0.86 3.0701-0.69 6.28-0.68 9.46l-0.92-0.02c-0.27 10.34-0.34 20.68-0.05 31.04l0.92-0.04c0.04 1.8201 0.14 3.7 0.25 5.5701 4.66 3.03 8.9 6.6499 13.59 9.6499 3.6 2.8501 7.5 5.3 11.2 8.02 2.94 2 5.84 4.0901 8.89 5.97 1.15 0.8301 2.29 1.72 3.42 2.6501 0.91 0.4099 1.83 0.8298 2.76 1.2798l0.01 0.6501c1.15 0.54 2.28 1.1599 3.29 2.02 0.78 0.45 1.57 0.9199 2.39 1.3999 1.19 0.8501 2.39 1.73 3.57 2.6602 0.89 0.4099 1.79 0.8398 2.6899 1.3098l0.09 0.6201c1.98 0.99 3.89 2.1599 5.75 3.4099 0.94 0.6401 1.9 1.3301 2.86 2.04 4.35 2.6201 8.59 5.4399 12.94 8.1001 1.05 0.6799 2.16 1.3298 3.33 1.8999l0.08 0.6201c0.93 0.3899 1.87 0.8098 2.82 1.26 3.16 2.21 6.5 4.1699 9.84 6.1299 1.02 0.75 2.13 1.4199 3.35 1.9099l0.04 0.6501c2.47 0.5698 4.28 2.45 6.57 3.45 1.03 0.6599 2.11 1.28 3.19 1.96 1.21 0.8701 2.57 1.53 4.02 2.01l0.1 0.7c0.92 0.3501 1.84 0.74 2.77 1.1802 2.22 1.6399 4.61 3.1099 7.23 4.0898l0.07 0.6001c2.41 0.8999 4.48 2.54 6.93 3.3999l0.07 0.6001c2.42 0.8799 4.47 2.5601 6.94 3.3899l0.03 0.6501c0.93 0.3999 1.86 0.8398 2.8 1.3198 1.29 0.8501 2.73 1.4502 4.21 1.99l0.04 0.6501c2.44 0.8499 4.63 2.25 6.96 3.3899l0.07 0.6702c1.27 0.3799 2.54 0.8398 3.82 1.2898l0.1 0.6802c2.38 1.01 4.61 2.3499 7.01 3.3599l0.03 0.73c1.29 0.3701 2.6 0.8 3.92 1.21l0.05 0.7002c2.59 1.0498 5.08 2.3599 7.43 3.9199 1.15 0.48 2.33 0.97 3.55 1.3899l0.03 0.77c1.31 0.3501 2.61 0.77 3.94 1.2002l0.01 0.76c3.89 1.2998 7.15 3.99 11.05 5.2598l0.03 0.78c1.31 0.3501 2.64 0.76 4 1.1501l-0.03 1.0999c0.39-0.03 1.18-0.0898 1.57-0.1099 0.6 0.26 1.82 0.78 2.43 1.05l-0.01 1.0898c0.39-0.04 1.17-0.1099 1.56-0.1399 0.59 0.27 1.78 0.8101 2.38 1.0798l0.06 0.8201c1.3 0.3401 2.6 0.76 3.91 1.1899l0.09 0.8201c1.3 0.3801 2.61 0.79 3.94 1.1799l0.07 0.7002c2.63 1.0898 5.09 2.6399 7.89 3.3699l0.09 0.6699c1.17 0.4302 2.35 0.8901 3.55 1.4001 1.26 0.99 2.78 1.55 4.37 1.9099l0.04 0.77c1.31 0.3701 2.63 0.8 3.98 1.2l0.07 0.8101c1.3 0.3301 2.61 0.75 3.93 1.1799l0.09 0.8201c1.31 0.3401 2.63 0.74 3.98 1.1301l0.02 0.8499c0.61 0.26 1.84 0.77 2.45 1.03 0.38-0.05 1.16-0.1299 1.54-0.1699l0.02 1.1199c1.3199 0.3 2.64 0.6902 3.98 1.1101l0.09 0.8c1.31 0.3398 2.62 0.74 3.95 1.1399l0.07 0.8101c3.13 0.6099 5.66 2.78 8.8 3.4099l0.06 0.79c1.32 0.3301 2.66 0.73 4.03 1.0801l0.01 0.8499c1.31 0.3401 2.62 0.73 3.96 1.1101l0.1 0.76c3.15 0.6599 5.73 2.8398 8.92 3.3899l0.02 1.04c0.46-0.0801 1.38-0.24 1.83-0.3201l0.34 1.1902c0.4601-0.0801 1.3701-0.25 1.8201-0.3301l0.05 1.0901c3.1399 0.6099 5.72 2.74 8.8899 3.3398l0.03 0.79c1.3301 0.29 2.66 0.6599 4.02 1.03l0.0699 0.8301c1.6101 0.4199 3.2301 0.8899 4.88 1.2998l0.04 0.8401c1.3201 0.3501 2.66 0.75 4.02 1.0801l0.03 0.8101c3.1699 0.5498 5.7999 2.6099 8.95 3.22l0.04 0.78c3.1699 0.5398 5.78 2.7 8.97 3.23l0.04 0.74c3.1599 0.51 5.77 2.95 9.1499 2.3699-0.08-0.55-0.25-1.6399-0.34-2.1799l1.03-0.0701c0.17-3.01 1.09-5.8999 1.23-8.8899l0.87-0.1301c0.0801-1.1899 0.1901-2.3499 0.3301-3.48 0.5099-1.45 0.71-2.97 0.7999-4.45l0.8101-0.01c0.12-4.01 1.49-7.79 2.4399-11.62 0.89-4.3298 2.34-8.5298 2.91-12.92 1.41-3 1.5499-6.4099 2.65-9.51 1.5599-7.3599 4.09-14.53 5.1699-21.97l0.8301 0.02c0.09-1.23 0.21-2.4299 0.35-3.6001 0.39-1.2898 0.6799-2.6199 1.04-3.8599 1.09-2.7 1.4299-5.6001 1.8199-8.4399l0.78-0.1702c0.47-4.99 2.5699-9.6199 3.3099-14.56 2.3201-3.0701-0.0499-6.4802-1.46-9.28l-0.65-0.1001c-0.42-0.96-0.83-1.8799-1.22-2.78-1.5601-2.29-3.13-4.5999-4.0701-7.1899l-0.58-0.1201c-1.08-2.5498-2.45-4.96-4.04-7.1899-1.49-3.3599-3.85-6.21-5.4399-9.5-1.4-2.3499-3.16-4.52-3.91-7.1699l-0.66-0.03c-1.09-2.5601-2.46-4.96-4.08-7.1899-0.42-0.96-0.8199-1.9102-1.21-2.8201l-0.67-0.1001c-0.76-2.49-2.6899-4.3699-3.4399-6.8198l-0.61-0.0901c-0.9301-2.4199-2.53-4.48-3.41-6.8899l-0.7001-0.0801c-0.3999-1.03-0.7699-2.04-1.1399-3.03l-0.7301-0.0701c-0.22-0.5698-0.6699-1.6899-0.8999-2.26-0.9801-1.7-2.01-3.3398-3.0801-4.9399-1.22-2.1799-2.52-4.3-3.46-6.5801l-0.7-0.0999c-0.38-1.05-0.75-2.0701-1.1001-3.0601l-0.6899-0.1399c-1.0601-2.3201-2.42-4.47-3.47-6.77l-0.5901-0.1401c-0.77-2.49-2.75-4.3599-3.3999-6.8699l-0.77-0.03c-0.37-1.04-0.73-2.0701-1.0701-3.0801l-0.74-0.0798c-0.48-1.1702-0.98-2.3201-1.48-3.4102-0.8101-1.0898-1.48-2.23-1.9399-3.4399l-0.6101-0.0801c-0.6699-1.6499-1.5-3.2-2.3899-4.6899-0.5701-0.8701-1.13-1.72-1.6801-2.53-0.4301-0.9399-0.84-1.8499-1.21-2.76l-0.77-0.0801c-0.4501-1.2798-0.9-2.5198-1.3301-3.74l-0.6499-0.1299c-0.5801-1.2-1.17-2.3101-1.8101-3.4099-1.2999-2.1301-2.72-4.1902-3.59-6.5l-0.72-0.0801c-0.37-1.04-0.7301-2.0601-1.0801-3.05l-0.7999-0.0701c-0.4501-1.2898-0.91-2.5498-1.3301-3.7898l-0.84-0.05c-0.36-1.0701-0.71-2.1101-1.04-3.1201l-0.79 0.04c-0.63-2.54-2.61-4.4399-3.38-6.9099l-0.59-0.0801c-1.14-2.5701-2.54-5.01-4.09-7.3401-0.4-0.9199-0.79-1.8198-1.16-2.7l-0.76-0.03c-0.68-2.52-2.68-4.3699-3.4-6.8398l-0.59-0.1301c-0.9-2.4099-2.52-4.4299-3.46-6.79l-0.69-0.0999c-0.38-1.0601-0.75-2.0901-1.11-3.1001l-0.72-0.0499c-0.87-2.4401-2.33-4.5801-3.45-6.87l-0.65-0.05c-0.45-2.63-2.88-4.34-3.26-6.97l-0.8 0.04c-0.38-1.05-0.75-2.0901-1.11-3.0901l-0.67-0.14c-1.04-2.34-2.47-4.47-3.47-6.7999l-0.57-0.12c-0.87-2.4301-2.73-4.37-3.41-6.8401l-0.77-0.0199c-0.38-1.0601-0.74-2.0901-1.09-3.1101l-0.74-0.0699c-0.87-2.42-2.36-4.52-3.43-6.8199l-0.58-0.12c-0.8199-2.4701-2.71-4.37-3.43-6.8501l-0.73-0.0499c-0.37-1.05-0.74-2.0801-1.09-3.0801l-0.7599-0.0599c-0.41-1.55-1.13-2.9401-2.12-4.14-0.4301-0.9301-0.84-1.84-1.22-2.74l-0.66-0.0701c-0.89-2.4299-2.4901-4.48-3.47-6.83l-0.71-0.0699c-0.36-1.0601-0.72-2.0901-1.0601-3.11l-0.77-0.03c-0.68-2.52-2.57-4.4501-3.34-6.9l-0.65-0.0601c-0.8-2.47-2.52-4.47-3.46-6.85l-0.56-0.13c-1.03-2.35-2.49-4.47-3.43-6.84l-0.7-0.0599c-0.39-1.05-0.77-2.0901-1.13-3.1001l-0.74-0.02c-0.96-2.62-2.41-4.99-3.95-7.2699-1.6-3.3501-4-6.24-5.41-9.67l-0.63-0.04c-0.7-2.5299-2.54-4.5-3.44-6.9099l-0.58-0.0701c-1.11-2.5499-2.4-5.02-4.09-7.2-0.42-0.97-0.81-1.91-1.2-2.8301l-0.78 0.02c-0.45-1.2899-0.9-2.5599-1.31-3.8099-2.54-0.9301-5.21-1.3101-7.88-1.0801v-0.9199c-3.51-0.0601-7.02-0.1901-10.5-0.52-7.13-0.9301-14.21-2.53-21.42-2.6801l-0.02-0.8999c-4.5-0.1201-9.05-0.7101-13.39-1.8301-3.54-0.35-7-1.3099-10.55-1.3099l-0.11-0.87c-1.83-0.0801-3.64-0.2101-5.43-0.37-8.11-1.8-16.23-3.8301-24.48-4.77l-0.02-0.8c-2.73-0.23-5.39-0.88-8.1-1.15l0.0699-0.8099c-1.84-0.09-3.7-0.24-5.42-0.88-0.8291-0.0502-2.4791-0.1502-3.2991-0.2101m-163.05 29.08c-9.02 16.35-15.43 33.96-21.32 51.63-13.05 40.28-22.76 81.52-32.4 122.72-23.34 101.89-44.83 204.26-72.56 305.08-24.77 90.52-53.93 180.1-92.58 265.72-32.26 70.9-71.15 139.42-121.71 198.98 10.9-21.45 21.24-43.2 29.97-65.63 16.82-42.75 28.79-87.53 34.05-133.21 6.95-58.32 2.49-117.73-10.98-174.82-12.54-53.38-32.21-104.87-55.44-154.46-2.54 13.11-3.91 26.45-6.35 39.59-13.83 83.21-33.18 165.42-55.3 246.79-23.78 87.03-51.04 173.09-80.68 258.3-27.51 78.84-57.02 156.98-88.4 234.36 126.42 4.8301 254.09-11.7 373.94-52.79 77.22-26.29 150.98-62.64 219.05-107.59 62.26-41.06 119.73-89.24 171.68-142.73 55.67-57.25 105.02-120.52 148.26-187.63 44.55-69.27 82.81-142.53 115.06-218.29-96.6-25.26-189.15-66.98-270.7-124.77-21.11-14.61-41.03-30.83-60.85-47.1-1.18 13.87-3.52 27.62-6.46 41.22-11.51 51.99-33.52 101.05-59.77 147.16-41.23 71.64-92.91 136.68-148.02 198.06-7.79 8.23-15 17.03-23.23 24.82 36.09-59.4 66.9-122.18 89.43-188 17.98-51.79 30.73-105.25 40.81-159.09 13.46-71.08 23.28-142.98 42.12-212.93 9.91-37.14 22.28-73.63 37.41-108.97-26.2-19.83-52.55-39.46-78.79-59.22-3.4-2.1799-6.23-5.37-9.95-6.9199-2.62 2.8597-4.32 6.4097-6.29 9.7197z" fill="#330099" stroke="#330099"/>
  <path d="m1653.4 42.49c3-2.16 7.16-0.63 10.66-1.03 9.38-0.42 18.64 1.07 27.99 1.52 13.02 0.58 26.07 0.39 39.1 0.65 11.89 1.64 23.93 1.58 35.92 1.81 7.6799 0.16 15.44-0.49 23.04 0.88 13.27 1.09 26.61 1.1 39.92 1.14 5.75-0.11 11.44 0.92 17.18 1.23 2.5599 0.54 6.2999 0.24 7.4199 3.23-3.08-1.15-6.24-2.32-9.5499-2.33-63.89-2.4-127.79-4.71-191.68-7.1z" fill="#FEC3B1" stroke="#FEC3B1"/>
  <path d="m1292 50.92c2.08-1.34 4.65-0.81 7-0.88 101.3 4.5 202.59 8.97 303.89 13.44 62.38 2.84 124.78 5.37 187.15 8.39-18.18 6.32-36.58 14.03-50.59 27.67-11.08 10.34-18.66 24.44-20.56 39.52-2.3 15.72 0.76 31.65 5.5 46.64-65.14-6.16-130.28-12.39-195.42-18.61-2.71 0.16-4.1699-2.41-6-3.93-12.11-11.28-25.95-21.55-42.14-25.94-12.23-3.28-25.54-1.78-36.83 3.89-7.72 3.51-14.47 8.7-21.34 13.58-20.89-1.21-41.78-3.41-62.67-4.99-36.52-3.06-73.03-6.11-109.55-9.11-3.1899-11.88-5.36-24.38-3.34-36.65 1.54-10.78 6.6801-20.84 13.79-29.01 8.6899-9.93 19.63-17.62 31.11-24.01m14.3 19.35c-6.7301 6.94-13.75 13.61-20.4 20.61 32.68 1.9 65.39 3.43 98.1 5.12 102.69 5.26 205.38 10.52 308.07 15.75 2.38 0.38 4.01-1.7 5.77-2.94 6.65-5.6 13.91-10.49 20.27-16.41-134.68-7.8-269.38-15.3-404.07-23.06-2.5401 0.18-5.7501-1.13-7.74 0.93z" fill="#fff" stroke="#fff"/>
  <path d="m1306.3 70.27c1.99-2.06 5.2-0.75 7.74-0.93 134.69 7.76 269.39 15.26 404.07 23.06-6.36 5.92-13.62 10.81-20.27 16.41-1.76 1.24-3.39 3.32-5.77 2.94-102.69-5.23-205.38-10.49-308.07-15.75-32.71-1.69-65.42-3.22-98.1-5.12 6.6501-7 13.67-13.67 20.4-20.61z" fill="#ABA7F4" stroke="#ABA7F4"/>
  <path d="m1224.3 85.49l1.2899-0.26c-12.32 29.94-11.61 65.14 2.5 94.35-2.9399-1.21-3.3999-4.61-4.4399-7.22-2.99-8.56-5.75-17.26-6.71-26.31-2.28-8.18-1.24-16.74-1.4-25.12 2.0499-11.98 3.62-24.27 8.76-35.44z" fill="#FEC3B1" stroke="#FEC3B1"/>
  <path d="m972.14 162.75c8.91-1.35 17.98-1.37 26.97-0.87 10.53 1.99 21.48 0.32 31.93 2.8 17.77 2.04 35.25 6.24 52.39 11.35l-0.62 1.13c-70.51-22.07-148.35-17.43-216.8 9.75-0.57-0.04-1.72-0.12-2.29-0.16 22.93-9.63 47.14-16.39 71.68-20.27 4.0099-1.53 8.36-0.74 12.48-1.7 7.8798-2.34 16.2-0.91 24.26-2.03z" fill="#FEC3B1" stroke="#FEC3B1"/>
  <path d="m1439.4 170.44c11.47-3.46 23.65-5.45 35.59-3.49 16.99 2.42 32.24 11.84 44.21 23.83 15.83 15.78 27.25 35.34 36.92 55.33-27.82-13.27-56.34-25.41-86.2-33.31-27.46 62.39-54.65 124.9-82.08 187.3-19.26 1.38-38.54 2.57-57.81 3.85 36.56-77.79 72.75-155.75 109.37-233.51z" fill="#fff" stroke="#fff"/>
  <path d="m959.88 199.19c38.31-5.76 78-3.79 115.16 7.49 42.81 12.73 81.94 38.75 108.61 74.77 26.51 35.19 40.54 78.58 44.35 122.19-11.97 2.43-24.03 4.45-36.06 6.52-11.32 2.12-22.87 4.26-33.24 9.48-8.6899 4.21-15.82 11.29-20.4 19.76-6.01 11.11-8.4601 23.68-10.24 36.06-61.39-13.49-122.96-26.26-184.87-37.12 12.2-22.42 24.85-44.6 37.3-66.89 27.16 1.18 54.32 2.74 81.49 3.6-14.07-5.13-28.49-9.29-42.96-13.17-20.82-5.3-42.16-10.21-63.76-9.53-6.24 6.04-11.56 13.04-17.6 19.32-16.45 18.5-32.96 36.94-49.45 55.4-1.64 2.42-4.83 0.59-7.14 0.53-58.73-9.73-117.66-18.19-176.69-25.83 16.56-35.82 38.14-69.44 64.87-98.54 49.55-54.56 117.42-93.17 190.63-104.04m-7.2 17.94c0.86 0.88 1.73 1.76 2.7 2.55 14.19 11.07 26.71 25.54 31.65 43.17 3.92 12.96 3.22 26.97-0.4901 39.89-3 11.86-9.14 22.53-14.77 33.26 28.31 5.62 56.82 11.18 83.96 21.23 8.61 3.25 17.19 6.91 24.82 12.12 3.74 2.92 7.97 5.94 9.73 10.53-1.3301 24.5-3.26 48.98-4.53 73.49 10.12 0.2 20.26 0.07 30.39 0.07 6.0499-18.51 17.96-35.25 34.45-45.82 17.02-10.9 37.26-15.57 57.23-16.82-1.7799-10.39-4.0299-20.69-6.7999-30.86-9.27-34.63-25.69-68.17-51.6-93.39-14.2-13.84-30.88-25.08-49.02-33.05-28.98-13.05-60.92-18.12-92.49-19.05-18.44-0.32-36.95 0.18-55.23 2.68m48.31 169.18c13.79 6.72 27.92 12.72 41.67 19.53-3.38 11.72-6.87 23.4-10.35 35.09 12.18 3.09 24.34 6.27 36.59 9.09-0.25-18.79-0.84-37.57-1.52-56.34-22.16-2.16-44.23-5.19-66.39-7.37z" fill="#fff" stroke="#fff"/>
  <path d="m952.68 217.13c18.28-2.5 36.79-3 55.23-2.68 31.57 0.93 63.51 6 92.49 19.05 18.14 7.97 34.82 19.21 49.02 33.05 25.91 25.22 42.33 58.76 51.6 93.39 2.77 10.17 5.02 20.47 6.7999 30.86-19.97 1.25-40.21 5.92-57.23 16.82-16.49 10.57-28.4 27.31-34.45 45.82-10.13 0-20.27 0.13-30.39-0.07 1.27-24.51 3.2-48.99 4.53-73.49-1.76-4.59-5.99-7.61-9.73-10.53-7.63-5.21-16.21-8.87-24.82-12.12-27.14-10.05-55.65-15.61-83.96-21.23 5.63-10.73 11.77-21.4 14.77-33.26 3.71-12.92 4.41-26.93 0.4901-39.89-4.94-17.63-17.46-32.1-31.65-43.17-0.97-0.79-1.84-1.67-2.7-2.55z" fill="#ABA7F4" stroke="#ABA7F4"/>
  <path d="m1274.9 216.38c35.34 6.97 70.82 13.46 106.06 20.81-1.4701 6.31-5.0901 11.9-7.4 17.93-1.02-1.87 0.2899-3.71 1.0399-5.4 1.7401-3.59 3.3-7.27 4.9301-10.91-0.85-0.6-1.72-1.13-2.62-1.58-11.91-1.96-23.72-4.51-35.58-6.78-12.07-2.66-24.33-4.33-36.36-7.16-9.6799-1.62-19.22-3.85-28.93-5.27-0.2901-0.41-0.8501-1.23-1.1401-1.64z" fill="#FEC3B1" stroke="#FEC3B1"/>
  <path d="m772.55 242.8c0.06-0.05 0.17-0.14 0.22-0.19-0.05 0.05-0.16 0.14-0.22 0.19z" fill="#ABA7F4" stroke="#ABA7F4"/>
  <path d="m1195.2 244.69c0.0399 0.04 0.13 0.13 0.1699 0.18-0.0399-0.05-0.13-0.14-0.1699-0.18z" fill="#ABA7F4" stroke="#ABA7F4"/>
  <path d="m754.73 258.88c0.04-0.03 0.11-0.1 0.14-0.13-0.03 0.03-0.1 0.1-0.14 0.13z" fill="#ABA7F4" stroke="#ABA7F4"/>
  <path d="m746.69 266.95c0.07-0.07 0.19-0.2 0.25-0.27-0.06 0.07-0.18 0.2-0.25 0.27z" fill="#ABA7F4" stroke="#ABA7F4"/>
  <path d="m1574.8 279.71c2.08-4.38 4.11-8.78 6.1799-13.16 50.19 4.06 100.41 7.77 150.61 11.82-3.13 1.2-6.45 0.46-9.6499 0.32-4.3-0.34-8.66 0.17-12.88-0.85-9.77-2.03-19.86-0.32-29.59-2.45-7.8199-1.19-15.85-0.03-23.55-1.99-5.9601-0.72-11.98-0.72-17.96-0.88-4.38-0.12-8.6499-1.23-13-1.57-6.6399-0.76-13.4 0.17-19.97-1.25-7.7999-1.03-15.69-1.24-23.55-1.35-1.79 3.98-3.7401 7.88-5.5901 11.82l-1.0499-0.46z" fill="#FEC3B1" stroke="#FEC3B1"/>
  <path d="m1731.9 278.39c6.01 0.27 12 1.03 18.02 1.36 10.29 1.02 20.78 0.87 30.85 3.52 15.41 2.71 31.45 1.05 46.17-4.17 0.58 0.05 1.74 0.16 2.3199 0.22-8.33 3.51-17.27 5.65-26.31 5.98-7.6699 1.17-15.34-0.16-22.96-0.82-2.76-0.38-5.34-1.5-8.08-1.81-2.84-0.29-5.6901 0.07-8.48-0.41-8.41-2.08-17.16-1.31-25.72-1.88-2.0297-0.33-4.4597-0.2-5.8097-1.99z" fill="#FEC3B1" stroke="#FEC3B1"/>
  <path d="m1358.3 286.45l1.38-0.17c-8.8201 19.67-17.56 39.39-26.36 59.07-0.38-3.66 1.8099-6.75 3.1599-9.97 7.1801-16.35 14.53-32.66 21.82-48.93z" fill="#FEC3B1" stroke="#FEC3B1"/>
  <path d="m674.04 373.04c2.04-4.06 3.29-8.59 6.06-12.22l1.13-0.36c-5.55 11.33-10.59 22.92-15.13 34.7-37.43 8.45-74.79 17.19-112.21 25.63-1.08 0.19-2 0.65-2.77 1.39 0.11 3.03 2.89 5.23 4.44 7.68-3.15-0.26-3.97-4.14-5.89-6.15-0.18-4.21 4.28-4.42 7.36-4.79 35.45-8.12 70.88-16.37 106.36-24.35 1.86-0.37 2.38-2.4 3.16-3.86 2.49-5.89 4.59-11.95 7.49-17.67z" fill="#FEC3B1" stroke="#FEC3B1"/>
  <path d="m1530.6 373.62c0.24-0.47 0.72-1.4 0.96-1.87l0.46 0.83-0.5 0.96-0.92 0.08z" fill="#ABA7F4" stroke="#ABA7F4"/>
  <path d="m1264.4 376.15c0.3099 0.31 0.91 0.92 1.21 1.23 4.52-0.3 8.9301 0.86 13.36 1.58 10.45 1.81 20.87 3.82 31.29 5.84 1.61 0.3 3.14 0.98 4.62 1.72-1.26 2.98-2.53 5.95-3.74 8.94-7.03 0.66-14.07 0.97-21.11 0.97-7.23-0.17-14.33 1.41-21.55 1.16-0.48-2.53-0.9199-5.06-1.34-7.59-1.04-4.6-1.52-9.3-2.74-13.85z" fill="#ff6633" stroke="#ff6633"/>
  <path d="m1001 386.31c22.16 2.18 44.23 5.21 66.39 7.37 0.6801 18.77 1.27 37.55 1.52 56.34-12.25-2.82-24.41-6-36.59-9.09 3.48-11.69 6.97-23.37 10.35-35.09-13.75-6.81-27.88-12.81-41.67-19.53z" fill="#ABA7F4" stroke="#ABA7F4"/>
  <path d="m613.9 430.46c20.84-3.37 42.01-4.01 63.09-4.06 49.07 0.42 97.95 5.65 146.53 12.25 99.4 13.87 197.74 34.31 295.62 56.34-5.33 9.74-11.21 19.17-16.71 28.81-120.16-23.06-240.35-45.96-360.52-68.99-42.68-8.04-85.3-16.48-128.01-24.35z" fill="#fff" stroke="#fff"/>
  <path d="m1186 434.41c53.35-1.95 106.69-3.95 160.03-5.94 11.95-0.33 24.06-1.69 35.86 0.98 25.23 4.25 48.48 21.03 58.92 44.6 51.49 100.57 102.98 201.13 154.46 301.7 1.1801 2.09 1.92 4.62 3.77 6.25 69.85 41.49 140.24 82.09 211.03 121.95 63.55 35.81 127.45 71 190.98 106.86 50.15 28.61 100.35 57.38 147.72 90.48 38.55 27.03 75.14 57.51 104.87 94.22 14.5 17.87 27.7 36.88 38.68 57.13 10.64 20.28 18.04 42.13 23.61 64.3 7.27 29.43 11.17 59.69 11.65 90 0.24 21.73-1.3 43.57-5.9202 64.84-3.97 17.66-10.04 35.25-20.89 49.93-5.27 6.8-11.52 13.09-19.24 17.06-38.77 21.32-81.21 37.37-125.56 41.2-28.33 2.54-57.12-0.36-84.41-8.35-44.19-12.82-83.6-38.21-118.46-67.73-42.07-35.91-78.52-77.81-113.04-120.88-41.85-52.56-80.81-107.34-120.33-161.65-68.6-94.55-138.7-188.68-220.97-271.95-40.36-1.0699-80.24-11.35-116.65-28.64-34.17-16.18-65.37-38.2-93.41-63.47-28.67-25.76-54.09-54.96-77.04-85.88-1.85-2.92-5.74-0.48-8.49-0.73-32.25 2.65-64.65 0.99-96.9-0.63 3.8 11.99 7.96 23.87 11.65 35.9-9.3301 23.22-19.91 46-29.37 69.2-10.26-31.52-19.86-63.25-29.92-94.82-2.13-5.56-1.36-11.63-1.13-17.43 1.42-22.89 11.82-44.54 26.78-61.67 2.79-3.1 5.35-6.54 8.7-9.05 40.29-3.94 80.67-7.19 120.99-10.97 4.1901-0.54 9.1101-1.66 11.32-5.67 1.77-3.45-0.86-7.28-3.92-8.86-4.02-2.46-8.84-2.2-13.34-2.28-33.02-0.7-66.03-1.48-99.05-2.19-6.63 0.47-10.89-6.17-12.67-11.72-5.5901-21.28 10.73-45.52 32.61-48.19 46.04-1 92.1-2.01 138.15-3.03 7.22 0.17 16.53-2.59 18.58-10.41 0.63-3.74-2.95-7.43-6.61-7.36-47.02-1.37-94.04-2.76-141.06-4.14-5.25 0.06-10.33-3.19-12.57-7.91-2.8-5.51-2.36-12.03-0.85-17.84 4.02-14.16 14.88-26.68 29.09-31.18 4.92-1.69 10.18-1.22 15.3-1.42 46.07-1.35 92.15-2.56 138.22-3.93 4.91-0.1201 10.24 0.35 14.63-2.3 2.23-1.16 3.76-3.96 2.8099-6.42-1.26-2.96-4.3199-5.08-7.5-5.33-42-1.6-84-3.13-126-4.75-7.75-0.48-15.57-0.18-23.27-1.04-4.99-2.76-7.99-8.01-9.7799-13.26-4.4601-13.67-0.48-29.96 10.45-39.49 5.0099-4.03 10.99-7.46 17.49-8.09m220.49 50.7c0.16 8.26 0.17 16.61-1.83 24.68-2.38 11.15-8.1801 21.57-16.55 29.34-5.23 5.45-12.12 8.8-18.71 12.26 2.9399 5.37 5.64 11.29 4.72 17.59-0.1899 5.83-3.25 10.98-6.52 15.6-6.2 7.87-14.37 13.89-22.91 18.99-2.14 1.18-4.54 2.04-6.0901 4.02 3.8401 6.22 6.66 13.13 7.55 20.43 0.6899 7.54-1.98 15.38-7.3 20.8-5.2899 5.43-11.69 9.74-18.6 12.81 1.01 4.8 3.35 9.2 4.17 14.06 2.48 11.03 0.01 23.03-6.49 32.25-5.64 6.09-11.2 12.57-18.68 16.47 0.01 0.96 0.28 1.81 0.8 2.56 12.96 12.71 25.59 25.75 39.02 37.96 27.47 24.99 56.49 48.63 88.63 67.37 19.87 11.28 40.92 20.93 63.34 25.84 7.83 1.47 15.77 3.07 23.78 2.47 12.61-19.56 25.83-38.71 38.81-58.03 4.99-8.42 11.49-15.89 16.08-24.55-8.5699-10.21-15.9-21.36-23.13-32.54-31.96-51.22-59.74-104.88-87.91-158.23-17.58-33.96-34.93-68.03-52.18-102.15m202.19 341.39c-7.01 5.66-12.92 12.49-19.62 18.5-5.9401 5.75-12.14 11.25-17.88 17.19 0.0599 0.31 0.1699 0.93 0.23 1.25 12.27 13.1 26.04 24.7 38.66 37.45 5.6899 5.35 11.94 10.08 17.46 15.63 21.46 19.61 43.12 38.99 65.36 57.71 35.37 30.1 71.3 59.53 108.19 87.75 8.8899 6.78 17.53 13.9 26.72 20.27 76.4 57.8 156.14 110.96 235.74 164.19 29.79 20.08 59.59 40.17 88.58 61.39 36.23 27.22 72.38 55.92 99.12 92.94 6.1501 8.2999 11.05 17.43 15.92 26.53 2.3801-3.17 3.01-7.2001 4.4302-10.82 9.0798-28.19 13.07-58.37 8.8699-87.82-3.0601-24.3-11.4-47.73-22.82-69.32-22.82-42.78-56.71-78.36-92.89-110.12-11.12-10.29-23.3-19.29-35.06-28.81-11.38-9.11-23.11-17.73-35.06-26.06-12.32-9.15-25.24-17.43-37.92-26.06-76.64-50.56-157.22-94.77-238.45-137.45-50.23-26.09-100.65-51.81-151.56-76.54-18.47-9.35-37.32-17.94-55.72-27.42-0.7501-0.41-1.5101-0.54-2.3001-0.38m-25.55 190.41c13.92 17.98 28.89 35.12 43.64 52.43 50.1 57.69 103.41 112.77 161.52 162.47 46.62 39.79 96.38 76.16 150.03 105.93 50.26 27.86 104.14 49.83 160.53 61.5 13.82 2.6801 27.7 5.47 41.77 6.4-30.86-9.58-60.71-22.21-89.66-36.51-49.76-24.6-97.04-53.91-142.81-85.24-52.39-36.02-102.82-74.82-151.96-115.15-59.38-48.65-116.65-99.79-173.06-151.83z" fill="#fff" stroke="#fff"/>
  <path d="m1498.3 442.26c38.15 15.02 75.07 33.11 110.99 52.84 133.8 73.68 251.26 176.65 342.22 299.33 38.03 51.3 71.48 106.01 99.74 163.29 0.79 1.52 1.27 3.17 1.3501 4.92-16.62-13.7-34.67-25.73-53.96-35.34-1.5601-2.6-2.8101-5.36-3.9-8.16-0.54-1.42-1.0601-2.81-1.5699-4.19-1.6101-3.21-2.9701-6.53-4.39-9.81-1.78-4.12-3.8201-8.12-5.5901-12.23-21.88-46.29-49.9-90.47-87.66-125.47-28.71-27.02-63.29-47.58-100.45-60.65-2.0399-0.61-4.0299-1.28-5.98-2.05-1.73-0.51-3.45-1.03-5.14-1.53-4.86-1.84-9.99-2.79-14.9-4.42-16.81-4.37-33.93-7.41-51.08-9.97-13.65-1.39-27.26-3.22-40.98-3.6-7.89-1.52-16.02-0.29-23.97-1.35-25.74-0.65-51.51-0.15-77.26-0.21-7.1801-14.45-13.85-29.14-20.99-43.6-9.78-21.09-19.75-42.09-29.59-63.15-14.6-30.88-29.2-61.77-45.2-91.95-0.73-1.2-0.63-2.66 0.01-3.86 1.52-3.43 3.35-6.72 4.79-10.19 4.62-9.49 8.93-19.13 13.51-28.65z" fill="#ff6633" stroke="#ff6633"/>
  <path d="m328.49 689.43c88.18-91.65 192.87-167.39 307.6-222.28 8.2-3.19 16.73 1.83 25.03 0.6 10.89 1.11 21.78 1.98 32.7 2.66-1.12 10.59-3.22 21.08-4.96 31.59-1.01 5.1-1.96 10.63 0.66 15.44 4.08 8.02 11.75 13.79 19.72 17.61 0.07 0.65 0.15 1.31 0.24 1.98-13.89 15.67-27.03 31.99-40.61 47.92-5.14 6.78-11.27 12.67-17.37 18.56-6.13 6.17-11.43 13.29-14.8 21.35-1.59 4.87-2.8 9.95-2.04 15.11 2.33 11.68 12.82 19.19 23.27 23.29 1.02 0.26 2.04 0.53 3.08 0.81 0.97 0.38 1.95 0.77 2.94 1.16 6.87 1.62 13.79 3.22 20.89 3.39-1.14 5.01-4.55 9.05-6.52 13.73-1.74 4.13-5.34 7.82-4.85 12.59 4.63 3.83 8.6 8.39 12.93 12.56 2.85 3.05 6.37 5.57 8.37 9.34-4.54 2.56-8.76 5.94-11.58 10.37-2.45 3.84-2.11 9.21 0.85 12.7 3.59 4.44 8.31 8 13.61 10.17-0.09 1.54-0.57 3.01-1.4301 4.3-3.3199 5.39-6.37 10.96-9.02 16.71-1.5 3.27-2.78 6.62-4.01 9.99-0.85 2.61-1.54 5.27-2.42 7.87-1.09 3.95-1.02 8.1-2.05 12.06-0.46 5.42 0.91 10.76 1.97 16.03 1.88 5.12 4.5 10.01 8.26 14.01 8.66 9.56 20.92 14.59 33.04 18.15 6.59 1.73 13.33 2.74 20.02 4.02 5.66 0.3701 11.28 1.39 16.98 1.28 6.35-0.13 12.62 1.3 18.98 0.9 6.39 0.39 12.67-1.11 19.05-0.92 7.03 0.09 13.99-0.96 21.01-1.23 3.8799-1.1 7.95-0.91 11.93-0.76 3.3 7.65 7.61 14.81 11.26 22.3 12.34 24.12 26.39 48.26 47.37 65.93-0.63 3.1201-5.1 3.02-7.45 4.5-2.75 1.2-5.49 2.44-8.27 3.57-1.93 0.8-3.87 1.59-5.78 2.43-9.67 4.03-19.42 7.85-29.03 12-1.39 0.52-2.77 1.04-4.15 1.5601-1.94 0.83-3.89 1.62-5.84 2.43-1.67 0.64-3.33 1.3-4.97 1.99-7.77 3.12-15.43 6.48-23.21 9.56-6.26 2.79-12.66 5.28-18.92 8.07-3.3 1.46-6.58 2.94-9.87 4.39-18.28 8.2-36.28 17.08-53.52 27.31-30.54 17.97-58.2 40.99-80.59 68.5-26.01 31.49-45.62 67.7-62.21 104.86-1.23 3.0499-2.59 6.04-4 9.02-0.52 1.38-1.04 2.77-1.54 4.1799-0.85 1.89-1.66 3.8101-2.47 5.74-2.73 6.65-5.36 13.35-8 20.05-1.73 5.11-3.81 10.08-5.54 15.2-2.43 5.87-4 12.05-6.52 17.9-0.09 0.51-0.28 1.54-0.37 2.0601-0.54 1.27-1.04 2.59-1.55 3.8999-0.57 2.03-1.22 4.04-1.94 6.03-0.65 2.01-1.29 4.03-1.97 6.04-1.84 6.02-4.02 11.94-5.67 18.03-1.59 4.59-2.84 9.2899-4.4 13.9-0.55 2.3501-1.22 4.6801-2 6.9801-0.88 3.0499-1.74 6.12-2.71 9.1599-1.36 0.36-2.72 0.74-4.06 1.16-2.35 0.55-4.69 1.2-6.98 1.96-5.83 1.5-11.47 3.63-17.17 5.55-1.96 0.79-3.93 1.59-5.87 2.4301-1.39 0.5099-2.78 1.0299-4.16 1.5599-14.38 6.41-28.33 14.44-39.42 25.77-13.31 12.9-22.09 29.87-27.26 47.53-0.74 2.3099-1.38 4.6599-1.98 7.0299-0.83 2.9401-1.41 5.9501-2.01 8.9601-1.22 4.24-1.1 8.75-2.4 12.99-0.55 5.3199-1.19 10.63-1.59 15.97-0.6 2.33-0.77 4.75-0.82 7.16-28.1 19.87-55.42 41.1-79.46 65.81-28.17 28.28-52.74 60.9-68.11 97.96-0.64 1.6699-1.3 3.34-2 5.01-2.25 5.9299-4.1 11.99-6.01 18.03-0.59 2.6801-1.22 5.36-2 8.01-0.64 3.3301-1.2 6.6901-1.98 10.02-1.34 6.5601-1.22 13.3-2.23 19.92-0.85 15.85 0.99 31.82 5.22 47.12 1.5 5.37 3.33 10.64 5.39 15.83 4.21 9.9401 9.39 19.48 15.59 28.33 19.25 27.54 47.48 47.74 78.05 61.05 4.73 1.91 9.42 3.9301 14.27 5.53 8.76 3.36 17.84 5.77 26.93 8.0599 7.21 1.9 14.61 2.9601 21.92 4.38 11.27 1.54 22.56 3.29 33.96 3.29 8.66 0.86 17.37 1.21 26.09 0.72 1.31-0.3199 2.64-0.52 4-0.58 22.52-0.01 44.84-3.55 66.97-7.46 2.97-0.88 6.03-1.4501 9.08-1.9801 2.94-0.86 5.95-1.4399 8.97-2 2.59-0.84 5.24-1.49 7.91-2.0299 7.04-1.9701 14.1-3.86 21.1-5.99 8.31-2.7301 16.72-5.2201 24.88-8.39 4.45-1.2001 8.5-3.78 13.07-4.4601 3.99 0.49 7.35 3.15 11.1 4.51 2.02 0.86 4.12 1.5601 6.2599 2.13 0.09 0.9401 0.1801 1.91 0.28 2.91-11.46 19.35-21.39 39.59-30.44 60.17-1.4 2.98-2.72 6.01-3.97 9.0699-3.6 8.2-6.91 16.53-10.04 24.91-0.69 1.6599-1.34 3.35-1.96 5.0599-1.36 3.65-2.73 7.29-4.03 10.97-0.84 2.2599-1.62 4.5499-2.41 6.85-2.84 7.95-5.32 16.02-7.94 24.05-2.83 9.28-5.45 18.63-8.02 27.99-1.9 7.6901-4.02 15.33-5.6 23.1-2.41 10.22-4.49 20.54-6.03 30.93-1.25 4.6001-1.16 9.4399-2.37 14.06-2 16.79-3.34 33.64-3.21 50.57-2.54-0.1101-5.07-0.1902-7.6-0.4102-3.31-0.8999-6.76-0.71-10.14-1.0798-11.71-1.01-23.32-2.9001-34.9-4.9102-3.59-1.01-7.3-1.3799-10.96-1.99-6.33-1.51-12.78-2.55-19.02-4.3899-21.29-4.77-42.22-11.08-62.89-18.05-5.68-1.99-11.43-3.77-17.02-5.99-5.14-1.6501-10.12-3.76-15.2-5.54-10.03-3.9199-20.04-7.8899-29.98-12.02-4.93-2.2-9.94-4.1899-14.84-6.4299-19.06-8.23-37.82-17.16-56.41-26.38-3.27-1.62-6.41-3.61-10.03-4.3101-0.31 4.96-0.91 9.91-1.37 14.87-1.47 6.8999-0.9 14.12-2.44 21.03-0.61 5.6799-0.82 11.43-1.93 17.05-0.27 2.24-0.5 4.49-0.89 6.74l-0.44 1c-24.85-31.06-48.54-63.09-69.96-96.62-43.47-67.44-79.29-139.81-106.43-215.31-65.98-182.74-80.03-383.62-41.23-573.92 23.02-113.9 65.21-223.88 123.94-324.14 42.68-72.84 94-140.63 152.62-201.38z" fill="#ff6633" stroke="#ff6633"/>
  <path d="m1406.5 485.11c17.25 34.12 34.6 68.19 52.18 102.15 28.17 53.35 55.95 107.01 87.91 158.23 7.23 11.18 14.56 22.33 23.13 32.54-4.59 8.66-11.09 16.13-16.08 24.55-12.98 19.32-26.2 38.47-38.81 58.03-8.01 0.6-15.95-1-23.78-2.47-22.42-4.91-43.47-14.56-63.34-25.84-32.14-18.74-61.16-42.38-88.63-67.37-13.43-12.21-26.06-25.25-39.02-37.96-0.52-0.75-0.79-1.6-0.8-2.56 7.48-3.9 13.04-10.38 18.68-16.47 6.5-9.22 8.97-21.22 6.49-32.25-0.8201-4.86-3.16-9.26-4.17-14.06 6.91-3.07 13.31-7.38 18.6-12.81 5.3201-5.42 7.99-13.26 7.3-20.8-0.89-7.3-3.71-14.21-7.55-20.43 1.55-1.98 3.9501-2.84 6.0901-4.02 8.5399-5.1 16.71-11.12 22.91-18.99 3.27-4.62 6.3301-9.77 6.52-15.6 0.92-6.3-1.78-12.22-4.72-17.59 6.59-3.46 13.48-6.81 18.71-12.26 8.37-7.77 14.17-18.19 16.55-29.34 1.9998-8.07 1.9898-16.42 1.8298-24.68z" fill="#FEC3B1" stroke="#FEC3B1"/>
  <path d="m786.4 495.82c21.99 0.49 44.01 2.53 65.54 7.09 15.41 3.44 30.96 8.13 44.06 17.23 7.01 5.1 13.73 12.06 14.82 21.06 6.76 3.87 14.1 7.87 18.21 14.77 3.0699 5.03 3 11.09 4.25 16.69 9.74 0.76 19.45 2 29.19 2.58 4.69-6.2 8.77-12.9 13.7-18.96 9.06-11.54 18.83-23.08 31.69-30.52 6.09-3.52 13.67-5.77 20.53-3.19 7.27 2.65 11.85 9.58 14.76 16.41 5.1699 12.66 6.53 26.5 6.75 40.07-0.0601 21.98-3.61 44.04-11.01 64.77-4.34 11.81-9.9401 23.32-17.99 33.07-6.85 8.47-16.14 15.4-26.95 17.66-5.82 1.3-11.8 0.79-17.62-0.15-7.08 20.68-12.99 42.02-23.73 61.2-8.66 15.54-22.22 27.95-37.78 36.39-27.87 15.32-59.32 21.86-89.87 29.58-15.43 3.35-31.5 5.57-47.2 2.8-9.75-1.75-19.72-6.25-25.23-14.85-6.55-9.88-6.06-22.58-3.32-33.64 0.61-3.14 2.52-6.26 1.29-9.48-8.85-33.2-7.04-68.72 2.78-101.49 0.89-2.31 0.11-4.7-0.42-6.97-8.63-37.12-8.88-77.11 4.95-113.03 6.6501-17.85 16.66-34.3 28.6-49.09m209.3 66.7c-8.55 12.38-13.76 26.61-18.89 40.64 2.16 3.29 4.35 6.7401 4.95 10.71 1.38 8.67-1.43 17.26-4.95 25.07 5.21 0.58 10.65 1.08 15.72-0.62 3.43-1.19 5.8-4.73 5.36-8.38-0.65-6.55-4.33-12.24-7.79-17.66 8.89-5.08 17.98-9.8101 26.69-15.18-2.39-2.31-5.29-4.38-8.7-4.67-4.9-0.39-9.38 2.05-13.45 4.47 2.54-6.98 5.15-14.42 10.69-19.64 2.61-2.61 6.55-3.26 9.94-1.86 5.28 7.3 10.48 14.67 16.07 21.73-0.26-15.82-1.23-32.82-10.11-46.47-1.41-3.2-5.34-2.44-8.11-2.0699-7.5799 1.7-13.05 7.9-17.42 13.93m-121.6 55.62c-7.68 6.33-17.3 10.23-27.19 11.19-12.74 0.92-25.42-2.59-36.76-8.22 0.8 4.39 3.12 8.29 4.29 12.59 8.48 26.83 7.16 55.9 0.13 82.89-6.49 25-17.3 48.65-29.74 71.21-1.7 3.22-4.61 5.98-4.73 9.84 21.2-3.11 42.47-8.57 61.18-19.34 19.15-10.38 35.05-26.55 45-45.96 13.61-26.16 18.05-56.16 17.58-85.38 0.09-19.78-2.31-39.47-5.56-58.95-7.0702 10.73-13.34 22.68-24.2 30.13z" fill="#fff" stroke="#fff"/>
  <path d="m995.7 562.52c4.37-6.03 9.84-12.23 17.42-13.93 2.77-0.3701 6.7-1.13 8.11 2.0699 8.88 13.65 9.85 30.65 10.11 46.47-5.59-7.06-10.79-14.43-16.07-21.73-3.39-1.4-7.33-0.75-9.94 1.86-5.54 5.22-8.15 12.66-10.69 19.64 4.07-2.42 8.55-4.86 13.45-4.47 3.41 0.29 6.31 2.36 8.7 4.67-8.71 5.37-17.8 10.1-26.69 15.18 3.46 5.42 7.14 11.11 7.79 17.66 0.44 3.65-1.93 7.19-5.36 8.38-5.07 1.7-10.51 1.2-15.72 0.62 3.52-7.81 6.33-16.4 4.95-25.07-0.6-3.97-2.79-7.42-4.95-10.71 5.1299-14.03 10.34-28.26 18.89-40.64z" fill="#330099" stroke="#330099"/>
  <path d="m874.1 618.14c10.86-7.45 17.13-19.4 24.2-30.13 3.25 19.48 5.65 39.17 5.56 58.95 0.47 29.22-3.97 59.22-17.58 85.38-9.95 19.41-25.85 35.58-45 45.96-18.71 10.77-39.98 16.23-61.18 19.34 0.12-3.86 3.03-6.62 4.73-9.84 12.44-22.56 23.25-46.21 29.74-71.21 7.03-26.99 8.35-56.06-0.13-82.89-1.17-4.3-3.49-8.2-4.29-12.59 11.34 5.63 24.02 9.14 36.76 8.22 9.8902-0.96 19.51-4.86 27.19-11.19z" fill="#FEC3B1" stroke="#FEC3B1"/>
  <path d="m1021.9 738.89c15.1-10.67 26.13-25.91 36.19-41.18-3.5801 9.9-8.5601 19.28-11.83 29.32-5.14 15.31-10.07 31.6-7.58 47.88 9.2 34.07 18.22 68.2 27.58 102.24-7.9299 17.56-16.79 34.71-25.05 52.12-9.12 18.58-17.99 37.28-27.19 55.81-16.84-42.08-30.37-85.85-35.76-130.99-4.29-36.12-2.54-73.61 10.12-107.99 11.59 3.3501 23.97-0.3599 33.52-7.2099z" fill="#fff" stroke="#fff"/>
  <path d="m1592.2 719.25c22.1-3.25 44.64-3.01 66.87-1.14 45.27 4.18 89.49 17.53 130.15 37.71 35.5 17.64 68.48 40.47 97.11 67.92 26.78 25.65 49.91 55.48 65.99 89 0.61 1.38 1.17 2.79 1.74 4.22-29.25-24.72-60.62-46.86-93.42-66.62-36.58-21.96-75-41.02-115.11-55.66-34.05-12.2-69.54-21.45-105.8-23.27-5.61-0.47-11.25 0.09-16.81-0.64-10.07-17.27-20.26-34.49-30.72-51.52z" fill="#fff" stroke="#fff"/>
  <path d="m1153.9 812.24c17.1 31.76 33.5 63.94 50.36 95.85-65.25 151.99-130.92 303.8-196.29 455.74-1.12 2.5701-2.22 5.15-3.42 7.6901-25.38-11.83-50.8-23.57-76.2-35.37 75.13-174.65 150.32-349.29 225.55-523.91z" fill="#fff" stroke="#fff"/>
  <path d="m1608.7 826.5c0.7899-0.16 1.5499-0.03 2.2999 0.38 18.4 9.48 37.25 18.07 55.72 27.42 50.91 24.73 101.33 50.45 151.56 76.54 81.23 42.68 161.81 86.89 238.45 137.45 12.68 8.63 25.6 16.91 37.92 26.06 11.95 8.3301 23.68 16.95 35.06 26.06 11.76 9.52 23.94 18.52 35.06 28.81 36.18 31.76 70.07 67.34 92.89 110.12 11.42 21.59 19.76 45.02 22.82 69.32 4.2 29.45 0.21 59.63-8.8699 87.82-1.4202 3.62-2.05 7.65-4.4302 10.82-4.8699-9.1001-9.7698-18.23-15.92-26.53-26.74-37.02-62.89-65.72-99.12-92.94-28.99-21.22-58.79-41.31-88.58-61.39-79.6-53.23-159.34-106.39-235.74-164.19-9.1901-6.37-17.83-13.49-26.72-20.27-36.89-28.22-72.82-57.65-108.19-87.75-22.24-18.72-43.9-38.1-65.36-57.71-5.52-5.55-11.77-10.28-17.46-15.63-12.62-12.75-26.39-24.35-38.66-37.45-0.0601-0.32-0.17-0.94-0.23-1.25 5.74-5.94 11.94-11.44 17.88-17.19 6.7002-6.01 12.61-12.84 19.62-18.5z" fill="#FEC3B1" stroke="#FEC3B1"/>
  <path d="m1081.2 1401.5c65.26-152.55 130.47-305.12 195.76-457.66-5.7001 18.25-12.56 36.15-18.7 54.28-6.59 18.99-13.4 37.9-19.84 56.94-0.71 0.15-1.39 0.3199-2.0599 0.52 0.35 0.0499 1.0499 0.1499 1.3999 0.2-1.73 6.88-4.58 13.42-6.74 20.18-41.1 117.37-82.15 234.75-123.24 352.12-8.8499-8.8801-17.71-17.73-26.58-26.58z" fill="#fff" stroke="#fff"/>
  <path d="m766.52 1028.6c40.9-22.18 85.65-36.54 131.17-45.63 4.6 25.79 8.93 51.64 13.23 77.48-43.78 3.39-86.78 15.82-125.78 35.95-34.94 17.91-66.69 41.64-95.09 68.67-47.07 44.81-85.18 98.17-117.84 154.14 7.46-40.79 19.28-80.89 36.3-118.74 16.13-35.7 37.32-69.22 63.67-98.27 26.87-29.76 59.07-54.59 94.34-73.6z" fill="#fff" stroke="#fff"/>
  <path d="m1583.1 1016.9c56.41 52.04 113.68 103.18 173.06 151.83 49.14 40.33 99.57 79.13 151.96 115.15 45.77 31.33 93.05 60.64 142.81 85.24 28.95 14.3 58.8 26.93 89.66 36.51-14.07-0.9301-27.95-3.72-41.77-6.4-56.39-11.67-110.27-33.64-160.53-61.5-53.65-29.77-103.41-66.14-150.03-105.93-58.11-49.7-111.42-104.78-161.52-162.47-14.75-17.31-29.72-34.45-43.64-52.43z" fill="#330099" stroke="#330099"/>
  <path d="m1463.1 1027.9c40.23 33.85 80.15 68.1 120.22 102.17 18.76 161.51 50.81 321.26 90.81 478.79 28.05 109.42 60.18 217.82 97.29 324.53 15.61 44.57 31.84 88.95 49.61 132.72-25.41 24.32-52.28 47.67-83.03 65.04-16.93 9.25-35.62 17.01-55.25 16.44-31.56-101.03-58.71-203.4-82.57-306.5-61.94-268.04-102.66-540.43-137.08-813.19z" fill="#fff" stroke="#fff"/>
  <path d="m2180.2 1076.6c0.0701 0.05 0.21 0.17 0.28 0.22-0.0701-0.05-0.21-0.17-0.28-0.22z" fill="#ABA7F4" stroke="#ABA7F4"/>
  <path d="m2355 1302.8l1-0.36c6.6799 17.96 11.09 36.7 14.29 55.57 0.26 5.1 1.2998 10.11 2.1499 15.15-0.05 8.9299 1.1399 17.84 0.71 26.78-0.4399 6 0.28 12.01-0.2 18.02-0.55 6.3501 0.03 12.83-1.74 19.04-2.53 23.81-8.76 47.07-16.86 69.57-3.0698 7.25-5.49 14.78-9.2 21.75 0-0.5801-0.01-1.76-0.02-2.3401 12.38-28.33 21.3-58.3 25.02-89.03 5.8202-45.09 0.0902-91.39-15.15-134.15z" fill="#FEC3B1" stroke="#FEC3B1"/>
  <path d="m781.41 1361.5c17.81-7.72 37.99-7 56.69-3.37 4.39 0.65 8.41 2.6 12.48 4.28 72.4 29.56 144.74 59.27 217.15 88.82 15.88 5.48 29.09 19.19 32.97 35.66 4.28 17.87-2.9399 37.28-16.29 49.52-8.91 8.11-21.1 13.54-33.29 12.12-62.09-20.7-124.11-41.64-186.18-62.42-4.62-1.34-9.05-3.77-13.97-3.62-4.95 0-10.19 0.23-14.44 3.09-2.1 3.91 0.2599 8.03 2.68 11.13 1.65 1.99 3.27 4.3 5.81 5.2101 62.67 24.02 125.3 48.16 187.95 72.22 8.13 2.55 14.09 9.67 17.53 17.21 9.9301 22.94-1.9 52.37-24.47 62.78-9.88 4.61-21.45 5.3199-31.94 2.52-58.39-19.51-116.76-39.1-175.14-58.64-3.79-1.13-7.96-0.09-11.4 1.63-4.08 1.9301-6.72 6.9399-5 11.33 1.73 4.75 6.25 7.92 10.83 9.65 53.2 20.15 106.38 40.37 159.56 60.56 5.26 2.1699 11.03 3.47 15.55 7.14 8.62 6.1799 14.52 16.11 15.44 26.72 1.56 18.01-7.88 36.09-22.56 46.32-9.82 6.9301-23.13 9.49-34.47 4.9501-52.93-19.87-105.9-39.63-158.83-59.49-5.61-1.8501-11.05-4.9901-17.12-4.7101-2.96 0.0701-6.49 1.54-7.06 4.79-0.53 5.59 4.21 10.16 8.87 12.4 49.08 19.87 98.12 39.85 147.2 59.72 14.9 5.51 28.31 19.28 28.07 36 0.1299 13.96-8.1201 26.85-19.11 34.95-10.98 8.3-25.26 11.93-38.88 10.28-7.4-0.6-14.19-3.79-21.2-5.95-45.18-15.22-90.37-30.41-135.54-45.63-22.93-7.86-46.03-15.26-68.86-23.34-14.04-11.95-26.15-27.14-31.19-45.13-4.16-14.37-2.19-30.45 5.9-43.1 8.5-13.38 21.91-23.01 36.29-29.26-6.84-20.72-12.56-42.84-8.6-64.74 2.58-14.69 11.23-28.2 23.73-36.39 4.69-3.38 10.03-5.59 15.18-8.13-7.86-15.01-14.32-31.4-14.32-48.58-0.05-11.8 4.09-23.64 11.97-32.49 11.12-12.81 27.11-20.05 42.98-25.09-2.53-19.47-2.86-39.97 4.46-58.51 5.4298-14.23 16.44-26.46 30.57-32.41z" fill="#fff" stroke="#fff"/>
  <path d="m498.53 1380.6c15.47-11.6 34.23-18.43 53.39-20.51 23.25-2.6101 46.74 0.9399 69.18 7.0499 29.21 8.02 56.9 20.64 83.7 34.6-0.52 11.07-1.43 22.12-2.12 33.18-18.97-11.62-39.38-21.02-60.79-27.14-43.5-12.66-90.21-11.28-133.89-0.22-15.06 3.64-29.75 8.65-44.28 13.99 8.7-15.77 20.31-30.15 34.81-40.95z" fill="#fff" stroke="#fff"/>
  <path d="m491.14 1494.5c57.46-5.63 115.56 4.8101 169.59 24.33 1.36 9.9301 3.04 19.83 4.17 29.8-17.23 8.6-32.67 22.92-38.33 41.79-6.25 20.42-1.47 42.2 5.76 61.7-16.59 22.32-29.98 47.68-34.72 75.34-43.88 12.62-89.1 20.53-134.65 23.69-35.6 2.6799-71.37 2.25-106.99 0.1799 33.77 22.56 72.96 37.48 113.56 40.82 35.51 3.23 71.41-1.92 105.41-12.26 8.17-2.35 16.06-5.58 24.19-8.02 2.21 10.14 6.1 19.81 10.55 29.15-43.74 13.65-88.79 23.85-134.6 26.87-26.78 1.66-53.87 0.84-80.22-4.51-31.17-6.3-61.79-19.95-83.87-43.37-6.66-7.1-12.87-14.79-17.47-23.37-5.65-44.69-2.99-91.33 13.68-133.55 13.29-34.09 36.31-64.4 65.99-85.87 34.21-25.17 75.96-38.56 117.95-42.72m11.99 61.16c-44.64 4.11-88.67 14.54-130.64 30.17-19.22 14.97-35.48 35.2-41.26 59.26-5.38 22.72-0.64 46.7 9.18 67.54 0.68 1.9 2.79 2.35 4.57 2.58 38.29 4.52 77.02 1.65 115.05-3.8899 42.59-6.4 84.54-16.5 125.87-28.54 2.43-0.1801 2.0699-2.99 2.45-4.7001 0.9-8.61 4.23-17.04 10.16-23.42 3.55-3.24 7.91-5.4 12.46-6.85-6.06-8.9601-9.81-19.86-7.98-30.75 3.25-19.55 13.67-37.29 15.3-57.2-0.42-1.0399-1.18-1.5499-2.27-1.53-37.37-5.0999-75.33-6.3099-112.89-2.6699z" fill="#fff" stroke="#fff"/>
  <path d="m503.13 1555.6c37.56-3.64 75.52-2.4301 112.89 2.6699 1.09-0.0199 1.85 0.4901 2.27 1.53-1.63 19.91-12.05 37.65-15.3 57.2-1.83 10.89 1.92 21.79 7.98 30.75-4.55 1.45-8.91 3.61-12.46 6.85-5.93 6.38-9.26 14.81-10.16 23.42-0.38 1.7101-0.02 4.52-2.45 4.7001-41.33 12.04-83.28 22.14-125.87 28.54-38.03 5.5399-76.76 8.4099-115.05 3.8899-1.78-0.23-3.89-0.6799-4.57-2.58-9.82-20.84-14.56-44.82-9.18-67.54 5.78-24.06 22.04-44.29 41.26-59.26 41.97-15.63 86-26.06 130.64-30.17z" fill="#FEC3B1" stroke="#FEC3B1"/>
  <path d="m2309.1 1571.3c0.0698-0.0599 0.2-0.1699 0.27-0.23-0.0701 0.06-0.2002 0.17-0.27 0.23z" fill="#ABA7F4" stroke="#ABA7F4"/>
  <path d="m2104.4 1628.2c2.21 0.11 4.51 0.3199 6.6602 1.08 4.1199 1.49 8.6299 0.65 12.86 1.78 5.49 1.55 11.22 1.09 16.87 1.33-8.1902 44.25-19.96 87.81-33.96 130.57-10.01 30.32-21.46 60.16-34.14 89.46-0.5801 1.3101-1.3201 2.52-2.22 3.65-0.49-7.0699-0.3799-14.23 1.0801-21.18 0.8699-4.2699 0.6199-8.6299 0.8499-12.93 0.1401-3.76 1.9302-7.25 1.8501-11.02 0.1499-3.4-0.3401-6.92 0.8101-10.17 2.3198-5.72 0.21-12.11 2.2998-17.88 1.51-4.1599 0.3901-8.72 1.8101-12.9 1.72-4.5801 0.45-9.64 2.1501-14.2 1.6799-4.26 0.24-9.09 2.45-13.19 0.78-4.75 0.52-9.6801 2.1399-14.31 0.26-6.51 2.6201-12.61 2.9202-19.1 2.3098-4.53 0.5498-9.8199 2.74-14.32 1.1499-3.2201 0.46-6.8201 1.7998-10 1.3201-3.25 0.5-6.9301 1.9502-10.13 1.46-3.4701 0.48-7.4401 2.0698-10.87 1.3501-3.25 0.48-6.92 1.8201-10.14 1.27-2.8 0.97-5.92 1.3899-8.88 2.0598-5.3602 2.0298-11.19 3.7998-16.65z" fill="#ff6633" stroke="#ff6633"/>
  <path d="m1060.6 1783.6c11.32-20.88 15.82-44.51 20.57-67.53 68.92 179.83 138.08 359.57 207 539.4-35.72-8.1101-71.41-16.36-107.08-24.69-23.72-48.64-46.18-97.9-67.3-147.73-25.93-61.63-49.69-124.23-69.33-188.16-9.28-30.51-17.82-61.27-24.65-92.41 6.55 2.71 14.1 3.79 20.86 1.13 9.0901-3.5602 15.28-11.77 19.93-20.01z" fill="#fff" stroke="#fff"/>
  <path d="m816.75 1897.6c0.82 0.0599 2.47 0.1599 3.3 0.21 1.72 0.64 3.58 0.79 5.42 0.88l-0.07 0.8099c2.71 0.27 5.37 0.92 8.1 1.15l0.02 0.8c8.25 0.9399 16.37 2.97 24.48 4.77 1.79 0.1599 3.6 0.2899 5.43 0.37l0.11 0.87c3.55 0 7.01 0.96 10.55 1.3099 4.34 1.12 8.89 1.71 13.39 1.8301l0.02 0.8999c7.21 0.15 14.29 1.75 21.42 2.6801 3.48 0.33 6.99 0.46 10.5 0.52v0.9199c2.67-0.23 5.34 0.15 7.88 1.0801 0.41 1.25 0.86 2.52 1.31 3.8099l0.78-0.02c0.39 0.92 0.78 1.8601 1.2 2.8301 1.69 2.1799 2.98 4.65 4.09 7.2l0.58 0.0701c0.9 2.4099 2.74 4.38 3.44 6.9099l0.63 0.04c1.41 3.4301 3.81 6.3199 5.41 9.67 1.54 2.2799 2.99 4.6499 3.95 7.2699l0.74 0.02c0.36 1.01 0.74 2.05 1.13 3.1001l0.7 0.0599c0.94 2.37 2.4 4.49 3.43 6.84l0.56 0.13c0.94 2.38 2.66 4.38 3.46 6.85l0.65 0.0601c0.77 2.45 2.66 4.38 3.34 6.9l0.77 0.03c0.34 1.0199 0.7 2.0499 1.0601 3.11l0.71 0.0699c0.98 2.35 2.58 4.4 3.47 6.83l0.66 0.0701c0.38 0.9 0.79 1.8099 1.22 2.74 0.99 1.2 1.71 2.59 2.12 4.14l0.7599 0.0599c0.35 1 0.72 2.03 1.09 3.0801l0.73 0.0499c0.72 2.4801 2.61 4.38 3.43 6.8501l0.58 0.12c1.07 2.2999 2.56 4.3999 3.43 6.8199l0.74 0.0699c0.35 1.02 0.71 2.05 1.09 3.1101l0.77 0.0199c0.68 2.4701 2.54 4.41 3.41 6.8401l0.57 0.12c1 2.33 2.43 4.46 3.47 6.7999l0.67 0.14c0.36 1 0.73 2.04 1.11 3.0901l0.8-0.04c0.38 2.63 2.81 4.34 3.26 6.97l0.65 0.05c1.12 2.2899 2.58 4.4299 3.45 6.87l0.72 0.0499c0.36 1.01 0.73 2.04 1.11 3.1001l0.69 0.0999c0.94 2.3601 2.56 4.3801 3.46 6.79l0.59 0.1301c0.72 2.47 2.72 4.3198 3.4 6.8398l0.76 0.03c0.37 0.8801 0.76 1.78 1.16 2.7 1.55 2.3301 2.95 4.77 4.09 7.3401l0.59 0.0801c0.77 2.47 2.75 4.3699 3.38 6.9099l0.79-0.04c0.33 1.01 0.68 2.05 1.04 3.1201l0.84 0.05c0.42 1.24 0.88 2.5 1.3301 3.7898l0.7999 0.0701c0.35 0.99 0.7101 2.01 1.0801 3.05l0.72 0.0801c0.87 2.3098 2.29 4.3699 3.59 6.5 0.64 1.0999 1.23 2.21 1.8101 3.4099l0.6499 0.1299c0.4301 1.2202 0.88 2.4602 1.3301 3.74l0.77 0.0801c0.37 0.9102 0.7799 1.8201 1.21 2.76 0.55 0.8101 1.11 1.6599 1.6801 2.53 0.8899 1.49 1.72 3.04 2.3899 4.6899l0.6101 0.0801c0.46 1.21 1.1299 2.3501 1.9399 3.4399 0.5 1.0901 1 2.24 1.48 3.4102l0.74 0.0798c0.3401 1.01 0.7001 2.04 1.0701 3.0801l0.77 0.03c0.6499 2.51 2.6299 4.3799 3.3999 6.8699l0.5901 0.1401c1.0499 2.3 2.4099 4.45 3.47 6.77l0.6899 0.1399c0.3501 0.99 0.7201 2.01 1.1001 3.0601l0.7 0.0999c0.9399 2.28 2.24 4.4001 3.46 6.5801 1.0701 1.6001 2.1 3.24 3.0801 4.9399 0.23 0.5701 0.6799 1.6902 0.8999 2.26l0.7301 0.0701c0.37 0.99 0.74 2 1.1399 3.03l0.7001 0.0801c0.88 2.4099 2.48 4.47 3.41 6.8899l0.61 0.0901c0.75 2.45 2.6799 4.3298 3.4399 6.8198l0.67 0.1001c0.39 0.9099 0.7899 1.8601 1.21 2.8201 1.62 2.23 2.99 4.6299 4.08 7.1899l0.66 0.03c0.75 2.6499 2.51 4.8201 3.91 7.1699 1.59 3.29 3.95 6.1401 5.4399 9.5 1.5901 2.23 2.9601 4.6401 4.04 7.1899l0.58 0.1201c0.9401 2.5901 2.51 4.8999 4.0701 7.1899 0.39 0.9001 0.7999 1.8201 1.22 2.78l0.65 0.1001c1.41 2.7998 3.78 6.21 1.46 9.28-0.74 4.9399-2.84 9.5698-3.3099 14.56l-0.78 0.1702c-0.39 2.8398-0.73 5.74-1.8199 8.4399-0.3601 1.24-0.65 2.5701-1.04 3.8599-0.14 1.1702-0.26 2.3701-0.35 3.6001l-0.8301-0.02c-1.08 7.4399-3.61 14.61-5.1699 21.97-1.1001 3.1001-1.24 6.51-2.65 9.51-0.5701 4.3901-2.02 8.5901-2.91 12.92-0.95 3.8301-2.3199 7.6101-2.4399 11.62l-0.8101 0.01c-0.09 1.48-0.29 3-0.7999 4.45-0.14 1.1301-0.25 2.29-0.3301 3.48l-0.87 0.1301c-0.14 2.99-1.0599 5.8799-1.23 8.8899l-1.03 0.0701c0.09 0.54 0.26 1.6299 0.34 2.1799-3.3799 0.5801-5.99-1.8599-9.1499-2.3699l-0.04-0.74c-3.1899-0.53-5.8-2.6902-8.97-3.23l-0.04-0.78c-3.15-0.6101-5.78-2.6702-8.95-3.22l-0.03-0.8101c-1.36-0.3301-2.7-0.73-4.02-1.0801l-0.04-0.8401c-1.6499-0.4099-3.2699-0.8799-4.88-1.2998l-0.0699-0.8301c-1.36-0.3701-2.6899-0.74-4.02-1.03l-0.03-0.79c-3.1699-0.5999-5.75-2.73-8.8899-3.3398l-0.05-1.0901c-0.45 0.0801-1.36 0.25-1.8201 0.3301l-0.34-1.1902c-0.45 0.0801-1.37 0.24-1.83 0.3201l-0.02-1.04c-3.19-0.55-5.77-2.73-8.92-3.3899l-0.1-0.76c-1.34-0.3801-2.65-0.77-3.96-1.1101l-0.01-0.8499c-1.37-0.3501-2.71-0.75-4.03-1.0801l-0.06-0.79c-3.14-0.6299-5.67-2.8-8.8-3.4099l-0.07-0.8101c-1.33-0.3999-2.64-0.8-3.95-1.1399l-0.09-0.8c-1.34-0.4199-2.66-0.8101-3.98-1.1101l-0.02-1.1199c-0.38 0.04-1.16 0.1199-1.54 0.1699-0.61-0.26-1.84-0.77-2.45-1.03l-0.02-0.8499c-1.35-0.3901-2.67-0.79-3.98-1.1301l-0.09-0.8201c-1.32-0.4299-2.63-0.8499-3.93-1.1799l-0.07-0.8101c-1.35-0.3999-2.67-0.8298-3.98-1.2l-0.04-0.77c-1.59-0.3599-3.11-0.9199-4.37-1.9099-1.2-0.51-2.38-0.97-3.55-1.4001l-0.09-0.6699c-2.8-0.73-5.26-2.28-7.89-3.3699l-0.07-0.7002c-1.33-0.3899-2.64-0.7998-3.94-1.1799l-0.09-0.8201c-1.31-0.4299-2.61-0.8499-3.91-1.1899l-0.06-0.8201c-0.6-0.2698-1.79-0.8098-2.38-1.0798-0.39 0.03-1.17 0.0999-1.56 0.1399l0.01-1.0898c-0.61-0.27-1.83-0.79-2.43-1.05-0.39 0.02-1.18 0.0798-1.57 0.1099l0.03-1.0999c-1.36-0.3901-2.69-0.8-4-1.1501l-0.03-0.78c-3.9-1.2698-7.16-3.96-11.05-5.2598l-0.01-0.76c-1.33-0.4302-2.63-0.8501-3.94-1.2002l-0.03-0.77c-1.22-0.4199-2.4-0.9099-3.55-1.3899-2.35-1.5601-4.84-2.8701-7.43-3.9199l-0.05-0.7002c-1.32-0.4099-2.63-0.8398-3.92-1.21l-0.03-0.73c-2.4-1.01-4.63-2.3499-7.01-3.3599l-0.1-0.6802c-1.28-0.45-2.55-0.9099-3.82-1.2898l-0.07-0.6702c-2.33-1.1399-4.52-2.54-6.96-3.3899l-0.04-0.6501c-1.48-0.5398-2.92-1.1399-4.21-1.99-0.94-0.48-1.87-0.9199-2.8-1.3198l-0.03-0.6501c-2.47-0.8298-4.52-2.51-6.94-3.3899l-0.07-0.6001c-2.45-0.8599-4.52-2.5-6.93-3.3999l-0.07-0.6001c-2.62-0.98-5.01-2.45-7.23-4.0898-0.93-0.4402-1.85-0.8301-2.77-1.1802l-0.1-0.7c-1.45-0.48-2.81-1.1399-4.02-2.01-1.08-0.6799-2.16-1.3-3.19-1.96-2.29-1-4.1-2.8801-6.57-3.45l-0.04-0.6501c-1.22-0.49-2.33-1.1599-3.35-1.9099-3.34-1.96-6.68-3.9199-9.84-6.1299-0.95-0.4502-1.89-0.8701-2.82-1.26l-0.08-0.6201c-1.17-0.5701-2.28-1.22-3.33-1.8999-4.35-2.6602-8.59-5.48-12.94-8.1001-0.96-0.71-1.92-1.3999-2.86-2.04-1.86-1.25-3.77-2.4199-5.75-3.4099l-0.09-0.6201c-0.9-0.47-1.8-0.8999-2.6899-1.3098-1.1801-0.9302-2.38-1.8101-3.57-2.6602-0.82-0.48-1.61-0.95-2.39-1.3999-1.01-0.8601-2.14-1.48-3.29-2.02l-0.01-0.6501c-0.93-0.45-1.85-0.8699-2.76-1.2798-1.13-0.9302-2.27-1.8201-3.42-2.6501-3.05-1.8799-5.95-3.97-8.89-5.97-3.7-2.72-7.6-5.1699-11.2-8.02-4.69-3-8.93-6.6199-13.59-9.6499-0.11-1.8701-0.21-3.75-0.25-5.5701l-0.92 0.04c-0.29-10.36-0.22-20.7 0.05-31.04l0.92 0.02c-0.01-3.1799-0.18-6.3899 0.68-9.46 0.09-6.27 2.31-12.27 2.4-18.53l0.83-0.0601c0.17-3.8398 0.72-7.6799 1.84-11.34 0.67-2.8301 1.2599-5.6802 1.38-8.5701l0.8199-0.0901c0.06-1.55 0.22-3.03 0.79-4.4399 0.11-1.21 0.21-2.3901 0.3-3.5601l0.85 0.05c0.3-2.7 0.85-5.3301 1.23-7.99l0.78-0.0701c0.27-2.6899 0.95-5.2899 1.27-7.9399l0.76-0.03c0.32-3.62 1.53-7.0599 2.57-10.51 0.23-1.1699 0.44-2.3199 0.64-3.45l0.78-0.0601c0.29-2.34 0.81-4.64 1.22-6.9299l0.75-0.05c0.36-2.34 0.9-4.62 1.3-6.9199l0.89-0.0801c0.03-0.64 0.1-1.9199 0.13-2.5599 0.36-1.38 0.87-2.66 1.54-3.87 0.72-3.1001 1.69-6.12 2.75-9.1001 0.25-1.1599 0.47-2.3099 0.67-3.4399l0.73-0.02c0.14-1.22 0.43-2.38 0.87-3.48 0.06-0.62 0.19-1.87 0.25-2.49l0.86-0.05c0.14-1.22 0.44-2.38 0.9-3.47 0.06-0.64 0.17-1.92 0.23-2.5601l0.8701 0.0901c0.19-1.23 0.48-2.4 0.87-3.53 0.07-0.62 0.22-1.87 0.29-2.49l0.84-0.02c0.2-1.2 0.49-2.35 0.87-3.46 0.08-0.63 0.22-1.89 0.3-2.52l0.88 0.01c0.18-1.1901 0.39-2.34 0.64-3.47 0.41-1 0.84-1.9701 1.28-2.92 0.27-1.04 0.55-2.05 0.86-3.04 0.53-1.4199 1.12-2.7999 1.7-4.1599 0.25-1.16 0.5-2.29 0.72-3.41l0.7599-0.0801c0.2-1.1499 0.44-2.2699 0.72-3.36 1.13-2.4199 1.98-4.95 2.52-7.5499l0.73-0.04c0.19-1.21 0.5-2.36 0.93-3.46 0.08-0.61 0.24-1.8401 0.31-2.4501l0.89-0.09c0.33-1.6899 0.75-3.35 1.11-5h0.79c0.1801-1.17 0.4301-2.3099 0.7401-3.41 0.58-1.3999 1.16-2.7799 1.79-4.13 0.34-1.13 0.59-2.2699 0.75-3.3999l0.81-0.04c0.34-1.6901 0.76-3.35 1.13-5l0.78-0.01c0.19-1.17 0.45-2.3101 0.77-3.42 0.76-1.63 1.42-3.2999 2.04-4.96 0.53-1.4301 1.1201-2.8199 1.71-4.1899 0.28-1.13 0.55-2.2401 0.81-3.3301l0.73-0.12c0.3892-1.6698 0.8692-3.3099 1.3392-4.9198z" fill="#ff6633" stroke="#ff6633"/>
  <path d="m653.7 1926.6c1.97-3.3101 3.67-6.86 6.29-9.72 3.72 1.5499 6.55 4.74 9.95 6.9199 26.24 19.76 52.59 39.39 78.79 59.22-15.13 35.34-27.5 71.83-37.41 108.97-18.84 69.95-28.66 141.85-42.12 212.93-10.08 53.84-22.83 107.3-40.81 159.09-22.53 65.82-53.34 128.6-89.43 188 8.23-7.79 15.44-16.59 23.23-24.82 55.11-61.38 106.79-126.42 148.02-198.06 26.25-46.11 48.26-95.17 59.77-147.16 2.94-13.6 5.28-27.35 6.46-41.22 19.82 16.27 39.74 32.49 60.85 47.1 81.55 57.79 174.1 99.51 270.7 124.77-32.25 75.76-70.51 149.02-115.06 218.29-43.24 67.11-92.59 130.38-148.26 187.63-51.95 53.49-109.42 101.67-171.68 142.73-68.07 44.95-141.83 81.3-219.05 107.59-119.85 41.09-247.52 57.62-373.94 52.79 31.38-77.38 60.89-155.52 88.4-234.36 29.64-85.21 56.9-171.27 80.68-258.3 22.12-81.37 41.47-163.58 55.3-246.79 2.44-13.14 3.81-26.48 6.35-39.59 23.23 49.59 42.9 101.08 55.44 154.46 13.47 57.09 17.93 116.5 10.98 174.82-5.26 45.68-17.23 90.46-34.05 133.21-8.73 22.43-19.07 44.18-29.97 65.63 50.56-59.56 89.45-128.08 121.71-198.98 38.65-85.62 67.81-175.2 92.58-265.72 27.73-100.82 49.22-203.19 72.56-305.08 9.64-41.2 19.35-82.44 32.4-122.72 5.89-17.67 12.3-35.28 21.32-51.63m35.41 42.06c-37.18 113.97-61.73 231.49-87.87 348.34-23.4 104.19-48.39 208.58-87.91 308.03-1.33 4.01-3.77 7.6799-4.19 11.97 10.21-12.2 20.27-24.55 29.12-37.8 39.27-57.84 63.93-124.09 83.16-190.9 17.55-61.7 30.64-124.54 43.64-187.32 15.28-72.93 30.05-146.17 52.65-217.28 0.86-1.9-1.16-3.09-2.11-4.37-6.46-7.45-12.76-15.05-19.12-22.58-2.39-2.7701-4.24-6.0801-7.37-8.0901m97.17 363.31c-2.71 10.27-4.64 20.74-7.3101 31.03-21.22 86.63-53.36 170.62-96.08 248.94-37.05 68.33-82.12 132.22-133.06 190.89-89.7 103.11-197.17 189.77-312.9 262.01 6.15-0.49 12.03-2.5098 18.04-3.75 64.82-15.85 128.71-35.65 190.68-60.45 73.49-29.35 144.27-65.76 209.9-110.03 62.9-42.38 120.97-92.02 172.01-148.14 50.77-55.45 94.32-117.34 130.81-183.04 19.71-36.23 37.84-73.39 53.16-111.69-16.85 1.01-33.87 0.3401-50.42-3.1699-23.81-4.8501-46.61-14.05-67.77-25.91-40.35-22.51-75.14-53.59-107.06-86.69z" fill="#fff" stroke="#fff"/>
  <path d="m689.11 1968.7c3.13 2.01 4.98 5.3201 7.37 8.0901 6.36 7.5299 12.66 15.13 19.12 22.58 0.95 1.28 2.97 2.47 2.11 4.37-22.6 71.11-37.37 144.35-52.65 217.28-13 62.78-26.09 125.62-43.64 187.32-19.23 66.81-43.89 133.06-83.16 190.9-8.85 13.25-18.91 25.6-29.12 37.8 0.42-4.29 2.86-7.96 4.19-11.97 39.52-99.45 64.51-203.84 87.91-308.03 26.14-116.85 50.69-234.37 87.87-348.34z" fill="#ABA7F4" stroke="#ABA7F4"/>
  <path d="m269.55 2100.8l0.44-1c-1.61 18.34-4.22 36.58-6.39 54.86-1.84-8.27 1.95-16.46 1.79-24.75-0.02-4.74 1.63-9.27 1.85-13.97 0.2-5.0998 0.67-10.31 2.31-15.14z" fill="#FEC3B1" stroke="#FEC3B1"/>
  <path d="m1891.1 2136.3c0.05-0.05 0.15-0.1602 0.1901-0.22-0.0401 0.0598-0.1401 0.1699-0.1901 0.22z" fill="#ABA7F4" stroke="#ABA7F4"/>
  <path d="m262 2156.1c0.39-0.27 1.17-0.8301 1.56-1.1101-4.3 34.63-8.97 69.21-14.02 103.73-1.67-7.3298 1.79-14.45 1.84-21.74 0.27-4.3699 1.79-8.5601 1.92-12.93 0.08-4.79 1.9-9.3201 1.96-14.1 0.07-3.6699 0.94-7.23 1.59-10.81 0.82-4.2302 0.15-8.6301 1.56-12.74 1.51-5.01 0.49-10.35 1.96-15.35 1.4-4.8902 0.74-10.01 1.63-14.95z" fill="#FEC3B1" stroke="#FEC3B1"/>
  <path d="m1829.1 2200.4c0.0701-0.0601 0.21-0.1902 0.28-0.25-0.0701 0.0598-0.2099 0.19-0.28 0.25z" fill="#ABA7F4" stroke="#ABA7F4"/>
  <path d="m1825.1 2204.2c0.0499-0.05 0.1499-0.1399 0.2-0.1899-0.0501 0.05-0.1501 0.1398-0.2 0.1899z" fill="#FEC3B1" stroke="#FEC3B1"/>
  <path d="m1769.2 2253.3c0.0399-0.04 0.13-0.1101 0.1699-0.1501-0.0399 0.04-0.13 0.11-0.1699 0.1501z" fill="#ABA7F4" stroke="#ABA7F4"/>
  <path d="m247.44 2264c0.23-1.8301-0.14-4.3301 2.06-5.03-4.33 30.28-8.99 60.51-13.89 90.71-0.96-4.3098-0.15-8.71 0.88-12.91 1.48-9.26 2.63-18.58 4.55-27.75 0.42-3.25 0.18-6.5701 1.26-9.6799 1.43-4.3401 0.68-9.01 2.07-13.34 1.21-4.23 0.72-8.7 1.89-12.93 0.73-2.9801 1.02-6.0402 1.18-9.0702z" fill="#FEC3B1" stroke="#FEC3B1"/>
  <path d="m786.28 2332c31.92 33.1 66.71 64.18 107.06 86.69 21.16 11.86 43.96 21.06 67.77 25.91 16.55 3.51 33.57 4.1799 50.42 3.1699-15.32 38.3-33.45 75.46-53.16 111.69-36.49 65.7-80.04 127.59-130.81 183.04-51.04 56.12-109.11 105.76-172.01 148.14-65.63 44.27-136.41 80.68-209.9 110.03-61.97 24.8-125.86 44.6-190.68 60.45-6.01 1.2402-11.89 3.26-18.04 3.75 115.73-72.24 223.2-158.9 312.9-262.01 50.94-58.67 96.01-122.56 133.06-190.89 42.72-78.32 74.86-162.31 96.08-248.94 2.67-10.29 4.6-20.76 7.31-31.03z" fill="#ABA7F4" stroke="#ABA7F4"/>
  <path d="m229.16 2381.9c0.78-2.6099-0.71-6.73 2.45-7.9199-5.04 29.97-10.16 59.94-15.89 89.79l-0.58 0.97c-0.04-3.6001 0.13-7.2 1.12-10.65 4.58-24.04 8.55-48.12 12.9-72.19z" fill="#FEC3B1" stroke="#FEC3B1"/>
  <path d="m213.17 2472c0.23-2.45 0.42-4.9199 1.45-7.1599 0.84 2.4099-0.05 4.8398-0.46 7.25-6.29 34.98-13.27 69.85-20.49 104.65-1.33-4 0.6-7.8799 1.28-11.76 3.63-19.04 7.95-37.96 11.19-57.06 2.73-11.91 4.4-24.03 7.03-35.92z" fill="#FEC3B1" stroke="#FEC3B1"/>
  <path d="m1078.6 2588.6c0.2599-0.45 0.7899-1.3599 1.0499-1.8098l0.42 0.8499-0.54 0.9402-0.9299 0.0197z" fill="#ABA7F4" stroke="#ABA7F4"/>
  <path d="m179.9 2635c0.4-0.26 1.2-0.76 1.6-1.01-14.67 66.83-30.57 133.4-47.88 199.6-0.97-4.2302 1.01-8.25 1.98-12.24 15.69-61.89 31.05-123.91 44.3-186.35z" fill="#FEC3B1" stroke="#FEC3B1"/>
  <path d="m987.15 2729.3c0.04-0.04 0.1-0.1301 0.14-0.1802-0.04 0.0501-0.1 0.1401-0.14 0.1802z" fill="#ABA7F4" stroke="#ABA7F4"/>
  <path d="m861.21 2871.4c0.06-0.05 0.18-0.1599 0.23-0.21-0.05 0.05-0.17 0.1599-0.23 0.21z" fill="#ABA7F4" stroke="#ABA7F4"/>
  <path d="m859.16 2873.3c0.05-0.04 0.14-0.1201 0.1801-0.1602-0.0401 0.0401-0.1301 0.1202-0.1801 0.1602z" fill="#ABA7F4" stroke="#ABA7F4"/>
  <path d="m855.02 2877.1c0.04-0.04 0.13-0.1201 0.17-0.1602-0.04 0.0401-0.13 0.1201-0.17 0.1602z" fill="#FEC3B1" stroke="#FEC3B1"/>
  <path d="m809.17 2917.3c0.05-0.04 0.13-0.1101 0.18-0.1401-0.05 0.03-0.13 0.1-0.18 0.1401z" fill="#ABA7F4" stroke="#ABA7F4"/>
  <path d="m94.16 2971.8l1.26 0.4099c-6.92 23.8-13.99 47.55-21.31 71.24-1.1-3.6199 1.04-7.04 1.94-10.42 6.14-20.38 12.52-40.7 18.11-61.23z" fill="#FEC3B1" stroke="#FEC3B1"/>
  <path d="m650.88 3023.5c0.34-0.1899 1.02-0.5701 1.36-0.75l0.48 0.6401-0.41 0.7798c-0.35-0.1699-1.07-0.5-1.43-0.6699z" fill="#ABA7F4" stroke="#ABA7F4"/>
  <path d="m439.44 3107.8c26.33-7.3201 52.42-15.53 78.13-24.83 0.05 1.79-2.12 1.8201-3.28 2.52-21.59 7.6301-43.45 14.47-65.39 21-3.1 0.6702-6.27 2.5501-9.46 1.3101z" fill="#FEC3B1" stroke="#FEC3B1"/>
  <path d="m117.27 3151.2c84.8-1.3699 169.66-9.3101 252.74-26.74-0.64 2.6401-4 1.6699-5.95 2.3701-5.76 1.45-11.64 2.3398-17.45 3.5898-5.34 0.0901-10.25 2.55-15.62 2.4001-10.9 2.6799-22.1 3.6499-33.11 5.6799-5.76-0.22-11.16 2.1699-16.89 2.1399-4.4 0.0901-8.55 1.98-12.97 1.8601-5.32-0.1201-10.45 1.53-15.72 1.8999-4.76 0.3101-9.55 0.46-14.25 1.3701-7.25 1.49-14.75 0.3799-22 1.9299-6.25 1.4001-12.7 0.5901-19.04 1.2-6.68 0.1401-13.23 1.72-19.92 1.6702-12.02 0.1799-24.11 0.0999-36.03 1.8298-28 0.21-55.99 0.1101-83.99 0.05-5.17 0.1401-10.24-1.1299-15.41-1.1599-0.22-0.26-0.67-0.79-0.89-1.0601 12.65 0.1299 25.28 0.96 37.93 0.98 12.84 0.5202 25.73 0.4702 38.57-0.0098z" fill="#FEC3B1" stroke="#FEC3B1"/>
  <path d="m78.7 3151.2c12.86-0.1299 25.71-0.1399 38.57-0.01-12.84 0.48-25.73 0.53-38.57 0.01z" fill="#ABA7F4" stroke="#ABA7F4"/>
 </g>
</svg>
