<?xml version="1.0" encoding="UTF-8"?>
<svg viewBox="0 0 744.09448819 1052.3622047" xmlns="http://www.w3.org/2000/svg" xmlns:xlink="http://www.w3.org/1999/xlink">
 <defs>
  <linearGradient id="b">
   <stop stop-color="#fff" offset="0"/>
   <stop stop-color="#fff" stop-opacity="0" offset="1"/>
  </linearGradient>
  <linearGradient id="a">
   <stop offset="0"/>
   <stop stop-opacity="0" offset="1"/>
  </linearGradient>
  <linearGradient id="c">
   <stop stop-color="#babdb6" offset="0"/>
   <stop stop-color="#babdb6" stop-opacity="0" offset="1"/>
  </linearGradient>
  <linearGradient id="e">
   <stop stop-color="#eeeeec" offset="0"/>
   <stop stop-color="#eeeeec" stop-opacity="0" offset="1"/>
  </linearGradient>
  <linearGradient id="l">
   <stop stop-color="#ff6633" offset="0"/>
   <stop stop-color="#ff6633" stop-opacity="0" offset="1"/>
  </linearGradient>
  <linearGradient id="ai" x2="0" y1="610.51" y2="629.95" gradientUnits="userSpaceOnUse" xlink:href="#b"/>
  <linearGradient id="ah" x1="350.03" x2="359.31" y1="587.4" y2="625.33" gradientUnits="userSpaceOnUse" xlink:href="#a"/>
  <linearGradient id="ag" x2="0" y1="583.1" y2="613.69" gradientUnits="userSpaceOnUse" xlink:href="#l"/>
  <linearGradient id="af" x1="354" x2="415" gradientTransform="matrix(.63438 .36626 -.36626 .63438 301.19 15.668)" gradientUnits="userSpaceOnUse" xlink:href="#e"/>
  <linearGradient id="ae" x1="470.45" x2="449.55" y1="514.96" y2="551.15" gradientTransform="matrix(.63001 -.38652 .36374 .66946 -96.63 322.21)" gradientUnits="userSpaceOnUse" xlink:href="#e"/>
  <linearGradient id="ad" x1="375.22" x2="375.22" y1="624.67" y2="527.41" gradientUnits="userSpaceOnUse" xlink:href="#a"/>
  <linearGradient id="ac" x2="0" y1="572.28" y2="647.27" gradientUnits="userSpaceOnUse" xlink:href="#l"/>
  <linearGradient id="ab" x1="458.21" x2="478.14" y1="632.41" y2="583.71" gradientTransform="matrix(.63666 0 0 -.50152 78.303 856.93)" gradientUnits="userSpaceOnUse" xlink:href="#a"/>
  <linearGradient id="aa" x1="277.96" x2="333.74" y1="663.68" y2="567.07" gradientUnits="userSpaceOnUse" xlink:href="#a"/>
  <linearGradient id="z" x2="0" y1="696.75" y2="572.46" gradientUnits="userSpaceOnUse" xlink:href="#a"/>
  <linearGradient id="y" x1="458.48" x2="442.15" y1="540.62" y2="556.96" gradientUnits="userSpaceOnUse" xlink:href="#e"/>
  <linearGradient id="x" x1="351.08" x2="421.97" y1="598.21" y2="577.23" gradientUnits="userSpaceOnUse" xlink:href="#a"/>
  <linearGradient id="w" x1="418.75" x2="435.09" y1="671.07" y2="561.9" gradientUnits="userSpaceOnUse" xlink:href="#a"/>
  <linearGradient id="k" x2="0" y1="773.18" y2="466.98" gradientUnits="userSpaceOnUse" xlink:href="#a"/>
  <linearGradient id="v" x1="369.47" x2="249.6" gradientUnits="userSpaceOnUse" xlink:href="#a"/>
  <linearGradient id="d" x1="248" x2="328" gradientUnits="userSpaceOnUse" xlink:href="#a"/>
  <linearGradient id="j" x1="291.95" x2="272.33" y1="569.37" y2="681.15" gradientUnits="userSpaceOnUse" xlink:href="#c"/>
  <linearGradient id="u" x1="247.78" x2="305.95" y1="621.71" y2="626.58" gradientUnits="userSpaceOnUse" xlink:href="#c"/>
  <linearGradient id="t" x1="87.605" x2="226.07" gradientUnits="userSpaceOnUse" xlink:href="#c"/>
  <linearGradient id="s" x1="184.06" x2="331.62" y1="543.99" y2="556.88" gradientUnits="userSpaceOnUse" xlink:href="#a"/>
  <linearGradient id="r" x1="334.35" x2="284.99" y1="630.18" y2="651.85" gradientUnits="userSpaceOnUse" xlink:href="#c"/>
  <linearGradient id="i" x1="291.66" x2="287.48" y1="572.92" y2="622.83" gradientUnits="userSpaceOnUse" xlink:href="#c"/>
  <linearGradient id="h" x1="335.03" x2="510.06" gradientUnits="userSpaceOnUse" xlink:href="#b"/>
  <linearGradient id="g" x1="317.27" x2="621.48" gradientUnits="userSpaceOnUse" xlink:href="#b"/>
  <linearGradient id="f" x2="0" y1="691.13" y2="705.62" gradientUnits="userSpaceOnUse" xlink:href="#b"/>
  <linearGradient id="q" x2="0" y1="494.64" y2="529.11" gradientUnits="userSpaceOnUse" xlink:href="#b"/>
  <linearGradient id="p" x2="0" y1="492.76" y2="571.28" gradientUnits="userSpaceOnUse" xlink:href="#b"/>
  <linearGradient id="o" x2="0" y1="449.28" y2="502.32" gradientUnits="userSpaceOnUse" xlink:href="#e"/>
  <linearGradient id="n" x2="0" y1="492.76" y2="553.08" gradientUnits="userSpaceOnUse" xlink:href="#b"/>
  <radialGradient id="m" cx="363.91" cy="554.75" r="388.29" fx="354.05" fy="280.99" gradientTransform="matrix(.92725 2.4803e-16 -2.4777e-16 .92627 26.475 40.905)" gradientUnits="userSpaceOnUse">
   <stop stop-color="#ff6633" offset="0"/>
   <stop stop-color="#ff6633" offset=".48571"/>
   <stop stop-color="#ff6633" stop-opacity="0" offset="1"/>
  </radialGradient>
 </defs>
 <path d="m119.84 390.62c0-78.01 82.013-141.32 183.07-141.32s183.07 63.312 183.07 141.32-82.013 141.32-183.07 141.32-183.07-63.312-183.07-141.32z" fill="#fff" fill-rule="evenodd"/>
 <path transform="matrix(.92978 0 0 .92978 25.537 15.343)" d="m695.21 743.02-206.79-105.58 182.49 154.53-184.69-131.61 147.75 161.55-165.5-151.22 129.34 186.35-143.35-179.27 114.13 208.7-126.52-202.21 75.657 217.66-104.76-200.52 60.57 224.61-74.989-219.82 29.433 228.8-49.505-225.58-4.814 227.45-9.8576-225.42-28.244 231.18 0.03701-233.01-47.345 226.58 35.602-233-87.23 212.25 62.652-221.57-104.64 200.73 86.675-208.94-130 189.84 123.95-202.37-161.59 165.78 140.44-169.31-178.44 147.23 168.1-166.59-200.61 126.56 189.93-146.57-213.45 104.08 206.41-122.18-217 81.468 203.27-99.003-224.16 42.207 229.43-53.906-235.26 14.347 224.5-37.45-231.2-13.444 233.93-10.635-222.68-34.106 222.36 17.812-211.21-63.582 216.41 51.596-205.64-105.69 211.75 79.989-185.56-127.23 193.68 117.54-169.61-158.09 182.25 141.32-158.19-166.25 175.93 154.47-139.78-191.06 153.78 170.88-114.11-193.02 139.38 181.53-85.876-215.91 102.12 218-57.923-229 74.989 216.92-29.419-224.77 49.491 224.44-8.2676-227.77 22.939 225.74 28.244-232.63-2.9126 232.71 50.005-219.65-38.032 230.75 89.876-216.64-65.312 211.74 104.42-191.19-96.894 210.69 140.44-198.23-121.29 197.66 158.95-161.4-137.79 176.56 178.44-147.23-170.76 158.2 190.19-117.04-179.49 138.19 213.45-90.99-203.77 103.25 214.35-61.086-203.29 81.877 228.5-33.902-220.67 60.146 229.16-12.197-231.5 22.205 225.1 15.593-227.81 8.1672 229.65 49.987-229.35-34.825 218.2 80.276-220.73-57.32 205.64 94.044-214.43-77.865 188.23 123.66z" fill="url(#m)" fill-rule="evenodd"/>
 <g transform="matrix(.6629 0 0 .6629 212.4 148.2)" fill-rule="evenodd">
  <path d="m224.56 424.36c44-8.6372 112.15-11.929 156.15-1.9203-41.255 53.868-50.622 142.19-26.265 244.92l-118.5 30-84.985-1.1213c-34-139.21 12.089-218.04 73.597-271.88z" fill="#555753"/>
  <path d="m224.56 424.36c44-8.6372 112.15-11.929 156.15-1.9203-41.255 53.868-50.622 142.19-26.265 244.92l-118.5 30-84.985-1.1213c-34-139.21 12.089-218.04 73.597-271.88z" fill="url(#k)"/>
  <path d="m296.2 416.96c30.919-3.3648 46.657-3.4946 85.354 4.4656-32.255 54.367-51.469 144.6-27.112 248.28l-123 29.269c-31.776-112.15-1.9579-221.31 64.758-282.01z" fill="#2e3436"/>
  <path d="m296.2 416.96c30.919-3.3648 46.657-3.4946 85.354 4.4656-32.255 54.367-51.469 144.6-27.112 248.28l-123 29.269c-31.776-112.15-1.9579-221.31 64.758-282.01z" fill="url(#v)"/>
  <path transform="matrix(.89814 -.080234 .07516 .95878 -18.48 35.781)" d="m328 622.86a40 59.5 0 1 1 -80 0 40 59.5 0 1 1 80 0z" fill="#888a85" fill-opacity=".75"/>
  <path transform="matrix(.79687 -.071186 .066684 .85067 15.967 100.52)" d="m328 622.86a40 59.5 0 1 1 -80 0 40 59.5 0 1 1 80 0z" fill="url(#d)" fill-opacity=".75"/>
  <path transform="matrix(.58888 .50618 -.46096 .70093 430.85 -99)" d="m328 622.86a40 59.5 0 1 1 -80 0 40 59.5 0 1 1 80 0z" fill="#888a85" fill-opacity=".75"/>
  <path transform="matrix(.49704 .42724 -.38907 .59161 412.53 -8.1749)" d="m328 622.86a40 59.5 0 1 1 -80 0 40 59.5 0 1 1 80 0z" fill="url(#d)" fill-opacity=".75"/>
  <path transform="matrix(.23632 .20313 -.18499 .28129 356.5 247.66)" d="m328 622.86a40 59.5 0 1 1 -80 0 40 59.5 0 1 1 80 0z"/>
  <path transform="matrix(.43281 -.038664 .036219 .46203 133.79 331.22)" d="m328 622.86a40 59.5 0 1 1 -80 0 40 59.5 0 1 1 80 0z"/>
  <path transform="matrix(.25216 -.012697 .021102 .15173 194.73 499.74)" d="m328 622.86a40 59.5 0 1 1 -80 0 40 59.5 0 1 1 80 0z" fill="url(#j)"/>
  <path transform="matrix(-.016592 .24537 -.15197 -.0060383 413.13 407.14)" d="m328 622.86a40 59.5 0 1 1 -80 0 40 59.5 0 1 1 80 0z" fill="url(#u)"/>
 </g>
 <g transform="matrix(.95981 0 0 .95981 4.7924 8.048)" fill-rule="evenodd">
  <path d="m224.56 424.36c44-8.6372 112.15-11.929 156.15-1.9203-41.255 53.868-50.622 142.19-26.265 244.92l-118.5 30-84.985-1.1213c-34-139.21 12.089-218.04 73.597-271.88z" fill="#555753"/>
  <path d="m224.56 424.36c44-8.6372 112.15-11.929 156.15-1.9203-41.255 53.868-50.622 142.19-26.265 244.92l-118.5 30-84.985-1.1213c-34-139.21 12.089-218.04 73.597-271.88z" fill="url(#k)"/>
  <path d="m225.3 426.65 26.627-4.6163c-66.976 26.768-100.23 154.88-47.389 275.49l-55.51-0.97453c-34.753-159.76 21.549-221.67 76.273-269.9z" fill="url(#t)"/>
  <path d="m296.2 416.96c30.919-3.3648 46.657-3.4946 85.354 4.4656-32.255 54.367-51.469 144.6-27.112 248.28l-123 29.269c-31.776-112.15-1.9579-221.31 64.758-282.01z" fill="#2e3436"/>
  <path d="m296.2 416.96c30.919-3.3648 46.657-3.4946 85.354 4.4656-32.255 54.367-51.469 144.6-27.112 248.28l-124.14 26.706c-31.776-112.15-0.81887-218.75 65.897-279.45z" fill="url(#s)"/>
  <path transform="matrix(.89814 -.080234 .07516 .95878 -18.48 35.781)" d="m328 622.86a40 59.5 0 1 1 -80 0 40 59.5 0 1 1 80 0z" fill="#888a85" fill-opacity=".75"/>
  <path transform="matrix(.79687 -.071186 .066684 .85067 15.967 100.52)" d="m328 622.86a40 59.5 0 1 1 -80 0 40 59.5 0 1 1 80 0z" fill="url(#d)" fill-opacity=".75"/>
  <path transform="matrix(.58888 .50618 -.46096 .70093 430.85 -99)" d="m328 622.86a40 59.5 0 1 1 -80 0 40 59.5 0 1 1 80 0z" fill="#888a85" fill-opacity=".75"/>
  <path transform="matrix(.49704 .42724 -.38907 .59161 412.53 -8.1749)" d="m328 622.86a40 59.5 0 1 1 -80 0 40 59.5 0 1 1 80 0z" fill="url(#d)" fill-opacity=".75"/>
  <path transform="matrix(.23632 .20313 -.18499 .28129 356.5 247.66)" d="m328 622.86a40 59.5 0 1 1 -80 0 40 59.5 0 1 1 80 0z"/>
  <path transform="matrix(.43281 -.038664 .036219 .46203 133.79 331.22)" d="m328 622.86a40 59.5 0 1 1 -80 0 40 59.5 0 1 1 80 0z"/>
  <path transform="matrix(.25216 -.012697 .021102 .15173 194.73 499.74)" d="m328 622.86a40 59.5 0 1 1 -80 0 40 59.5 0 1 1 80 0z" fill="url(#j)"/>
  <path transform="matrix(.19022 -.20357 .096217 .063263 195.83 492.56)" d="m328 622.86a40 59.5 0 1 1 -80 0 40 59.5 0 1 1 80 0z" fill="url(#r)"/>
  <path transform="matrix(.26408 .013297 .022098 -.1589 192.86 718.66)" d="m328 622.86a40 59.5 0 1 1 -80 0 40 59.5 0 1 1 80 0z" fill="url(#i)" opacity=".53684"/>
 </g>
 <g transform="matrix(-.54014 0 0 .54014 716.62 227.79)" fill-rule="evenodd">
  <g transform="matrix(1.3478 0 0 1.3478 -170.57 -229.57)">
   <path d="m372.5 734.36h173.21l0.29446-13-19.208-44.878h-110.54l-43.25 44.878-0.5 13z" fill="#2e3436"/>
   <path d="m412 674.36h123l11 47h-173l39-47z" fill="#555753"/>
   <path d="m416.84 676.76h110.47l9.879 42.21h-155.37l35.026-42.21z" fill="url(#h)"/>
   <path transform="matrix(.72324 0 0 .71981 68.512 348.66)" d="m627 483.86a75 23.5 0 1 1 -150 0 75 23.5 0 1 1 150 0z"/>
   <path transform="matrix(.24181 0 0 .21199 334.26 592.38)" d="m627 483.86a75 23.5 0 1 1 -150 0 75 23.5 0 1 1 150 0z" fill="#fff" fill-opacity=".67021"/>
   <path transform="matrix(.68585 0 0 .65069 89.156 382.1)" d="m627 483.86a75 23.5 0 1 1 -150 0 75 23.5 0 1 1 150 0z" fill="url(#g)"/>
  </g>
  <g transform="matrix(-1.0801 0 0 1.0801 944.94 -39.051)">
   <path d="m504.51 708.82v5.5538c0 2.8976 7.5233 5.253 16.815 5.253s16.842-2.3554 16.842-5.253v-5.5538c0.13178-6.4109-32.838-5.8573-33.657 0z" fill-opacity=".25532"/>
   <path d="m520.42 698.77c-7.9132 0.18796-14.157 2.2692-14.157 4.7848v7.5514c0 2.6393 6.8527 4.7848 15.316 4.7848s15.341-2.1455 15.341-4.7848v-7.5514c0-2.6393-6.8774-4.7848-15.341-4.7848-0.39673 0-0.77002-0.00924-1.1592 0z" fill="#2e3436"/>
   <path transform="rotate(15)" d="m625.8 540.67 74.667-0.32229v7l-65.356-0.0613-0.22176 8.0091-2.5764 0.58746-6.5123-15.213z" fill="#2e3436"/>
   <path transform="rotate(15)" d="m638.23 544.35h36.997a3.5 2.6123 0 0 1 3.5 2.6123v1.7754a3.5 2.6123 0 0 1 -3.5 2.6123h-36.997a3.5 2.6123 0 0 1 -3.5 -2.6123v-1.7754a3.5 2.6123 0 0 1 3.5 -2.6123" fill-opacity=".38298"/>
   <path d="m506.26 706.05v5.0587c0 2.6393 6.8527 4.7848 15.316 4.7848s15.341-2.1455 15.341-4.7848v-5.0587c-9.8995 3.7246-23.763 3.318-30.657 0z" fill="#1c2021"/>
   <path d="m520.8 700.79c-5.3092 0.1261-9.4983 1.5224-9.4983 3.2102v0.41627c0 1.7708 4.5976 3.2102 10.276 3.2102s10.293-1.4394 10.293-3.2102v-0.41627c0-1.7708-4.6142-3.2102-10.293-3.2102-0.26618 0-0.51663-0.0062-0.77774 0z" fill="url(#f)"/>
   <path transform="rotate(15)" d="m628.77 547.9 6.3387-0.61069 0.50862 11.942-1.9666 0.44842-4.8807-11.78z"/>
  </g>
  <g transform="matrix(.58271 0 0 .58271 109.09 289.76)">
   <path d="m553.47 713.26 4.1128 18.75c0.21625 2.6221 5.6846 4.777 12.706 4.777s8.455-2.207 9.0187-4.777l4.1128-18.75c0.13178-7.7156-29.131-7.0493-29.95 0z" fill-opacity=".42553"/>
   <path d="m565.66 701.91c-7.9132 0.18796-14.157 2.2692-14.157 4.7848l5.7347 19.221c0 1.6519 4.289 2.9947 9.5861 2.9947s9.6015-1.3428 9.6015-2.9947l5.7347-19.221c0-2.6393-6.8774-4.7848-15.341-4.7848-0.39673 0-0.77002-0.00924-1.1592 0z" fill="#1c2021"/>
   <path d="m580.77 709.18-3.7113 16.913c0 1.8314-3.7612 3.3202-8.4064 3.3202s-8.4199-1.4888-8.4199-3.3202l-3.7113-16.913c7.8302 3.7246 18.796 3.318 24.249 0z" fill="#2e3436"/>
  </g>
  <path d="m442.73 703.11-6.7841-1.1349 2.8079-8.2814 2.1772 0.08194 1.799 9.3344z"/>
 </g>
 <path transform="matrix(.21337 .011226 .017855 -.13415 225.8 557.24)" d="m328 622.86a40 59.5 0 1 1 -80 0 40 59.5 0 1 1 80 0z" fill="url(#i)" fill-rule="evenodd" opacity=".53684"/>
 <path d="m389.73 574.13c11.032-1.8085 52.801-1.174 45.586-20.524-7.6391-20.487-30.076-5.9399-25.293-23.865 4.3682-16.371 42.133-2.0102 49.499 13.29 6.5324 13.568 16.521 67.435-66.364 65.62-12.758-0.2812-14.461-32.713-3.4284-34.521z" fill="#ff6633" fill-rule="evenodd"/>
 <path d="m389.16 573.37c10.165-1.6664 42.328 9.6451 54.091-5.3124 7.563-9.617 15.942 1.6582 9.5743 13.28s-22.321 24.677-60.507 23.841c-11.755-0.2591-13.324-30.142-3.159-31.808z" fill="url(#w)" fill-rule="evenodd"/>
 <path d="m423.02 566.84c13.719 1.3633 14.811 50-12.493 41.756-6.517-1.9678-23.812-4.9116-21.388-26.287 2.3594-20.804 20.238-16.825 33.881-15.469z" fill="#ce5c00" fill-rule="evenodd"/>
 <path d="m416.46 573.95c12.843 0.7568 10.364 35.275-5.9332 34.65-6.8026-0.26075-23.812-4.9116-21.388-26.287 2.3594-20.804 14.478-9.12 27.321-8.3632z" fill="url(#x)" fill-rule="evenodd"/>
 <path d="m433.77 556.7c-7.6391-20.487-30.076-5.9399-25.293-23.865 4.3682-16.371 42.133-2.0102 49.499 13.29 6.5324 13.568-16.991 29.925-24.206 10.575z" fill="url(#y)" fill-rule="evenodd"/>
 <path d="m418.01 540.71c-5.9662-1.1648-10.38-2.0095-7.9882-10.972 2.1841-8.1855 3.4409-10.234 14.349-6.7777s-0.3945 18.915-6.3607 17.75z" fill-opacity=".15957" fill-rule="evenodd"/>
 <path d="m363.82 550.99c51.12-6.1759 59.039 105.31 59.039 105.31-36.521 2.042-71.657 9.1625-111.01 0.8237-21.294-36.804 1.6119-100.05 51.97-106.13z" fill="#ce5c00" fill-rule="evenodd"/>
 <path d="m394.59 576.89c1.6901 18.959 9.8506 71.962-33.817 83.663 18.162-0.66363 25.564-0.11385 41.338-3.428 25.932-48.013-9.2453-99.578-7.521-80.235z" fill="url(#z)" fill-rule="evenodd" opacity=".38421"/>
 <path d="m338 573.48c-0.12614 7.8003-26.925 77.456 19.735 87.218-32.219 0.80922-24.353-0.6583-46.285-3.0974-22.704-42.035 6.4023-91.241 26.55-84.12z" fill="url(#aa)" fill-rule="evenodd" opacity=".58421"/>
 <path d="m401.09 571.88c0-14.672-7.7731-16.918-26.399-16.918s-35.289 8.816-41.087 16.918c-8.5387 11.932 15.117 26.581 33.743 26.581s33.743-11.908 33.743-26.581z" fill="url(#ab)" fill-rule="evenodd"/>
 <path d="m350.94 562.4c-26.257 42.306-9.8397 82.409-9.8397 82.409l-23.452 4.4192c-10.227-17.745-9.3469-80.08 33.292-86.828z" fill="url(#ac)" fill-rule="evenodd"/>
 <path transform="matrix(.92383 0 0 .92383 -47.71 1.0944)" d="m507 568.36a53 53 0 1 1 -106 0 53 53 0 1 1 106 0z" fill="#ff6633" fill-rule="evenodd"/>
 <path d="m414.87 529.83c0 23.827-19.338 43.165-43.165 43.165s-43.165-19.338-43.165-43.165c9.808 30.166 79.234 36.66 86.33 0z" fill="url(#ad)" fill-rule="evenodd" opacity=".40526"/>
 <path d="m393.65 516.02c-11.613-21.374-22.168-28.944-38.451-28.038 20.114-12.34 45.864-5.0086 57.477 16.365s-7.4132 33.047-19.026 11.673z" fill="url(#ae)" fill-rule="evenodd"/>
 <path d="m352.14 514.69c-11.694 20.254-12.592 33.045-3.6504 46.815-20.254-11.694-27.201-37.622-15.508-57.875s37.622-27.201 57.875-15.508c-18.286 8.3784-27.024 6.3148-38.717 26.569z" fill="url(#af)" fill-rule="evenodd"/>
 <path transform="matrix(.67312 0 0 -.23327 75.471 770.01)" d="m507 568.36a53 53 0 1 1 -106 0 53 53 0 1 1 106 0z" fill-opacity=".28723" fill-rule="evenodd"/>
 <g transform="matrix(.77303 0 0 .77303 82.594 120.55)" fill-rule="evenodd">
  <g transform="matrix(-1.3478 0 0 1.3478 1146.7 -239.27)">
   <path d="m372.5 734.36h173.21l0.29446-13-19.208-44.878h-110.54l-43.25 44.878-0.5 13z" fill="#2e3436"/>
   <path d="m412 674.36h123l11 47h-173l39-47z" fill="#555753"/>
   <path d="m416.84 676.76h110.47l9.879 42.21h-155.37l35.026-42.21z" fill="url(#h)"/>
   <path transform="matrix(.72324 0 0 .71981 68.512 348.66)" d="m627 483.86a75 23.5 0 1 1 -150 0 75 23.5 0 1 1 150 0z"/>
   <path transform="matrix(.24181 0 0 .21199 334.26 592.38)" d="m627 483.86a75 23.5 0 1 1 -150 0 75 23.5 0 1 1 150 0z" fill="#fff" fill-opacity=".67021"/>
   <path transform="matrix(.68585 0 0 .65069 89.156 382.1)" d="m627 483.86a75 23.5 0 1 1 -150 0 75 23.5 0 1 1 150 0z" fill="url(#g)"/>
  </g>
  <g transform="matrix(1.0801 0 0 1.0801 31.171 -48.753)">
   <path d="m504.51 708.82v5.5538c0 2.8976 7.5233 5.253 16.815 5.253s16.842-2.3554 16.842-5.253v-5.5538c0.13178-6.4109-32.838-5.8573-33.657 0z" fill-opacity=".25532"/>
   <path d="m520.42 698.77c-7.9132 0.18796-14.157 2.2692-14.157 4.7848v7.5514c0 2.6393 6.8527 4.7848 15.316 4.7848s15.341-2.1455 15.341-4.7848v-7.5514c0-2.6393-6.8774-4.7848-15.341-4.7848-0.39673 0-0.77002-0.00924-1.1592 0z" fill="#2e3436"/>
   <path transform="rotate(15)" d="m625.8 540.67 74.667-0.32229v7l-65.356-0.0613-0.22176 8.0091-2.5764 0.58746-6.5123-15.213z" fill="#2e3436"/>
   <path transform="rotate(15)" d="m638.23 544.35h36.997a3.5 2.6123 0 0 1 3.5 2.6123v1.7754a3.5 2.6123 0 0 1 -3.5 2.6123h-36.997a3.5 2.6123 0 0 1 -3.5 -2.6123v-1.7754a3.5 2.6123 0 0 1 3.5 -2.6123" fill-opacity=".38298"/>
   <path d="m506.26 706.05v5.0587c0 2.6393 6.8527 4.7848 15.316 4.7848s15.341-2.1455 15.341-4.7848v-5.0587c-9.8995 3.7246-23.763 3.318-30.657 0z" fill="#1c2021"/>
   <path d="m520.8 700.79c-5.3092 0.1261-9.4983 1.5224-9.4983 3.2102v0.41627c0 1.7708 4.5976 3.2102 10.276 3.2102s10.293-1.4394 10.293-3.2102v-0.41627c0-1.7708-4.6142-3.2102-10.293-3.2102-0.26618 0-0.51663-0.0062-0.77774 0z" fill="url(#f)"/>
   <path transform="rotate(15)" d="m628.77 547.9 6.3387-0.61069 0.50862 11.942-1.9666 0.44842-4.8807-11.78z"/>
  </g>
  <g transform="matrix(-.58271 0 0 .58271 867.02 280.06)">
   <path d="m553.47 713.26 4.1128 18.75c0.21625 2.6221 5.6846 4.777 12.706 4.777s8.455-2.207 9.0187-4.777l4.1128-18.75c0.13178-7.7156-29.131-7.0493-29.95 0z" fill-opacity=".42553"/>
   <path d="m565.66 701.91c-7.9132 0.18796-14.157 2.2692-14.157 4.7848l5.7347 19.221c0 1.6519 4.289 2.9947 9.5861 2.9947s9.6015-1.3428 9.6015-2.9947l5.7347-19.221c0-2.6393-6.8774-4.7848-15.341-4.7848-0.39673 0-0.77002-0.00924-1.1592 0z" fill="#1c2021"/>
   <path d="m580.77 709.18-3.7113 16.913c0 1.8314-3.7612 3.3202-8.4064 3.3202s-8.4199-1.4888-8.4199-3.3202l-3.7113-16.913c7.8302 3.7246 18.796 3.318 24.249 0z" fill="#2e3436"/>
  </g>
  <path d="m533.38 693.4 6.7841-1.1349-2.8079-8.2814-2.1772 0.08194-1.799 9.3344z"/>
 </g>
 <path d="m370.16 581.37c1.8085 11.032-3.1989 39.683 24.35 35.747 21.645-3.0921 49.057-2.0544 52.18 16.234 2.7056 15.847-1.5461 27.829-9.2764 27.056-5.439-0.5439-9.3749-21.53-22.489-24.003-14.798-2.7899-54.041 13.18-64.864 1.5849s-14.051-51.751-10.049-60.296c5.4112-11.557 28.34-7.3547 30.148 3.6776z" fill="#ff6633" fill-rule="evenodd"/>
 <path d="m353.34 565.52c25.334-2.5784 25.276 39.389 25.276 39.389l-44.134 13.945c-8.9984-15.598-6.6689-50.756 18.858-53.334z" fill="#ce5c00" fill-rule="evenodd"/>
 <path d="m351.71 570.13c-13.166 21.214-4.934 41.323-4.934 41.323l-11.76 2.2159c-5.1282-8.8981-4.6868-40.155 16.694-43.539z" fill="url(#ag)" fill-rule="evenodd"/>
 <path d="m362.09 621.83c17.681-4.2182 16.53-16.912 16.53-16.912l-44.134 13.945c5.2136 8.9998 9.6641 7.2469 27.604 2.967z" fill="url(#ah)" fill-rule="evenodd"/>
 <g transform="matrix(.77303 0 0 .77303 -14.808 109.73)" fill-rule="evenodd">
  <path d="m485.69 504.16c-12.954-0.40615-24.806 8.8845-29.433 20.667-3.9897 9.6395-2.4615 21.206 3.818 29.53 7.1348 9.7823 19.88 15.398 31.901 13.123 17.584-3.0634 30.18-22.985 24.859-40.145-4.0067-13.226-17.038-23.834-31.145-23.175zm0.375 12.562c12.384-0.33066 22.616 13.722 18.25 25.38-3.6189 11.337-19.065 16.883-28.865 9.902-8.7814-5.902-11.503-19.708-4.3701-27.908 3.6414-4.4348 9.2306-7.2575 14.986-7.374z" fill-opacity=".88298"/>
  <path d="m484.91 504.22c-12.155 0.05573-23.157 8.343-27.594 19.469-3.7924 9.0871-1.8579 20.203 4.5965 27.591 8.0416 9.831 22.38 14.368 34.49 9.9219 10.608-3.6981 18.809-13.791 20.124-25.074 0.8483-6.4881-1.0898-13.021-4.7733-18.345-5.8964-8.585-16.274-14.279-26.844-13.562zm2.0938 3.7188c13.682 0.0828 26.397 12.476 25.82 26.343-0.70766 12.758-11.661 24.066-24.444 24.809-11.688 0.87637-23.419-6.2934-27.658-17.182-2.2369-5.9987-1.8948-13.102 1.0312-18.812 4.4676-9.0631 14.061-15.507 24.281-15.141 0.32221-0.03184 0.64624-0.00883 0.96924-0.01566z" fill="url(#q)"/>
  <path d="m481.45 528.21c-1.6142-49.421 26.598-64.341 40.391-48.518-23.499-1.0827-19.999 49.833-19.999 49.833-1.7256 5.7331-20.392 8.1319-20.392-1.3148z" fill-opacity=".25532"/>
  <path transform="translate(87.596 -4.8076)" d="m423.91 540.77a25.456 25.456 0 1 1 -50.912 0 25.456 25.456 0 1 1 50.912 0z" fill="#330099"/>
  <path transform="matrix(.78035 0 0 .42046 174.59 297.67)" d="m423.91 540.77a25.456 25.456 0 1 1 -50.912 0 25.456 25.456 0 1 1 50.912 0z" fill="url(#p)"/>
  <path d="m478.63 529.6c-1.6142-55.514 29.348-73.959 38.891-51.972-24.749-3.182-24.749 52.326-24.749 52.326-1.7256 6.44-14.142 10.258-14.142-0.35355z" fill="#330099"/>
  <path d="m480.39 523.95c-1.4677-50.475 26.684-67.246 35.361-47.255-26.574-9.6784-29.761 45.479-28.502 47.576-1.569 5.8554-6.8585 9.3268-6.8585-0.32146z" fill="url(#o)"/>
  <path transform="matrix(.56163 0 0 -.30261 261.74 714.68)" d="m423.91 540.77a25.456 25.456 0 1 1 -50.912 0 25.456 25.456 0 1 1 50.912 0z" fill="url(#n)" opacity=".56842"/>
 </g>
 <path d="m356.63 631.74c9.8432 4.859 21.112 0.12981 31.428-0.74887 12.468-2.5628 27.305-6.599 38.579 1.377 6.2402 4.9363 8.7856 13.316 13.939 18.794 3.8012-3.9324 2.5779-10.087 3.2612-15.098-0.26359-7.9983-6.4383-15.337-14.398-16.354-15.057-4.5387-31.002 2.1205-46.14-0.99044-10.982-3.3891-36.4 0.99412-26.67 13.021z" fill="url(#ai)" fill-rule="evenodd"/>
</svg>
