<?xml version="1.0" encoding="UTF-8"?>
<svg viewBox="0 0 719.425 719.4375" xmlns="http://www.w3.org/2000/svg">
 <g transform="matrix(1.25 0 0 -1.25 0 719.44)">
  <g transform="scale(.24)">
   <path d="m215.07 2395h1967.9c116.57 0 211.95-95.37 211.95-211.92v-1968c0-116.62-95.38-212-211.95-212h-1967.9c-116.55 0-211.94 95.375-211.94 212v1968c0 116.55 95.398 211.92 211.94 211.92" fill="#fff"/>
   <path d="m215.07 2395h1967.9c116.57 0 211.95-95.37 211.95-211.92v-1968c0-116.62-95.38-212-211.95-212h-1967.9c-116.55 0-211.94 95.375-211.94 212v1968c0 116.55 95.398 211.92 211.94 211.92z" fill="none" stroke="#231f20" stroke-width="6.25"/>
   <path d="m215.07 2334.4h1967.9c83.33 0 151.42-68.08 151.42-151.3v-1968c0-83.312-68.09-151.44-151.42-151.44h-1967.9c-83.238 0-151.41 68.129-151.41 151.44v1968c0 83.22 68.176 151.3 151.41 151.3" fill="#330099" fill-rule="evenodd"/>
   <path d="m952.55 1809.4c85.813 7.93 152.47 81.85 152.47 168.31 0 93.05-75.91 168.94-168.89 168.94-93.09 0-169-75.89-169-168.94 0-28.38 7.93-57.43 21.121-81.87l60.223-847.07 620.04-0.22 254.26-595.84 333.91 130.94-51.72 123.1-186.89-67.403-245.99 568.03-576.54-3.85-7.879 107.25 417.34-0.14v158.69l-433.25 0.22-19.199 339.84" fill="#fff" fill-rule="evenodd"/>
   <path d="m1576.2 594.57c-104.59-206.84-323.7-343.15-557.3-343.15-343.16 0-623.04 279.9-623.04 623.06 0 240.89 146.01 464.8 363.92 564.05l14.078-183.98c-128.85-81.23-208.29-227.77-208.29-381.36 0-248.91 203.06-451.97 452.02-451.97 227.71 0 421.88 174.75 448.36 399l110.26-225.64" fill="#fff" fill-rule="evenodd"/>
  </g>
 </g>
</svg>
