<?xml version="1.0" encoding="iso-8859-1"?>
<!-- Generator: Adobe Illustrator 19.0.0, SVG Export Plug-In . SVG Version: 6.00 Build 0)  -->
<svg version="1.1" id="Capa_1" xmlns="http://www.w3.org/2000/svg" xmlns:xlink="http://www.w3.org/1999/xlink" x="0px" y="0px"
	 viewBox="0 0 496 496" style="enable-background:new 0 0 496 496;" xml:space="preserve">
<g>
	<path style="fill:#330099;" d="M295.76,207.528c-5.248-10.328-7.76-21.832-7.76-33.416V152h-16v6.64
		c0,12.992-9.728,24.648-22.712,25.32C235.448,184.688,224,173.68,224,160v-8h-16v22.112c0,11.584-2.512,23.088-7.76,33.416
		c-5.416,10.648-8.24,22.424-8.24,34.36V264h24c8.84,0,16,7.16,16,16v16h48c8.84,0,16,7.16,16,16v16h8v-86.112
		C304,229.952,301.176,218.176,295.76,207.528z"/>
	<path style="fill:#330099;" d="M408,424c-30.872,0-56-25.128-56-56s25.128-56,56-56s56,25.128,56,56S438.872,424,408,424z"/>
	<path style="fill:#330099;" d="M88,424c-30.872,0-56-25.128-56-56s25.128-56,56-56s56,25.128,56,56S118.872,424,88,424z"/>
</g>
<g>
	<path style="fill:#330099;" d="M472,264H352v-43.712c0-20.376-7.936-39.536-22.344-53.944C315.248,151.936,296.096,144,275.72,144
		H248h-27.72c-20.376,0-39.528,7.936-53.936,22.344C151.936,180.752,144,199.912,144,220.288V264H24c-13.232,0-24,10.768-24,24v208
		h176v-16h144v16h176V288C496,274.768,485.232,264,472,264z M336,220.288v45.192c-9.288,3.312-16,12.112-16,22.528v32h-8v-78.112
		c0-12.928-3.056-25.88-8.84-37.464c-4.68-9.376-7.16-19.856-7.16-30.32V163.56c8.296,2.96,15.928,7.688,22.344,14.096
		C329.728,189.04,336,204.184,336,220.288z M320,368H176v-32h16h112h16V368z M216,174.112v-13.904c0.008,0,0.016,0,0.024,0
		C216.136,177.752,230.424,192,248,192s31.864-14.248,31.976-31.792c0.008,0,0.016,0,0.024,0v13.904
		c0,12.928,3.056,25.88,8.84,37.464c4.68,9.368,7.16,19.848,7.16,30.312v52.352c-4.256-3.84-9.832-6.24-16-6.24h-41.472
		c0.896-2.512,1.472-5.184,1.472-8c0-13.232-10.768-24-24-24h-16v-14.112c0-10.464,2.48-20.944,7.16-30.312
		C212.944,200,216,187.04,216,174.112z M208,312c0-4.408,3.584-8,8-8h64c4.416,0,8,3.592,8,8v8h-80V312z M216,272
		c4.416,0,8,3.592,8,8s-3.584,8-8,8h-40c0-6.168-2.408-11.744-6.24-16H216z M176,304h17.472c-0.896,2.512-1.472,5.184-1.472,8v8h-16
		V304z M264,160c0,8.824-7.176,16-16,16s-16-7.176-16-16H264z M177.656,177.656c6.416-6.416,14.048-11.136,22.344-14.096v10.552
		c0,10.464-2.48,20.944-7.16,30.312C187.056,216,184,228.96,184,241.888V256h-24v-35.712
		C160,204.184,166.272,189.04,177.656,177.656z M16,480v-16h112v-16H16V288c0-4.408,3.584-8,8-8h128c4.416,0,8,3.592,8,8v32v64v64
		h-16v16h16v16H16z M176,464v-80h144v80H176z M336,480v-16h112v-16H336v-64v-64v-32c0-4.408,3.584-8,8-8h128c4.416,0,8,3.592,8,8
		v160h-16v16h16v16H336z"/>
	<path style="fill:#330099;" d="M408,344c-13.232,0-24,10.768-24,24s10.768,24,24,24s24-10.768,24-24S421.232,344,408,344z M408,376
		c-4.416,0-8-3.592-8-8s3.584-8,8-8s8,3.592,8,8S412.416,376,408,376z"/>
	<path style="fill:#330099;" d="M88,344c-13.232,0-24,10.768-24,24s10.768,24,24,24s24-10.768,24-24S101.232,344,88,344z M88,376
		c-4.416,0-8-3.592-8-8s3.584-8,8-8s8,3.592,8,8S92.416,376,88,376z"/>
	<path style="fill:#330099;" d="M312,80V64h32V48h-34.104C302.76,20.44,277.752,0,248,0c-35.288,0-64,28.712-64,64v16
		c0,35.288,28.712,64,64,64S312,115.288,312,80z M248,16c20.856,0,38.592,13.384,45.2,32h-90.4C209.408,29.384,227.144,16,248,16z
		 M248,128c-26.472,0-48-21.528-48-48V64h96v16C296,106.472,274.472,128,248,128z"/>
	<rect x="288" y="432" style="fill:#330099;" width="16" height="16"/>
	<rect x="256" y="432" style="fill:#330099;" width="16" height="16"/>
</g>
<g>
</g>
<g>
</g>
<g>
</g>
<g>
</g>
<g>
</g>
<g>
</g>
<g>
</g>
<g>
</g>
<g>
</g>
<g>
</g>
<g>
</g>
<g>
</g>
<g>
</g>
<g>
</g>
<g>
</g>
</svg>
