<?xml version="1.0" encoding="iso-8859-1"?>
<!-- Generator: Adobe Illustrator 19.0.0, SVG Export Plug-In . SVG Version: 6.00 Build 0)  -->
<svg xmlns="http://www.w3.org/2000/svg" xmlns:xlink="http://www.w3.org/1999/xlink" version="1.1" id="Capa_1" x="0px" y="0px" viewBox="0 0 496 496" style="enable-background:new 0 0 496 496;" xml:space="preserve" width="512px" height="512px">
<g>
	<g>
		<g>
			<path d="M416,80c0-8.824-7.176-16-16-16h-48c-8.824,0-16,7.176-16,16H0v352h496V80H416z M416,144v-2.448     c5.12,7.752,8,16.92,8,26.448c0,17.248-9.52,32.92-24,41.384V160C408.824,160,416,152.824,416,144z M352,80h48l0.008,64H352V80z      M367.84,226.976c0.024-0.552,0.16-1.08,0.16-1.64V160h16v75.056L367.84,226.976z M383.16,252.52     c-1.52,7.352-5.12,14.12-10.56,19.56c-3.632,3.632-7.936,6.384-12.6,8.32v-30.104c1.624-2.296,3.008-4.728,4.152-7.28     L383.16,252.52z M352,160v49.384c-14.48-8.464-24-24.136-24-41.384c0-9.536,2.88-18.696,8-26.448V144     C336,152.824,343.176,160,352,160z M480,416H16V96h320v22.184c-15.048,12.112-24,30.368-24,49.816     c0,25.976,16.152,49.312,39.832,59.048c-0.416,6.664-3.096,12.896-7.856,17.664c-2.848,2.848-6.368,5.08-10.168,6.432     l-21.904,7.824c0.024-0.992,0.096-1.976,0.096-2.968c0-74.992-61.008-136-136-136S40,181.008,40,256s61.008,136,136,136     c55.104,0,104.088-32.68,125.376-83.368l53.832-10.096c10.92-2.048,20.848-7.288,28.704-15.144     C394.288,273.024,400,259.232,400,244.568V227.12c23.776-9.696,40-33.08,40-59.12c0-19.448-8.952-37.704-24-49.816V96h64V416z      M176,192c-35.288,0-64,28.712-64,64c0,35.288,28.712,64,64,64c3,0,5.984-0.232,8.936-0.64C188.28,333.448,200.896,344,216,344     c15.32,0,28.12-10.824,31.24-25.216l34.704-6.504C261.264,351.328,220.952,376,176,376c-66.168,0-120-53.832-120-120     s53.832-120,120-120s120,53.832,120,120c0,2.928-0.136,5.856-0.352,8.776l-60.624,21.648c-0.664-0.496-1.328-0.984-2.032-1.424     c4.568-8.944,7.008-18.808,7.008-29C240,220.712,211.288,192,176,192z M216,296c8.824,0,16,7.176,16,16c0,8.824-7.176,16-16,16     c-8.824,0-16-7.176-16-16C200,303.176,207.176,296,216,296z M185.464,302.944C182.36,303.568,179.208,304,176,304     c-26.472,0-48-21.528-48-48s21.528-48,48-48s48,21.528,48,48c0,8.592-2.376,16.816-6.656,24.136     C216.888,280.12,216.456,280,216,280C201.52,280,189.4,289.728,185.464,302.944z M246.448,302.648     c-0.304-1-0.528-2.032-0.928-2.984l93.68-33.456c1.64-0.584,3.24-1.296,4.808-2.08v20.232L246.448,302.648z" fill="#330099"/>
			<path d="M176,232c-13.232,0-24,10.768-24,24s10.768,24,24,24s24-10.768,24-24S189.232,232,176,232z M176,264     c-4.416,0-8-3.592-8-8c0-4.408,3.584-8,8-8s8,3.592,8,8S180.416,264,176,264z" fill="#330099"/>
			<path d="M440,240c-13.232,0-24,10.768-24,24h-16v16h16v8h-16v16h16v8h-16v16h16v8h-16v16h16v8h-16v16h16     c0,13.232,10.768,24,24,24s24-10.768,24-24V264C464,250.768,453.232,240,440,240z M448,376c0,4.408-3.584,8-8,8     c-4.416,0-8-3.592-8-8v-16h16V376z M448,344h-16v-48h16V344z M448,280h-16v-16c0-4.408,3.584-8,8-8c4.416,0,8,3.592,8,8V280z" fill="#330099"/>
			<rect x="328" y="320" width="32" height="16" fill="#330099"/>
			<rect x="328" y="352" width="32" height="16" fill="#330099"/>
			<rect x="328" y="384" width="32" height="16" fill="#330099"/>
			<rect x="32" y="112" width="16" height="16" fill="#330099"/>
			<rect x="32" y="384" width="16" height="16" fill="#330099"/>
			<rect x="448" y="112" width="16" height="16" fill="#330099"/>
			<path d="M77.92,221.328L93,226.664C105.408,191.576,138.76,168,176,168v-16C131.992,152,92.576,179.864,77.92,221.328z" fill="#330099"/>
			<path d="M72,256h16c0-4.928,0.408-9.864,1.216-14.664l-15.784-2.656C72.488,244.352,72,250.184,72,256z" fill="#330099"/>
		</g>
	</g>
</g>
<g>
</g>
<g>
</g>
<g>
</g>
<g>
</g>
<g>
</g>
<g>
</g>
<g>
</g>
<g>
</g>
<g>
</g>
<g>
</g>
<g>
</g>
<g>
</g>
<g>
</g>
<g>
</g>
<g>
</g>
</svg>
